<?xml version="1.0" encoding="UTF-8"?>
<svg id="_Шар_2" data-name="Шар 2" xmlns="http://www.w3.org/2000/svg" viewBox="0 0 233.48 233">
  <defs>
    <style>
      .cls-1 {
        fill: #48424c;
      }
    </style>
  </defs>
  <g id="Ebene_40" data-name="Ebene 40">
    <g id="grafik">
      <g>
        <g>
          <path class="cls-1" d="M61.77,174.1c0,.17-.03,.33-.1,.49-.06,.16-.13,.33-.21,.49-.33,.77-.68,1.51-1.05,2.25-.37,.73-.71,1.48-1,2.24-.49,1.28-.92,2.66-1.27,4.13-.36,1.48-.67,3.03-.93,4.65-.26,1.62-.48,3.3-.64,5.04-.16,1.73-.28,3.5-.36,5.31,.99,.2,1.89,.5,2.71,.9,.82,.4,1.61,.9,2.38,1.48,1.46-.91,2.81-2.04,4.05-3.38,1.24-1.34,2.38-2.81,3.41-4.39,1.03-1.59,1.96-3.25,2.78-4.98,.82-1.73,1.55-3.44,2.18-5.12s1.16-3.28,1.6-4.82c.44-1.53,.79-2.89,1.07-4.08,.07-.4,.25-.8,.52-1.2,.27-.4,.6-.77,.97-1.09,.37-.33,.78-.6,1.22-.81s.87-.32,1.29-.32,.72,.12,.9,.37c.18,.25,.27,.57,.27,.97v.38c-.2,1.7-.57,3.48-1.12,5.34-.55,1.86-1.24,3.74-2.07,5.62-.83,1.89-1.81,3.74-2.93,5.57-1.12,1.82-2.36,3.53-3.72,5.13-1.36,1.6-2.83,3.05-4.42,4.37s-3.27,2.4-5.04,3.26c.36,.31,.73,.63,1.08,.96s.73,.67,1.11,1.04c1.62,1.53,3.22,3.09,4.78,4.68,1.56,1.59,3.16,3.13,4.8,4.63s3.36,2.9,5.15,4.2c1.79,1.3,3.72,2.44,5.8,3.41,.55,.26,1.16,.51,1.83,.75,.67,.25,1.37,.46,2.08,.64,.71,.18,1.42,.33,2.12,.44,.7,.11,1.35,.16,1.96,.16,.31,0,.61-.01,.9-.04,.29-.03,.59-.09,.9-.18l.11,.58c-.78,.44-1.62,.74-2.52,.92-.89,.17-1.81,.26-2.74,.26-.71,0-1.47-.05-2.27-.15-.8-.1-1.61-.25-2.44-.44-.82-.19-1.62-.42-2.39-.68-.78-.26-1.47-.55-2.09-.86-1.86-.93-3.69-2.03-5.49-3.3-1.8-1.27-3.53-2.64-5.19-4.12-1.66-1.48-3.23-3.03-4.72-4.65-1.49-1.62-2.84-3.28-4.06-4.95-.26-.35-.51-.7-.75-1.07s-.5-.73-.75-1.09c-1.09,.35-2.24,.59-3.42,.74-.04,2.83,0,5.6,.11,8.32,.11,2.72,.26,5.32,.44,7.8l-.6,.22c-.46-1.19-.85-2.44-1.19-3.75-.34-1.31-.63-2.66-.86-4.05-.24-1.39-.43-2.79-.59-4.2-.16-1.41-.28-2.82-.37-4.23-.42-.04-.84-.11-1.27-.23-.43-.12-.82-.28-1.18-.49-.36-.21-.65-.48-.88-.81-.23-.33-.34-.72-.34-1.18s.1-.82,.31-1.14c.21-.32,.48-.59,.82-.81,.34-.22,.71-.39,1.12-.51,.41-.12,.82-.2,1.22-.23v-1.53c0-.89,0-2.02,.03-3.37,.02-1.35,.08-2.8,.18-4.35,.1-1.55,.26-3.13,.49-4.74,.23-1.61,.55-3.11,.96-4.52s.93-2.64,1.56-3.7c.63-1.06,1.41-1.82,2.34-2.3,.36-.2,.74-.38,1.14-.55,.39-.16,.8-.25,1.22-.25,.27,0,.52,.06,.74,.19,.22,.13,.33,.36,.33,.71Zm-11.96,27.23c0,.33,.1,.61,.3,.83,.2,.23,.46,.42,.78,.56,.32,.14,.66,.26,1.03,.34,.36,.08,.71,.14,1.04,.18-.07-1.42-.13-2.81-.16-4.16-.37,.04-.73,.09-1.08,.16s-.68,.2-.96,.37c-.28,.17-.51,.4-.68,.67-.17,.27-.26,.62-.26,1.04Zm6.27,1.78c1-.16,1.97-.44,2.9-.82-.4-.57-.83-1.08-1.27-1.55-.45-.46-.96-.85-1.55-1.16-.02,.58-.04,1.17-.05,1.76-.02,.59-.03,1.18-.03,1.76Z"/>
          <path class="cls-1" d="M97.9,206.84c-.33,.73-.74,1.39-1.25,1.97-.5,.58-1.04,1.08-1.63,1.49-.58,.41-1.19,.73-1.81,.96-.62,.23-1.21,.34-1.78,.34-1.06,0-1.95-.18-2.68-.55-.73-.37-1.32-.86-1.78-1.48-.46-.62-.78-1.35-.99-2.19-.2-.84-.3-1.73-.3-2.68,0-.73,.05-1.49,.16-2.27s.26-1.54,.47-2.27c.04-.11,.07-.24,.11-.4,.04-.15,.05-.29,.05-.4,0-.09-.05-.16-.16-.22-.31-.11-.64-.21-.99-.32-.35-.1-.69-.21-1.03-.34-.34-.13-.66-.27-.96-.44s-.56-.37-.78-.63c-.02,1.09-.2,2.2-.55,3.33-.35,1.12-.81,2.2-1.38,3.23-.57,1.03-1.25,1.99-2.01,2.89s-1.58,1.67-2.44,2.33l-.27-.28c.53-.58,1.01-1.28,1.45-2.08,.44-.8,.81-1.64,1.12-2.52,.31-.88,.55-1.76,.73-2.65,.17-.89,.26-1.73,.26-2.52,0-.4-.04-.78-.11-1.14-.07-.36-.15-.7-.23-1.03s-.16-.64-.23-.94c-.07-.3-.11-.61-.11-.92,0-.51,.16-.91,.49-1.2,.33-.29,.75-.44,1.26-.44,.27,0,.48,.08,.63,.23,.15,.16,.27,.34,.38,.56s.24,.45,.38,.68c.15,.24,.36,.44,.63,.6,.35,.2,.78,.35,1.31,.44,.53,.09,1.09,.17,1.67,.25,.58,.07,1.17,.15,1.75,.22,.58,.07,1.11,.2,1.57,.37s.84,.41,1.14,.71c.29,.3,.44,.71,.44,1.22,0,.26-.02,.51-.07,.75-.05,.25-.11,.48-.21,.7-.22,.77-.41,1.55-.56,2.34-.16,.79-.23,1.58-.23,2.37,0,.67,.05,1.29,.15,1.85,.1,.56,.29,1.04,.56,1.44,.27,.4,.64,.71,1.09,.93,.46,.22,1.04,.33,1.75,.33,1.02,0,1.92-.25,2.68-.75s1.44-1.16,2.03-1.99l.25,.11Z"/>
          <path class="cls-1" d="M110.6,206.84c-.42,.69-.92,1.33-1.49,1.9-.57,.58-1.2,1.08-1.89,1.51s-1.41,.76-2.19,1c-.78,.24-1.57,.36-2.39,.36-1.02,0-1.93-.17-2.72-.52s-1.46-.83-2-1.44c-.54-.61-.95-1.33-1.23-2.16-.28-.83-.42-1.74-.42-2.72,0-1.06,.15-2.06,.47-3.01,.31-.95,.74-1.84,1.29-2.67s1.19-1.59,1.93-2.29c.74-.69,1.53-1.31,2.37-1.86l.33,.25c-.89,1.06-1.62,2.24-2.18,3.56-.56,1.31-.83,2.68-.83,4.11,0,.82,.1,1.61,.29,2.37s.49,1.43,.9,2.01c.41,.58,.93,1.05,1.57,1.4,.64,.35,1.41,.52,2.33,.52,1.08,0,2.1-.23,3.08-.68,.98-.46,1.86-1.03,2.64-1.72l.16,.11Zm-7.66-18.17c0,.37-.08,.73-.25,1.09-.16,.37-.38,.69-.64,.97-.26,.28-.57,.52-.92,.7-.35,.18-.7,.27-1.07,.27-.47,0-.85-.16-1.14-.46-.28-.31-.42-.7-.42-1.18,0-.37,.08-.72,.25-1.08,.16-.36,.38-.67,.64-.94,.26-.27,.57-.5,.9-.67,.34-.17,.69-.26,1.05-.26,.47,0,.86,.15,1.15,.44,.29,.29,.44,.67,.44,1.12Z"/>
          <path class="cls-1" d="M132.9,206.84c-.35,.66-.72,1.29-1.11,1.89-.39,.6-.83,1.13-1.33,1.59s-1.05,.82-1.67,1.09c-.62,.27-1.33,.41-2.13,.41-.91,0-1.7-.22-2.35-.67s-1.22-1.04-1.68-1.78c-.47-.74-.84-1.58-1.12-2.53-.28-.95-.52-1.91-.7-2.9-.18-.99-.32-1.96-.41-2.92-.09-.96-.17-1.82-.25-2.59-.35,.27-.77,.8-1.26,1.57-.49,.78-.99,1.68-1.51,2.72-.51,1.04-1,2.17-1.46,3.39-.47,1.22-.84,2.43-1.14,3.61-.05,.25-.14,.52-.26,.79-.12,.27-.26,.52-.44,.75-.17,.23-.38,.42-.62,.57-.24,.16-.5,.23-.79,.23-.47,0-.82-.16-1.03-.49-.21-.33-.36-.7-.45-1.12-.53-2.32-.9-4.53-1.11-6.65-.21-2.12-.31-4.23-.31-6.35,0-.51,.09-.95,.26-1.33,.17-.37,.41-.68,.7-.93,.29-.25,.64-.43,1.04-.55,.4-.12,.82-.18,1.26-.18h.26c.12,0,.23,.01,.34,.04,.11,.03,.2,.07,.27,.12,.07,.05,.1,.13,.08,.22-.47,2.39-.7,4.82-.68,7.29,.02,2.47,.15,4.85,.38,7.13,.2-.91,.5-1.95,.89-3.11,.39-1.16,.85-2.33,1.37-3.5,.52-1.18,1.09-2.3,1.7-3.37,.61-1.07,1.24-1.97,1.87-2.7,.31-.35,.62-.64,.94-.89,.32-.25,.72-.37,1.19-.37,.27,0,.5,.05,.68,.16,.18,.11,.33,.25,.45,.41,.12,.16,.21,.35,.27,.56,.06,.21,.11,.41,.15,.62,.09,.53,.18,1.21,.27,2.05,.09,.84,.21,1.73,.34,2.68,.14,.95,.31,1.9,.51,2.86,.2,.96,.46,1.82,.77,2.6,.31,.78,.68,1.41,1.12,1.9s.96,.74,1.56,.74c.49,0,.97-.1,1.44-.29,.47-.19,.91-.44,1.33-.74,.42-.3,.81-.65,1.18-1.04,.36-.39,.69-.78,.99-1.16l.19,.11Z"/>
          <path class="cls-1" d="M146.12,219.15c0,1.48-.17,2.99-.52,4.53-.35,1.54-.89,2.96-1.64,4.26-.75,1.3-1.71,2.39-2.89,3.28-1.18,.89-2.6,1.45-4.26,1.67-.16,.04-.32,.07-.47,.08-.15,.02-.31,.03-.49,.03-1,0-1.95-.2-2.85-.6-.89-.4-1.67-.95-2.34-1.63-.67-.68-1.19-1.48-1.57-2.38-.38-.9-.57-1.85-.57-2.83,0-1.09,.22-2.14,.67-3.15,.45-1,1.04-1.93,1.77-2.78,.73-.85,1.56-1.6,2.48-2.24,.92-.65,1.87-1.16,2.83-1.55l.16,.36c-1.77,.95-3.14,2.25-4.11,3.91-.97,1.66-1.45,3.49-1.45,5.5,0,.82,.11,1.62,.34,2.39,.23,.78,.57,1.46,1.03,2.04,.46,.58,1.03,1.05,1.71,1.41,.68,.36,1.47,.53,2.37,.53,1.26,0,2.31-.33,3.15-.99,.84-.66,1.51-1.48,2.01-2.46,.5-.99,.86-2.06,1.07-3.22,.21-1.16,.31-2.24,.31-3.24,0-.88-.05-1.73-.16-2.57s-.22-1.67-.34-2.5c-.12-.83-.23-1.66-.34-2.5-.11-.84-.16-1.7-.16-2.57,0-.62,.02-1.26,.07-1.92,.05-.66,.13-1.32,.26-2-.8,.95-1.73,1.76-2.78,2.42-1.05,.67-2.18,1-3.38,1-.75,0-1.42-.14-2.01-.42-.59-.28-1.09-.66-1.51-1.14s-.72-1.04-.93-1.68c-.21-.65-.31-1.33-.31-2.04,0-.82,.13-1.67,.4-2.56,.26-.88,.63-1.74,1.09-2.57,.47-.83,1.02-1.61,1.66-2.35,.64-.74,1.34-1.39,2.09-1.94,.76-.56,1.56-.99,2.39-1.31,.84-.32,1.7-.48,2.57-.48,.44,0,.88,.06,1.33,.18,.45,.12,.86,.3,1.23,.53,.37,.24,.67,.54,.9,.9,.23,.37,.34,.8,.34,1.31,0,.37-.08,.69-.25,.99-.16,.29-.37,.55-.63,.78-.26,.23-.54,.43-.85,.62-.31,.18-.61,.34-.9,.46l-.11-.33c.15-.16,.25-.36,.3-.6,.05-.24,.08-.47,.08-.68,0-.33-.05-.66-.15-1-.1-.34-.25-.65-.44-.93s-.43-.52-.73-.7c-.29-.18-.62-.27-.99-.27-.93,0-1.77,.25-2.52,.75-.75,.5-1.38,1.13-1.9,1.9s-.92,1.6-1.2,2.5c-.28,.9-.42,1.76-.42,2.56,0,.53,.05,1.07,.15,1.61,.1,.55,.27,1.04,.51,1.48,.24,.44,.56,.8,.97,1.08,.41,.28,.93,.42,1.57,.42,.99,0,1.9-.26,2.74-.78,.84-.52,1.59-1.14,2.24-1.85,.26-.73,.59-1.42,1-2.07,.41-.65,.92-1.21,1.52-1.68l.47,.33c-.42,.68-.69,1.44-.82,2.3-.13,.86-.19,1.7-.19,2.52,0,.97,.07,1.94,.22,2.9,.15,.97,.31,1.94,.48,2.93,.17,.99,.33,1.98,.48,2.98,.15,1,.22,2.02,.22,3.07Z"/>
          <path class="cls-1" d="M164.05,204.87c0,.95-.17,1.84-.52,2.68-.35,.84-.83,1.57-1.45,2.19-.62,.62-1.35,1.11-2.18,1.48-.83,.37-1.73,.55-2.7,.55-.64,0-1.27-.1-1.89-.3-.62-.2-1.19-.49-1.71-.86-.52-.37-.97-.83-1.35-1.36-.38-.53-.66-1.11-.82-1.75l.63-.16c.47,.58,1.03,1.07,1.66,1.45s1.35,.57,2.15,.57c.67,0,1.3-.14,1.87-.44,.57-.29,1.07-.67,1.48-1.15,.41-.47,.73-1.03,.96-1.66,.23-.63,.34-1.27,.34-1.93,0-.78-.11-1.44-.33-1.96-.22-.52-.51-.96-.86-1.31-.36-.36-.75-.67-1.19-.93-.44-.26-.88-.53-1.33-.81-.45-.27-.88-.58-1.29-.93-.41-.35-.76-.79-1.05-1.34-.02,1.08-.2,2.21-.55,3.39-.35,1.19-.82,2.34-1.41,3.45-.59,1.11-1.27,2.15-2.04,3.12s-1.58,1.78-2.44,2.44l-.22-.38c.58-.62,1.09-1.4,1.53-2.33s.8-1.91,1.08-2.94c.28-1.03,.49-2.07,.63-3.11,.14-1.04,.21-1.99,.21-2.85,0-.46-.05-.9-.14-1.34-.09-.44-.14-.87-.14-1.29,0-.51,.15-.9,.45-1.18s.69-.41,1.16-.41c.36,0,.66,.08,.88,.25s.42,.38,.6,.64c.18,.26,.36,.57,.55,.9,.18,.34,.41,.68,.7,1.04,.28,.36,.64,.7,1.07,1.04,.43,.34,.98,.63,1.66,.89,.78,.29,1.54,.62,2.26,1,.72,.37,1.36,.82,1.92,1.33,.56,.51,1,1.12,1.33,1.82,.33,.7,.49,1.53,.49,2.48Z"/>
          <path class="cls-1" d="M179.43,196.41c0,.2-.07,.38-.22,.53-.15,.16-.32,.23-.52,.23-.16,0-.34-.05-.52-.15-.18-.1-.39-.21-.62-.34-.23-.13-.49-.24-.79-.34s-.64-.15-1.03-.15c-.89,0-1.69,.28-2.39,.83-.7,.56-1.3,1.25-1.78,2.07-.48,.82-.85,1.7-1.11,2.63-.26,.93-.38,1.77-.38,2.52,0,.53,.05,1.04,.14,1.55,.09,.5,.25,.96,.48,1.37,.23,.41,.54,.74,.94,.99,.4,.25,.91,.37,1.53,.37,.66,0,1.29-.12,1.89-.37,.6-.25,1.17-.57,1.7-.97,.02-.58,.11-1.2,.29-1.85,.17-.65,.4-1.29,.67-1.92,.27-.63,.59-1.23,.94-1.79s.73-1.07,1.11-1.5l.36,.22c-.2,.62-.35,1.26-.44,1.91-.09,.66-.14,1.3-.14,1.94s.05,1.28,.16,1.86,.3,1.09,.57,1.52,.65,.77,1.12,1.01c.47,.25,1.09,.37,1.83,.37,.91,0,1.75-.21,2.52-.63,.77-.42,1.44-.95,2.03-1.59l.22,.11c-.33,.64-.76,1.25-1.29,1.83-.53,.58-1.12,1.11-1.77,1.57-.65,.46-1.34,.83-2.07,1.11-.73,.27-1.45,.41-2.16,.41-1,0-1.82-.29-2.46-.86-.64-.58-1.08-1.3-1.31-2.18-.77,.77-1.62,1.41-2.56,1.93-.94,.52-1.93,.78-2.97,.78-.77,0-1.45-.14-2.04-.42-.59-.28-1.09-.66-1.49-1.14-.4-.47-.71-1.04-.92-1.68-.21-.65-.31-1.33-.31-2.04,0-.82,.13-1.66,.4-2.53,.26-.87,.63-1.72,1.09-2.56s1.02-1.63,1.66-2.38c.64-.75,1.34-1.41,2.09-1.97,.76-.57,1.56-1.01,2.39-1.34,.84-.33,1.7-.49,2.57-.49,.2,0,.45,.02,.74,.07,.29,.05,.57,.12,.85,.23s.51,.26,.7,.46,.29,.46,.29,.77Z"/>
          <path class="cls-1" d="M201.43,207.74c-.58,1.2-1.41,2.16-2.46,2.86-1.06,.7-2.26,1.05-3.61,1.05-1.11,0-2.11-.34-2.98-1.01s-1.65-1.56-2.31-2.65c-.67-1.09-1.23-2.33-1.7-3.71-.47-1.38-.85-2.78-1.15-4.2-.3-1.42-.52-2.8-.66-4.12s-.21-2.48-.21-3.46c0-1.2,.06-2.53,.19-3.97,.13-1.44,.34-2.9,.63-4.37,.29-1.47,.67-2.9,1.14-4.28,.47-1.39,1.03-2.61,1.7-3.68,.67-1.07,1.44-1.92,2.31-2.57s1.88-.97,3.01-.97c.97,0,1.75,.28,2.35,.85,.6,.57,1.08,1.26,1.42,2.09,.35,.83,.58,1.71,.7,2.64,.12,.93,.18,1.76,.18,2.49,0,1.97-.23,3.91-.7,5.82s-1.1,3.7-1.92,5.39c-.81,1.69-1.77,3.22-2.86,4.6-1.09,1.38-2.27,2.53-3.53,3.46,.26,1.22,.56,2.41,.92,3.57s.79,2.19,1.3,3.09c.51,.9,1.1,1.63,1.77,2.19,.67,.56,1.43,.83,2.29,.83s1.6-.17,2.22-.52c.62-.35,1.19-.86,1.72-1.53l.25,.11Zm-11.28-16.89c-.02,.4-.02,.9-.01,1.48,0,.58,.04,1.23,.08,1.93,.05,.7,.11,1.45,.21,2.26,.09,.8,.21,1.62,.36,2.46,1.22-1.09,2.26-2.31,3.12-3.64,.86-1.33,1.56-2.77,2.11-4.31s.94-3.17,1.19-4.87c.25-1.71,.37-3.48,.37-5.32,0-.24,0-.55-.01-.93,0-.38-.04-.79-.1-1.23s-.13-.88-.23-1.31c-.1-.44-.24-.83-.41-1.19-.17-.36-.39-.65-.66-.88-.26-.23-.58-.34-.94-.34-.69,0-1.3,.34-1.82,1.03-.52,.68-.97,1.55-1.34,2.61-.37,1.06-.68,2.23-.93,3.5-.25,1.28-.44,2.5-.59,3.68-.15,1.18-.25,2.23-.3,3.16-.05,.93-.08,1.57-.08,1.91Z"/>
          <path class="cls-1" d="M233.48,206.84c-.33,.66-.72,1.29-1.18,1.9-.46,.61-.97,1.15-1.53,1.63-.57,.47-1.19,.85-1.87,1.14-.68,.28-1.43,.42-2.23,.42-1.13,0-2.05-.38-2.76-1.15s-1.29-1.76-1.74-3c-.45-1.23-.8-2.63-1.05-4.19-.26-1.56-.47-3.13-.66-4.72-.42,.75-.81,1.53-1.16,2.34s-.7,1.66-1.03,2.56c-.33,.9-.66,1.82-.99,2.76s-.68,1.92-1.07,2.93c-.09,.22-.19,.46-.3,.73s-.25,.52-.42,.77c-.17,.25-.38,.45-.62,.62-.24,.16-.52,.25-.85,.25-.24,0-.45-.06-.63-.17-.18-.11-.34-.24-.48-.4s-.26-.33-.36-.52c-.1-.19-.19-.37-.26-.53-.37-.82-.66-1.66-.88-2.52-.22-.86-.41-1.74-.56-2.65-.16-.91-.29-1.88-.4-2.9-.11-1.02-.22-2.11-.33-3.26-.38,.89-.73,1.75-1.03,2.56s-.59,1.62-.88,2.44c-.28,.81-.57,1.65-.85,2.52-.28,.87-.58,1.8-.89,2.81-.07,.24-.15,.49-.23,.75-.08,.26-.18,.51-.3,.72-.12,.22-.27,.4-.47,.55-.19,.15-.43,.22-.73,.22-.47,0-.82-.15-1.04-.45-.22-.3-.4-.65-.55-1.05-.22-.55-.43-1.31-.63-2.29-.2-.97-.38-2.04-.55-3.19s-.29-2.34-.38-3.56c-.09-1.22-.14-2.36-.14-3.42s.27-1.78,.82-2.26c.55-.48,1.27-.72,2.16-.72h.25c.11,0,.22,.01,.33,.04,.11,.03,.21,.07,.29,.12s.11,.13,.1,.22c-.16,1.28-.27,2.49-.33,3.64-.05,1.15-.07,2.27-.05,3.35,.02,1.09,.08,2.15,.18,3.2,.1,1.05,.23,2.12,.4,3.22,.31-1.04,.62-2.03,.92-2.98,.3-.95,.62-1.89,.94-2.82s.68-1.87,1.05-2.83c.37-.96,.78-1.97,1.22-3.02,.24-.55,.49-.93,.75-1.15,.26-.22,.61-.33,1.03-.33,.53,0,.94,.2,1.25,.6s.5,.86,.59,1.37c.15,.93,.27,1.88,.38,2.86,.11,.98,.23,1.96,.36,2.94,.13,.99,.28,1.96,.47,2.91,.18,.96,.42,1.88,.71,2.78,.36-.95,.73-1.94,1.09-2.97,.36-1.03,.74-2.07,1.12-3.11,.38-1.04,.79-2.06,1.22-3.07,.43-1,.89-1.95,1.38-2.85,.24-.42,.51-.77,.81-1.05s.68-.42,1.14-.42c.26,0,.48,.06,.68,.18,.2,.12,.37,.27,.52,.47,.15,.19,.26,.4,.36,.63,.09,.23,.15,.46,.19,.7,.09,.53,.18,1.21,.26,2.05,.08,.84,.19,1.73,.33,2.68,.14,.95,.31,1.9,.51,2.86,.2,.96,.46,1.82,.77,2.6,.31,.78,.68,1.41,1.12,1.9s.97,.74,1.59,.74c.51,0,1-.1,1.48-.29,.47-.19,.92-.44,1.34-.74,.42-.3,.81-.65,1.16-1.04s.68-.78,.97-1.16l.16,.11Z"/>
        </g>
        <g>
          <path class="cls-1" d="M105.45,166.29c-1.87,.18-2.04,1.18-2.78,1.84-.48,.63-.95,1.27-1.48,1.32-.53,.05-1.37-.26-3.11-1.46-1.74-1.2-3.04-3.42-4.04-5.29-.57-.34-1.53-1.81-1.55-2l-1.45-1.03-.33-.56-1.53-1.81c-1.47-1.23-2.94-2.45-3.1-4.01-.04-.39-.33-.56-.33-.56l-1.57-2.2c-.06-.58-.67-1.31-.67-1.31l-1.49-1.42c-.55-.14-.84-.31-1.16-.87,0,0-.38-1.14-.73-1.89-.38-1.14-1.03-2.25-1.91-2.95,0,0-.59-.53-.88-.7-.59-.53-.98-1.67-1.34-2.61-.02-.19-.31-.36-.33-.56-.69-1.5-2.61-4.45-3.77-5.31-.02-.19-.59-.53-.88-.7-.29-.17-.38-1.14-.38-1.14,0,0-.4-1.33-.69-1.5l-.88-.7c-.82-.12-1.11-.28-1.15-.67l-1.93-3.14-1.82-1.98c-.57-.34-.88-.7-.9-.89,0,0-.31-.36-.35-.75-.31-.36-.33-.56-.37-.94l-.86-.5c-.31-.36-.61-.72-.63-.92l-1.63-2.78-3.46-4.95c-.86-.5-1.47-1.23-1.49-1.42l-1.24-1.64c-.57-.34-.86-.5-1.2-1.25-1.97-.79-4.03-2.54-5.21-3.6-1.18-1.06-2.92-2.26-4.33-2.91l-7.72-1.79c-.84-.31-1.15-.67-1.45-1.03,.25-.22,.76-.47,1.29-.52l3.6-1.72c2.3-1.2,5.37-2.87,5.37-2.87,.72-.85,1.75-1.35,2.26-1.59,0,0,.78-.27,2.07-.79l.99-.88c.25-.22,2.06-.98,2.32-1.01l1.48-1.32c.99-.88,2-1.57,3.27-2.28l1.71-1.73c.95-1.27,2.17-2.56,3.21-2.86l2.02-1.37c1.01-.69,2.26-1.59,2.98-2.45l3.63-4.08c-.25,.22,.46-.83,.93-1.46l4.68-4.37c1.96-1.95,3.11-3.83,4.25-5.9,.93-1.46,1.86-2.92,3.08-4.22,.49-.44,1.18-1.68,1.37-2.48l.68-1.24,1.44-4.45c1.26-.91,3.15-6.18,3.01-7.54-.02-.19,.38-1.6,1.37-2.48-.06-.58,.15-1.19,.38-1.6,.38-1.6,1-3.43,.82-5.17l-.14-1.36c-1.19-3.8-3.88-9.02-11.08-8.32-4.27,.42-6.28,4.53-6.12,6.08l.69,6.79c.02,.19-.36,1.8-.55,2.6,.04,.39-.21,.61-.17,1,.08,.78-.4,1.41-.58,2.21,.08,.78,.35,.75,.37,.94,.04,.39-.19,.8-.42,1.22-.23,.41-.19,.8-.17,1-.19,.8-.07,1.97-.03,2.35,.08,.78,.16,1.55-.26,2.77-.55-.14-.83,2.43-1.06,2.85-.44,1.02-1.06,2.85-1.02,3.23,.14,1.36-1.95,4.69-3.09,6.76l-.68,1.24c-1.44,1.71-9.59,11.71-11.32,13.25l.1,.97c-1.31,.32-2.04,1.18-2.76,2.03-.48,.63-.95,1.27-2,1.57l-2.66,3c-1.22,1.29-2.7,2.61-3.95,3.52l-2.82,1.45c-.45,.83-.68,1.24-1.73,1.54-.53,.05-1.05,.3-1.31,.32-.25,.22-.49,.44-.47,.63-1.73,1.54-2.28,1.4-3.04,1.86l-2.06,.98-2.02,1.37c-1.24,1.1-2.22,1.98-3.79,2.52l-7.2,.7-1.05,.3-1.6,.16,.53,5.24c1.18-1.68,3.33-1.7,3.84-1.94l1.6-.16c.8-.08,2.11-.4,2.65-.45,.21-.61,.47-.63,.74-.66l2.52,.93s.59,.53,.86,.5l2.69,2.67s.33,.56,.61,.72c1.22,1.45,3.1,4.01,4.47,4.26l-.19,.8c1.8,1.78,2.81,3.84,4.07,5.67l.96,1.47c.14,1.36,.31,3.1,1.15,3.41,.61,.72,.63,.92,.67,1.31,0,0,.35,.75,.37,.94,.59,.53,1.24,1.64,1.59,2.39l2.18,2.92,.71,1.69c.67,1.31,1.4,3.19,2.6,4.45,.35,.75,2.75,3.26,3.37,3.98,.08,.78,.38,1.14,.4,1.33,1.65,2.97,3.83,5.89,6.28,8.79,.61,.72,.94,1.28,1.28,2.03,.35,.75,.96,1.47,1.55,2l.86,.5c1.57,2.2,3.71,4.73,6,6.07l2.29,1.34c.02,.19,.32,.56,.61,.72,.29,.17,.92,1.09,1.18,1.06l8.34,5.26c.29,.17,6.75,2.87,7.57,2.98,1.62,.04,3.55,.44,4.39,.75l1.39,.45c.8-.08,1.09,.09,1.35,.06,.55,.14,1.35,.06,1.89,.01,3.47-.34,5.86-3.31,6.5-4.94-.02-.19-1.16-.87-2-1.18Z"/>
          <g>
            <path class="cls-1" d="M13.76,48.41c-1.48,.88-2.09,.63-2.59-.78-.22-.62-.22-1.25-.22-1.89,0-2.09,0-4.18-.02-6.26-.01-1.36,.07-2.72-.29-4.05-.14-.51-.07-1.11-.07-1.67-.02-2.49-.01-4.98-.04-7.47-.01-1.12,.02-2.23-.16-3.35-.22-1.39,.45-2.26,1.63-2.34,.39-.03,.79-.05,1.17,0,1.11,.15,2-.1,2.69-1.36,.41-.74,1.14-.71,1.47,.05,.53,1.21,1.31,1.42,2.28,1.35,.45-.03,.92-.03,1.37,.06,.92,.18,1.52,.93,1.63,2.09,.07,.79,.16,1.6-.22,2.5-1.06-1.14-2.04-2.24-3.64-1.56-.9,.38-1.36,.95-1.55,2.15-1,6.19-.51,12.53-1.28,18.75-.21,1.72-1.39,2.43-2.14,3.8Z"/>
            <path class="cls-1" d="M17.9,127.29c-.05-.65-.07-1.14-.15-1.8-.52-1.54-.49-3.02-.52-4.42-.13-6.47,.05-12.96-.17-19.65,.27-1.41,.55-2.6,.17-4.03-.18-1.02-.18-1.85-.06-2.89,.29-1.04,.2-1.94,.34-2.8,.22-1.39,.77-2.03,1.97-.9,.13,1.75,.17,3.31,.2,5.09,.47,3.88,.23,7.56,.08,11.47-.04,2.68-.03,5.12-.03,7.78,.22,1.1,.2,2.02,.17,3.13,.36,7.91,.45,15.62,.49,23.34,0,.48,.02,.95,.08,1.65,.11,.47,.19,.73,.14,1.14,0,.95,0,1.77,.04,2.79,.09,1.21,.02,2.23,.1,3.41,.01,.38,.01,.58,.05,.94,.5,1.46,.26,2.82,.23,4.36-.02,1.97-.02,3.74,0,5.73,.15,2.16,.9,4.13-.34,6.11-1.83-.32-1.69-2.09-1.67-3.48,.05-3.37-.34-6.68-.47-10.03-.01-.4-.05-.79-.34-1.31-.4-1.79-.14-3.44-.27-5.28-.75-2.29-.21-4.46-.37-6.77,0-.79,.37-1.28,.25-2.06-.08-.8-.13-1.43-.14-2.25,.57-1.07,.55-1.95-.03-2.98-.12-1.6-.08-3.03-.06-4.64,.1-.61,.32-1.01,.29-1.64Z"/>
            <path class="cls-1" d="M.12,192.37c-.29-2.41,.54-4.11,2.06-5.36,1.19-.98,2.42-1.89,3.94-2.44,.62,1.43-.76,1.5-1.06,2.54,.6,.3,1.09-.15,1.57-.38,2.18-1.05,4.42-1.87,6.78-1.85,1.65,.01,2.95-1.78,4.79-1.18,.8,.66,.81,1.65,1.09,2.49,.35,1.03,.67,.6,.9-.33,.03-.76,.04-1.36,.14-2.13,.08-.3,.12-.42,.27-.69,.58-.53,1.12-.54,1.82-.42,.47,.15,.76,.33,1.17,.62,1.08,1.11,2.28,2.18,1.65,3.88-.65,1.75-1.74,3.27-3.54,3.3-1.61,.02-3.11,.27-4.32,1.77-.45,.56-1.11,.69-1.64,.31-2.2-1.54-4.64-.09-6.89-.89-.08-.03-.16,0-.19,.03-2.65,2.54-5.53,1.39-8.51,.74Z"/>
            <path class="cls-1" d="M31.9,71.6c.17,2.69,.23,5.24,.32,8.01,.39,1.71,.26,3.21,.1,4.94-.27,3.73-.18,7.24-.12,10.98,.11,.45,.16,.68,.12,1.11,.03,2.18,.12,4.18,.15,6.19,.12,6.5,.23,13,.34,19.5,.01,.64,.05,1.28,.11,2.14,.41,.97,.32,1.79,.26,2.81-.55,1.17-.67,2.23-.47,3.35,.2,1.09,.08,2.03-.97,2.67-.52,.12-.85,.05-1.29-.32-.56-3.46-.23-6.79-.29-10.31,.11-.59,.25-.95,.36-1.52,.26-1.77,.78-3.31,.52-5.14-.14-.49-.24-.82-.42-1.29-.27-.73-.42-1.31-.38-2.13,.19-1.84,.29-3.5-.11-5.33-.44-3.28-.46-6.38-.26-9.68,.4-3,.44-5.8-.08-8.79-.27-1.61-.24-3.02-.1-4.63,.47-2.15,.36-4.12,.13-6.28-.33-1.05-.51-1.94-.36-3.07,.4-.85,.53-1.6,.63-2.38,.17-1.35,.75-1.72,1.84-.82Z"/>
            <path class="cls-1" d="M13.83,48.55c-.28-1.43,.47-2.2,1.3-2.88,.32-.26,.43-.54,.29-.99-.34-1.1-.25-2.13,.06-3.26,.72-2.63,.54-5.39,.42-8.1-.08-1.78,.02-3.42,.62-5.05,.29-.79,.29-1.56,.05-2.33-.21-.67-.09-1.12,.3-1.71,.64-.98,1.37-1.38,2.36-1.31,.51,.04,1.04,0,1.55-.08,1-.16,.99-.18,1.13,1.12,.04,.39,.11,.78,.26,1.31,.12,.65,.15,1.17,.14,1.88-.78,.87-1.22,.37-1.6-.41-.19-.39-.32-1.02-.81-.87-.53,.16-.56,.84-.59,1.39-.12,1.84,.07,3.71-.08,5.54-.2,2.35-.32,4.5,1.18,6.49,.86,1.13,.38,2.79-.1,4.22,1.12-.93,.43-2.44,.89-3.73q.83-.46,1.34,1.3c.11,.23,.16,.32,.24,.57,.02,.52,0,.89-.06,1.43-.09,.26-.14,.34-.12,.54,.08,.79,.09,1.46,.1,2.34-.07,.75-.38,1.1-.83,1.47-.76,.23-1.4,.43-2.19,.64-.37,.27-.63,.38-1.07,.31-.3-.17-.42-.35-.52-.56-.24-.5-.05-1.46-.76-1.43-.73,.03-.77,.92-.97,1.75-.09,.26-.14,.35-.3,.54-.75-.2-1.42-.07-2.23-.12Z"/>
            <path class="cls-1" d="M26.33,28.6c-.35,.24-.61,.31-.86,.38-1.18,.31-1.9-.29-1.97-1.75-.06-1.35-.02-2.71-.03-4.07-.01-1.19,.06-2.39-.28-3.55-.13-.43-.09-.95-.08-1.42,.05-2.31-.16-4.62,.19-7.08,.72-2.06,.24-4.06,.4-6,.11-1.3,.04-2.65,1.46-2.9,1.32-.23,2.28,.32,2.79,1.91,.31,.97,.75,2,.42,3-1.3,3.96-.19,8.06-.52,12.09-.2,2.46-.33,4.9-.94,7.48-.13,.74-.22,1.28-.58,1.92Z"/>
            <path class="cls-1" d="M0,192.43c.23-.27,.54-.29,.71-.49,.61-.72,1.13-.63,1.65,.11,.43,.6,1,.64,1.6,.67,1.34,.09,2.6-.08,3.59-1.38,.51-.66,1.18-.7,1.82-.46,1.41,.53,2.8,.56,4.21,.01,.53-.2,1.03-.09,1.46,.38,.24,.27,.48,.54,.76,.74,.48,.35,.96,.2,1.35-.37,.71-1.03,1.81-1.78,2.77-1.82,.78-.03,1.56-.02,2.34-.03,.49,0,.9-.24,1.13-.78,.25-.6,.68-.93,1.09-1.33,.66-.64,.74-1.52,.25-2.31-.36-.57-.76-1.09-1.2-1.79,1.13-1.12,2.53-.52,3.06,1.15,.92,2.91,.21,5.09-2.2,6.07-2.65,1.07-5.37,1.89-7.99,3.65-1.54,.6-2.98,.32-4.54,.38-1.29-.02-2.43-.16-3.65,.02,.94,.65,2.11,.26,2.76,1.54-.74,1-1.65,.7-2.42,.56-1.9-.35-3.83-.48-5.66-1.37-1.25-.61-2.25-1.49-2.87-3.16Z"/>
            <path class="cls-1" d="M33.16,160.54c1.41-.14,2.68-.13,3.96-.1,.5,.01,1.03-.11,1.58,.48,.09,.29,.07,.41-.05,.64-.29,.22-.46,.3-.79,.4-.39,.1-.65,.14-1.03,.52,1.66,.91,2.68,2.34,2.58,4.63-.07,1.83-.59,3.11-2.18,3.73-2.01,.79-4.28,.52-6.08,2.24-.35,.34-.79,.55-1.15,1.17-.26,.31-.43,.45-.78,.62-1.98,.39-3.81,.19-5.82,.21-.75-.01-1.34,0-2.05-.33-.24-.19-.33-.28-.5-.56-.26-1.4-.57-2.6-.32-4.03,1.27-1.14,2.63-.88,3.88-.69,3.08,.46,6.09-.09,9.12-.52,.58-.08,1.17-.17,1.67-.59,.6-.5,1.21-1.03,1.18-2.05-.04-1.04-.68-1.48-1.37-1.82-.6-.3-1.25-.45-1.89-1.12-.43-1-.44-1.83,.04-2.81Z"/>
            <path class="cls-1" d="M18.3,48.02c.41,.08,.69,.06,1.1,.04-.12,.78,0,1.58-.02,2.38-.04,1.83-.06,3.66-.18,5.66-.68,.2-.6-.37-.6-.81-.3,8.2-.59,16.41-.47,24.62,.02,1.49,.13,2.87,1.11,4.16,.2,.43,.41,.69,.42,.96,.08,1.88,.24,3.75,0,5.8-.37,.02-.65-.18-.95-.25-.34-.08-.61,.12-.69,.57-.17,.97,.11,2-.35,3.08-1.17-.16-.82-1.23-.84-1.99-.05-2.84-.02-5.68-.02-8.75-.02-.88-.03-1.53-.07-2.39-.31-.77-.34-1.41-.32-2.05,.2-9.54-.26-19.06-.39-28.82-.02-.54-.05-.85-.08-1.31,0-.15,.03-.31,.05-.39,.67-.64,1.39-.78,2.3-.51Z"/>
            <path class="cls-1" d="M26.46,27.07c.42-1.88,.43-3.83,.87-5.66,.04-.15,.07-.33,.03-.47-.5-1.81,.1-3.61,.04-5.42-.04-1.19,.02-2.38-.3-3.56-.24-.91-.16-1.89,.22-2.8,.2-.49,.34-1.03,.45-1.57,.19-.91,.51-1.86-.22-2.66-.04-.05-.06-.14-.08-.22-.14-.6-.03-1.34-.57-1.7-.6-.4-1.26-.3-1.91-.26-.45,.03-.7,.41-.71,.95-.02,1.44-.02,2.88-.03,4.32,0,.72-.02,1.44-.05,2.16-.02,.35-.21,.56-.63,.72-.37-1.27-.49-2.57-.43-4.11-.1-1.06-.04-1.92-.07-2.93,0-.52-.01-.88-.01-1.43,.02-.47,.1-.72,.34-1.04,.6-.48,1.16-.55,1.75-.53,.9,.03,1.79,.03,2.87,.06,2.25-.17,4.19,.77,6.33,1.19,.16,.44,.18,.83,.16,1.4-.65,.91-1.43,.83-2.35,.87-.36,.01-.57,.02-.92,.06-.87,.39-1.1,1.02-.87,1.94,.19,.77,.42,1.62,.21,2.36-1.08,3.96-1.09,8.14-1.78,12.17-.2,1.18-.43,2.31-.34,3.54,.12,1.58-.43,2.63-1.97,2.63Z"/>
            <path class="cls-1" d="M38.81,161.58c.04-.17,.05-.34,.02-.41,1.67-.25,3.37-.33,5.23,.13,.51,.08,.86,.07,1.3,.37,.28,.12,.43,.16,.71,.25,.35,0,.56,.04,.82,.31,.22,.18,.37,.26,.62,.42,.29,.13,.43,.25,.55,.63,.19,1.13-.37,2.06,.47,3.15,.69,.89-.59,1.59-1.28,2.32-.33,.27-.57,.42-.9,.69-1.9,2-3.57,4.16-6.24,3.98-.42-.03-.58,.57-.94,1-.59,.24-1.07,.4-1.69,.58-.4,.05-.6,.25-.96,.34-.39,.09-.66,.16-1.07,.22-.74-.45-1.15-1.12-1.55-2,.49-1.68,1.74-1.56,2.71-2.03,.65-.32,1.36-.44,2.15-.82,1.36-.8,2.89-.82,3.61-2.71,1.16-3.03,1-3.5-1.9-4.13-.52-.09-.87-.24-1.29-.65-.35-.52-.42-.97-.35-1.63Z"/>
            <path class="cls-1" d="M26.29,27.16c.78-.2,1.14-.95,1.64-1.44,.21-.2,.26-.58,.14-.89-.51-1.28-.25-2.49,.13-3.71,.21-.67,.38-1.36,.54-2.06,.08-.38,.24-.88,.12-1.16-.7-1.61,.14-3.14,.09-4.7-.03-.97,.71-1.63,.84-2.64,.22-1.6,.66-3.11-.28-4.58-.09-.14-.09-.53,0-.66,.38-.52,.46-1.37,1.26-1.59,1.14,3.26,.72,6.61,.41,9.9-.21,2.19-.37,4.28,.53,6.29,.39,.88,.33,1.84,.39,2.8,.05,.82,.25,1.91,1.32,.75,.14-1.15-.26-2.12,.07-3.26,1.97-.45,1,1.59,1.56,2.61,.11,.68,.14,1.2,.16,1.91-.11,.95-.25,1.69-.72,2.43-.73,.73-1.53,.72-2.4,1.03-.32,.37-.59,.44-1.03,.35-.28-.21-.38-.41-.47-.63-.21-.53-.04-1.46-.75-1.45-.77,0-.75,.92-.93,1.75-.08,.27-.12,.37-.27,.6-.28,.21-.47,.22-.77,.06-.52-.12-.93-.12-1.5-.12-.15-.47-.14-.95-.09-1.6Z"/>
            <path class="cls-1" d="M33.27,160.16c0,1.06-.01,1.9,0,2.95,.32,.64,.38,1.13,.27,1.85-.47,.9-.56,1.8-1,2.71-.31,.23-.52,.24-.86,.08-.95-1.6-.13-3.48-.94-5.17-.17-.57-.18-.97,0-1.54,.1-1.94,.12-3.71,.1-5.69-.65-2.48-.27-4.79-.23-7.31,.07-.72,.09-1.21,.14-1.88,.15-.76,.16-1.34,.02-2.06-.09-.34-.14-.54-.24-.89-.77-3.4-.48-6.68-.06-10.11,.42-.16,.68-.16,1.08-.17,1,2.22,.96,4.62,1.07,6.99,.11,2.38-.26,4.79,.38,7.34,.12,.51,.21,.82,.21,1.14,.01,3.85,0,7.71,.04,11.79Z"/>
            <path class="cls-1" d="M21.62,39.27c-.11,1.6-.1,3.04-.14,4.48-.02,.7-.42,1.03-.93,.79-.36-.17-.72-.39-1.03-.67-.53-.48-.39-1.16,.31-1.47,.18-.08,.42-.06,.43-.35,.05-1.19,.23-2.42-.69-3.33-.25-.25-.45-.58-.69-.85-.47-.54-.68-1.25-.51-1.97,.66-2.76,.27-5.57,.35-8.36,.03-1,.18-1.9,.71-2.67,.24-.35,.57-.39,.87-.15,.52,.42,.79,1.03,.84,1.8,.04,.61,.41,.75,.98,.79,.19,.36,.23,.71,.31,1.23,.11,.4,.15,.64,.16,1.07-.02,.37-.03,.56,.01,.87,.53,2.61,1,5.08-.42,7.51-.85-.49-.19-1.51-.61-2.17,.14,1.1,.26,2.18,.05,3.43Z"/>
            <path class="cls-1" d="M27.78,28.97c.16-.18,.33-.16,.62-.09,.96,.8,1.12,1.95,1.08,3.06-.13,4.26,.53,8.47,.4,12.94,.07,1.98,.02,3.74,.02,5.72-.03,1.09-.04,1.97-.02,3.06,.06,1.25,.05,2.28,0,3.54,0,2.84,0,5.44,.34,8.06,.39,2.99-.03,6.02-.27,9.24-.18,1.04-.03,1.83,.07,2.81,.17,2.13,0,4.09,.13,6.24,.03,1.66,.03,3.12,.05,4.8-.14,.78-.04,1.4-.4,2.04-.45,.03-.75-.18-.78-.62-.05-.63-.05-1.28-.05-1.92,0-4.72,0-9.45-.03-14.17-.01-1.91,.14-3.83-.32-5.72-.14-.59-.05-1.27-.05-1.91,0-5.93,0-11.85-.02-17.78,0-1.19,.06-2.38-.27-3.56-.16-.58-.09-1.27-.09-1.91-.01-3.2-.04-6.41-.02-9.61,0-1.37-.08-2.71-.4-4.23Z"/>
            <path class="cls-1" d="M20.82,173.82c.07,.23,.11,.3,.19,.48,.48,.53,.54,1.12,.54,1.91-.02,.28-.04,.39-.1,.66-.22,.61-.52,1.02-.36,1.75,.11,.73,.12,1.31,.15,2.07,.01,.82,0,1.46-.27,2.24-.1,.25-.14,.32-.23,.5-.27,.37-.53,.48-.96,.41-.69-.49-.82-1.37-1.42-1.99-.1-.25-.12-.36-.04-.59,.1-1.42,.1-2.73,.08-4.25-.78-1.32-.55-2.66-.59-4.14,0-1.29,.01-2.36,.03-3.64,.02-.44,.05-.69,.11-1.11,.14-.72,.3-1.25,.11-1.98-.12-.83-.07-1.5,0-2.32,.23-.66,.37-1.16,.19-1.88-.3-3.02-.24-5.9-.16-8.99,1.01,0,1.08,.02,1.08,.78,.03,3.51,.61,6.99,.4,10.53-.07,1.21,.08,2.38,.97,3.35,.21,.12,.28,.2,.4,.44,.07,.39,.06,.62-.04,.99-.52,.62-.83,1.13-.49,1.92,.37,.84,.26,1.8,.41,2.86Z"/>
            <path class="cls-1" d="M29.51,57.33c-.07-1.12-.06-2.05-.04-3.17,.37-1.12,.31-2.07,.11-3.19-.07-1.86-.1-3.56-.12-5.48,.71-2.78,.28-5.47,.55-8.07,.15-1.46-.2-3.91,1.19-3.99,.91-.05,.33,2.48,.46,3.85,.09,.87,.02,1.76,0,2.86,.2,7.95,.2,15.69,.08,23.65-1.44,.97-1.9,.01-2.01-1.51-.11-1.58,.13-3.18-.24-4.94Z"/>
            <path class="cls-1" d="M19.35,84.02c-1.35-.14-1.69-.49-1.74-1.87-.07-2.16-.07-4.33-.08-6.49-.01-2.81,0-5.61,0-8.42,0-1.44-.09-2.88,.34-4.28,.13-.43,.1-.95,.08-1.43-.09-2.72,.14-5.41,.54-8.28,.5,.94,.11,1.94,.52,2.88,.19,3.54,.28,6.95,.37,10.57,.28,4.87,.15,9.53,0,14.4-.05,1.04-.03,1.88-.04,2.93Z"/>
            <path class="cls-1" d="M18.23,181.15c.23,.06,.28,.12,.39,.28,.19,.81,.32,1.51-.06,2.38-1,.25-1.88,.17-2.71,.92-.54,.5-1.29,.74-2.03,.73-2.72-.03-5.26,.85-7.71,2.22-.41,.23-.86,.36-1.3,.51-.28,.09-.52-.08-.68-.35-.23-.38-.13-.74,.1-1.08,.3-.45,.7-.71,1.1-.97,.34-.22,.73-.38,.89-1.07,2.03-.75,3.94-1.74,5.99-2.15,1.01-.2,1.91-.86,2.96-1.06,.96-.18,1.91-.3,3.05-.36Z"/>
            <path class="cls-1" d="M33.77,20.04c.04,1.1,.15,2.07,.25,3.23-1.1,1-1.58,.26-1.74-.95-.22-1.62,.02-3.4-1.31-4.54-.22-.19-.14-.59-.04-.89,.58-1.85,.32-3.78,.36-5.68,.05-3.07,.16-3.26,2.82-3.88,.25,0,.34,.01,.56,.14,.15,.75,.19,1.4,.23,2.24,.56,1.98,.22,3.82,.23,5.85,0,1.35,.02,2.48,0,3.83-.37,.85-.96-.03-1.38,.65Z"/>
            <path class="cls-1" d="M31.74,40.18c-.49-.35-.38-1.01-.39-1.64-.04-1.65-.07-3.3-.23-4.96-.32,1.84-.7,3.65-.64,5.56,.06,1.82,.1,3.66-.43,5.41-.06,.21-.21,.38-.45,.65-.36-.7-.25-1.51-.27-2.3-.03-1.36-.1-2.7-.25-4.05-.22-1.97-.14-3.99-.14-5.99,0-1.21-.05-2.4-.4-3.73-.01-.19,0-.33,.01-.4,.64-.64,1.3-1.03,2.23-.53,.39,.09,.65,.07,1.03,.04,.1,3.05,.08,6.09,.05,9.14,0,.88-.03,1.76-.13,2.81Z"/>
            <path class="cls-1" d="M16.69,83.4c.6,.33,.5,.99,.51,1.62,.02,2.38,0,4.76,.03,7.14,0,.63,.07,1.26,.21,2.04,.1,.98,.11,1.81,.12,2.84,.05,1.22,0,2.23,.05,3.41,.02,6.34,.06,12.52,.04,18.7,0,1.93,.44,3.82,.14,5.96-.57,.09-.93-.17-.93-.87,0-.56-.01-1.12-.01-1.68,0-4.48,0-8.95-.03-13.43,0-1.83,.16-3.68-.33-5.47-.08-.29-.03-.63-.03-.95,0-6-.02-11.99-.02-17.99,0-.39,.09-.78,.26-1.31Z"/>
            <path class="cls-1" d="M21.04,168.21c-.18-.14-.23-.22-.32-.42,.16-1.67,.36-3.2,.06-4.76-.05-.28,.05-.61,.17-1.06,.57,.1,.47,.86,.84,1.19,1.86-.5,3.69-.96,5.51-1.5,.51-.15,1.01-.28,1.53-.26,.6,.03,1.16-.14,1.84-.51,.22,.31,.29,.67,.4,1.19,.21,.85,.19,1.49-.29,2.21-2.09,1.41-4.23,1.93-6.42,2.18-1.24,.14-2.35,.59-3.33,1.73Z"/>
            <path class="cls-1" d="M21.45,195.66c.05,3.23,.03,6.27,.02,9.32,0,.73-.01,1.42-.47,2.01-.55,.7-1.14,.76-1.69,.08-.68-.85-.93-1.87-.92-3.05,.02-2.4,0-4.8-.03-7.45,.83-1.45,1.92-1.32,3.08-.9Z"/>
            <path class="cls-1" d="M21.67,195.8c-1.12,.15-2.09,.25-3.18,.44-2.11,.31-4.08,.16-6.22-.04-.89-.26-2-.23-.92-1.8,1.65-.12,3.16-.21,4.84-.35,2.42-1.07,4.74-1.71,7.29-1.76,.84,1.67,2.27,.33,3.24,1.31,.13,.21,.16,.31,.14,.55-1.69,.79-3.33,1.33-5.18,1.64Z"/>
            <path class="cls-1" d="M26.94,194.34c-.15-.04-.21-.12-.21-.17,.28-1.23,1.19-1.33,1.93-1.71,.76-.38,1.58-.58,2.24-1.52,.16-.19,.22-.26,.4-.41,.56-.32,1.02-.56,1.23-1.35,.17-.43,.33-.68,.63-1,2.36-1.33,2.38-1.42,1.19-4.79-.32-.28-.53-.47-.79-.84-.09-.24-.11-.35-.02-.75,.82,.1,1.55,.44,2.23,.89,.94,.61,1.46,1.75,1.49,2.93,.03,1.34-.28,2.81-1.27,3.61-1.67,1.35-3.18,3.03-5.22,3.6-1.26,.35-2.38,1.29-3.83,1.51Z"/>
            <path class="cls-1" d="M18.19,168.5c.11,1.26,.15,2.39,.14,3.73-1.98,1.21-3.79,.52-5.69-.58-.14-2.01,.4-3.47,1.85-4.38,.97-.6,1.73-1.65,2.96-2.03,.51,.98-.81,2.4,.74,3.25Z"/>
            <path class="cls-1" d="M15.91,50.13c.47,.19,.5,.66,.5,1.15,0,1.2,0,2.39,.02,3.59,.02,1.27-.01,2.54,.27,3.8,.17,.75,.1,1.58,.1,2.38,0,6.46-.01,12.93-.05,19.62-.36,.09-.64-.14-.66-.58-.04-.63-.04-1.27-.04-1.91,0-4.31,0-8.61-.02-12.92,0-1.82,.08-3.64-.31-5.46-.22-1.05-.09-2.22-.07-3.34,.05-2.06-.17-4.14,.26-6.33Z"/>
            <path class="cls-1" d="M29.38,57.37c.56-.03,.69,.45,.7,1.05,0,1.33,.03,2.66,.05,3.99,.01,1.03,.41,1.61,1.45,1.61,.2,.48,.23,.96,.29,1.61,.07,.44,.17,.69,.18,1.1,.02,1.61,.04,3.09,.02,4.79q-1.48-.04-1.56,1.76c-.02,.46-.01,.93-.46,1.35-.34-.51-.31-1.16-.31-1.79,0-1.59,0-3.19-.01-4.78-.01-1.59-.06-3.15-.26-4.74-.23-1.87-.1-3.81-.07-5.95Z"/>
            <path class="cls-1" d="M33.16,147.27c-.87-.19-1.03-1.06-1.07-1.94-.05-1.04,0-2.08-.01-3.12-.04-2.07,.12-4.15-.32-6.21-.18-.83-.04-1.75-.05-2.85,.58-.57,.9-1.14,.63-1.91-.3-.9-.26-1.81-.24-2.74,0-.33,.14-.58,.49-.83,1.08,.92,.5,2.25,.66,3.62,.01,1.18,.02,2.15,.06,3.33,.64,3.77,.3,7.36,.13,11.16-.13,.58-.18,.95-.29,1.49Z"/>
            <path class="cls-1" d="M12.52,171.72c.84-.22,1.67-.35,2.37,.46,.16,.18,.55,.3,.71,.19,.84-.62,1.62,0,2.57,.07,.2,1.32,.25,2.63,.25,4.15-.96-.1-1.88-.45-2.81-.73-1.05-.31-1.83-1.08-2.55-2.02-.44-.57-.58-1.21-.53-2.13Z"/>
            <path class="cls-1" d="M30.61,132.72c-.23,2.1-.04,3.99-.05,5.88,0,1.34,.02,2.68,0,4.24-.39,.16-.68-.03-.74-.47-.06-.47-.05-.95-.05-1.43,0-5.73-.01-11.45-.01-17.18,0-.55-.07-1.12,.26-1.78,.18-.2,.25-.26,.43-.23,.11,3.64,.12,7.2,.16,10.98Z"/>
            <path class="cls-1" d="M30.57,112.48c.09,.72,.16,1.26,.22,1.95-.04,.5-.21,.7-.58,.73-.19-.2-.34-.31-.35-.44-.15-1.9-.54-3.75-.51-5.69,.06-3.12,0-6.25,0-9.37,0-.71-.11-1.44,.25-2.28,.19-.2,.26-.26,.43-.23,.09,3.33,.21,6.57,.4,10.01,.14,1.85,0,3.5,.12,5.32Z"/>
            <path class="cls-1" d="M33.57,175.84c.09,1.86,.08,3.56,.08,5.46,0,.21-.01,.38-.02,.47-.52,.38-1.01,.08-1.67,0-.48-.1-.78-.23-1.17-.61-.58-1.51-.48-2.89-.2-4.48,.14-.31,.21-.42,.42-.64,.9-.41,1.66-.69,2.57-.2Z"/>
            <path class="cls-1" d="M39.19,174.56c-.1-.36-.06-.67-.02-.99,.13-.97,.3-1.21,.98-.89,1.2,.57,2.2,0,3.1-.77,.94-.81,1.75-1.86,2.75-2.85,.45,.3,.49,.73,.34,1.43-.41,.92-.86,1.47-1.51,1.75-1.83,.79-3.66,1.58-5.64,2.33Z"/>
            <path class="cls-1" d="M19.45,81.16c-.32-.22-.3-.62-.29-1.02,.02-4.31,.04-8.61,.14-13.08,.35,.12,.42,.51,.42,.91,0,4.2-.02,8.4-.04,12.61,0,.15-.07,.3-.23,.58Z"/>
            <path class="cls-1" d="M33.8,175.95c-.81,.11-1.49,.17-2.32,.19-.85-.61-1.88-.46-2.32-1.73,.14-.25,.26-.32,.46-.48,1.38-.79,2.72-1.17,4.28-.66,.28,.29,.4,.52,.56,.56,.6,.17,.83,.63,.82,1.53-.44,.3-.9,.41-1.49,.59Z"/>
            <path class="cls-1" d="M22.5,38.55c.25-2.6,.05-5.07,.1-7.73,.56-.05,.82,.3,.82,.97-.01,1.98,0,3.97,0,5.95,0,.95,0,1.91,0,2.86,0,.41-.04,.79-.46,1.13-.14,.06-.23,.08-.28,.08-.54-1-.49-2.06-.18-3.26Z"/>
            <path class="cls-1" d="M46.88,168.65c.35-.46,.64-.77,.94-1.04,.31-.28,.72-.56,.51-1.08-.19-.47-.56-.01-.85-.02-.35,0-.43-.32-.33-.63,.23-.72,.62-1.38,.58-2.39,.61-.51,.9,0,1.25,.67,.4,.76,.72,1.37,.48,2.32-.12,.47-.21,.76-.41,1.17-.08,1.22-.54,1.81-1.54,1.95-.44-.13-.62-.39-.63-.94Z"/>
            <path class="cls-1" d="M33.5,145.92c-.38-.86-.25-1.83-.26-2.78-.02-2.63-.02-5.26,.03-8.1,.4-.11,.66,.14,.69,.59,.04,.56,.04,1.12,.04,1.69,0,2.33,0,4.66,0,6.99,0,.55,.08,1.14-.5,1.62Z"/>
            <path class="cls-1" d="M19.81,107.44c-.41-1.19-.24-2.56-.25-3.92-.02-2.32,0-4.64,.06-7.2,.3,.04,.46,.39,.46,.8,0,3.24-.02,6.49-.05,9.73,0,.15-.09,.29-.23,.58Z"/>
            <path class="cls-1" d="M11.3,194.3c.14,.2,.09,.34,.04,.47-.14,.36-.26,.68,.2,.83,.17,.05,.31,.21,.51,.46-.18,.57-.53,.51-1,.51-1.08-.77-2.21-.72-3.27-.98-.33-.08-.64-.16-.86-.49-.07-.11-.11-.3-.1-.43,.02-.13,.11-.3,.21-.35,.17-.09,.37-.14,.56-.14,1.17,0,2.34,.04,3.7,.12Z"/>
            <path class="cls-1" d="M34.4,2.01c-.31,.24-.69,.29-1.06,.41-.25,.08-.5,.25-.73,.06-1.28-1.03-2.8-.9-4.32-1.44,.52-1.14,.58-1.24,1.04-.82,.63,.58,1.31,.62,2.03,.62,.58,0,1.17,.04,1.75,.01,.62-.03,.93,.45,1.29,1.16Z"/>
            <path class="cls-1" d="M31.16,115.5c.75,.75,.63,1.69,.43,2.43-.25,.89-.17,1.84-.58,2.82-.23,.29-.37,.34-.6,.16-.29-1.54-.28-2.97-.22-4.6,.23-.59,.48-.86,.98-.81Z"/>
            <path class="cls-1" d="M30.26,97.09c-.18,.15-.25,.15-.43,.15-.11-2.09-.11-4.19-.12-6.51,.13-.79-.04-1.44,.39-2.07,.21,.11,.38,.31,.38,.52-.02,2.59,.16,5.18-.22,7.91Z"/>
            <path class="cls-1" d="M17.91,139.59c.1,2.51,.11,4.95,.08,7.6-.38,.14-.7-.08-.71-.5-.01-2.25-.24-4.51,.24-6.89,.18-.19,.24-.24,.39-.21Z"/>
            <path class="cls-1" d="M18.33,168.47c-.17,.13-.3,.12-.42,.06-1.85-.88-1.86-.95-.44-2.75,.04-.05,.05-.14,.09-.38,.08-.75-.06-1.37,.35-2.01,.17-.16,.23-.21,.38-.18,.07,.91,.06,1.74,.06,2.77,0,.59,0,.98,.03,1.51,0,.37,0,.6-.05,.98Z"/>
            <path class="cls-1" d="M30.55,147.9c.2,.22,.33,.52,.33,.82,.04,1.99,.04,3.98,0,6.19-.31,.13-.62,0-.63-.34-.07-2.2-.36-4.41,.29-6.67Z"/>
            <path class="cls-1" d="M17.9,128.01c.13,1.85,.15,3.61,.2,5.58,.2,.76,.23,1.27-.32,1.73-.28-.17-.49-.35-.49-.54-.07-2.13-.24-4.27,.19-6.54,.19-.2,.25-.25,.43-.23Z"/>
            <path class="cls-1" d="M33.36,131.34c-.39-.11-.46-.47-.47-.85-.02-.83-.05-1.66-.12-2.69,0-1.04,.03-1.87,.13-2.91,.39-.09,.67,.16,.67,.6,0,1.9,.22,3.81-.21,5.85Z"/>
            <path class="cls-1" d="M35.22,15.63c-.46-.43-.33-1.09-.34-1.71-.03-1.19-.03-2.39,0-3.8,.35-.04,.57,.26,.58,.68,0,1.57,.18,3.14-.23,4.83Z"/>
            <path class="cls-1" d="M31.6,3.85c.89-.14,1.69-.15,2.67-.16,.2,.48,.23,.96,.28,1.63,.09,.41,.13,.64,.06,1.06-.93,.92-1.22-.08-1.74-.78-.4-.16,.03-1.42-.86-.73-.41-.2-.53-.49-.41-1.01Z"/>
            <path class="cls-1" d="M32.39,84.69c-.4-1.41-.34-2.92-.2-4.64,.22-.07,.48,.05,.5,.21,.15,1.46,.38,2.93-.29,4.43Z"/>
            <path class="cls-1" d="M33.84,20.19c-.15-.18-.18-.34-.17-.49,.09-.95,.2-.99,.87-.37,.1,.09,.22,.15,.45,.24,.34,1.01,.17,2,.16,3.2-.59,.14-.71-.32-.74-.93-.03-.58,.17-1.28-.58-1.66Z"/>
            <path class="cls-1" d="M21.13,155.97c-.37-.16-.44-.53-.43-.92,.01-.99,.03-1.98,.09-3.17,.29-.1,.55,.04,.58,.37,.11,1.21,.26,2.42-.25,3.72Z"/>
            <path class="cls-1" d="M20.88,150.62c-.33-.06-.46-.31-.46-.65,.02-.78,.05-1.55,.16-2.46,.31,.05,.48,.29,.49,.63,.02,.79,.13,1.58-.19,2.48Z"/>
            <path class="cls-1" d="M34.52,27.28c-.06-.78-.17-1.62,.56-2.26,.56,1.3,.51,1.48-.56,2.26Z"/>
            <path class="cls-1" d="M19.98,118.31c-.6-.69-.37-1.65-.3-2.77,.62,.66,.46,1.65,.3,2.77Z"/>
            <path class="cls-1" d="M22.95,3.84c.72,.67,.48,1.59,.27,2.63-.79-.65-.52-1.59-.27-2.63Z"/>
            <path class="cls-1" d="M46.82,168.52c.23,.24,.34,.51,.5,.93-.02,.77-.37,1.02-.94,1.2-.16-.38-.19-.81-.24-1.44,.18-.36,.37-.51,.68-.7Z"/>
            <path class="cls-1" d="M17.61,135.51c.38-.46,.35-.94,.47-1.54,.91,.84,.89,1.2-.22,2.36-.17-.18-.21-.41-.25-.81Z"/>
            <path class="cls-1" d="M49.08,164.17c-.41-.15-.77-.45-1.25-.8-.13-.18-.16-.3-.22-.52,.91-.22,1.02-.14,1.46,1.33Z"/>
            <path class="cls-1" d="M34.36,6.73c.1-.39,.1-.63,.16-1.05,.66,.28,.6,.96,.36,1.78-.08,.11-.21,.08-.28,.04-.27-.15-.36-.34-.24-.77Z"/>
            <path class="cls-1" d="M30.68,144.11c.71,.55,.71,.57,.23,1.78-.46-.44-.34-1.04-.23-1.78Z"/>
            <path class="cls-1" d="M31.27,115.41c-.27,.32-.55,.49-.94,.67-.15-.21-.19-.43-.23-.82,.17-.3,.34-.43,.6-.61,.37,.04,.51,.27,.57,.76Z"/>
            <path class="cls-1" d="M21.88,47.49c0-.53,.27-.9,.72-1.27,.33,.13,.42,.39,.29,.68-.18,.41-.48,.63-1,.6Z"/>
            <path class="cls-1" d="M45.43,161.61c-.33,.24-.69,.25-1.12-.15,.34-.62,.72-.46,1.12,.15Z"/>
            <path class="cls-1" d="M18.47,163.21c-.09,.08-.27,.08-.36,.08-.08-.38-.07-.76,0-1.32,.63,.09,.71,.55,.35,1.24Z"/>
            <path class="cls-1" d="M46.95,162.21c-.2,.08-.42,.03-.7-.13,.24-.63,.47-.44,.7,.13Z"/>
            <path class="cls-1" d="M22.67,29.76c-.14-.19-.2-.42-.22-.85,.48,0,.66,.28,.22,.85Z"/>
            <path class="cls-1" d="M30.26,120.95c.19-.15,.32-.13,.53-.08,.04,.27-.01,.54-.15,.88-.16,.08-.23,.09-.4,.09-.08-.24-.06-.48,.03-.89Z"/>
            <path class="cls-1" d="M18.09,128.01c-.15,.08-.22,.08-.39,.08-.06-.26-.03-.53,.1-.88,.39,.06,.52,.31,.29,.8Z"/>
            <path class="cls-1" d="M32.12,66.81c-.29-.14-.37-.4-.29-.86,.36,.07,.66,.27,.29,.86Z"/>
            <path class="cls-1" d="M20.69,144.47c-.28-.17-.31-.45-.22-.87,.42,.07,.67,.31,.22,.87Z"/>
            <path class="cls-1" d="M36.46,175.43c.09-.36,.32-.49,.73-.44-.05,.4-.3,.6-.73,.44Z"/>
            <path class="cls-1" d="M49.1,167.71c-.17-.31-.17-.68,.2-1.01,.32,.36,.18,.67-.2,1.01Z"/>
            <path class="cls-1" d="M18.08,139.6c-.08,.07-.26,.07-.35,.07-.08-.24-.07-.47,0-.87,.41,0,.64,.23,.34,.8Z"/>
            <path class="cls-1" d="M32.37,96.78c-.14-.2-.18-.44-.19-.85q.61,.2,.19,.85Z"/>
            <path class="cls-1" d="M23.35,1.31c.04,.25-.04,.52-.21,.87-.49-.37-.35-.66,.21-.87Z"/>
            <path class="cls-1" d="M22.7,43.61c-.09,.04-.17-.04-.23-.13-.01-.02,.05-.1,.14-.19,.08,.04,.09,.12,.09,.32Z"/>
            <path class="cls-1" d="M17.71,100.49c-.73-.84-.46-1.91-.25-3.11,.78,.83,.49,1.91,.25,3.11Z"/>
            <path class="cls-1" d="M23.97,192.55c-2.52,.49-4.91,1-7.45,1.49-.07-.44,.14-.68,.48-.83,1.45-.67,2.9-1.37,4.34-2.06,.18-.09,.37-.28,.54-.25,1.16,.17,2.1-.62,3.12-1.05,1.06-.44,1.58-1.47,1.42-2.88-.05-.39-.15-.77-.2-1.16-.07-.54,.15-1.37-.29-1.53-.79-.27-1.28-1.5-2.36-.94-.31,.05-.52,0-.8-.17-.63-1.68,.49-1.8,1.33-2.36,1.16-.23,2.16-.69,3.29-.11-.08,1.18,.2,1.75,1.03,2.29,3.16,2.02,3.24,3.33,.54,6.34-.34,.38-.57,.85-.91,1.44-.58,.69-1.19,.99-1.92,1.35-.75,.2-1.38,.34-2.14,.44Z"/>
            <path class="cls-1" d="M18.49,184.17c-.01-.88,0-1.57,.11-2.44,.67,.16,.94,.74,.91,1.7,.44,.62,.52,1.25,.42,1.87-.11,.68-.09,.98,.6,.56,.24,.57,.29,1.09-.09,1.4-.43,.35-.95,.59-1.47,.34-.13-.06-.24-.39-.26-.61-.08-.88-.13-1.76-.22-2.82Z"/>
            <path class="cls-1" d="M24.23,180.92c-.16,.61-.48,.68-.79,.8-.4,.15-.64,.5-.74,1.17-.51,.18-1.01,.19-1.65,.22-.36-.68-.27-1.39-.23-2.29,1.18-1.08,2.3-1.12,3.41,.11Z"/>
            <path class="cls-1" d="M20.67,185.75c-.36,.37-.69,.55-1.15,.8,0-.92,0-1.75,0-2.77,.29-.21,.58-.22,1.01-.24,.16,.67,.17,1.34,.14,2.21Z"/>
            <path class="cls-1" d="M30.3,83.6c-.4-.09-.52-.45-.52-.86,0-1.65-.13-3.31,.17-5.11,.32,.03,.51,.27,.51,.6,0,1.74,.18,3.48-.16,5.36Z"/>
            <path class="cls-1" d="M30.69,112.52c-.4-.08-.52-.44-.51-.85,.02-1.33,.05-2.67,.17-4.15,.38,.1,.5,.46,.51,.86,.03,1.33,.15,2.67-.16,4.14Z"/>
            <path class="cls-1" d="M18.42,47.92c-.66,.59-1.36,.73-2.25,.56-.16-.27-.19-.5-.18-.74,.07-1.72,.22-1.93,1.6-2.33,.48-.14,.71,.05,.76,.67,.04,.54,.04,1.09,.07,1.84Z"/>
            <path class="cls-1" d="M22.41,38.26c.43,1.15,.27,2.16,.25,3.36-.42,.12-.71-.09-.76-.64-.04-.44-.12-.88-.27-1.44-.1-1.36-.1-2.61-.1-3.99,.53,.38,.31,.86,.36,1.22,.06,.48,.1,.94,.53,1.48Z"/>
            <path class="cls-1" d="M20.87,168.3c.42-.26,.57-.56,.5-1.01-.13-.76,.26-.99,.75-1.08,1.7-.33,3.4-.68,5.11-.94,.65-.1,1.25-.22,1.79-.73,.43-.4,.99-.28,1.67-.45,.59,.99,.45,2.2,.93,3.36,.26,.13,.42,.14,.7,.08,.77-.53,.42-1.42,.71-2.22,.1-.65,.15-1.14,.25-1.82,.85-.29,1.55,.22,2.32,.38,.66,.14,1.08,.86,1.42,1.54,.39,.81,.18,1.92-.44,2.57-.29,.31-.65,.56-.87,.92-.31,.51-.69,.67-1.17,.67-1.87-.02-3.7,.75-5.59,.52-.3-.04-.62,.21-.94,.26-.51,.08-1.08,.29-1.53,.11-1.72-.67-3.48-.3-5.38-.44-.42-.08-.54-.28-.44-.77,.12-.39,.15-.6,.21-.96Z"/>
            <path class="cls-1" d="M34.13,173.27c-1.43,.3-2.76,.47-4.26,.61-.13-.36-.05-.66,.19-.84,.22-.16,.45-.4,.69-.42,.93-.08,1.35-1.28,2.17-1.49,.75-.19,1.56-.02,2.31-.21,.94-.24,1.81-.81,2.78-1,.21-.04,.46-.34,.56-.59,.59-1.52,.33-3.07,.07-4.62-.02-.14-.14-.28-.24-.36-.53-.43-.97-1.05-1.69-1.07-.43-.01-1,.08-1.01-.74,0-.62,.49-.65,.84-.79,.37-.15,.74-.25,1.27-.36,.1,.82,.3,1.35,1.18,1.34,.42,.26,.74,.4,1.19,.56,.42,.39,.82,.4,1.18,.57,1.63,.79,1.9,3.19,.47,4.55-.82,.77-1.69,1.47-2.6,2.41-.55,.82-1.23,.89-1.84,1.13-1.05,.42-2.1,.8-3.25,1.33Z"/>
            <path class="cls-1" d="M29.01,174.21c.36,.44,.65,.67,1.05,.69,.53,.02,.94,.28,1.23,1.03-.04,.22-.12,.29-.32,.44-2.12,1.89-4.25,.74-6.5,.44-.88-.43-1.8-.6-1.41-2.13,2.02-.24,3.9-.36,5.95-.48Z"/>
            <path class="cls-1" d="M23.03,174.5c-.12,1.11,.61,1.23,1.15,1.72-.71,1.83-1.8,1.32-3.02,.6-.14-.79-.14-1.42-.12-2.22,.62-.18,1.22-.17,1.99-.1Z"/>
            <path class="cls-1" d="M20.61,169.11c.18,.19,.23,.4,.29,.76-.12,.63-.09,1.1,0,1.57,.14,.71,.15,1.42,.01,2.34-.44-.05-.57-.45-.56-.96,0-.78-.04-1.5-.44-2.2-.41-.72-.33-.78,.7-1.52Z"/>
            <path class="cls-1" d="M39.09,162.69c-.19,.15-.38,.16-.56,.14-.73-.08-.73-.08-.58-1.28,.21-.16,.41-.17,.76-.16,.45,.32,.39,.74,.39,1.3Z"/>
            <path class="cls-1" d="M34.32,6.57c.16,.21,.18,.41,.21,.75-.49,.53-.82,1.39-1.63,.84-.38-.25-.71,.14-.91,.61-.18,.43-.31,.87-.31,1.36,0,1.27-.17,2.59,.06,3.8,.24,1.3,.08,2.31-.67,3.39,.45,.56,1.27,.57,1.37,1.49,.07,.68,.46,1.28,.17,2.07-.13,.36,.09,.91,.12,1.37,.07,.94,.06,.94,1.14,1.21,.12,.54,.24,1.19-.36,1.37-.58,.18-1.2,.21-1.6-.45-.35-.56-.7-1.17-.42-1.97,.36-1.01,.11-1.92-.48-2.62-.49-.58-.51-1.24-.52-1.96-.01-.87,.08-1.76-.2-2.6-.13-.41-.04-.79,.18-1.11,.47-.67,.41-1.48,.41-2.28,0-2.55,.01-5.11,.02-7.89,.17-.24,.35-.26,.65-.26,.19,.27,.26,.54,.41,.88,.28,.27,.44,.5,.81,.56,.44,.05,.73,.18,.83,.61,.09,.38,.22,.71,.71,.82Z"/>
            <path class="cls-1" d="M39.24,170.93c.19-1.39,1-2.25,2.03-2.8,.37-.2,.74-.36,.86-.86,.18-.77,.22-1.57-.07-2.32-.15-.37-.44-.57-.77-.64-.38-.08-.79-.08-.97-.82,1.45-.37,2.54,.64,3.67,1.58,0,.71-.63,.96-.77,1.58-.14,.61-.36,1.19-.54,1.79-.29,.96-.77,1.62-1.62,1.85-.57,.15-1.11,.43-1.82,.64Z"/>
            <path class="cls-1" d="M30.91,28.1c-.69,.34-1.37,.48-2.21,.58-.16-.35-.18-.67-.18-.99-.01-1.77,.13-1.61,1.53-2.19,.41-.17,.76,.16,.81,.72,.04,.55,.04,1.11,.05,1.88Z"/>
            <path class="cls-1" d="M31.71,167.36c-.4,.28-.6,0-.64-.41-.09-.84-.14-1.68-.21-2.72,.05-.7,.09-1.2,.2-1.83,.48,.06,.62,.47,.62,.98,.01,1.26,.03,2.51,.03,3.98Z"/>
            <path class="cls-1" d="M32.94,165.23c.28,.78,.54,1.64-.37,2.26-.03-.75-.33-1.6,.37-2.26Z"/>
            <path class="cls-1" d="M29.46,51.04c.94,.71,.73,1.73,.13,2.86-.37-.82-.29-1.73-.13-2.86Z"/>
            <path class="cls-1" d="M18.47,167.54c-.42-.26-.38-.69-.19-1.25,.45,.24,.47,.67,.19,1.25Z"/>
            <path class="cls-1" d="M20.74,177.27c.26,.19,.27,.47,.14,.88-.47-.11-.53-.42-.14-.88Z"/>
            <path class="cls-1" d="M23.84,192.71c.41-.91,1.04-.93,1.81-.99,1.95-.13,3.65-.99,5.58-1.01,.03,1.2-.67,1.51-1.34,1.83-.96,.46-2,.67-3.02,1.48-.87-.62-1.68-.31-2.48-.21-.6,.08-.51-.48-.54-1.1Z"/>
            <path class="cls-1" d="M27.33,181.14c.24-.14,.41-.14,.71-.09,1.93,1.69,3.9,2.43,6.25,1.71,.32,.08,.65,.2,.72,.44,.3,1.05,.52,2.13,.77,3.2,.09,.36-.07,.62-.25,.85-.51,.67-1.17,.99-2.03,1.13-1.94,.97-3.44,2.9-5.75,2.41,.24-1.3,.7-2.16,1.75-2.7,1.27-.65,1.21-3.11,0-3.91-.85-.56-1.76-.97-2.64-1.46-.22-.13-.52-.23-.48-.65,.04-.38,.33-.43,.56-.56,.12-.07,.22-.16,.4-.39Z"/>
            <path class="cls-1" d="M34.28,182.62c.1,.13,.11,.23,.08,.28-.44,.68-2.01,1.32-2.54,.89-.62-.5-1.25-.73-1.97-.8-.44-.04-.86-.3-1.28-.51-.34-.17-.39-.59-.4-1.18,.79-.21,1.58-.24,2.54-.3,.47,.05,.76,.13,1.2,.28,.57,.35,1.01,.57,1.58,.74,.28,.26,.48,.4,.79,.6Z"/>
            <path class="cls-1" d="M27.52,190.69c1.25-.03,2.21-.67,3.2-1.23,.75-.43,1.41-1.14,2.47-1.06,.03,.24-.09,.48-.27,.83-.41,.51-.74,.94-1.16,1.45-.08,.1-.25,.13-.34,.15-.33,.08-.64,.05-.82,.22-.6,.59-1.25,.76-1.99,.71-.65-.05-1.29,.02-1.9,.35-.25,.14-.51,.05-.84-.25,.44-.47,.98-.8,1.64-1.17Z"/>
            <path class="cls-1" d="M31.81,190.76c-.11-.74,.17-1.24,.92-1.41,.1,.73-.18,1.22-.92,1.41Z"/>
            <path class="cls-1" d="M33.58,182.07c-.5-.04-1.08,.22-1.48-.58,.46-.36,.85,.03,1.4,.28,.12,.08,.09,.22,.08,.3Z"/>
            <path class="cls-1" d="M32.88,5c-.01,.27-.04,.41-.07,.55-.06,.23-.18,.39-.39,.35-.2-.04-.29-.23-.31-.46-.02-.15-.02-.3-.04-.61,.29-.23,.64-.64,.82,.17Z"/>
          </g>
        </g>
      </g>
    </g>
  </g>
</svg>