<svg xmlns="http://www.w3.org/2000/svg" width="1009.441" height="271.87" viewBox="0 0 1009.441 271.87">
  <g id="Сгруппировать_128" data-name="Сгруппировать 128" transform="translate(-138.559 -3833.016)">
    <path id="Контур_5738" data-name="Контур 5738" d="M831.3,4007.036c-9.839-2.591-19.779-4.9-29.565-7.634-10.609-2.967-21.809-5.323-28.57-14.553-11.131-15.2-28.577-19.556-46.293-22.941-9.969-1.905-20.591-1.327-28.833-8.06-5.616-4.587-12.362-7.268-19.427-9.5-9.643-3.042-19.335-6.109-24.763-15.365-1.628-2.776-5.107-3.578-8.3-4.414-2.08-.546-4.813-.747-5.984-2.123-5.848-6.87-14.652-8.836-22.407-12.627-5.851-2.861-10.165-7.945-16.638-10.244-10.053-3.569-13.815-11.2-14.006-21.6-.179-9.793-4.483-18.865-8.106-27.493-7.222-17.2-15.79-20.005-35.245-15.658-9.213,2.058-14.944,7.637-18.093,15.9-1.85,4.854-4.351,9.03-9.391,11.472a78.35,78.35,0,0,0-20.086,14.347c-2.575,2.474-5.882,3.831-9.241,5.265-11.172,4.77-22.38,10.256-29.066,20.574-8.1,12.509-18.726,22.916-28.484,34.062a23.324,23.324,0,0,1-6.4,4.758c-10.516,5.88-21.862,9.995-32.313,16.1a64.066,64.066,0,0,1-25.978,8.267c-12.543,1.307-25.264,2.968-37.449,6.359-12.581,3.5-24.413,9.976-36.937,13.838a135.532,135.532,0,0,1-45.08,5.748c-6.787-.252-13.757-2.184-20.175,1.413-5.056,2.833-10.507,3.682-15.7,5.631a126.013,126.013,0,0,1-25.674,6.7c-2.194.331-4.734,1.076-4.208,4,.486,2.705,2.618,4.086,5.354,2.928,7.128-3.017,13.477.645,21.482-.017-5.148,8.557-8.328,16.831-14.04,23.867-5.6,6.894-14.484,10.585-21.194,18.719,8.118-.139,11.262-7.8,17.779-7.714.134,4.856-6.637,4.424-6.375,9.194,4.52-.121,7.843-2.912,11.12-5.135,8.317-5.643,16.409-11.615,24.453-17.632,2.586-1.933,5.04-3.662,7.354-.7,2.263,2.9-.926,4.635-2.723,6.33-3.725,3.514-7.69,6.791-11.5,10.224-1.758,1.582-2.306,4.528-5.258,4.744-13.663,1-25.437,7.8-37.835,12.858-8.1,3.3-16.131,8.259-25.482,5.8a2.652,2.652,0,0,0-3.471,2.582c3.754,2.129,8,1.68,12.419,1.581,14.713-.327,29.357-4.864,44.2-2.265a30.045,30.045,0,0,0,18.072-2.441c11.319-5.288,23.145-9.578,35.886-7.642,1.766.269,3.9.457,4.983-1.72-1.265-1.973-3.658-1.6-5.435-2.939,1.653-1.59,5.426-2.521,2.808-5.671-10.136,1.4-20.272,3-30.428,1.465,9.743-7.558,19.7-3.775,30.5-1.654,7.082.048,13.512,3.01,14.512,7.406,1.109,4.879,2.87,6.385,7.058,7.658,3.331,1.013,3.577,3.571,1.642,6.648-2.939,4.672-7.183,7.046-12.522,7.83-1.452.212-3.213-.308-4.024,2.27,3.338,4.276,7.234,1.68,11.378.185,12.387-4.471,23.394-13.655,37.6-12.14a7.115,7.115,0,0,0,4.863-1.834c2.94-2.8,5.534-5.133,9.716-2.537,3.067,1.9,7.536-1.029,10.516,2.135,4.094,4.348,8.931,7.754,10.2,14.45,1.117,5.868,4.937,11.015,8.7,15.769,2.636,3.334,5.748,3.144,8.826.161-.978-2.306-5.687-2.034-4.288-6.245,5.667-1.313,7.219,3.353,9.916,6.152,1.279,1.327,1.854,3.535,4.413,2.814,2.749-.775,1.939-2.96,2.063-4.809q.529-7.906,1.241-15.812c.373-4.145,2.592-6.454,7.058-7.44a22.8,22.8,0,0,1,12.739.673c.519-1.443,1.093-2.856,1.7-4.255-9.825-2.293-20.462-.4-30.189-3.509-1.5-.479-3.793.9-5.68,1.545-14.539,4.956-15.685,4.738-25.213-6.175-4.961-5.681-9.833-11.368-19.171-11.389,1.836-3.6,3.786-4.843,6.436-2.641a5.526,5.526,0,0,0,6.037,1.043c11.47-4.491,23.725-5.892,35.251-10.281,6.191-2.358,9.856,0,12.277,5.556,3.29,7.554,8.513,13.034,17.761,14.354,2.755.393,5.64.426,8.442.738.741-1.04,1.529-2.036,2.346-3q-1.549-.254-3.174-.417c-9.891-.988-18.264-5.31-20.86-15.742-.477-1.92-1.51-3.726-3.4-4.3a88.071,88.071,0,0,1-25.588-12.1c-3.142,4.358,2.188,5.57,1.358,9.422-5.991,2.495-12.565,3.646-19.775,4.51,2.069-5.645,7.089-7.98,9.243-11.9-8.076-6.323-14.448-.931-20.989,3.082-.764.468-1.433,1.1-2.224,1.509-2.509,1.284-4.942,3.414-7.568.366-2.653-3.079-6.639-5.518-5.012-10.506,1.079-3.305,3.143-5.091,7.065-3.59,3.8,1.454,7.828,2.417,11.738,3.64,3.353,1.049,5.8,1.005,6.943-3.331.745-2.82,2.508-6.661,5.845-6.455,5.927.366,8.026-3.575,8.74-7.219,1.538-7.849,1.97-16.082-2.957-22.732-5.27-7.114-4.893-8.708,4.225-10.544,6.343-1.278,12.68-2.594,19.019-3.9q9.883-2.038,19.744-4.086c.374,3.116-3.082,4.33-1.594,7.109,5.2-.845,7.064-5.5,10.1-8.646,7.451-7.706,16.217-13.628,26.9-11.535,11.235,2.2,19.959-2.085,28.848-7.746,1.056-.672,2.159-1.814,4.039.034-3.033,3.339-8.164,5.273-9.644,10.291l4.416,1.086c-3.818,3.971-2.285,9.115-5.205,13.286,4.927,2.233,10.334-6.657,14.164.589.607,2.409-2.971,4.48-1.221,7.095,3.071.583,3.785-1.932,5.026-3.555,1.49-1.947,2.848-4.387,5.215-4.981,6.406-1.6,8.727-6.391,11.018-11.457a102.855,102.855,0,0,1,5.8-11.75c3.311-5.376,3.744-10.806,1.144-15.851-2.168-4.207-2.114-7.228,3.248-9.582-3.168-2.587-6.457-2.95-9.467-3.992-3.6-1.246-6.537,1.655-10.363,1.787,6.559-6.266,10.561-7.425,17.117-4.991,1.673.621,2.9-.061,4.39-.524,6.065-1.881,10.358.206,9.682,5.974-.745,6.351-.007,13-4.053,19.19-2.379,3.641-5.507,7.857-3.8,12.417,2.957.69,3.729-2.4,5.814-2.064.2,4.94-7.441,8.127-4.158,13.86,2.814-.2,3.466-3.354,4.883-3.34,11.422,3.4.721,10.761,2.871,16.4,5.307-3.809,7.731-8.9,11.579-12.795,2.363-2.393,4.826-3.138,6.817-.953,7.012,7.7,16.357,4.487,25.122,3.988,1.414-.081,3.2-.347,3.635-2.872a40.168,40.168,0,0,0-13.9-.847c-2.9.367-6.172,1.16-8.129-1.076-3.58-4.091-8.825-5.412-13.643-6.637-5.061-1.288-5.634-3.926-4.7-7.792a18.172,18.172,0,0,0-1.331-12.259c-2.015-4.527-1.04-8.991,1.156-14.025,6.165-14.131,12-28.465,14.211-43.624,1.579-10.854,6.23-19.946,16.487-26.066,4.577-2.73,9.036-5.386,12.453-9.852,3.847-5.029,7.956-4.663,12.2-.575,13.317,12.826,18.833,28.938,19.9,47.124.329,5.62,2.316,11.165,7.915,13.4,12.59,5.02,22.37,14.174,35.071,19.289,9.947,4.007,17.254,13.841,11.507,26.288-3.687-2.092-8.11-3.186-11.745-.441-6.131,4.632-13.254,3.161-19.77,5.1a6.629,6.629,0,0,1-6.688-1.707c-3.97-4.237-9.5-5.438-14.849-7.1-7.611-2.361-11.947-1.073-16.121,5.676a24.931,24.931,0,0,1-8.469,8.2c-3.825,2.392-7.8,5.014-9.106,9.826,2.912,1.146,5.107-.112,7.246-1.211,3.618-1.858,6.476-1.773,9.434,1.145s2.222,5.7.259,8.575c-5.087,7.441-10.428,14.729-15.552,22.148-2.038,2.949-4.529,5.87-3.881,9.508,2.189,1.358,3.7-.211,5.362-.506,4.006-.71,8.686-.256,10.8,2.263,2.361,2.807-1.063,6.3-3.5,8.91a94.976,94.976,0,0,1-7.938,8.051c-5.16,4.372-9.733,9.4-14.493,14.089,2.254,2.387,5.412-.714,6.98,1.841-2.012,6.879-7.443,11.649-11.832,16.485,1.477,2.92,4.283.043,5.488,2.007-.113,3.683-2.892,6.308-4.3,9.445-1.332,2.966-3.211,5.982-.665,10.707,11.713-24.222,27.877-44.7,37.911-69.766,2.641,8.683.053,16.612,4.171,23.5,2.55-11.279-.18-23.066,5.347-34,6.973,2.842,1.083,10.895,6.75,14.478.323-10.986,1.027-21.75,6.854-32.032,5.716,2.192,7.86-.244,7.552-5.643-.074-1.305.046-3,1.375-3.4,4.973-1.515,8.091-6.043,12.687-7.864,3.084,2.671-1.641,5.206-.193,7.55,1.091.268,2.247-1.565,3.523,1.848-13.582,5.755-18.8,19.393-28.789,29.553,7.626,9.142-.082,19.287-.159,28.926-.08,10.005-11.824,16.124-18.482,25.478,5.68-.688,7.632-4.862,11.6-5.6,3.107,4.308-.754,7.17-2.866,10.075-7.966,10.957-12.571,22.762-12.6,35.852,0,1.5-.03,3.071,2.389,3.154,2.806-2.091,1.985-5.4,2.932-8.121,2.11-6.069,1.716-13.36,7.188-17.828,10.752-8.781,18.693-18.487,19.913-32.334.375-4.255.975-8.289.133-12.525-1.94-9.759,1.211-19.324,4.119-28.756.93-3.02,3.414-3.928,5.921-.974,1.765,2.079,2.952,4.953,7.476,5.659-.707-9.392-12.42-20.142,5.067-27.346,2.989,9.658,6.427,18.156,4.462,28.005,9.2-15.808,10.854-32.848,12.712-49.542,9.1-.727,9.088,9.948,18.2,10.392-4.907-8.361-10.543-14.1-17.326-19.657,2.165-2.762,2.386-5.875,2.07-9.072-.247-2.5-.885-5.656,2.2-6.778,3.126-1.138,5.713,1.222,6.845,3.565,2.721,5.631,8.009,7.53,13.384,9.834,10.928,4.685,23.026,7.079,32.434,14.82,4.646,3.823,10.478,5.688,17.322,5.641,6.083-.041,11.524,2.089,15.446,7.557,4.512,6.292,11.271,10.625,18.761,13.663,1.425.578,2.914.989,4.312-1-3.373-6.5-13.49-6.015-16.391-13.106,2.5-2.717,4.726-1.785,7.095-1.265,10.353,2.273,17.091,9.3,23.79,16.208,4.727,4.872,9.4,9.732,16.134,11.951,14.541,4.792,29.388,8.756,44.44,12.115,2.526.564,4.962,1.017,7.469-.963C835.678,4007.581,833.267,4007.554,831.3,4007.036Zm-549.987,3.871c5.835-1.855,10.166.009,11.778,5.449-5.741-.406-11.048,3.425-16.7.934C274.454,4012.223,278.432,4011.822,281.312,4010.907Zm-55.277,16.361c1.489-3.841,3.028-7.808,4.566-11.774a79.89,79.89,0,0,0,2.364-12.284c.752-6.017,3.912-8.377,10.026-7.442,8.91,1.362,17.832.429,27.653-1.623-1.3,5.747-4.417,9.812-3.84,15.208.552,5.159-10.9,12.1-16.646,11.046-6.567-1.2-10.706,3.673-15.825,6C231.666,4027.6,229.418,4029.646,226.035,4027.268Zm37.108,21.524c-7.508,2.589-12.6-1.429-20.355-1.944,4.96-3.408,8.324-5.48,11.381-7.915,1.67-1.33,3.508-3.142,2.655-5.512-.823-2.287-3.1-1.656-5.057-1.6-2.863.087-5.868-.516-5.165-3.869.713-3.4,3.981-3.023,6.524-2.3a67.348,67.348,0,0,0,14.1,2.126c5.681.369,7.686,3.934,4.777,8.823C269.466,4040.859,267.161,4045.419,263.143,4048.792Zm26.873,4.231a53.679,53.679,0,0,1-15.395-2.453c-4.49-1.412-5.788-3.494-1.579-7.089,4.67-3.987,7.115-9.494,10.862-14.1,1.7-2.091,2.722-5.121,6.337-5.29,1.944,2.766.328,5.265-.887,7.768-2.105,4.339-1.516,6.834,4.088,6.982,3.123.082,6.684.12,8.466,3.377C300.411,4052.029,298.97,4053.16,290.016,4053.023Zm161.528-125.949c-2.945,1.333-4.8,3.32-7.778,2.123,2.822-5.849,7.967-6.89,13.863-7.9C456.815,3924.962,453.707,3925.566,451.544,3927.074Zm19.723.515c5.181-4.043,6.514-.448,7.58,2.387,1.035,2.752.573,5.475-3.382,6.406-1.893.446-3.736,1.147-5.664,1.751C468.691,3934.494,467.911,3930.9,471.267,3927.589Z" fill="#48424c"/>
    <path id="Контур_5739" data-name="Контур 5739" d="M902.391,4035.9c-.478-2.428.465-4.065,2.246-4.7,7.247-2.574,11.158-9.282,18.84-13.275-5.164-1.116-9.107-2.794-13.03-.73-6.323,3.326-12.65,3.688-19.354,2.959-16.073-1.748-30.986-7.487-47.4-8.967,5.051-8.409,28.642-13.092,38.443-8.322-1.449,2.474-6.726,2.3-5.56,6.274,1.034,3.525,4.783,4.271,8.01,5.558,7.646,3.049,15.162.521,22.731-1.253,1.96-.459,4.234-.9,4.675-3.175.551-2.839-1.989-3.255-3.995-4a17.888,17.888,0,0,1-2.543-1.748c4.765-2.421,8.315-1.672,10.972,1.064,6.19,6.372,12.986,10.474,23.04,8,2.6-.64,6.121-1.057,8.369.628,9.632,7.214,21.826,3.852,32.706,5.809,4.725.851,9.478-.894,14.3-2.078,11.491-2.823,23.015-3.707,34.4-.078,15.715,5.008,27.637,15.745,41.81,23.02a259.5,259.5,0,0,1,29.368,17.414c7.328,5.1,16.038,6.732,22.823,11.752,6.948,5.139,13.2,11.12,19.738,16.756,4.13,3.561,4.234,8.555,5.017,14.006-4.435-.295-5.148-3.3-6.7-5.606-7.976-11.864-16.878-22.653-32.9-25.129-2.079-.322-4.759-1.022-5.783-2.481-7.015-9.991-19.409-12.74-28.933-19.314-8.844-6.1-19.048-10.4-27.525-17.116a14.124,14.124,0,0,0-3.285-1.951c-1.55-.647-3.333-1.569-4.575.686-1.075,1.951.082,3.039,1.535,4.21a24.173,24.173,0,0,0,13.768,5.2c-9.1,9.045-8.31,11.048,4.9,15.561.032,2.242-3.487,2.116-3.259,5.421l19.889,17.3c-5.508,1.015-8.109-1.626-10.789-3.636-14.369-10.772-29.056-21.132-45.2-29.447-5.945-3.061-12.5-5.107-18.968-7.693-1.611,7.1.626,10.511,8.192,13.184,8.9,3.141,18.287,5.354,25.947,10.834,6.342,4.537,13.456,8.332,18.844,15.366-4.4.9-6.467-1.034-8.557-2.519-11.4-8.1-23.016-15.789-37.471-18.7-2.084-.419-3.938-1.66-5.911-2.5-1.764-.748-3.491-.709-4.713,1.055-1.078,1.557-2.331,2.89-.991,5.15,2.346,3.956,2.115,9.839,9.075,9.961a2.039,2.039,0,0,1,1.611,2.913,2.891,2.891,0,0,1-3.769,1.882c-6.043-1.977-12.35-3.6-17.831-6.524-2.254-1.2-4.257-3.142-6.924-4.03-5.078-1.691-8.5-4.9-11.2-9.464-2.965-5-3.2-11.548-9.263-15-2.379-1.356-1.766-5.494-1.228-8.425.914-4.969-1.827-7.536-5.734-9.352-4.148-1.929-5.789,2.221-8.34,3.971-3.927,2.7-1.066,4.681.616,6.712a268,268,0,0,1,20.611,28.2,2.766,2.766,0,0,1-.282,3.875c-5.026-.259-6.352-4.427-8.589-7.8-6.794-10.248-13.725-20.421-23.388-28.427-1.867-1.547-3.732-3.674-7.85-1.475,3,4.866,5.579,9.984,9.068,14.418,3.158,4.017.88,7.013-1.45,10.089-2.556,3.373-5.495,2.044-8.111.331a17.41,17.41,0,0,0-8.525-2.723C904.986,4047.175,903.213,4045.384,902.391,4035.9Z" fill="#48424c"/>
    <path id="Контур_5740" data-name="Контур 5740" d="M765.391,4032.155c-5.1-6.082-10.728-11.106-12.459-19-.969-4.421-4.271-4.339-7.881-.912-4.469,4.241-4.215,9.879-6.244,14.826-1.107,2.7-1.4,5.82-4.7,7.026-3.369-1.939-.27-4.452-.959-7.063-5.035,1.045-8.65,3.539-10.52,8.32-1.635,4.183-.785,8.987-3.5,13.179-4.5-1.959-1.764-6.928-5.386-8.957-3.148.493-3.3,3.007-3.963,5.535-1.013,3.87-.8,8.155-4.371,11.307-1.477,1.3-2.519,3.288-4.966,2.354a4.472,4.472,0,0,1-2.928-4.459c-.275-11.725,4.067-22.225,11.436-31.751,2.488-3.217,8.328-2.626,9.752-7.51.011-1.571-1.449-1.789-2.571-2.3a2.6,2.6,0,0,1-1.623-3.073c.39-2.048,2.287-1.58,3.679-2.094,10.847-4.006,22.332-3.98,33.383-6.758,3.152-.792,4.738-2.963,7.026-5.33,9.687,8.375,21.764,11.547,34.009,14.431a64.328,64.328,0,0,1,19.388,8.459c7.478,4.7,7.033,13.008,7.978,21.409-5.828-1.313-5.964-5.473-6.976-9.078-1.162-4.137-.44-10.093-8.354-7.871-1.691.474-2.19-1.615-3-2.806-4.959-7.328-11.092-7-16.443.769-2.083,3.025-3.069,7.492-8.745,6.884-.122-4.123,1.5-7.827.9-11.938-.631-4.371-1.912-6.362-6.055-7.217-4.8-.989-5.234,3.372-7.193,5.593-2.538,2.878-3.109,6.067-.3,9.177,3.071,3.4,6.582,6.536,8.345,10.885.588,1.449,1.671,3.038-.393,4.9C768.391,4038.128,767.723,4034.679,765.391,4032.155Z" fill="#48424c"/>
    <path id="Контур_5741" data-name="Контур 5741" d="M671.537,4031.873c-7.173,11.569-13.539,22.905-15,36.314-3.666-1.213-1.415-5.7-5.94-6.768-4.745,8.458-11.71,16.134-14.561,26.025-3.608-.782-2.8-3.243-2.635-5.178.815-9.488.862-9.487-8.866-11.441,5.768-8.936,17.76-11.459,22.229-21.011-2.693-3.617-6.725.884-10.226-1.27,4.835-7.564,13.938-8.757,20.376-13.018-.033-1.027.131-1.585-.085-1.831-6.43-7.343-6.436-7.338,2.659-11.608,3.538-1.661,5.053-3.606,3.236-7.549-2.114-4.59-6.121-7.032-11.134-10.066,10.593-5.174,19.671-11.059,30.324-13.55,1.656-.387,3.4-.2,4.188,1.041,2.214,3.473,5.915,5.568,8.81,8.6-3.777,2.8-5.964-1.3-9.475-.463-2.961,3.319-3.144,7.378-2.56,11.621.636,4.619-.332,8.506-5.84,10.157C671.817,4023.44,672.742,4027.888,671.537,4031.873Z" fill="#48424c"/>
    <path id="Контур_5742" data-name="Контур 5742" d="M519.727,4020.931c-10.77,4.46-18.3-1.532-27.949-3.955,3.825-3.359,6.641-2.267,8.9-1.2,10.882,5.121,20.678,1.655,30.4-4.535,3.074-1.958,6.406-3.922,12.456-3.005C535.231,4013.781,528.443,4018.382,519.727,4020.931Z" fill="#48424c"/>
  </g>
</svg>
