<?xml version="1.0" encoding="UTF-8"?>
<svg id="_Шар_2" data-name="Шар 2" xmlns="http://www.w3.org/2000/svg" viewBox="0 0 2843.82 55.91">
  <defs>
    <style>
      .cls-1 {
        fill: #48424c;
      }
    </style>
  </defs>
  <g id="Ebene_40" data-name="Ebene 40">
    <g>
      <path class="cls-1" d="M31.61,6.15c-.93-.19-1.8-.42-2.61-.67-.81-.25-1.6-.51-2.38-.78v-1.68h13.05v1.68c-1.12,.62-2.51,1.1-4.18,1.45l-13.11,37.47-3.19,.7L4.41,6.15c-.77-.19-1.53-.42-2.26-.67-.74-.25-1.45-.51-2.15-.78v-1.68H15.37v1.68c-.66,.27-1.39,.53-2.2,.78-.81,.25-1.66,.47-2.55,.67l9.92,26.51,1.22,4.64h.12l1.16-4.76L31.61,6.15Z"/>
      <path class="cls-1" d="M60.26,39.56c-.31,.66-.79,1.28-1.45,1.86-.66,.58-1.41,1.08-2.26,1.51s-1.78,.76-2.78,1.02c-1.01,.25-2.03,.38-3.07,.38-2.28,0-4.29-.36-6.03-1.07-1.74-.71-3.19-1.74-4.35-3.07s-2.04-2.93-2.64-4.79c-.6-1.86-.9-3.94-.9-6.26,0-4.95,1.14-8.72,3.42-11.31,2.28-2.59,5.51-3.89,9.69-3.89,1.35,0,2.69,.18,4,.55,1.31,.37,2.48,.98,3.51,1.83,1.02,.85,1.86,1.98,2.49,3.39,.64,1.41,.96,3.16,.96,5.25,0,.66-.03,1.33-.09,2-.06,.68-.17,1.4-.32,2.17h-18.1c0,1.62,.2,3.14,.61,4.55,.41,1.41,1.02,2.64,1.83,3.68,.81,1.04,1.84,1.87,3.07,2.46,1.24,.6,2.69,.9,4.35,.9,1.35,0,2.73-.19,4.12-.58,1.39-.39,2.44-.89,3.13-1.51l.81,.93Zm-10.61-23.08c-2.2,0-3.89,.74-5.05,2.23-1.16,1.49-1.86,4.11-2.09,7.86h12.76c.04-.35,.07-.69,.09-1.02,.02-.33,.03-.65,.03-.96,0-2.47-.46-4.45-1.39-5.92-.93-1.47-2.38-2.2-4.35-2.2Z"/>
      <path class="cls-1" d="M77.72,18.97c-.43,.23-.96,.71-1.6,1.42-.64,.72-1.21,1.77-1.71,3.16v17.23c.77,.08,1.55,.22,2.32,.43,.77,.21,1.55,.53,2.32,.96v1.45h-13.69v-1.45c.7-.39,1.35-.68,1.97-.87,.62-.19,1.24-.37,1.86-.52V17.98l-3.83-.46v-1.51c1.24-.54,2.51-.98,3.83-1.3,1.31-.33,2.57-.59,3.77-.78h1.45v6.15h.23c.35-.77,.84-1.55,1.48-2.32,.64-.77,1.37-1.47,2.2-2.09,.83-.62,1.74-1.09,2.73-1.42,.99-.33,2-.43,3.04-.32,.27,.5,.51,1.05,.72,1.65,.21,.6,.42,1.23,.61,1.88v1.51h-7.71Z"/>
      <path class="cls-1" d="M102.95,37c0-1.08-.34-2-1.02-2.75s-1.54-1.46-2.58-2.12c-1.04-.66-2.16-1.29-3.33-1.91-1.18-.62-2.29-1.34-3.33-2.17-1.04-.83-1.9-1.79-2.58-2.87-.68-1.08-1.01-2.42-1.01-4,0-1.04,.24-2.01,.72-2.9s1.13-1.65,1.94-2.29c.81-.64,1.76-1.14,2.84-1.51,1.08-.37,2.24-.55,3.48-.55,2.09,0,3.8,.12,5.13,.35,1.33,.23,2.62,.56,3.86,.99-.15,1.24-.34,2.49-.55,3.74-.21,1.26-.51,2.54-.9,3.86h-1.45l-2.2-5.92c-.46-.19-.99-.32-1.57-.38-.58-.06-1.18-.09-1.8-.09-.7,0-1.3,.13-1.83,.38-.52,.25-.97,.57-1.33,.96s-.65,.83-.84,1.33-.29,1.01-.29,1.51c0,1.04,.34,1.94,1.02,2.7,.68,.75,1.54,1.45,2.58,2.09,1.04,.64,2.15,1.27,3.33,1.88,1.18,.62,2.29,1.31,3.33,2.09s1.9,1.67,2.58,2.7c.68,1.02,1.01,2.25,1.01,3.68,0,1.32-.28,2.49-.84,3.54-.56,1.04-1.33,1.93-2.32,2.67-.99,.74-2.13,1.3-3.42,1.71-1.3,.41-2.68,.61-4.15,.61-1.66,0-3.19-.15-4.58-.44-1.39-.29-2.84-.71-4.35-1.25,.08-1.39,.25-2.73,.52-4.03,.27-1.3,.62-2.54,1.04-3.74h1.45l2.55,6.32c.42,.31,.94,.48,1.54,.52,.6,.04,1.15,.06,1.65,.06,1.7,0,3.07-.46,4.12-1.39s1.57-2.05,1.57-3.36Z"/>
      <path class="cls-1" d="M135.72,39.56c-.7,1.35-1.83,2.48-3.39,3.39s-3.39,1.36-5.48,1.36c-2.28,0-4.26-.36-5.94-1.07-1.68-.71-3.08-1.74-4.21-3.07-1.12-1.33-1.96-2.94-2.52-4.81-.56-1.88-.84-3.95-.84-6.24,0-4.91,1.2-8.67,3.6-11.28,2.4-2.61,5.66-3.92,9.8-3.92,1.89,0,3.59,.17,5.07,.49,1.49,.33,2.76,.76,3.8,1.3-.12,1.28-.33,2.71-.64,4.29-.31,1.59-.7,2.9-1.16,3.94h-1.57l-2.44-6.9c-.27-.19-.58-.34-.93-.43-.35-.1-.93-.14-1.74-.14-2.63,0-4.66,.96-6.09,2.87-1.43,1.91-2.15,5.15-2.15,9.72,0,1.47,.2,2.9,.61,4.29,.41,1.39,1.02,2.64,1.86,3.74,.83,1.1,1.88,1.98,3.13,2.64,1.26,.66,2.72,.99,4.38,.99,1.35,0,2.53-.19,3.54-.58,1-.39,1.86-.85,2.55-1.39l.75,.81Z"/>
      <path class="cls-1" d="M171.04,43.62h-12.53v-1.45c.93-.5,2.09-.97,3.48-1.39v-13.57c0-3.02-.43-5.38-1.28-7.1-.85-1.72-2.4-2.58-4.64-2.58-1.01,0-1.91,.18-2.73,.55-.81,.37-1.55,.84-2.2,1.42-.66,.58-1.22,1.25-1.68,2-.46,.75-.81,1.54-1.04,2.35v16.94c.62,.15,1.21,.33,1.77,.52,.56,.19,1.11,.48,1.65,.87v1.45h-12.47v-1.45c1.2-.62,2.47-1.08,3.83-1.39V4.06l-4.41-.46v-1.51c1.12-.46,2.43-.87,3.92-1.22s2.91-.64,4.26-.87h1.45V20.47h.06c.81-1.82,1.98-3.36,3.51-4.64,1.53-1.28,3.37-1.91,5.54-1.91,1.55,0,2.93,.18,4.15,.55,1.22,.37,2.23,1.01,3.04,1.94,.81,.93,1.43,2.17,1.86,3.74,.42,1.57,.64,3.55,.64,5.95v14.67c.66,.15,1.31,.33,1.97,.52,.66,.19,1.28,.48,1.86,.87v1.45Z"/>
      <path class="cls-1" d="M197.9,39.56c-.31,.66-.79,1.28-1.45,1.86-.66,.58-1.41,1.08-2.26,1.51s-1.78,.76-2.78,1.02c-1.01,.25-2.03,.38-3.07,.38-2.28,0-4.29-.36-6.03-1.07-1.74-.71-3.19-1.74-4.35-3.07s-2.04-2.93-2.64-4.79c-.6-1.86-.9-3.94-.9-6.26,0-4.95,1.14-8.72,3.42-11.31,2.28-2.59,5.51-3.89,9.69-3.89,1.35,0,2.69,.18,4,.55,1.31,.37,2.48,.98,3.51,1.83,1.02,.85,1.86,1.98,2.49,3.39,.64,1.41,.96,3.16,.96,5.25,0,.66-.03,1.33-.09,2-.06,.68-.17,1.4-.32,2.17h-18.1c0,1.62,.2,3.14,.61,4.55,.41,1.41,1.02,2.64,1.83,3.68,.81,1.04,1.84,1.87,3.07,2.46,1.24,.6,2.69,.9,4.35,.9,1.35,0,2.73-.19,4.12-.58,1.39-.39,2.44-.89,3.13-1.51l.81,.93Zm-10.61-23.08c-2.2,0-3.89,.74-5.05,2.23-1.16,1.49-1.86,4.11-2.09,7.86h12.76c.04-.35,.07-.69,.09-1.02,.02-.33,.03-.65,.03-.96,0-2.47-.46-4.45-1.39-5.92-.93-1.47-2.38-2.2-4.35-2.2Z"/>
      <path class="cls-1" d="M234.67,43.62h-12.47v-1.45c1.04-.54,2.18-1,3.42-1.39v-13.75c0-2.94-.43-5.26-1.28-6.96-.85-1.7-2.4-2.55-4.64-2.55-.97,0-1.87,.17-2.7,.52-.83,.35-1.57,.82-2.2,1.42-.64,.6-1.19,1.28-1.65,2.03s-.83,1.54-1.1,2.35v16.94c1.2,.23,2.36,.7,3.48,1.39v1.45h-12.53v-1.45c.97-.5,2.24-.97,3.83-1.39V17.98l-3.83-.46v-1.51c1-.42,2.17-.81,3.48-1.16,1.31-.35,2.69-.66,4.12-.93h1.45v6.5h.06c.81-1.78,1.98-3.31,3.51-4.58,1.53-1.28,3.37-1.91,5.54-1.91,1.55,0,2.93,.18,4.15,.55,1.22,.37,2.23,1.01,3.04,1.94,.81,.93,1.43,2.17,1.86,3.74,.42,1.57,.64,3.55,.64,5.95v14.67c1.55,.27,2.82,.73,3.83,1.39v1.45Z"/>
      <path class="cls-1" d="M253.05,14.62h11.19v1.51c-.73,.31-1.46,.58-2.17,.81-.72,.23-1.46,.43-2.23,.58-.58,.77-1.25,1.6-2,2.49-.75,.89-1.52,1.78-2.29,2.67-.77,.89-1.52,1.72-2.23,2.49-.72,.77-1.33,1.41-1.83,1.91,.58,.77,1.29,1.71,2.12,2.81,.83,1.1,1.73,2.27,2.7,3.51,.97,1.24,1.96,2.49,2.99,3.77,1.02,1.28,2.04,2.48,3.04,3.6l3.25,1.39v1.45h-7.19l-1.57-1.39c-2.05-2.55-3.75-4.82-5.1-6.82-1.35-1.99-2.59-3.86-3.71-5.6l-1.91-.58v11.54c1.28,.23,2.53,.7,3.77,1.39v1.45h-12.82v-1.45c1.28-.62,2.55-1.08,3.83-1.39V4.06l-4.41-.46v-1.51c1.08-.5,2.38-.91,3.89-1.22,1.51-.31,2.94-.6,4.29-.87h1.45V27.72h1.51c.62-.7,1.29-1.47,2.03-2.32s1.47-1.73,2.2-2.64,1.45-1.81,2.15-2.7,1.33-1.74,1.91-2.55c-.97-.27-1.91-.73-2.84-1.39v-1.51Z"/>
      <path class="cls-1" d="M291.45,39.56c-.31,.66-.79,1.28-1.45,1.86-.66,.58-1.41,1.08-2.26,1.51s-1.78,.76-2.78,1.02c-1.01,.25-2.03,.38-3.07,.38-2.28,0-4.29-.36-6.03-1.07-1.74-.71-3.19-1.74-4.35-3.07s-2.04-2.93-2.64-4.79c-.6-1.86-.9-3.94-.9-6.26,0-4.95,1.14-8.72,3.42-11.31,2.28-2.59,5.51-3.89,9.69-3.89,1.35,0,2.69,.18,4,.55,1.31,.37,2.48,.98,3.51,1.83,1.02,.85,1.86,1.98,2.49,3.39,.64,1.41,.96,3.16,.96,5.25,0,.66-.03,1.33-.09,2-.06,.68-.17,1.4-.32,2.17h-18.1c0,1.62,.2,3.14,.61,4.55,.41,1.41,1.02,2.64,1.83,3.68,.81,1.04,1.84,1.87,3.07,2.46,1.24,.6,2.69,.9,4.35,.9,1.35,0,2.73-.19,4.12-.58,1.39-.39,2.44-.89,3.13-1.51l.81,.93Zm-10.61-23.08c-2.2,0-3.89,.74-5.05,2.23-1.16,1.49-1.86,4.11-2.09,7.86h12.76c.04-.35,.07-.69,.09-1.02,.02-.33,.03-.65,.03-.96,0-2.47-.46-4.45-1.39-5.92-.93-1.47-2.38-2.2-4.35-2.2Z"/>
      <path class="cls-1" d="M328.22,43.62h-12.47v-1.45c1.04-.54,2.18-1,3.42-1.39v-13.75c0-2.94-.43-5.26-1.28-6.96-.85-1.7-2.4-2.55-4.64-2.55-.97,0-1.87,.17-2.7,.52-.83,.35-1.57,.82-2.2,1.42-.64,.6-1.19,1.28-1.65,2.03s-.83,1.54-1.1,2.35v16.94c1.2,.23,2.36,.7,3.48,1.39v1.45h-12.53v-1.45c.97-.5,2.24-.97,3.83-1.39V17.98l-3.83-.46v-1.51c1-.42,2.17-.81,3.48-1.16,1.31-.35,2.69-.66,4.12-.93h1.45v6.5h.06c.81-1.78,1.98-3.31,3.51-4.58,1.53-1.28,3.37-1.91,5.54-1.91,1.55,0,2.93,.18,4.15,.55,1.22,.37,2.23,1.01,3.04,1.94,.81,.93,1.43,2.17,1.86,3.74,.42,1.57,.64,3.55,.64,5.95v14.67c1.55,.27,2.82,.73,3.83,1.39v1.45Z"/>
      <path class="cls-1" d="M352,39.61c.46,.46,1.06,.86,1.8,1.19,.73,.33,1.84,.49,3.31,.49,1.24,0,2.4-.16,3.48-.49,1.08-.33,2.02-.81,2.81-1.45,.79-.64,1.42-1.41,1.89-2.32,.46-.91,.7-1.94,.7-3.1,0-1.55-.47-2.84-1.42-3.89-.95-1.04-2.13-1.97-3.54-2.78-1.41-.81-2.95-1.6-4.61-2.38-1.66-.77-3.2-1.69-4.61-2.75-1.41-1.06-2.59-2.34-3.54-3.83-.95-1.49-1.42-3.35-1.42-5.6,0-1.62,.29-3.07,.87-4.35,.58-1.28,1.4-2.36,2.46-3.25,1.06-.89,2.33-1.58,3.8-2.06,1.47-.48,3.11-.72,4.93-.72,2.36,0,4.51,.18,6.47,.55,1.95,.37,3.49,.82,4.61,1.36,0,.66-.05,1.42-.14,2.29-.1,.87-.21,1.77-.35,2.7-.14,.93-.28,1.83-.43,2.7-.16,.87-.31,1.63-.46,2.29h-1.51l-2.32-7.95c-.7-.31-1.59-.54-2.66-.7-1.07-.15-2.21-.23-3.42-.23-1.99,0-3.59,.55-4.8,1.65s-1.81,2.64-1.81,4.61c0,1.59,.48,2.92,1.43,4,.95,1.08,2.15,2.05,3.59,2.9,1.44,.85,2.99,1.67,4.64,2.46,1.65,.79,3.2,1.71,4.64,2.76,1.44,1.04,2.64,2.28,3.59,3.71,.95,1.43,1.43,3.21,1.43,5.34,0,1.74-.32,3.33-.96,4.76-.64,1.43-1.56,2.65-2.75,3.65-1.2,1.01-2.67,1.78-4.41,2.32s-3.71,.81-5.92,.81c-2.44,0-4.62-.29-6.55-.87-1.93-.58-3.31-1.2-4.12-1.86,.04-.66,.11-1.45,.2-2.38,.1-.93,.21-1.88,.35-2.87,.13-.99,.28-1.94,.43-2.87,.15-.93,.31-1.72,.46-2.38h1.51l2.38,8.53Z"/>
      <path class="cls-1" d="M389.64,43.62h-12.88v-1.45c.58-.31,1.18-.57,1.8-.78,.62-.21,1.29-.42,2.03-.61V17.98l-3.83-.46v-1.51c1.12-.46,2.34-.87,3.65-1.22,1.31-.35,2.63-.64,3.94-.87h1.45v26.85c.77,.19,1.47,.4,2.09,.61,.62,.21,1.2,.47,1.74,.78v1.45Zm-10.15-38.86c0-1.04,.34-1.88,1.02-2.49,.68-.62,1.58-.93,2.7-.93s2.01,.31,2.67,.93c.66,.62,.99,1.45,.99,2.49s-.33,1.87-.99,2.47c-.66,.6-1.55,.9-2.67,.9s-2.02-.3-2.7-.9c-.68-.6-1.02-1.42-1.02-2.47Z"/>
      <path class="cls-1" d="M417.71,39.56c-.31,.66-.79,1.28-1.45,1.86-.66,.58-1.41,1.08-2.26,1.51s-1.78,.76-2.78,1.02c-1.01,.25-2.03,.38-3.07,.38-2.28,0-4.29-.36-6.03-1.07-1.74-.71-3.19-1.74-4.35-3.07s-2.04-2.93-2.64-4.79c-.6-1.86-.9-3.94-.9-6.26,0-4.95,1.14-8.72,3.42-11.31,2.28-2.59,5.51-3.89,9.69-3.89,1.35,0,2.69,.18,4,.55,1.31,.37,2.48,.98,3.51,1.83,1.02,.85,1.86,1.98,2.49,3.39,.64,1.41,.96,3.16,.96,5.25,0,.66-.03,1.33-.09,2-.06,.68-.17,1.4-.32,2.17h-18.1c0,1.62,.2,3.14,.61,4.55,.41,1.41,1.02,2.64,1.83,3.68,.81,1.04,1.84,1.87,3.07,2.46,1.24,.6,2.69,.9,4.35,.9,1.35,0,2.73-.19,4.12-.58,1.39-.39,2.44-.89,3.13-1.51l.81,.93Zm-10.61-23.08c-2.2,0-3.89,.74-5.05,2.23-1.16,1.49-1.86,4.11-2.09,7.86h12.76c.04-.35,.07-.69,.09-1.02,.02-.33,.03-.65,.03-.96,0-2.47-.46-4.45-1.39-5.92-.93-1.47-2.38-2.2-4.35-2.2Z"/>
      <path class="cls-1" d="M452.51,14.62h11.19v1.51c-.73,.31-1.46,.58-2.17,.81-.72,.23-1.46,.43-2.23,.58-.58,.77-1.25,1.6-2,2.49-.75,.89-1.52,1.78-2.29,2.67-.77,.89-1.52,1.72-2.23,2.49-.72,.77-1.33,1.41-1.83,1.91,.58,.77,1.29,1.71,2.12,2.81,.83,1.1,1.73,2.27,2.7,3.51,.97,1.24,1.96,2.49,2.99,3.77,1.02,1.28,2.04,2.48,3.04,3.6l3.25,1.39v1.45h-7.19l-1.57-1.39c-2.05-2.55-3.75-4.82-5.1-6.82-1.35-1.99-2.59-3.86-3.71-5.6l-1.91-.58v11.54c1.28,.23,2.53,.7,3.77,1.39v1.45h-12.82v-1.45c1.28-.62,2.55-1.08,3.83-1.39V4.06l-4.41-.46v-1.51c1.08-.5,2.38-.91,3.89-1.22,1.51-.31,2.94-.6,4.29-.87h1.45V27.72h1.51c.62-.7,1.29-1.47,2.03-2.32s1.47-1.73,2.2-2.64,1.45-1.81,2.15-2.7,1.33-1.74,1.91-2.55c-.97-.27-1.91-.73-2.84-1.39v-1.51Z"/>
      <path class="cls-1" d="M467.42,29.12c0-2.44,.32-4.59,.96-6.47,.64-1.88,1.56-3.46,2.75-4.76,1.2-1.29,2.64-2.28,4.32-2.96,1.68-.68,3.55-1.02,5.6-1.02,2.4,0,4.47,.37,6.21,1.1s3.16,1.77,4.26,3.1c1.1,1.33,1.91,2.93,2.44,4.79,.52,1.86,.78,3.92,.78,6.21,0,4.87-1.24,8.62-3.71,11.25-2.48,2.63-5.8,3.94-9.98,3.94-2.32,0-4.33-.36-6.03-1.07s-3.11-1.74-4.23-3.07c-1.12-1.33-1.96-2.94-2.52-4.81-.56-1.88-.84-3.95-.84-6.24Zm4.06-23.95c0-.93,.29-1.67,.87-2.23s1.33-.84,2.26-.84,1.68,.28,2.26,.84,.87,1.3,.87,2.23-.29,1.61-.87,2.15c-.58,.54-1.33,.81-2.26,.81s-1.68-.27-2.26-.81c-.58-.54-.87-1.26-.87-2.15Zm1.51,23.95c0,1.74,.16,3.38,.49,4.93,.33,1.55,.85,2.89,1.57,4.03,.71,1.14,1.65,2.04,2.81,2.7,1.16,.66,2.55,.99,4.18,.99,2.09,0,3.8-1.02,5.13-3.07s2-5.24,2-9.57c0-1.78-.17-3.43-.49-4.96-.33-1.53-.84-2.86-1.54-4-.7-1.14-1.59-2.04-2.67-2.7-1.08-.66-2.38-.99-3.89-.99-2.28,0-4.12,1.02-5.51,3.07-1.39,2.05-2.09,5.24-2.09,9.57Zm11.37-23.95c0-.93,.29-1.67,.87-2.23s1.33-.84,2.26-.84,1.68,.28,2.26,.84,.87,1.3,.87,2.23-.29,1.61-.87,2.15c-.58,.54-1.33,.81-2.26,.81s-1.68-.27-2.26-.81c-.58-.54-.87-1.26-.87-2.15Z"/>
      <path class="cls-1" d="M514.22,37c0-1.08-.34-2-1.02-2.75s-1.54-1.46-2.58-2.12c-1.04-.66-2.16-1.29-3.33-1.91-1.18-.62-2.29-1.34-3.33-2.17-1.04-.83-1.9-1.79-2.58-2.87-.68-1.08-1.01-2.42-1.01-4,0-1.04,.24-2.01,.72-2.9s1.13-1.65,1.94-2.29c.81-.64,1.76-1.14,2.84-1.51,1.08-.37,2.24-.55,3.48-.55,2.09,0,3.8,.12,5.13,.35,1.33,.23,2.62,.56,3.86,.99-.15,1.24-.34,2.49-.55,3.74-.21,1.26-.51,2.54-.9,3.86h-1.45l-2.2-5.92c-.46-.19-.99-.32-1.57-.38-.58-.06-1.18-.09-1.8-.09-.7,0-1.3,.13-1.83,.38-.52,.25-.97,.57-1.33,.96s-.65,.83-.84,1.33-.29,1.01-.29,1.51c0,1.04,.34,1.94,1.02,2.7,.68,.75,1.54,1.45,2.58,2.09,1.04,.64,2.15,1.27,3.33,1.88,1.18,.62,2.29,1.31,3.33,2.09s1.9,1.67,2.58,2.7c.68,1.02,1.01,2.25,1.01,3.68,0,1.32-.28,2.49-.84,3.54-.56,1.04-1.33,1.93-2.32,2.67-.99,.74-2.13,1.3-3.42,1.71-1.3,.41-2.68,.61-4.15,.61-1.66,0-3.19-.15-4.58-.44-1.39-.29-2.84-.71-4.35-1.25,.08-1.39,.25-2.73,.52-4.03,.27-1.3,.62-2.54,1.04-3.74h1.45l2.55,6.32c.42,.31,.94,.48,1.54,.52,.6,.04,1.15,.06,1.65,.06,1.7,0,3.07-.46,4.12-1.39s1.57-2.05,1.57-3.36Z"/>
      <path class="cls-1" d="M523.1,16.07c1.47-.96,3.02-1.64,4.64-2.04v-4.93c.5-.39,1.09-.76,1.77-1.13,.68-.37,1.34-.69,2-.96h1.45v7.6h8.7v3.02h-8.7v16.74c0,2.31,.37,3.94,1.1,4.91,.73,.96,1.84,1.44,3.31,1.44,.7,0,1.57-.05,2.61-.14,1.04-.1,1.93-.28,2.67-.55l.41,.87c-.31,.35-.75,.72-1.31,1.1-.56,.39-1.2,.75-1.91,1.1-.72,.35-1.5,.64-2.35,.87-.85,.23-1.72,.35-2.61,.35-2.32,0-4.09-.66-5.31-1.96-1.22-1.31-1.83-3.43-1.83-6.35V17.63h-4.64v-1.56Z"/>
      <path class="cls-1" d="M559,43.62h-12.88v-1.45c1.28-.62,2.55-1.08,3.83-1.39V4.06l-4.41-.46v-1.51c1-.46,2.26-.87,3.77-1.22,1.51-.35,2.98-.64,4.41-.87h1.45V40.77c1.28,.31,2.55,.77,3.83,1.39v1.45Z"/>
      <path class="cls-1" d="M576.46,43.62h-12.88v-1.45c.58-.31,1.18-.57,1.8-.78,.62-.21,1.29-.42,2.03-.61V17.98l-3.83-.46v-1.51c1.12-.46,2.34-.87,3.65-1.22,1.31-.35,2.63-.64,3.94-.87h1.45v26.85c.77,.19,1.47,.4,2.09,.61,.62,.21,1.2,.47,1.74,.78v1.45Zm-10.15-38.86c0-1.04,.34-1.88,1.02-2.49,.68-.62,1.58-.93,2.7-.93s2.01,.31,2.67,.93c.66,.62,.99,1.45,.99,2.49s-.33,1.87-.99,2.47c-.66,.6-1.55,.9-2.67,.9s-2.02-.3-2.7-.9c-.68-.6-1.02-1.42-1.02-2.47Z"/>
      <path class="cls-1" d="M603.43,39.56c-.7,1.35-1.83,2.48-3.39,3.39s-3.39,1.36-5.48,1.36c-2.28,0-4.26-.36-5.94-1.07-1.68-.71-3.08-1.74-4.21-3.07-1.12-1.33-1.96-2.94-2.52-4.81-.56-1.88-.84-3.95-.84-6.24,0-4.91,1.2-8.67,3.6-11.28,2.4-2.61,5.66-3.92,9.8-3.92,1.89,0,3.59,.17,5.07,.49,1.49,.33,2.76,.76,3.8,1.3-.12,1.28-.33,2.71-.64,4.29-.31,1.59-.7,2.9-1.16,3.94h-1.57l-2.44-6.9c-.27-.19-.58-.34-.93-.43-.35-.1-.93-.14-1.74-.14-2.63,0-4.66,.96-6.09,2.87-1.43,1.91-2.15,5.15-2.15,9.72,0,1.47,.2,2.9,.61,4.29,.41,1.39,1.02,2.64,1.86,3.74,.83,1.1,1.88,1.98,3.13,2.64,1.26,.66,2.72,.99,4.38,.99,1.35,0,2.53-.19,3.54-.58,1-.39,1.86-.85,2.55-1.39l.75,.81Z"/>
      <path class="cls-1" d="M638.75,43.62h-12.53v-1.45c.93-.5,2.09-.97,3.48-1.39v-13.57c0-3.02-.43-5.38-1.28-7.1-.85-1.72-2.4-2.58-4.64-2.58-1.01,0-1.91,.18-2.73,.55-.81,.37-1.55,.84-2.2,1.42-.66,.58-1.22,1.25-1.68,2-.46,.75-.81,1.54-1.04,2.35v16.94c.62,.15,1.21,.33,1.77,.52,.56,.19,1.11,.48,1.65,.87v1.45h-12.47v-1.45c1.2-.62,2.47-1.08,3.83-1.39V4.06l-4.41-.46v-1.51c1.12-.46,2.43-.87,3.92-1.22s2.91-.64,4.26-.87h1.45V20.47h.06c.81-1.82,1.98-3.36,3.51-4.64,1.53-1.28,3.37-1.91,5.54-1.91,1.55,0,2.93,.18,4.15,.55,1.22,.37,2.23,1.01,3.04,1.94,.81,.93,1.43,2.17,1.86,3.74,.42,1.57,.64,3.55,.64,5.95v14.67c.66,.15,1.31,.33,1.97,.52,.66,.19,1.28,.48,1.86,.87v1.45Z"/>
      <path class="cls-1" d="M665.6,39.56c-.31,.66-.79,1.28-1.45,1.86-.66,.58-1.41,1.08-2.26,1.51s-1.78,.76-2.78,1.02c-1.01,.25-2.03,.38-3.07,.38-2.28,0-4.29-.36-6.03-1.07-1.74-.71-3.19-1.74-4.35-3.07s-2.04-2.93-2.64-4.79c-.6-1.86-.9-3.94-.9-6.26,0-4.95,1.14-8.72,3.42-11.31,2.28-2.59,5.51-3.89,9.69-3.89,1.35,0,2.69,.18,4,.55,1.31,.37,2.48,.98,3.51,1.83,1.02,.85,1.86,1.98,2.49,3.39,.64,1.41,.96,3.16,.96,5.25,0,.66-.03,1.33-.09,2-.06,.68-.17,1.4-.32,2.17h-18.1c0,1.62,.2,3.14,.61,4.55,.41,1.41,1.02,2.64,1.83,3.68,.81,1.04,1.84,1.87,3.07,2.46,1.24,.6,2.69,.9,4.35,.9,1.35,0,2.73-.19,4.12-.58,1.39-.39,2.44-.89,3.13-1.51l.81,.93Zm-10.61-23.08c-2.2,0-3.89,.74-5.05,2.23-1.16,1.49-1.86,4.11-2.09,7.86h12.76c.04-.35,.07-.69,.09-1.02,.02-.33,.03-.65,.03-.96,0-2.47-.46-4.45-1.39-5.92-.93-1.47-2.38-2.2-4.35-2.2Z"/>
      <path class="cls-1" d="M731.43,43.62h-14.27v-1.68c.77-.31,1.55-.57,2.32-.78,.77-.21,1.57-.42,2.38-.61V14.44l.23-6.79h-.46l-1.91,6.21-11.89,29.75h-1.51l-11.31-29.75-2.09-6.79h-.52l.06,7.37v26.1c.73,.16,1.47,.35,2.2,.58,.73,.23,1.47,.5,2.2,.81v1.68h-12.12v-1.68c.73-.31,1.5-.59,2.29-.84,.79-.25,1.59-.45,2.41-.61V6.15c-.81-.15-1.62-.36-2.41-.61-.79-.25-1.58-.53-2.35-.84v-1.68h11.89l10.09,26.51,1.97,5.97h.06l1.97-6.09,10.44-26.39h10.38v1.68c-.7,.31-1.41,.59-2.15,.84-.73,.25-1.49,.46-2.26,.61V40.6c.81,.15,1.58,.34,2.29,.55,.71,.21,1.4,.47,2.06,.78v1.68Z"/>
      <path class="cls-1" d="M735.67,29.12c0-2.44,.32-4.59,.96-6.47,.64-1.88,1.56-3.46,2.75-4.76,1.2-1.29,2.64-2.28,4.32-2.96,1.68-.68,3.55-1.02,5.6-1.02,2.4,0,4.47,.37,6.21,1.1s3.16,1.77,4.26,3.1c1.1,1.33,1.91,2.93,2.44,4.79,.52,1.86,.78,3.92,.78,6.21,0,4.87-1.24,8.62-3.71,11.25-2.48,2.63-5.8,3.94-9.98,3.94-2.32,0-4.33-.36-6.03-1.07s-3.11-1.74-4.23-3.07c-1.12-1.33-1.96-2.94-2.52-4.81-.56-1.88-.84-3.95-.84-6.24Zm5.57,0c0,1.74,.16,3.38,.49,4.93,.33,1.55,.85,2.89,1.57,4.03,.71,1.14,1.65,2.04,2.81,2.7,1.16,.66,2.55,.99,4.18,.99,2.09,0,3.8-1.02,5.13-3.07s2-5.24,2-9.57c0-1.78-.17-3.43-.49-4.96-.33-1.53-.84-2.86-1.54-4-.7-1.14-1.59-2.04-2.67-2.7-1.08-.66-2.38-.99-3.89-.99-2.28,0-4.12,1.02-5.51,3.07-1.39,2.05-2.09,5.24-2.09,9.57Z"/>
      <path class="cls-1" d="M797.15,43.62h-12.41v-1.45c.39-.23,.86-.47,1.42-.72,.56-.25,1.23-.47,2-.67v-13.4c0-1.55-.07-2.94-.2-4.18-.14-1.24-.39-2.27-.75-3.1-.37-.83-.9-1.47-1.59-1.91s-1.61-.67-2.73-.67c-.85,0-1.63,.17-2.35,.52-.72,.35-1.35,.81-1.91,1.39-.56,.58-1.04,1.24-1.45,1.97-.41,.73-.72,1.51-.96,2.32v17.05c.62,.19,1.21,.4,1.77,.61,.56,.21,1.11,.47,1.65,.78v1.45h-12.47v-1.45c.54-.27,1.14-.52,1.8-.75,.66-.23,1.33-.44,2.03-.64V17.98l-3.83-.46v-1.51c1.24-.54,2.5-.98,3.8-1.3,1.29-.33,2.56-.59,3.8-.78h1.45v6.55h.06c.62-1.82,1.67-3.36,3.16-4.64,1.49-1.28,3.33-1.91,5.54-1.91,.93,0,1.82,.1,2.67,.29,.85,.19,1.64,.55,2.38,1.07,.73,.52,1.35,1.25,1.86,2.17,.5,.93,.87,2.13,1.1,3.6,.7-2.13,1.82-3.85,3.36-5.16,1.55-1.31,3.48-1.97,5.8-1.97,1.43,0,2.68,.18,3.74,.55s1.94,1.01,2.64,1.94c.7,.93,1.21,2.19,1.54,3.77,.33,1.59,.49,3.6,.49,6.03v14.56c1.31,.23,2.59,.7,3.83,1.39v1.45h-12.47v-1.45c1.16-.62,2.3-1.08,3.42-1.39v-14.44c0-1.39-.07-2.63-.2-3.71-.14-1.08-.4-2-.78-2.75s-.93-1.33-1.62-1.74c-.7-.41-1.62-.61-2.78-.61-1.86,0-3.3,.64-4.32,1.91-1.03,1.28-1.77,2.9-2.23,4.87v16.47c1.35,.39,2.61,.85,3.77,1.39v1.45Z"/>
      <path class="cls-1" d="M841.28,39.56c-.31,.66-.79,1.28-1.45,1.86-.66,.58-1.41,1.08-2.26,1.51s-1.78,.76-2.78,1.02c-1.01,.25-2.03,.38-3.07,.38-2.28,0-4.29-.36-6.03-1.07-1.74-.71-3.19-1.74-4.35-3.07s-2.04-2.93-2.64-4.79c-.6-1.86-.9-3.94-.9-6.26,0-4.95,1.14-8.72,3.42-11.31,2.28-2.59,5.51-3.89,9.69-3.89,1.35,0,2.69,.18,4,.55,1.31,.37,2.48,.98,3.51,1.83,1.02,.85,1.86,1.98,2.49,3.39,.64,1.41,.96,3.16,.96,5.25,0,.66-.03,1.33-.09,2-.06,.68-.17,1.4-.32,2.17h-18.1c0,1.62,.2,3.14,.61,4.55,.41,1.41,1.02,2.64,1.83,3.68,.81,1.04,1.84,1.87,3.07,2.46,1.24,.6,2.69,.9,4.35,.9,1.35,0,2.73-.19,4.12-.58,1.39-.39,2.44-.89,3.13-1.51l.81,.93Zm-10.61-23.08c-2.2,0-3.89,.74-5.05,2.23-1.16,1.49-1.86,4.11-2.09,7.86h12.76c.04-.35,.07-.69,.09-1.02,.02-.33,.03-.65,.03-.96,0-2.47-.46-4.45-1.39-5.92-.93-1.47-2.38-2.2-4.35-2.2Z"/>
      <path class="cls-1" d="M878.05,43.62h-12.47v-1.45c1.04-.54,2.18-1,3.42-1.39v-13.75c0-2.94-.43-5.26-1.28-6.96-.85-1.7-2.4-2.55-4.64-2.55-.97,0-1.87,.17-2.7,.52-.83,.35-1.57,.82-2.2,1.42-.64,.6-1.19,1.28-1.65,2.03s-.83,1.54-1.1,2.35v16.94c1.2,.23,2.36,.7,3.48,1.39v1.45h-12.53v-1.45c.97-.5,2.24-.97,3.83-1.39V17.98l-3.83-.46v-1.51c1-.42,2.17-.81,3.48-1.16,1.31-.35,2.69-.66,4.12-.93h1.45v6.5h.06c.81-1.78,1.98-3.31,3.51-4.58,1.53-1.28,3.37-1.91,5.54-1.91,1.55,0,2.93,.18,4.15,.55,1.22,.37,2.23,1.01,3.04,1.94,.81,.93,1.43,2.17,1.86,3.74,.42,1.57,.64,3.55,.64,5.95v14.67c1.55,.27,2.82,.73,3.83,1.39v1.45Z"/>
      <path class="cls-1" d="M879.91,16.07c1.47-.96,3.02-1.64,4.64-2.04v-4.93c.5-.39,1.09-.76,1.77-1.13,.68-.37,1.34-.69,2-.96h1.45v7.6h8.7v3.02h-8.7v16.74c0,2.31,.37,3.94,1.1,4.91,.73,.96,1.84,1.44,3.31,1.44,.7,0,1.57-.05,2.61-.14,1.04-.1,1.93-.28,2.67-.55l.41,.87c-.31,.35-.75,.72-1.31,1.1-.56,.39-1.2,.75-1.91,1.1-.72,.35-1.5,.64-2.35,.87-.85,.23-1.72,.35-2.61,.35-2.32,0-4.09-.66-5.31-1.96-1.22-1.31-1.83-3.43-1.83-6.35V17.63h-4.64v-1.56Z"/>
      <path class="cls-1" d="M926.43,39.56c-.31,.66-.79,1.28-1.45,1.86-.66,.58-1.41,1.08-2.26,1.51s-1.78,.76-2.78,1.02c-1.01,.25-2.03,.38-3.07,.38-2.28,0-4.29-.36-6.03-1.07-1.74-.71-3.19-1.74-4.35-3.07s-2.04-2.93-2.64-4.79c-.6-1.86-.9-3.94-.9-6.26,0-4.95,1.14-8.72,3.42-11.31,2.28-2.59,5.51-3.89,9.69-3.89,1.35,0,2.69,.18,4,.55,1.31,.37,2.48,.98,3.51,1.83,1.02,.85,1.86,1.98,2.49,3.39,.64,1.41,.96,3.16,.96,5.25,0,.66-.03,1.33-.09,2-.06,.68-.17,1.4-.32,2.17h-18.1c0,1.62,.2,3.14,.61,4.55,.41,1.41,1.02,2.64,1.83,3.68,.81,1.04,1.84,1.87,3.07,2.46,1.24,.6,2.69,.9,4.35,.9,1.35,0,2.73-.19,4.12-.58,1.39-.39,2.44-.89,3.13-1.51l.81,.93Zm-10.61-23.08c-2.2,0-3.89,.74-5.05,2.23-1.16,1.49-1.86,4.11-2.09,7.86h12.76c.04-.35,.07-.69,.09-1.02,.02-.33,.03-.65,.03-.96,0-2.47-.46-4.45-1.39-5.92-.93-1.47-2.38-2.2-4.35-2.2Z"/>
      <path class="cls-1" d="M967.61,36.02c0,.85,.02,1.59,.06,2.2,.04,.62,.08,1.28,.12,1.97l4,.58v1.22c-.97,.5-2.04,.95-3.22,1.33-1.18,.39-2.31,.68-3.39,.87h-1.45c-.39-.89-.62-1.87-.7-2.93-.08-1.06-.14-2.23-.17-3.51h-.29c-.16,.77-.46,1.56-.9,2.35-.45,.79-1.03,1.5-1.74,2.12-.72,.62-1.56,1.12-2.52,1.51-.97,.39-2.07,.58-3.31,.58-2.36,0-4.28-.71-5.77-2.15-1.49-1.43-2.23-3.31-2.23-5.63,0-1.78,.36-3.24,1.07-4.38,.71-1.14,1.77-2.04,3.16-2.7,1.39-.66,3.11-1.13,5.16-1.42,2.05-.29,4.43-.51,7.13-.67,.15-1.66,.2-3.16,.14-4.5-.06-1.33-.27-2.47-.64-3.42-.37-.95-.91-1.68-1.62-2.2-.72-.52-1.65-.78-2.81-.78-.54,0-1.15,.03-1.83,.09-.68,.06-1.34,.22-2,.49l-2.73,6.96h-1.51c-.39-1.16-.72-2.36-1.01-3.6-.29-1.24-.47-2.46-.55-3.65,1.47-.89,3.1-1.59,4.9-2.09,1.8-.5,3.8-.75,6-.75,1.97,0,3.55,.28,4.73,.84,1.18,.56,2.08,1.29,2.7,2.18s1.02,1.88,1.22,2.96c.19,1.08,.29,2.17,.29,3.25,0,2.32-.05,4.55-.15,6.7-.1,2.15-.14,4.21-.14,6.18Zm-11.19,4.7c.97,0,1.82-.19,2.55-.58,.73-.39,1.35-.85,1.86-1.39,.5-.54,.91-1.09,1.22-1.65,.31-.56,.52-1.03,.64-1.42v-6.09c-2.24,0-4.08,.12-5.51,.35-1.43,.23-2.55,.6-3.36,1.1-.81,.5-1.37,1.13-1.68,1.88s-.46,1.62-.46,2.58c0,1.66,.42,2.95,1.28,3.86,.85,.91,2.01,1.36,3.48,1.36Z"/>
      <path class="cls-1" d="M977.58,32.13c0-2.44,.06-4.82,.17-7.16,.12-2.34,.17-4.67,.17-6.99l-3.83-.46v-1.51c1.24-.46,2.5-.87,3.8-1.22,1.29-.35,2.56-.64,3.8-.87h1.45c0,2.9-.06,5.78-.17,8.64-.12,2.86-.17,5.7-.17,8.53,0,1.51,.09,2.86,.26,4.06,.17,1.2,.48,2.2,.93,3.02,.44,.81,1.05,1.44,1.83,1.88,.77,.45,1.76,.67,2.96,.67,1.74,0,3.2-.63,4.38-1.88,1.18-1.26,2.1-2.89,2.75-4.9v-15.95l-3.77-.46v-1.51c1.2-.46,2.44-.87,3.74-1.22,1.29-.35,2.56-.64,3.8-.87h1.45v26.39l3.83,.46v1.22c-1.12,.5-2.25,.95-3.39,1.33-1.14,.39-2.33,.68-3.57,.87h-1.45l-.41-6.9h-.23c-.19,.81-.53,1.63-1.01,2.46-.48,.83-1.11,1.59-1.89,2.26s-1.65,1.23-2.64,1.65c-.99,.43-2.06,.64-3.22,.64-1.55,0-2.91-.18-4.09-.55-1.18-.37-2.17-1.01-2.99-1.94-.81-.93-1.43-2.17-1.86-3.74s-.64-3.55-.64-5.95Z"/>
      <path class="cls-1" d="M1024.15,0c.35,0,.75,.02,1.22,.06,.46,.04,.95,.09,1.45,.14,.5,.06,.99,.14,1.45,.23s.87,.2,1.22,.32c-.12,1.28-.28,2.46-.49,3.57-.21,1.1-.47,2.1-.78,2.99h-1.45l-2.55-4.99c-1.12,0-2.08,.12-2.87,.35-.79,.23-1.45,.68-1.97,1.33-.52,.66-.91,1.61-1.16,2.84-.25,1.24-.38,2.86-.38,4.87v2.9h6.67v3.02h-6.67v23.16c2.01,.23,3.87,.69,5.57,1.39v1.44h-14.62v-1.44c1.2-.69,2.47-1.16,3.83-1.39V17.63h-4.41v-1.56c1.35-.88,2.82-1.54,4.41-1.98v-2.03c0-2.4,.29-4.38,.87-5.95s1.39-2.8,2.44-3.71c1.04-.91,2.27-1.54,3.68-1.88,1.41-.35,2.93-.52,4.55-.52Z"/>
      <path class="cls-1" d="M1061.97,37.87c-.19,.85-.52,1.66-.99,2.44-.46,.77-1.04,1.46-1.71,2.06-.68,.6-1.45,1.07-2.32,1.42-.87,.35-1.81,.52-2.81,.52-3.83,0-6.69-1.22-8.58-3.65s-2.84-6.22-2.84-11.37,1.21-8.72,3.62-11.31c2.42-2.59,5.67-3.89,9.77-3.89,1.43,0,2.55,.07,3.36,.2,.81,.14,1.7,.38,2.67,.73V4.06l-4.41-.46v-1.51c1.12-.46,2.43-.87,3.92-1.22,1.49-.35,2.91-.64,4.26-.87h1.45V40.31l3.83,.46v1.22c-1.12,.54-2.28,1.01-3.48,1.39-1.2,.39-2.38,.66-3.54,.81h-1.45l-.52-6.32h-.23Zm-6.67,2.84c1.89,0,3.4-.6,4.52-1.8,1.12-1.2,1.89-2.82,2.32-4.87V17.69c-.66-.39-1.43-.66-2.32-.81-.89-.15-2.03-.23-3.42-.23-2.63,0-4.64,1.15-6.03,3.45-1.39,2.3-2.09,5.36-2.09,9.19,0,1.59,.13,3.07,.41,4.44,.27,1.37,.7,2.58,1.28,3.62s1.3,1.87,2.17,2.46,1.92,.9,3.16,.9Z"/>
      <path class="cls-1" d="M1098.39,39.56c-.31,.66-.79,1.28-1.45,1.86-.66,.58-1.41,1.08-2.26,1.51s-1.78,.76-2.78,1.02c-1.01,.25-2.03,.38-3.07,.38-2.28,0-4.29-.36-6.03-1.07-1.74-.71-3.19-1.74-4.35-3.07s-2.04-2.93-2.64-4.79c-.6-1.86-.9-3.94-.9-6.26,0-4.95,1.14-8.72,3.42-11.31,2.28-2.59,5.51-3.89,9.69-3.89,1.35,0,2.69,.18,4,.55,1.31,.37,2.48,.98,3.51,1.83,1.02,.85,1.86,1.98,2.49,3.39,.64,1.41,.96,3.16,.96,5.25,0,.66-.03,1.33-.09,2-.06,.68-.17,1.4-.32,2.17h-18.1c0,1.62,.2,3.14,.61,4.55,.41,1.41,1.02,2.64,1.83,3.68,.81,1.04,1.84,1.87,3.07,2.46,1.24,.6,2.69,.9,4.35,.9,1.35,0,2.73-.19,4.12-.58,1.39-.39,2.44-.89,3.13-1.51l.81,.93Zm-10.61-23.08c-2.2,0-3.89,.74-5.05,2.23-1.16,1.49-1.86,4.11-2.09,7.86h12.76c.04-.35,.07-.69,.09-1.02,.02-.33,.03-.65,.03-.96,0-2.47-.46-4.45-1.39-5.92-.93-1.47-2.38-2.2-4.35-2.2Z"/>
      <path class="cls-1" d="M1115.85,18.97c-.43,.23-.96,.71-1.6,1.42-.64,.72-1.21,1.77-1.71,3.16v17.23c.77,.08,1.55,.22,2.32,.43,.77,.21,1.55,.53,2.32,.96v1.45h-13.69v-1.45c.7-.39,1.35-.68,1.97-.87,.62-.19,1.24-.37,1.86-.52V17.98l-3.83-.46v-1.51c1.24-.54,2.51-.98,3.83-1.3,1.31-.33,2.57-.59,3.77-.78h1.45v6.15h.23c.35-.77,.84-1.55,1.48-2.32,.64-.77,1.37-1.47,2.2-2.09,.83-.62,1.74-1.09,2.73-1.42,.99-.33,2-.43,3.04-.32,.27,.5,.51,1.05,.72,1.65,.21,.6,.42,1.23,.61,1.88v1.51h-7.71Z"/>
      <path class="cls-1" d="M1160.22,3.02h12.82v1.68c-.77,.35-1.53,.64-2.26,.87-.74,.23-1.45,.43-2.15,.58l-11.66,15.43c.97,1.28,2.08,2.71,3.33,4.29,1.26,1.59,2.57,3.22,3.94,4.9,1.37,1.68,2.78,3.38,4.23,5.1,1.45,1.72,2.87,3.36,4.26,4.9l2.78,1.39v1.45h-7.25l-1.97-1.39c-2.28-2.67-4.55-5.55-6.82-8.64-2.26-3.09-4.46-6.22-6.58-9.4h-2.84v16.36c1.78,.31,3.23,.77,4.35,1.39v1.68h-14.67v-1.68c1.55-.62,3.13-1.08,4.76-1.39V6.15c-1.74-.23-3.33-.71-4.76-1.45v-1.68h14.67v1.68c-.62,.27-1.3,.53-2.03,.78-.74,.25-1.51,.47-2.32,.67V22.21l3.48-.81,10.85-15.25c-.77-.19-1.51-.41-2.2-.64-.7-.23-1.35-.5-1.97-.81v-1.68Z"/>
      <path class="cls-1" d="M1189.68,18.97c-.43,.23-.96,.71-1.6,1.42-.64,.72-1.21,1.77-1.71,3.16v17.23c.77,.08,1.55,.22,2.32,.43,.77,.21,1.55,.53,2.32,.96v1.45h-13.69v-1.45c.7-.39,1.35-.68,1.97-.87,.62-.19,1.24-.37,1.86-.52V17.98l-3.83-.46v-1.51c1.24-.54,2.51-.98,3.83-1.3,1.31-.33,2.57-.59,3.77-.78h1.45v6.15h.23c.35-.77,.84-1.55,1.48-2.32,.64-.77,1.37-1.47,2.2-2.09,.83-.62,1.74-1.09,2.73-1.42,.99-.33,2-.43,3.04-.32,.27,.5,.51,1.05,.72,1.65,.21,.6,.42,1.23,.61,1.88v1.51h-7.71Z"/>
      <path class="cls-1" d="M1213.06,43.62h-12.88v-1.45c.58-.31,1.18-.57,1.8-.78,.62-.21,1.29-.42,2.03-.61V17.98l-3.83-.46v-1.51c1.12-.46,2.34-.87,3.65-1.22,1.31-.35,2.63-.64,3.94-.87h1.45v26.85c.77,.19,1.47,.4,2.09,.61,.62,.21,1.2,.47,1.74,.78v1.45Zm-10.15-38.86c0-1.04,.34-1.88,1.02-2.49,.68-.62,1.58-.93,2.7-.93s2.01,.31,2.67,.93c.66,.62,.99,1.45,.99,2.49s-.33,1.87-.99,2.47c-.66,.6-1.55,.9-2.67,.9s-2.02-.3-2.7-.9c-.68-.6-1.02-1.42-1.02-2.47Z"/>
      <path class="cls-1" d="M1248.73,43.62h-12.47v-1.45c1.04-.54,2.18-1,3.42-1.39v-13.75c0-2.94-.43-5.26-1.28-6.96-.85-1.7-2.4-2.55-4.64-2.55-.97,0-1.87,.17-2.7,.52-.83,.35-1.57,.82-2.2,1.42-.64,.6-1.19,1.28-1.65,2.03s-.83,1.54-1.1,2.35v16.94c1.2,.23,2.36,.7,3.48,1.39v1.45h-12.53v-1.45c.97-.5,2.24-.97,3.83-1.39V17.98l-3.83-.46v-1.51c1-.42,2.17-.81,3.48-1.16,1.31-.35,2.69-.66,4.12-.93h1.45v6.5h.06c.81-1.78,1.98-3.31,3.51-4.58,1.53-1.28,3.37-1.91,5.54-1.91,1.55,0,2.93,.18,4.15,.55,1.22,.37,2.23,1.01,3.04,1.94,.81,.93,1.43,2.17,1.86,3.74,.42,1.57,.64,3.55,.64,5.95v14.67c1.55,.27,2.82,.73,3.83,1.39v1.45Z"/>
      <path class="cls-1" d="M1264.04,13.92c2.09,0,3.85,.2,5.28,.61s2.63,1.04,3.6,1.88c2.28-1.55,4.66-2.67,7.13-3.36,.31,.43,.53,.95,.67,1.57,.13,.62,.2,1.2,.2,1.74l-.75,1.39h-6.09c.97,1.39,1.45,3.23,1.45,5.51,0,2.78-.98,5.05-2.93,6.79-1.95,1.74-4.8,2.61-8.55,2.61-.74,0-1.33-.02-1.8-.06s-.99-.1-1.57-.17c-.19,.35-.42,.74-.67,1.16-.25,.43-.38,.87-.38,1.33,0,.77,.44,1.38,1.33,1.83,.89,.45,2,.84,3.33,1.19,1.33,.35,2.78,.71,4.35,1.07,1.57,.37,3.03,.87,4.38,1.51,1.35,.64,2.48,1.47,3.39,2.49,.91,1.02,1.38,2.35,1.42,3.97,.04,1.39-.28,2.65-.96,3.77-.68,1.12-1.62,2.06-2.81,2.81-1.2,.75-2.64,1.33-4.32,1.74-1.68,.41-3.53,.61-5.54,.61-4.21,0-7.39-.72-9.54-2.15-2.15-1.43-3.22-3.23-3.22-5.39,0-1.04,.16-1.95,.49-2.73,.33-.77,.8-1.45,1.42-2.03,.62-.58,1.39-1.09,2.32-1.54,.93-.44,1.99-.86,3.19-1.25-.85-.39-1.56-.92-2.12-1.59-.56-.68-.84-1.5-.84-2.46,0-.89,.38-1.77,1.13-2.64,.75-.87,1.52-1.56,2.29-2.06-2.2-.58-3.9-1.68-5.08-3.31s-1.77-3.46-1.77-5.51c0-1.31,.25-2.54,.75-3.68,.5-1.14,1.24-2.14,2.2-2.99,.97-.85,2.17-1.51,3.6-1.97,1.43-.46,3.09-.7,4.99-.7Zm8.58,34.39c0-1.24-.42-2.22-1.25-2.96-.83-.74-1.87-1.33-3.1-1.8-1.24-.46-2.57-.85-4-1.16s-2.76-.66-4-1.04c-1.47,.89-2.44,1.83-2.9,2.81-.46,.99-.7,2-.7,3.04,0,2.05,.73,3.59,2.2,4.61,1.47,1.02,3.6,1.54,6.38,1.54,1.43,0,2.62-.14,3.57-.41,.95-.27,1.7-.63,2.26-1.07,.56-.44,.96-.98,1.19-1.59,.23-.62,.35-1.28,.35-1.97Zm-14.91-25.06c0,.93,.11,1.81,.32,2.64,.21,.83,.56,1.56,1.04,2.17,.48,.62,1.13,1.11,1.94,1.48,.81,.37,1.82,.55,3.02,.55,2.24,0,3.85-.66,4.81-1.97,.97-1.31,1.45-2.94,1.45-4.87,0-2.09-.47-3.74-1.42-4.96-.95-1.22-2.56-1.83-4.84-1.83s-4,.59-4.93,1.77c-.93,1.18-1.39,2.85-1.39,5.02Z"/>
      <path class="cls-1" d="M1297.33,37c0-1.08-.34-2-1.02-2.75s-1.54-1.46-2.58-2.12c-1.04-.66-2.16-1.29-3.33-1.91-1.18-.62-2.29-1.34-3.33-2.17-1.04-.83-1.9-1.79-2.58-2.87-.68-1.08-1.01-2.42-1.01-4,0-1.04,.24-2.01,.72-2.9s1.13-1.65,1.94-2.29c.81-.64,1.76-1.14,2.84-1.51,1.08-.37,2.24-.55,3.48-.55,2.09,0,3.8,.12,5.13,.35,1.33,.23,2.62,.56,3.86,.99-.15,1.24-.34,2.49-.55,3.74-.21,1.26-.51,2.54-.9,3.86h-1.45l-2.2-5.92c-.46-.19-.99-.32-1.57-.38-.58-.06-1.18-.09-1.8-.09-.7,0-1.3,.13-1.83,.38-.52,.25-.97,.57-1.33,.96s-.65,.83-.84,1.33-.29,1.01-.29,1.51c0,1.04,.34,1.94,1.02,2.7,.68,.75,1.54,1.45,2.58,2.09,1.04,.64,2.15,1.27,3.33,1.88,1.18,.62,2.29,1.31,3.33,2.09s1.9,1.67,2.58,2.7c.68,1.02,1.01,2.25,1.01,3.68,0,1.32-.28,2.49-.84,3.54-.56,1.04-1.33,1.93-2.32,2.67-.99,.74-2.13,1.3-3.42,1.71-1.3,.41-2.68,.61-4.15,.61-1.66,0-3.19-.15-4.58-.44-1.39-.29-2.84-.71-4.35-1.25,.08-1.39,.25-2.73,.52-4.03,.27-1.3,.62-2.54,1.04-3.74h1.45l2.55,6.32c.42,.31,.94,.48,1.54,.52,.6,.04,1.15,.06,1.65,.06,1.7,0,3.07-.46,4.12-1.39s1.57-2.05,1.57-3.36Z"/>
      <path class="cls-1" d="M1329.11,36.02c0,.85,.02,1.59,.06,2.2,.04,.62,.08,1.28,.12,1.97l4,.58v1.22c-.97,.5-2.04,.95-3.22,1.33-1.18,.39-2.31,.68-3.39,.87h-1.45c-.39-.89-.62-1.87-.7-2.93-.08-1.06-.14-2.23-.17-3.51h-.29c-.16,.77-.46,1.56-.9,2.35-.45,.79-1.03,1.5-1.74,2.12-.72,.62-1.56,1.12-2.52,1.51-.97,.39-2.07,.58-3.31,.58-2.36,0-4.28-.71-5.77-2.15-1.49-1.43-2.23-3.31-2.23-5.63,0-1.78,.36-3.24,1.07-4.38,.71-1.14,1.77-2.04,3.16-2.7,1.39-.66,3.11-1.13,5.16-1.42,2.05-.29,4.43-.51,7.13-.67,.15-1.66,.2-3.16,.14-4.5-.06-1.33-.27-2.47-.64-3.42-.37-.95-.91-1.68-1.62-2.2-.72-.52-1.65-.78-2.81-.78-.54,0-1.15,.03-1.83,.09-.68,.06-1.34,.22-2,.49l-2.73,6.96h-1.51c-.39-1.16-.72-2.36-1.01-3.6-.29-1.24-.47-2.46-.55-3.65,1.47-.89,3.1-1.59,4.9-2.09,1.8-.5,3.8-.75,6-.75,1.97,0,3.55,.28,4.73,.84,1.18,.56,2.08,1.29,2.7,2.18s1.02,1.88,1.22,2.96c.19,1.08,.29,2.17,.29,3.25,0,2.32-.05,4.55-.15,6.7-.1,2.15-.14,4.21-.14,6.18Zm-11.19,4.7c.97,0,1.82-.19,2.55-.58,.73-.39,1.35-.85,1.86-1.39,.5-.54,.91-1.09,1.22-1.65,.31-.56,.52-1.03,.64-1.42v-6.09c-2.24,0-4.08,.12-5.51,.35-1.43,.23-2.55,.6-3.36,1.1-.81,.5-1.37,1.13-1.68,1.88s-.46,1.62-.46,2.58c0,1.66,.42,2.95,1.28,3.86,.85,.91,2.01,1.36,3.48,1.36Z"/>
      <path class="cls-1" d="M1349.88,43.62h-12.88v-1.45c1.28-.62,2.55-1.08,3.83-1.39V4.06l-4.41-.46v-1.51c1-.46,2.26-.87,3.77-1.22,1.51-.35,2.98-.64,4.41-.87h1.45V40.77c1.28,.31,2.55,.77,3.83,1.39v1.45Z"/>
      <path class="cls-1" d="M1383.86,43.62h-12.41v-1.45c.39-.23,.86-.47,1.42-.72,.56-.25,1.23-.47,2-.67v-13.4c0-1.55-.07-2.94-.2-4.18-.14-1.24-.39-2.27-.75-3.1-.37-.83-.9-1.47-1.59-1.91s-1.61-.67-2.73-.67c-.85,0-1.63,.17-2.35,.52-.72,.35-1.35,.81-1.91,1.39-.56,.58-1.04,1.24-1.45,1.97-.41,.73-.72,1.51-.96,2.32v17.05c.62,.19,1.21,.4,1.77,.61,.56,.21,1.11,.47,1.65,.78v1.45h-12.47v-1.45c.54-.27,1.14-.52,1.8-.75,.66-.23,1.33-.44,2.03-.64V17.98l-3.83-.46v-1.51c1.24-.54,2.5-.98,3.8-1.3,1.29-.33,2.56-.59,3.8-.78h1.45v6.55h.06c.62-1.82,1.67-3.36,3.16-4.64,1.49-1.28,3.33-1.91,5.54-1.91,.93,0,1.82,.1,2.67,.29,.85,.19,1.64,.55,2.38,1.07,.73,.52,1.35,1.25,1.86,2.17,.5,.93,.87,2.13,1.1,3.6,.7-2.13,1.82-3.85,3.36-5.16,1.55-1.31,3.48-1.97,5.8-1.97,1.43,0,2.68,.18,3.74,.55s1.94,1.01,2.64,1.94c.7,.93,1.21,2.19,1.54,3.77,.33,1.59,.49,3.6,.49,6.03v14.56c1.31,.23,2.59,.7,3.83,1.39v1.45h-12.47v-1.45c1.16-.62,2.3-1.08,3.42-1.39v-14.44c0-1.39-.07-2.63-.2-3.71-.14-1.08-.4-2-.78-2.75s-.93-1.33-1.62-1.74c-.7-.41-1.62-.61-2.78-.61-1.86,0-3.3,.64-4.32,1.91-1.03,1.28-1.77,2.9-2.23,4.87v16.47c1.35,.39,2.61,.85,3.77,1.39v1.45Z"/>
      <path class="cls-1" d="M1474.34,6.15c-.93-.19-1.8-.42-2.61-.67-.81-.25-1.6-.51-2.38-.78v-1.68h13.05v1.68c-1.12,.62-2.51,1.1-4.18,1.45l-13.11,37.47-3.19,.7-14.79-38.16c-.77-.19-1.53-.42-2.26-.67-.74-.25-1.45-.51-2.15-.78v-1.68h15.37v1.68c-.66,.27-1.39,.53-2.2,.78-.81,.25-1.66,.47-2.55,.67l9.92,26.51,1.22,4.64h.12l1.16-4.76,8.58-26.39Z"/>
      <path class="cls-1" d="M1503,39.56c-.31,.66-.79,1.28-1.45,1.86-.66,.58-1.41,1.08-2.26,1.51s-1.78,.76-2.78,1.02c-1.01,.25-2.03,.38-3.07,.38-2.28,0-4.29-.36-6.03-1.07-1.74-.71-3.19-1.74-4.35-3.07s-2.04-2.93-2.64-4.79c-.6-1.86-.9-3.94-.9-6.26,0-4.95,1.14-8.72,3.42-11.31,2.28-2.59,5.51-3.89,9.69-3.89,1.35,0,2.69,.18,4,.55,1.31,.37,2.48,.98,3.51,1.83,1.02,.85,1.86,1.98,2.49,3.39,.64,1.41,.96,3.16,.96,5.25,0,.66-.03,1.33-.09,2-.06,.68-.17,1.4-.32,2.17h-18.1c0,1.62,.2,3.14,.61,4.55,.41,1.41,1.02,2.64,1.83,3.68,.81,1.04,1.84,1.87,3.07,2.46,1.24,.6,2.69,.9,4.35,.9,1.35,0,2.73-.19,4.12-.58,1.39-.39,2.44-.89,3.13-1.51l.81,.93Zm-10.61-23.08c-2.2,0-3.89,.74-5.05,2.23-1.16,1.49-1.86,4.11-2.09,7.86h12.76c.04-.35,.07-.69,.09-1.02,.02-.33,.03-.65,.03-.96,0-2.47-.46-4.45-1.39-5.92-.93-1.47-2.38-2.2-4.35-2.2Z"/>
      <path class="cls-1" d="M1520.45,18.97c-.43,.23-.96,.71-1.6,1.42-.64,.72-1.21,1.77-1.71,3.16v17.23c.77,.08,1.55,.22,2.32,.43,.77,.21,1.55,.53,2.32,.96v1.45h-13.69v-1.45c.7-.39,1.35-.68,1.97-.87,.62-.19,1.24-.37,1.86-.52V17.98l-3.83-.46v-1.51c1.24-.54,2.51-.98,3.83-1.3,1.31-.33,2.57-.59,3.77-.78h1.45v6.15h.23c.35-.77,.84-1.55,1.48-2.32,.64-.77,1.37-1.47,2.2-2.09,.83-.62,1.74-1.09,2.73-1.42,.99-.33,2-.43,3.04-.32,.27,.5,.51,1.05,.72,1.65,.21,.6,.42,1.23,.61,1.88v1.51h-7.71Z"/>
      <path class="cls-1" d="M1545.68,37c0-1.08-.34-2-1.02-2.75s-1.54-1.46-2.58-2.12c-1.04-.66-2.16-1.29-3.33-1.91-1.18-.62-2.29-1.34-3.33-2.17-1.04-.83-1.9-1.79-2.58-2.87-.68-1.08-1.01-2.42-1.01-4,0-1.04,.24-2.01,.72-2.9s1.13-1.65,1.94-2.29c.81-.64,1.76-1.14,2.84-1.51,1.08-.37,2.24-.55,3.48-.55,2.09,0,3.8,.12,5.13,.35,1.33,.23,2.62,.56,3.86,.99-.15,1.24-.34,2.49-.55,3.74-.21,1.26-.51,2.54-.9,3.86h-1.45l-2.2-5.92c-.46-.19-.99-.32-1.57-.38-.58-.06-1.18-.09-1.8-.09-.7,0-1.3,.13-1.83,.38-.52,.25-.97,.57-1.33,.96s-.65,.83-.84,1.33-.29,1.01-.29,1.51c0,1.04,.34,1.94,1.02,2.7,.68,.75,1.54,1.45,2.58,2.09,1.04,.64,2.15,1.27,3.33,1.88,1.18,.62,2.29,1.31,3.33,2.09s1.9,1.67,2.58,2.7c.68,1.02,1.01,2.25,1.01,3.68,0,1.32-.28,2.49-.84,3.54-.56,1.04-1.33,1.93-2.32,2.67-.99,.74-2.13,1.3-3.42,1.71-1.3,.41-2.68,.61-4.15,.61-1.66,0-3.19-.15-4.58-.44-1.39-.29-2.84-.71-4.35-1.25,.08-1.39,.25-2.73,.52-4.03,.27-1.3,.62-2.54,1.04-3.74h1.45l2.55,6.32c.42,.31,.94,.48,1.54,.52,.6,.04,1.15,.06,1.65,.06,1.7,0,3.07-.46,4.12-1.39s1.57-2.05,1.57-3.36Z"/>
      <path class="cls-1" d="M1578.45,39.56c-.7,1.35-1.83,2.48-3.39,3.39s-3.39,1.36-5.48,1.36c-2.28,0-4.26-.36-5.94-1.07-1.68-.71-3.08-1.74-4.21-3.07-1.12-1.33-1.96-2.94-2.52-4.81-.56-1.88-.84-3.95-.84-6.24,0-4.91,1.2-8.67,3.6-11.28,2.4-2.61,5.66-3.92,9.8-3.92,1.89,0,3.59,.17,5.07,.49,1.49,.33,2.76,.76,3.8,1.3-.12,1.28-.33,2.71-.64,4.29-.31,1.59-.7,2.9-1.16,3.94h-1.57l-2.44-6.9c-.27-.19-.58-.34-.93-.43-.35-.1-.93-.14-1.74-.14-2.63,0-4.66,.96-6.09,2.87-1.43,1.91-2.15,5.15-2.15,9.72,0,1.47,.2,2.9,.61,4.29,.41,1.39,1.02,2.64,1.86,3.74,.83,1.1,1.88,1.98,3.13,2.64,1.26,.66,2.72,.99,4.38,.99,1.35,0,2.53-.19,3.54-.58,1-.39,1.86-.85,2.55-1.39l.75,.81Z"/>
      <path class="cls-1" d="M1613.77,43.62h-12.53v-1.45c.93-.5,2.09-.97,3.48-1.39v-13.57c0-3.02-.43-5.38-1.28-7.1-.85-1.72-2.4-2.58-4.64-2.58-1.01,0-1.91,.18-2.73,.55-.81,.37-1.55,.84-2.2,1.42-.66,.58-1.22,1.25-1.68,2-.46,.75-.81,1.54-1.04,2.35v16.94c.62,.15,1.21,.33,1.77,.52,.56,.19,1.11,.48,1.65,.87v1.45h-12.47v-1.45c1.2-.62,2.47-1.08,3.83-1.39V4.06l-4.41-.46v-1.51c1.12-.46,2.43-.87,3.92-1.22s2.91-.64,4.26-.87h1.45V20.47h.06c.81-1.82,1.98-3.36,3.51-4.64,1.53-1.28,3.37-1.91,5.54-1.91,1.55,0,2.93,.18,4.15,.55,1.22,.37,2.23,1.01,3.04,1.94,.81,.93,1.43,2.17,1.86,3.74,.42,1.57,.64,3.55,.64,5.95v14.67c.66,.15,1.31,.33,1.97,.52,.66,.19,1.28,.48,1.86,.87v1.45Z"/>
      <path class="cls-1" d="M1640.63,39.56c-.31,.66-.79,1.28-1.45,1.86-.66,.58-1.41,1.08-2.26,1.51s-1.78,.76-2.78,1.02c-1.01,.25-2.03,.38-3.07,.38-2.28,0-4.29-.36-6.03-1.07-1.74-.71-3.19-1.74-4.35-3.07s-2.04-2.93-2.64-4.79c-.6-1.86-.9-3.94-.9-6.26,0-4.95,1.14-8.72,3.42-11.31,2.28-2.59,5.51-3.89,9.69-3.89,1.35,0,2.69,.18,4,.55,1.31,.37,2.48,.98,3.51,1.83,1.02,.85,1.86,1.98,2.49,3.39,.64,1.41,.96,3.16,.96,5.25,0,.66-.03,1.33-.09,2-.06,.68-.17,1.4-.32,2.17h-18.1c0,1.62,.2,3.14,.61,4.55,.41,1.41,1.02,2.64,1.83,3.68,.81,1.04,1.84,1.87,3.07,2.46,1.24,.6,2.69,.9,4.35,.9,1.35,0,2.73-.19,4.12-.58,1.39-.39,2.44-.89,3.13-1.51l.81,.93Zm-10.61-23.08c-2.2,0-3.89,.74-5.05,2.23-1.16,1.49-1.86,4.11-2.09,7.86h12.76c.04-.35,.07-.69,.09-1.02,.02-.33,.03-.65,.03-.96,0-2.47-.46-4.45-1.39-5.92-.93-1.47-2.38-2.2-4.35-2.2Z"/>
      <path class="cls-1" d="M1677.4,43.62h-12.47v-1.45c1.04-.54,2.18-1,3.42-1.39v-13.75c0-2.94-.43-5.26-1.28-6.96-.85-1.7-2.4-2.55-4.64-2.55-.97,0-1.87,.17-2.7,.52-.83,.35-1.57,.82-2.2,1.42-.64,.6-1.19,1.28-1.65,2.03s-.83,1.54-1.1,2.35v16.94c1.2,.23,2.36,.7,3.48,1.39v1.45h-12.53v-1.45c.97-.5,2.24-.97,3.83-1.39V17.98l-3.83-.46v-1.51c1-.42,2.17-.81,3.48-1.16,1.31-.35,2.69-.66,4.12-.93h1.45v6.5h.06c.81-1.78,1.98-3.31,3.51-4.58,1.53-1.28,3.37-1.91,5.54-1.91,1.55,0,2.93,.18,4.15,.55,1.22,.37,2.23,1.01,3.04,1.94,.81,.93,1.43,2.17,1.86,3.74,.42,1.57,.64,3.55,.64,5.95v14.67c1.55,.27,2.82,.73,3.83,1.39v1.45Z"/>
      <path class="cls-1" d="M1695.79,14.62h11.19v1.51c-.73,.31-1.46,.58-2.17,.81-.72,.23-1.46,.43-2.23,.58-.58,.77-1.25,1.6-2,2.49-.75,.89-1.52,1.78-2.29,2.67-.77,.89-1.52,1.72-2.23,2.49-.72,.77-1.33,1.41-1.83,1.91,.58,.77,1.29,1.71,2.12,2.81,.83,1.1,1.73,2.27,2.7,3.51,.97,1.24,1.96,2.49,2.99,3.77,1.02,1.28,2.04,2.48,3.04,3.6l3.25,1.39v1.45h-7.19l-1.57-1.39c-2.05-2.55-3.75-4.82-5.1-6.82-1.35-1.99-2.59-3.86-3.71-5.6l-1.91-.58v11.54c1.28,.23,2.53,.7,3.77,1.39v1.45h-12.82v-1.45c1.28-.62,2.55-1.08,3.83-1.39V4.06l-4.41-.46v-1.51c1.08-.5,2.38-.91,3.89-1.22,1.51-.31,2.94-.6,4.29-.87h1.45V27.72h1.51c.62-.7,1.29-1.47,2.03-2.32s1.47-1.73,2.2-2.64,1.45-1.81,2.15-2.7,1.33-1.74,1.91-2.55c-.97-.27-1.91-.73-2.84-1.39v-1.51Z"/>
      <path class="cls-1" d="M1734.18,39.56c-.31,.66-.79,1.28-1.45,1.86-.66,.58-1.41,1.08-2.26,1.51s-1.78,.76-2.78,1.02c-1.01,.25-2.03,.38-3.07,.38-2.28,0-4.29-.36-6.03-1.07-1.74-.71-3.19-1.74-4.35-3.07s-2.04-2.93-2.64-4.79c-.6-1.86-.9-3.94-.9-6.26,0-4.95,1.14-8.72,3.42-11.31,2.28-2.59,5.51-3.89,9.69-3.89,1.35,0,2.69,.18,4,.55,1.31,.37,2.48,.98,3.51,1.83,1.02,.85,1.86,1.98,2.49,3.39,.64,1.41,.96,3.16,.96,5.25,0,.66-.03,1.33-.09,2-.06,.68-.17,1.4-.32,2.17h-18.1c0,1.62,.2,3.14,.61,4.55,.41,1.41,1.02,2.64,1.83,3.68,.81,1.04,1.84,1.87,3.07,2.46,1.24,.6,2.69,.9,4.35,.9,1.35,0,2.73-.19,4.12-.58,1.39-.39,2.44-.89,3.13-1.51l.81,.93Zm-10.61-23.08c-2.2,0-3.89,.74-5.05,2.23-1.16,1.49-1.86,4.11-2.09,7.86h12.76c.04-.35,.07-.69,.09-1.02,.02-.33,.03-.65,.03-.96,0-2.47-.46-4.45-1.39-5.92-.93-1.47-2.38-2.2-4.35-2.2Z"/>
      <path class="cls-1" d="M1770.95,43.62h-12.47v-1.45c1.04-.54,2.18-1,3.42-1.39v-13.75c0-2.94-.43-5.26-1.28-6.96-.85-1.7-2.4-2.55-4.64-2.55-.97,0-1.87,.17-2.7,.52-.83,.35-1.57,.82-2.2,1.42-.64,.6-1.19,1.28-1.65,2.03s-.83,1.54-1.1,2.35v16.94c1.2,.23,2.36,.7,3.48,1.39v1.45h-12.53v-1.45c.97-.5,2.24-.97,3.83-1.39V17.98l-3.83-.46v-1.51c1-.42,2.17-.81,3.48-1.16,1.31-.35,2.69-.66,4.12-.93h1.45v6.5h.06c.81-1.78,1.98-3.31,3.51-4.58,1.53-1.28,3.37-1.91,5.54-1.91,1.55,0,2.93,.18,4.15,.55,1.22,.37,2.23,1.01,3.04,1.94,.81,.93,1.43,2.17,1.86,3.74,.42,1.57,.64,3.55,.64,5.95v14.67c1.55,.27,2.82,.73,3.83,1.39v1.45Z"/>
      <path class="cls-1" d="M1794.73,39.61c.46,.46,1.06,.86,1.8,1.19,.73,.33,1.84,.49,3.31,.49,1.24,0,2.4-.16,3.48-.49,1.08-.33,2.02-.81,2.81-1.45,.79-.64,1.42-1.41,1.89-2.32,.46-.91,.7-1.94,.7-3.1,0-1.55-.47-2.84-1.42-3.89-.95-1.04-2.13-1.97-3.54-2.78-1.41-.81-2.95-1.6-4.61-2.38-1.66-.77-3.2-1.69-4.61-2.75-1.41-1.06-2.59-2.34-3.54-3.83-.95-1.49-1.42-3.35-1.42-5.6,0-1.62,.29-3.07,.87-4.35,.58-1.28,1.4-2.36,2.46-3.25,1.06-.89,2.33-1.58,3.8-2.06,1.47-.48,3.11-.72,4.93-.72,2.36,0,4.51,.18,6.47,.55,1.95,.37,3.49,.82,4.61,1.36,0,.66-.05,1.42-.14,2.29-.1,.87-.21,1.77-.35,2.7-.14,.93-.28,1.83-.43,2.7-.16,.87-.31,1.63-.46,2.29h-1.51l-2.32-7.95c-.7-.31-1.59-.54-2.66-.7-1.07-.15-2.21-.23-3.42-.23-1.99,0-3.59,.55-4.8,1.65s-1.81,2.64-1.81,4.61c0,1.59,.48,2.92,1.43,4,.95,1.08,2.15,2.05,3.59,2.9,1.44,.85,2.99,1.67,4.64,2.46,1.65,.79,3.2,1.71,4.64,2.76,1.44,1.04,2.64,2.28,3.59,3.71,.95,1.43,1.43,3.21,1.43,5.34,0,1.74-.32,3.33-.96,4.76-.64,1.43-1.56,2.65-2.75,3.65-1.2,1.01-2.67,1.78-4.41,2.32s-3.71,.81-5.92,.81c-2.44,0-4.62-.29-6.55-.87-1.93-.58-3.31-1.2-4.12-1.86,.04-.66,.11-1.45,.2-2.38,.1-.93,.21-1.88,.35-2.87,.13-.99,.28-1.94,.43-2.87,.15-.93,.31-1.72,.46-2.38h1.51l2.38,8.53Z"/>
      <path class="cls-1" d="M1832.37,43.62h-12.88v-1.45c.58-.31,1.18-.57,1.8-.78,.62-.21,1.29-.42,2.03-.61V17.98l-3.83-.46v-1.51c1.12-.46,2.34-.87,3.65-1.22,1.31-.35,2.63-.64,3.94-.87h1.45v26.85c.77,.19,1.47,.4,2.09,.61,.62,.21,1.2,.47,1.74,.78v1.45Zm-10.15-38.86c0-1.04,.34-1.88,1.02-2.49,.68-.62,1.58-.93,2.7-.93s2.01,.31,2.67,.93c.66,.62,.99,1.45,.99,2.49s-.33,1.87-.99,2.47c-.66,.6-1.55,.9-2.67,.9s-2.02-.3-2.7-.9c-.68-.6-1.02-1.42-1.02-2.47Z"/>
      <path class="cls-1" d="M1860.45,39.56c-.31,.66-.79,1.28-1.45,1.86-.66,.58-1.41,1.08-2.26,1.51s-1.78,.76-2.78,1.02c-1.01,.25-2.03,.38-3.07,.38-2.28,0-4.29-.36-6.03-1.07-1.74-.71-3.19-1.74-4.35-3.07s-2.04-2.93-2.64-4.79c-.6-1.86-.9-3.94-.9-6.26,0-4.95,1.14-8.72,3.42-11.31,2.28-2.59,5.51-3.89,9.69-3.89,1.35,0,2.69,.18,4,.55,1.31,.37,2.48,.98,3.51,1.83,1.02,.85,1.86,1.98,2.49,3.39,.64,1.41,.96,3.16,.96,5.25,0,.66-.03,1.33-.09,2-.06,.68-.17,1.4-.32,2.17h-18.1c0,1.62,.2,3.14,.61,4.55,.41,1.41,1.02,2.64,1.83,3.68,.81,1.04,1.84,1.87,3.07,2.46,1.24,.6,2.69,.9,4.35,.9,1.35,0,2.73-.19,4.12-.58,1.39-.39,2.44-.89,3.13-1.51l.81,.93Zm-10.61-23.08c-2.2,0-3.89,.74-5.05,2.23-1.16,1.49-1.86,4.11-2.09,7.86h12.76c.04-.35,.07-.69,.09-1.02,.02-.33,.03-.65,.03-.96,0-2.47-.46-4.45-1.39-5.92-.93-1.47-2.38-2.2-4.35-2.2Z"/>
      <path class="cls-1" d="M1895.25,14.62h11.19v1.51c-.73,.31-1.46,.58-2.17,.81-.72,.23-1.46,.43-2.23,.58-.58,.77-1.25,1.6-2,2.49-.75,.89-1.52,1.78-2.29,2.67-.77,.89-1.52,1.72-2.23,2.49-.72,.77-1.33,1.41-1.83,1.91,.58,.77,1.29,1.71,2.12,2.81,.83,1.1,1.73,2.27,2.7,3.51,.97,1.24,1.96,2.49,2.99,3.77,1.02,1.28,2.04,2.48,3.04,3.6l3.25,1.39v1.45h-7.19l-1.57-1.39c-2.05-2.55-3.75-4.82-5.1-6.82-1.35-1.99-2.59-3.86-3.71-5.6l-1.91-.58v11.54c1.28,.23,2.53,.7,3.77,1.39v1.45h-12.82v-1.45c1.28-.62,2.55-1.08,3.83-1.39V4.06l-4.41-.46v-1.51c1.08-.5,2.38-.91,3.89-1.22,1.51-.31,2.94-.6,4.29-.87h1.45V27.72h1.51c.62-.7,1.29-1.47,2.03-2.32s1.47-1.73,2.2-2.64,1.45-1.81,2.15-2.7,1.33-1.74,1.91-2.55c-.97-.27-1.91-.73-2.84-1.39v-1.51Z"/>
      <path class="cls-1" d="M1910.15,29.12c0-2.44,.32-4.59,.96-6.47,.64-1.88,1.56-3.46,2.75-4.76,1.2-1.29,2.64-2.28,4.32-2.96,1.68-.68,3.55-1.02,5.6-1.02,2.4,0,4.47,.37,6.21,1.1s3.16,1.77,4.26,3.1c1.1,1.33,1.91,2.93,2.44,4.79,.52,1.86,.78,3.92,.78,6.21,0,4.87-1.24,8.62-3.71,11.25-2.48,2.63-5.8,3.94-9.98,3.94-2.32,0-4.33-.36-6.03-1.07s-3.11-1.74-4.23-3.07c-1.12-1.33-1.96-2.94-2.52-4.81-.56-1.88-.84-3.95-.84-6.24Zm4.06-23.95c0-.93,.29-1.67,.87-2.23s1.33-.84,2.26-.84,1.68,.28,2.26,.84,.87,1.3,.87,2.23-.29,1.61-.87,2.15c-.58,.54-1.33,.81-2.26,.81s-1.68-.27-2.26-.81c-.58-.54-.87-1.26-.87-2.15Zm1.51,23.95c0,1.74,.16,3.38,.49,4.93,.33,1.55,.85,2.89,1.57,4.03,.71,1.14,1.65,2.04,2.81,2.7,1.16,.66,2.55,.99,4.18,.99,2.09,0,3.8-1.02,5.13-3.07s2-5.24,2-9.57c0-1.78-.17-3.43-.49-4.96-.33-1.53-.84-2.86-1.54-4-.7-1.14-1.59-2.04-2.67-2.7-1.08-.66-2.38-.99-3.89-.99-2.28,0-4.12,1.02-5.51,3.07-1.39,2.05-2.09,5.24-2.09,9.57Zm11.37-23.95c0-.93,.29-1.67,.87-2.23s1.33-.84,2.26-.84,1.68,.28,2.26,.84,.87,1.3,.87,2.23-.29,1.61-.87,2.15c-.58,.54-1.33,.81-2.26,.81s-1.68-.27-2.26-.81c-.58-.54-.87-1.26-.87-2.15Z"/>
      <path class="cls-1" d="M1956.96,37c0-1.08-.34-2-1.02-2.75s-1.54-1.46-2.58-2.12c-1.04-.66-2.16-1.29-3.33-1.91-1.18-.62-2.29-1.34-3.33-2.17-1.04-.83-1.9-1.79-2.58-2.87-.68-1.08-1.01-2.42-1.01-4,0-1.04,.24-2.01,.72-2.9s1.13-1.65,1.94-2.29c.81-.64,1.76-1.14,2.84-1.51,1.08-.37,2.24-.55,3.48-.55,2.09,0,3.8,.12,5.13,.35,1.33,.23,2.62,.56,3.86,.99-.15,1.24-.34,2.49-.55,3.74-.21,1.26-.51,2.54-.9,3.86h-1.45l-2.2-5.92c-.46-.19-.99-.32-1.57-.38-.58-.06-1.18-.09-1.8-.09-.7,0-1.3,.13-1.83,.38-.52,.25-.97,.57-1.33,.96s-.65,.83-.84,1.33-.29,1.01-.29,1.51c0,1.04,.34,1.94,1.02,2.7,.68,.75,1.54,1.45,2.58,2.09,1.04,.64,2.15,1.27,3.33,1.88,1.18,.62,2.29,1.31,3.33,2.09s1.9,1.67,2.58,2.7c.68,1.02,1.01,2.25,1.01,3.68,0,1.32-.28,2.49-.84,3.54-.56,1.04-1.33,1.93-2.32,2.67-.99,.74-2.13,1.3-3.42,1.71-1.3,.41-2.68,.61-4.15,.61-1.66,0-3.19-.15-4.58-.44-1.39-.29-2.84-.71-4.35-1.25,.08-1.39,.25-2.73,.52-4.03,.27-1.3,.62-2.54,1.04-3.74h1.45l2.55,6.32c.42,.31,.94,.48,1.54,.52,.6,.04,1.15,.06,1.65,.06,1.7,0,3.07-.46,4.12-1.39s1.57-2.05,1.57-3.36Z"/>
      <path class="cls-1" d="M1965.83,16.07c1.47-.96,3.02-1.64,4.64-2.04v-4.93c.5-.39,1.09-.76,1.77-1.13,.68-.37,1.34-.69,2-.96h1.45v7.6h8.7v3.02h-8.7v16.74c0,2.31,.37,3.94,1.1,4.91,.73,.96,1.84,1.44,3.31,1.44,.7,0,1.57-.05,2.61-.14,1.04-.1,1.93-.28,2.67-.55l.41,.87c-.31,.35-.75,.72-1.31,1.1-.56,.39-1.2,.75-1.91,1.1-.72,.35-1.5,.64-2.35,.87-.85,.23-1.72,.35-2.61,.35-2.32,0-4.09-.66-5.31-1.96-1.22-1.31-1.83-3.43-1.83-6.35V17.63h-4.64v-1.56Z"/>
      <path class="cls-1" d="M2001.73,43.62h-12.88v-1.45c1.28-.62,2.55-1.08,3.83-1.39V4.06l-4.41-.46v-1.51c1-.46,2.26-.87,3.77-1.22,1.51-.35,2.98-.64,4.41-.87h1.45V40.77c1.28,.31,2.55,.77,3.83,1.39v1.45Z"/>
      <path class="cls-1" d="M2019.19,43.62h-12.88v-1.45c.58-.31,1.18-.57,1.8-.78,.62-.21,1.29-.42,2.03-.61V17.98l-3.83-.46v-1.51c1.12-.46,2.34-.87,3.65-1.22,1.31-.35,2.63-.64,3.94-.87h1.45v26.85c.77,.19,1.47,.4,2.09,.61,.62,.21,1.2,.47,1.74,.78v1.45Zm-10.15-38.86c0-1.04,.34-1.88,1.02-2.49,.68-.62,1.58-.93,2.7-.93s2.01,.31,2.67,.93c.66,.62,.99,1.45,.99,2.49s-.33,1.87-.99,2.47c-.66,.6-1.55,.9-2.67,.9s-2.02-.3-2.7-.9c-.68-.6-1.02-1.42-1.02-2.47Z"/>
      <path class="cls-1" d="M2046.16,39.56c-.7,1.35-1.83,2.48-3.39,3.39s-3.39,1.36-5.48,1.36c-2.28,0-4.26-.36-5.94-1.07-1.68-.71-3.08-1.74-4.21-3.07-1.12-1.33-1.96-2.94-2.52-4.81-.56-1.88-.84-3.95-.84-6.24,0-4.91,1.2-8.67,3.6-11.28,2.4-2.61,5.66-3.92,9.8-3.92,1.89,0,3.59,.17,5.07,.49,1.49,.33,2.76,.76,3.8,1.3-.12,1.28-.33,2.71-.64,4.29-.31,1.59-.7,2.9-1.16,3.94h-1.57l-2.44-6.9c-.27-.19-.58-.34-.93-.43-.35-.1-.93-.14-1.74-.14-2.63,0-4.66,.96-6.09,2.87-1.43,1.91-2.15,5.15-2.15,9.72,0,1.47,.2,2.9,.61,4.29,.41,1.39,1.02,2.64,1.86,3.74,.83,1.1,1.88,1.98,3.13,2.64,1.26,.66,2.72,.99,4.38,.99,1.35,0,2.53-.19,3.54-.58,1-.39,1.86-.85,2.55-1.39l.75,.81Z"/>
      <path class="cls-1" d="M2081.48,43.62h-12.53v-1.45c.93-.5,2.09-.97,3.48-1.39v-13.57c0-3.02-.43-5.38-1.28-7.1-.85-1.72-2.4-2.58-4.64-2.58-1.01,0-1.91,.18-2.73,.55-.81,.37-1.55,.84-2.2,1.42-.66,.58-1.22,1.25-1.68,2-.46,.75-.81,1.54-1.04,2.35v16.94c.62,.15,1.21,.33,1.77,.52,.56,.19,1.11,.48,1.65,.87v1.45h-12.47v-1.45c1.2-.62,2.47-1.08,3.83-1.39V4.06l-4.41-.46v-1.51c1.12-.46,2.43-.87,3.92-1.22s2.91-.64,4.26-.87h1.45V20.47h.06c.81-1.82,1.98-3.36,3.51-4.64,1.53-1.28,3.37-1.91,5.54-1.91,1.55,0,2.93,.18,4.15,.55,1.22,.37,2.23,1.01,3.04,1.94,.81,.93,1.43,2.17,1.86,3.74,.42,1.57,.64,3.55,.64,5.95v14.67c.66,.15,1.31,.33,1.97,.52,.66,.19,1.28,.48,1.86,.87v1.45Z"/>
      <path class="cls-1" d="M2108.34,39.56c-.31,.66-.79,1.28-1.45,1.86-.66,.58-1.41,1.08-2.26,1.51s-1.78,.76-2.78,1.02c-1.01,.25-2.03,.38-3.07,.38-2.28,0-4.29-.36-6.03-1.07-1.74-.71-3.19-1.74-4.35-3.07s-2.04-2.93-2.64-4.79c-.6-1.86-.9-3.94-.9-6.26,0-4.95,1.14-8.72,3.42-11.31,2.28-2.59,5.51-3.89,9.69-3.89,1.35,0,2.69,.18,4,.55,1.31,.37,2.48,.98,3.51,1.83,1.02,.85,1.86,1.98,2.49,3.39,.64,1.41,.96,3.16,.96,5.25,0,.66-.03,1.33-.09,2-.06,.68-.17,1.4-.32,2.17h-18.1c0,1.62,.2,3.14,.61,4.55,.41,1.41,1.02,2.64,1.83,3.68,.81,1.04,1.84,1.87,3.07,2.46,1.24,.6,2.69,.9,4.35,.9,1.35,0,2.73-.19,4.12-.58,1.39-.39,2.44-.89,3.13-1.51l.81,.93Zm-10.61-23.08c-2.2,0-3.89,.74-5.05,2.23-1.16,1.49-1.86,4.11-2.09,7.86h12.76c.04-.35,.07-.69,.09-1.02,.02-.33,.03-.65,.03-.96,0-2.47-.46-4.45-1.39-5.92-.93-1.47-2.38-2.2-4.35-2.2Z"/>
      <path class="cls-1" d="M2174.17,43.62h-14.27v-1.68c.77-.31,1.55-.57,2.32-.78,.77-.21,1.57-.42,2.38-.61V14.44l.23-6.79h-.46l-1.91,6.21-11.89,29.75h-1.51l-11.31-29.75-2.09-6.79h-.52l.06,7.37v26.1c.73,.16,1.47,.35,2.2,.58,.73,.23,1.47,.5,2.2,.81v1.68h-12.12v-1.68c.73-.31,1.5-.59,2.29-.84,.79-.25,1.59-.45,2.41-.61V6.15c-.81-.15-1.62-.36-2.41-.61-.79-.25-1.58-.53-2.35-.84v-1.68h11.89l10.09,26.51,1.97,5.97h.06l1.97-6.09,10.44-26.39h10.38v1.68c-.7,.31-1.41,.59-2.15,.84-.73,.25-1.49,.46-2.26,.61V40.6c.81,.15,1.58,.34,2.29,.55,.71,.21,1.4,.47,2.06,.78v1.68Z"/>
      <path class="cls-1" d="M2178.4,29.12c0-2.44,.32-4.59,.96-6.47,.64-1.88,1.56-3.46,2.75-4.76,1.2-1.29,2.64-2.28,4.32-2.96,1.68-.68,3.55-1.02,5.6-1.02,2.4,0,4.47,.37,6.21,1.1s3.16,1.77,4.26,3.1c1.1,1.33,1.91,2.93,2.44,4.79,.52,1.86,.78,3.92,.78,6.21,0,4.87-1.24,8.62-3.71,11.25-2.48,2.63-5.8,3.94-9.98,3.94-2.32,0-4.33-.36-6.03-1.07s-3.11-1.74-4.23-3.07c-1.12-1.33-1.96-2.94-2.52-4.81-.56-1.88-.84-3.95-.84-6.24Zm5.57,0c0,1.74,.16,3.38,.49,4.93,.33,1.55,.85,2.89,1.57,4.03,.71,1.14,1.65,2.04,2.81,2.7,1.16,.66,2.55,.99,4.18,.99,2.09,0,3.8-1.02,5.13-3.07s2-5.24,2-9.57c0-1.78-.17-3.43-.49-4.96-.33-1.53-.84-2.86-1.54-4-.7-1.14-1.59-2.04-2.67-2.7-1.08-.66-2.38-.99-3.89-.99-2.28,0-4.12,1.02-5.51,3.07-1.39,2.05-2.09,5.24-2.09,9.57Z"/>
      <path class="cls-1" d="M2239.88,43.62h-12.41v-1.45c.39-.23,.86-.47,1.42-.72,.56-.25,1.23-.47,2-.67v-13.4c0-1.55-.07-2.94-.2-4.18-.14-1.24-.39-2.27-.75-3.1-.37-.83-.9-1.47-1.59-1.91s-1.61-.67-2.73-.67c-.85,0-1.63,.17-2.35,.52-.72,.35-1.35,.81-1.91,1.39-.56,.58-1.04,1.24-1.45,1.97-.41,.73-.72,1.51-.96,2.32v17.05c.62,.19,1.21,.4,1.77,.61,.56,.21,1.11,.47,1.65,.78v1.45h-12.47v-1.45c.54-.27,1.14-.52,1.8-.75,.66-.23,1.33-.44,2.03-.64V17.98l-3.83-.46v-1.51c1.24-.54,2.5-.98,3.8-1.3,1.29-.33,2.56-.59,3.8-.78h1.45v6.55h.06c.62-1.82,1.67-3.36,3.16-4.64,1.49-1.28,3.33-1.91,5.54-1.91,.93,0,1.82,.1,2.67,.29,.85,.19,1.64,.55,2.38,1.07,.73,.52,1.35,1.25,1.86,2.17,.5,.93,.87,2.13,1.1,3.6,.7-2.13,1.82-3.85,3.36-5.16,1.55-1.31,3.48-1.97,5.8-1.97,1.43,0,2.68,.18,3.74,.55s1.94,1.01,2.64,1.94c.7,.93,1.21,2.19,1.54,3.77,.33,1.59,.49,3.6,.49,6.03v14.56c1.31,.23,2.59,.7,3.83,1.39v1.45h-12.47v-1.45c1.16-.62,2.3-1.08,3.42-1.39v-14.44c0-1.39-.07-2.63-.2-3.71-.14-1.08-.4-2-.78-2.75s-.93-1.33-1.62-1.74c-.7-.41-1.62-.61-2.78-.61-1.86,0-3.3,.64-4.32,1.91-1.03,1.28-1.77,2.9-2.23,4.87v16.47c1.35,.39,2.61,.85,3.77,1.39v1.45Z"/>
      <path class="cls-1" d="M2284.02,39.56c-.31,.66-.79,1.28-1.45,1.86-.66,.58-1.41,1.08-2.26,1.51s-1.78,.76-2.78,1.02c-1.01,.25-2.03,.38-3.07,.38-2.28,0-4.29-.36-6.03-1.07-1.74-.71-3.19-1.74-4.35-3.07s-2.04-2.93-2.64-4.79c-.6-1.86-.9-3.94-.9-6.26,0-4.95,1.14-8.72,3.42-11.31,2.28-2.59,5.51-3.89,9.69-3.89,1.35,0,2.69,.18,4,.55,1.31,.37,2.48,.98,3.51,1.83,1.02,.85,1.86,1.98,2.49,3.39,.64,1.41,.96,3.16,.96,5.25,0,.66-.03,1.33-.09,2-.06,.68-.17,1.4-.32,2.17h-18.1c0,1.62,.2,3.14,.61,4.55,.41,1.41,1.02,2.64,1.83,3.68,.81,1.04,1.84,1.87,3.07,2.46,1.24,.6,2.69,.9,4.35,.9,1.35,0,2.73-.19,4.12-.58,1.39-.39,2.44-.89,3.13-1.51l.81,.93Zm-10.61-23.08c-2.2,0-3.89,.74-5.05,2.23-1.16,1.49-1.86,4.11-2.09,7.86h12.76c.04-.35,.07-.69,.09-1.02,.02-.33,.03-.65,.03-.96,0-2.47-.46-4.45-1.39-5.92-.93-1.47-2.38-2.2-4.35-2.2Z"/>
      <path class="cls-1" d="M2320.79,43.62h-12.47v-1.45c1.04-.54,2.18-1,3.42-1.39v-13.75c0-2.94-.43-5.26-1.28-6.96-.85-1.7-2.4-2.55-4.64-2.55-.97,0-1.87,.17-2.7,.52-.83,.35-1.57,.82-2.2,1.42-.64,.6-1.19,1.28-1.65,2.03s-.83,1.54-1.1,2.35v16.94c1.2,.23,2.36,.7,3.48,1.39v1.45h-12.53v-1.45c.97-.5,2.24-.97,3.83-1.39V17.98l-3.83-.46v-1.51c1-.42,2.17-.81,3.48-1.16,1.31-.35,2.69-.66,4.12-.93h1.45v6.5h.06c.81-1.78,1.98-3.31,3.51-4.58,1.53-1.28,3.37-1.91,5.54-1.91,1.55,0,2.93,.18,4.15,.55,1.22,.37,2.23,1.01,3.04,1.94,.81,.93,1.43,2.17,1.86,3.74,.42,1.57,.64,3.55,.64,5.95v14.67c1.55,.27,2.82,.73,3.83,1.39v1.45Z"/>
      <path class="cls-1" d="M2322.64,16.07c1.47-.96,3.02-1.64,4.64-2.04v-4.93c.5-.39,1.09-.76,1.77-1.13,.68-.37,1.34-.69,2-.96h1.45v7.6h8.7v3.02h-8.7v16.74c0,2.31,.37,3.94,1.1,4.91,.73,.96,1.84,1.44,3.31,1.44,.7,0,1.57-.05,2.61-.14,1.04-.1,1.93-.28,2.67-.55l.41,.87c-.31,.35-.75,.72-1.31,1.1-.56,.39-1.2,.75-1.91,1.1-.72,.35-1.5,.64-2.35,.87-.85,.23-1.72,.35-2.61,.35-2.32,0-4.09-.66-5.31-1.96-1.22-1.31-1.83-3.43-1.83-6.35V17.63h-4.64v-1.56Z"/>
      <path class="cls-1" d="M2369.16,39.56c-.31,.66-.79,1.28-1.45,1.86-.66,.58-1.41,1.08-2.26,1.51s-1.78,.76-2.78,1.02c-1.01,.25-2.03,.38-3.07,.38-2.28,0-4.29-.36-6.03-1.07-1.74-.71-3.19-1.74-4.35-3.07s-2.04-2.93-2.64-4.79c-.6-1.86-.9-3.94-.9-6.26,0-4.95,1.14-8.72,3.42-11.31,2.28-2.59,5.51-3.89,9.69-3.89,1.35,0,2.69,.18,4,.55,1.31,.37,2.48,.98,3.51,1.83,1.02,.85,1.86,1.98,2.49,3.39,.64,1.41,.96,3.16,.96,5.25,0,.66-.03,1.33-.09,2-.06,.68-.17,1.4-.32,2.17h-18.1c0,1.62,.2,3.14,.61,4.55,.41,1.41,1.02,2.64,1.83,3.68,.81,1.04,1.84,1.87,3.07,2.46,1.24,.6,2.69,.9,4.35,.9,1.35,0,2.73-.19,4.12-.58,1.39-.39,2.44-.89,3.13-1.51l.81,.93Zm-10.61-23.08c-2.2,0-3.89,.74-5.05,2.23-1.16,1.49-1.86,4.11-2.09,7.86h12.76c.04-.35,.07-.69,.09-1.02,.02-.33,.03-.65,.03-.96,0-2.47-.46-4.45-1.39-5.92-.93-1.47-2.38-2.2-4.35-2.2Z"/>
      <path class="cls-1" d="M2410.34,36.02c0,.85,.02,1.59,.06,2.2,.04,.62,.08,1.28,.12,1.97l4,.58v1.22c-.97,.5-2.04,.95-3.22,1.33-1.18,.39-2.31,.68-3.39,.87h-1.45c-.39-.89-.62-1.87-.7-2.93-.08-1.06-.14-2.23-.17-3.51h-.29c-.16,.77-.46,1.56-.9,2.35-.45,.79-1.03,1.5-1.74,2.12-.72,.62-1.56,1.12-2.52,1.51-.97,.39-2.07,.58-3.31,.58-2.36,0-4.28-.71-5.77-2.15-1.49-1.43-2.23-3.31-2.23-5.63,0-1.78,.36-3.24,1.07-4.38,.71-1.14,1.77-2.04,3.16-2.7,1.39-.66,3.11-1.13,5.16-1.42,2.05-.29,4.43-.51,7.13-.67,.15-1.66,.2-3.16,.14-4.5-.06-1.33-.27-2.47-.64-3.42-.37-.95-.91-1.68-1.62-2.2-.72-.52-1.65-.78-2.81-.78-.54,0-1.15,.03-1.83,.09-.68,.06-1.34,.22-2,.49l-2.73,6.96h-1.51c-.39-1.16-.72-2.36-1.01-3.6-.29-1.24-.47-2.46-.55-3.65,1.47-.89,3.1-1.59,4.9-2.09,1.8-.5,3.8-.75,6-.75,1.97,0,3.55,.28,4.73,.84,1.18,.56,2.08,1.29,2.7,2.18s1.02,1.88,1.22,2.96c.19,1.08,.29,2.17,.29,3.25,0,2.32-.05,4.55-.15,6.7-.1,2.15-.14,4.21-.14,6.18Zm-11.19,4.7c.97,0,1.82-.19,2.55-.58,.73-.39,1.35-.85,1.86-1.39,.5-.54,.91-1.09,1.22-1.65,.31-.56,.52-1.03,.64-1.42v-6.09c-2.24,0-4.08,.12-5.51,.35-1.43,.23-2.55,.6-3.36,1.1-.81,.5-1.37,1.13-1.68,1.88s-.46,1.62-.46,2.58c0,1.66,.42,2.95,1.28,3.86,.85,.91,2.01,1.36,3.48,1.36Z"/>
      <path class="cls-1" d="M2420.31,32.13c0-2.44,.06-4.82,.17-7.16,.12-2.34,.17-4.67,.17-6.99l-3.83-.46v-1.51c1.24-.46,2.5-.87,3.8-1.22,1.29-.35,2.56-.64,3.8-.87h1.45c0,2.9-.06,5.78-.17,8.64-.12,2.86-.17,5.7-.17,8.53,0,1.51,.09,2.86,.26,4.06,.17,1.2,.48,2.2,.93,3.02,.44,.81,1.05,1.44,1.83,1.88,.77,.45,1.76,.67,2.96,.67,1.74,0,3.2-.63,4.38-1.88,1.18-1.26,2.1-2.89,2.75-4.9v-15.95l-3.77-.46v-1.51c1.2-.46,2.44-.87,3.74-1.22,1.29-.35,2.56-.64,3.8-.87h1.45v26.39l3.83,.46v1.22c-1.12,.5-2.25,.95-3.39,1.33-1.14,.39-2.33,.68-3.57,.87h-1.45l-.41-6.9h-.23c-.19,.81-.53,1.63-1.01,2.46-.48,.83-1.11,1.59-1.89,2.26s-1.65,1.23-2.64,1.65c-.99,.43-2.06,.64-3.22,.64-1.55,0-2.91-.18-4.09-.55-1.18-.37-2.17-1.01-2.99-1.94-.81-.93-1.43-2.17-1.86-3.74s-.64-3.55-.64-5.95Z"/>
      <path class="cls-1" d="M2466.89,0c.35,0,.75,.02,1.22,.06,.46,.04,.95,.09,1.45,.14,.5,.06,.99,.14,1.45,.23s.87,.2,1.22,.32c-.12,1.28-.28,2.46-.49,3.57-.21,1.1-.47,2.1-.78,2.99h-1.45l-2.55-4.99c-1.12,0-2.08,.12-2.87,.35-.79,.23-1.45,.68-1.97,1.33-.52,.66-.91,1.61-1.16,2.84-.25,1.24-.38,2.86-.38,4.87v2.9h6.67v3.02h-6.67v23.16c2.01,.23,3.87,.69,5.57,1.39v1.44h-14.62v-1.44c1.2-.69,2.47-1.16,3.83-1.39V17.63h-4.41v-1.56c1.35-.88,2.82-1.54,4.41-1.98v-2.03c0-2.4,.29-4.38,.87-5.95s1.39-2.8,2.44-3.71c1.04-.91,2.27-1.54,3.68-1.88,1.41-.35,2.93-.52,4.55-.52Z"/>
      <path class="cls-1" d="M2504.7,37.87c-.19,.85-.52,1.66-.99,2.44-.46,.77-1.04,1.46-1.71,2.06-.68,.6-1.45,1.07-2.32,1.42-.87,.35-1.81,.52-2.81,.52-3.83,0-6.69-1.22-8.58-3.65s-2.84-6.22-2.84-11.37,1.21-8.72,3.62-11.31c2.42-2.59,5.67-3.89,9.77-3.89,1.43,0,2.55,.07,3.36,.2,.81,.14,1.7,.38,2.67,.73V4.06l-4.41-.46v-1.51c1.12-.46,2.43-.87,3.92-1.22,1.49-.35,2.91-.64,4.26-.87h1.45V40.31l3.83,.46v1.22c-1.12,.54-2.28,1.01-3.48,1.39-1.2,.39-2.38,.66-3.54,.81h-1.45l-.52-6.32h-.23Zm-6.67,2.84c1.89,0,3.4-.6,4.52-1.8,1.12-1.2,1.89-2.82,2.32-4.87V17.69c-.66-.39-1.43-.66-2.32-.81-.89-.15-2.03-.23-3.42-.23-2.63,0-4.64,1.15-6.03,3.45-1.39,2.3-2.09,5.36-2.09,9.19,0,1.59,.13,3.07,.41,4.44,.27,1.37,.7,2.58,1.28,3.62s1.3,1.87,2.17,2.46,1.92,.9,3.16,.9Z"/>
      <path class="cls-1" d="M2541.12,39.56c-.31,.66-.79,1.28-1.45,1.86-.66,.58-1.41,1.08-2.26,1.51s-1.78,.76-2.78,1.02c-1.01,.25-2.03,.38-3.07,.38-2.28,0-4.29-.36-6.03-1.07-1.74-.71-3.19-1.74-4.35-3.07s-2.04-2.93-2.64-4.79c-.6-1.86-.9-3.94-.9-6.26,0-4.95,1.14-8.72,3.42-11.31,2.28-2.59,5.51-3.89,9.69-3.89,1.35,0,2.69,.18,4,.55,1.31,.37,2.48,.98,3.51,1.83,1.02,.85,1.86,1.98,2.49,3.39,.64,1.41,.96,3.16,.96,5.25,0,.66-.03,1.33-.09,2-.06,.68-.17,1.4-.32,2.17h-18.1c0,1.62,.2,3.14,.61,4.55,.41,1.41,1.02,2.64,1.83,3.68,.81,1.04,1.84,1.87,3.07,2.46,1.24,.6,2.69,.9,4.35,.9,1.35,0,2.73-.19,4.12-.58,1.39-.39,2.44-.89,3.13-1.51l.81,.93Zm-10.61-23.08c-2.2,0-3.89,.74-5.05,2.23-1.16,1.49-1.86,4.11-2.09,7.86h12.76c.04-.35,.07-.69,.09-1.02,.02-.33,.03-.65,.03-.96,0-2.47-.46-4.45-1.39-5.92-.93-1.47-2.38-2.2-4.35-2.2Z"/>
      <path class="cls-1" d="M2558.58,18.97c-.43,.23-.96,.71-1.6,1.42-.64,.72-1.21,1.77-1.71,3.16v17.23c.77,.08,1.55,.22,2.32,.43,.77,.21,1.55,.53,2.32,.96v1.45h-13.69v-1.45c.7-.39,1.35-.68,1.97-.87,.62-.19,1.24-.37,1.86-.52V17.98l-3.83-.46v-1.51c1.24-.54,2.51-.98,3.83-1.3,1.31-.33,2.57-.59,3.77-.78h1.45v6.15h.23c.35-.77,.84-1.55,1.48-2.32,.64-.77,1.37-1.47,2.2-2.09,.83-.62,1.74-1.09,2.73-1.42,.99-.33,2-.43,3.04-.32,.27,.5,.51,1.05,.72,1.65,.21,.6,.42,1.23,.61,1.88v1.51h-7.71Z"/>
      <path class="cls-1" d="M2602.95,3.02h12.82v1.68c-.77,.35-1.53,.64-2.26,.87-.74,.23-1.45,.43-2.15,.58l-11.66,15.43c.97,1.28,2.08,2.71,3.33,4.29,1.26,1.59,2.57,3.22,3.94,4.9,1.37,1.68,2.78,3.38,4.23,5.1,1.45,1.72,2.87,3.36,4.26,4.9l2.78,1.39v1.45h-7.25l-1.97-1.39c-2.28-2.67-4.55-5.55-6.82-8.64-2.26-3.09-4.46-6.22-6.58-9.4h-2.84v16.36c1.78,.31,3.23,.77,4.35,1.39v1.68h-14.67v-1.68c1.55-.62,3.13-1.08,4.76-1.39V6.15c-1.74-.23-3.33-.71-4.76-1.45v-1.68h14.67v1.68c-.62,.27-1.3,.53-2.03,.78-.74,.25-1.51,.47-2.32,.67V22.21l3.48-.81,10.85-15.25c-.77-.19-1.51-.41-2.2-.64-.7-.23-1.35-.5-1.97-.81v-1.68Z"/>
      <path class="cls-1" d="M2632.42,18.97c-.43,.23-.96,.71-1.6,1.42-.64,.72-1.21,1.77-1.71,3.16v17.23c.77,.08,1.55,.22,2.32,.43,.77,.21,1.55,.53,2.32,.96v1.45h-13.69v-1.45c.7-.39,1.35-.68,1.97-.87,.62-.19,1.24-.37,1.86-.52V17.98l-3.83-.46v-1.51c1.24-.54,2.51-.98,3.83-1.3,1.31-.33,2.57-.59,3.77-.78h1.45v6.15h.23c.35-.77,.84-1.55,1.48-2.32,.64-.77,1.37-1.47,2.2-2.09,.83-.62,1.74-1.09,2.73-1.42,.99-.33,2-.43,3.04-.32,.27,.5,.51,1.05,.72,1.65,.21,.6,.42,1.23,.61,1.88v1.51h-7.71Z"/>
      <path class="cls-1" d="M2655.79,43.62h-12.88v-1.45c.58-.31,1.18-.57,1.8-.78,.62-.21,1.29-.42,2.03-.61V17.98l-3.83-.46v-1.51c1.12-.46,2.34-.87,3.65-1.22,1.31-.35,2.63-.64,3.94-.87h1.45v26.85c.77,.19,1.47,.4,2.09,.61,.62,.21,1.2,.47,1.74,.78v1.45Zm-10.15-38.86c0-1.04,.34-1.88,1.02-2.49,.68-.62,1.58-.93,2.7-.93s2.01,.31,2.67,.93c.66,.62,.99,1.45,.99,2.49s-.33,1.87-.99,2.47c-.66,.6-1.55,.9-2.67,.9s-2.02-.3-2.7-.9c-.68-.6-1.02-1.42-1.02-2.47Z"/>
      <path class="cls-1" d="M2691.46,43.62h-12.47v-1.45c1.04-.54,2.18-1,3.42-1.39v-13.75c0-2.94-.43-5.26-1.28-6.96-.85-1.7-2.4-2.55-4.64-2.55-.97,0-1.87,.17-2.7,.52-.83,.35-1.57,.82-2.2,1.42-.64,.6-1.19,1.28-1.65,2.03s-.83,1.54-1.1,2.35v16.94c1.2,.23,2.36,.7,3.48,1.39v1.45h-12.53v-1.45c.97-.5,2.24-.97,3.83-1.39V17.98l-3.83-.46v-1.51c1-.42,2.17-.81,3.48-1.16,1.31-.35,2.69-.66,4.12-.93h1.45v6.5h.06c.81-1.78,1.98-3.31,3.51-4.58,1.53-1.28,3.37-1.91,5.54-1.91,1.55,0,2.93,.18,4.15,.55,1.22,.37,2.23,1.01,3.04,1.94,.81,.93,1.43,2.17,1.86,3.74,.42,1.57,.64,3.55,.64,5.95v14.67c1.55,.27,2.82,.73,3.83,1.39v1.45Z"/>
      <path class="cls-1" d="M2706.77,13.92c2.09,0,3.85,.2,5.28,.61s2.63,1.04,3.6,1.88c2.28-1.55,4.66-2.67,7.13-3.36,.31,.43,.53,.95,.67,1.57,.13,.62,.2,1.2,.2,1.74l-.75,1.39h-6.09c.97,1.39,1.45,3.23,1.45,5.51,0,2.78-.98,5.05-2.93,6.79-1.95,1.74-4.8,2.61-8.55,2.61-.74,0-1.33-.02-1.8-.06s-.99-.1-1.57-.17c-.19,.35-.42,.74-.67,1.16-.25,.43-.38,.87-.38,1.33,0,.77,.44,1.38,1.33,1.83,.89,.45,2,.84,3.33,1.19,1.33,.35,2.78,.71,4.35,1.07,1.57,.37,3.03,.87,4.38,1.51,1.35,.64,2.48,1.47,3.39,2.49,.91,1.02,1.38,2.35,1.42,3.97,.04,1.39-.28,2.65-.96,3.77-.68,1.12-1.62,2.06-2.81,2.81-1.2,.75-2.64,1.33-4.32,1.74-1.68,.41-3.53,.61-5.54,.61-4.21,0-7.39-.72-9.54-2.15-2.15-1.43-3.22-3.23-3.22-5.39,0-1.04,.16-1.95,.49-2.73,.33-.77,.8-1.45,1.42-2.03,.62-.58,1.39-1.09,2.32-1.54,.93-.44,1.99-.86,3.19-1.25-.85-.39-1.56-.92-2.12-1.59-.56-.68-.84-1.5-.84-2.46,0-.89,.38-1.77,1.13-2.64,.75-.87,1.52-1.56,2.29-2.06-2.2-.58-3.9-1.68-5.08-3.31s-1.77-3.46-1.77-5.51c0-1.31,.25-2.54,.75-3.68,.5-1.14,1.24-2.14,2.2-2.99,.97-.85,2.17-1.51,3.6-1.97,1.43-.46,3.09-.7,4.99-.7Zm8.58,34.39c0-1.24-.42-2.22-1.25-2.96-.83-.74-1.87-1.33-3.1-1.8-1.24-.46-2.57-.85-4-1.16s-2.76-.66-4-1.04c-1.47,.89-2.44,1.83-2.9,2.81-.46,.99-.7,2-.7,3.04,0,2.05,.73,3.59,2.2,4.61,1.47,1.02,3.6,1.54,6.38,1.54,1.43,0,2.62-.14,3.57-.41,.95-.27,1.7-.63,2.26-1.07,.56-.44,.96-.98,1.19-1.59,.23-.62,.35-1.28,.35-1.97Zm-14.91-25.06c0,.93,.11,1.81,.32,2.64,.21,.83,.56,1.56,1.04,2.17,.48,.62,1.13,1.11,1.94,1.48,.81,.37,1.82,.55,3.02,.55,2.24,0,3.85-.66,4.81-1.97,.97-1.31,1.45-2.94,1.45-4.87,0-2.09-.47-3.74-1.42-4.96-.95-1.22-2.56-1.83-4.84-1.83s-4,.59-4.93,1.77c-.93,1.18-1.39,2.85-1.39,5.02Z"/>
      <path class="cls-1" d="M2740.06,37c0-1.08-.34-2-1.02-2.75s-1.54-1.46-2.58-2.12c-1.04-.66-2.16-1.29-3.33-1.91-1.18-.62-2.29-1.34-3.33-2.17-1.04-.83-1.9-1.79-2.58-2.87-.68-1.08-1.01-2.42-1.01-4,0-1.04,.24-2.01,.72-2.9s1.13-1.65,1.94-2.29c.81-.64,1.76-1.14,2.84-1.51,1.08-.37,2.24-.55,3.48-.55,2.09,0,3.8,.12,5.13,.35,1.33,.23,2.62,.56,3.86,.99-.15,1.24-.34,2.49-.55,3.74-.21,1.26-.51,2.54-.9,3.86h-1.45l-2.2-5.92c-.46-.19-.99-.32-1.57-.38-.58-.06-1.18-.09-1.8-.09-.7,0-1.3,.13-1.83,.38-.52,.25-.97,.57-1.33,.96s-.65,.83-.84,1.33-.29,1.01-.29,1.51c0,1.04,.34,1.94,1.02,2.7,.68,.75,1.54,1.45,2.58,2.09,1.04,.64,2.15,1.27,3.33,1.88,1.18,.62,2.29,1.31,3.33,2.09s1.9,1.67,2.58,2.7c.68,1.02,1.01,2.25,1.01,3.68,0,1.32-.28,2.49-.84,3.54-.56,1.04-1.33,1.93-2.32,2.67-.99,.74-2.13,1.3-3.42,1.71-1.3,.41-2.68,.61-4.15,.61-1.66,0-3.19-.15-4.58-.44-1.39-.29-2.84-.71-4.35-1.25,.08-1.39,.25-2.73,.52-4.03,.27-1.3,.62-2.54,1.04-3.74h1.45l2.55,6.32c.42,.31,.94,.48,1.54,.52,.6,.04,1.15,.06,1.65,.06,1.7,0,3.07-.46,4.12-1.39s1.57-2.05,1.57-3.36Z"/>
      <path class="cls-1" d="M2771.85,36.02c0,.85,.02,1.59,.06,2.2,.04,.62,.08,1.28,.12,1.97l4,.58v1.22c-.97,.5-2.04,.95-3.22,1.33-1.18,.39-2.31,.68-3.39,.87h-1.45c-.39-.89-.62-1.87-.7-2.93-.08-1.06-.14-2.23-.17-3.51h-.29c-.16,.77-.46,1.56-.9,2.35-.45,.79-1.03,1.5-1.74,2.12-.72,.62-1.56,1.12-2.52,1.51-.97,.39-2.07,.58-3.31,.58-2.36,0-4.28-.71-5.77-2.15-1.49-1.43-2.23-3.31-2.23-5.63,0-1.78,.36-3.24,1.07-4.38,.71-1.14,1.77-2.04,3.16-2.7,1.39-.66,3.11-1.13,5.16-1.42,2.05-.29,4.43-.51,7.13-.67,.15-1.66,.2-3.16,.14-4.5-.06-1.33-.27-2.47-.64-3.42-.37-.95-.91-1.68-1.62-2.2-.72-.52-1.65-.78-2.81-.78-.54,0-1.15,.03-1.83,.09-.68,.06-1.34,.22-2,.49l-2.73,6.96h-1.51c-.39-1.16-.72-2.36-1.01-3.6-.29-1.24-.47-2.46-.55-3.65,1.47-.89,3.1-1.59,4.9-2.09,1.8-.5,3.8-.75,6-.75,1.97,0,3.55,.28,4.73,.84,1.18,.56,2.08,1.29,2.7,2.18s1.02,1.88,1.22,2.96c.19,1.08,.29,2.17,.29,3.25,0,2.32-.05,4.55-.15,6.7-.1,2.15-.14,4.21-.14,6.18Zm-11.19,4.7c.97,0,1.82-.19,2.55-.58,.73-.39,1.35-.85,1.86-1.39,.5-.54,.91-1.09,1.22-1.65,.31-.56,.52-1.03,.64-1.42v-6.09c-2.24,0-4.08,.12-5.51,.35-1.43,.23-2.55,.6-3.36,1.1-.81,.5-1.37,1.13-1.68,1.88s-.46,1.62-.46,2.58c0,1.66,.42,2.95,1.28,3.86,.85,.91,2.01,1.36,3.48,1.36Z"/>
      <path class="cls-1" d="M2792.61,43.62h-12.88v-1.45c1.28-.62,2.55-1.08,3.83-1.39V4.06l-4.41-.46v-1.51c1-.46,2.26-.87,3.77-1.22,1.51-.35,2.98-.64,4.41-.87h1.45V40.77c1.28,.31,2.55,.77,3.83,1.39v1.45Z"/>
      <path class="cls-1" d="M2826.6,43.62h-12.41v-1.45c.39-.23,.86-.47,1.42-.72,.56-.25,1.23-.47,2-.67v-13.4c0-1.55-.07-2.94-.2-4.18-.14-1.24-.39-2.27-.75-3.1-.37-.83-.9-1.47-1.59-1.91s-1.61-.67-2.73-.67c-.85,0-1.63,.17-2.35,.52-.72,.35-1.35,.81-1.91,1.39-.56,.58-1.04,1.24-1.45,1.97-.41,.73-.72,1.51-.96,2.32v17.05c.62,.19,1.21,.4,1.77,.61,.56,.21,1.11,.47,1.65,.78v1.45h-12.47v-1.45c.54-.27,1.14-.52,1.8-.75,.66-.23,1.33-.44,2.03-.64V17.98l-3.83-.46v-1.51c1.24-.54,2.5-.98,3.8-1.3,1.29-.33,2.56-.59,3.8-.78h1.45v6.55h.06c.62-1.82,1.67-3.36,3.16-4.64,1.49-1.28,3.33-1.91,5.54-1.91,.93,0,1.82,.1,2.67,.29,.85,.19,1.64,.55,2.38,1.07,.73,.52,1.35,1.25,1.86,2.17,.5,.93,.87,2.13,1.1,3.6,.7-2.13,1.82-3.85,3.36-5.16,1.55-1.31,3.48-1.97,5.8-1.97,1.43,0,2.68,.18,3.74,.55s1.94,1.01,2.64,1.94c.7,.93,1.21,2.19,1.54,3.77,.33,1.59,.49,3.6,.49,6.03v14.56c1.31,.23,2.59,.7,3.83,1.39v1.45h-12.47v-1.45c1.16-.62,2.3-1.08,3.42-1.39v-14.44c0-1.39-.07-2.63-.2-3.71-.14-1.08-.4-2-.78-2.75s-.93-1.33-1.62-1.74c-.7-.41-1.62-.61-2.78-.61-1.86,0-3.3,.64-4.32,1.91-1.03,1.28-1.77,2.9-2.23,4.87v16.47c1.35,.39,2.61,.85,3.77,1.39v1.45Z"/>
    </g>
  </g>
</svg>