<?xml version="1.0" encoding="UTF-8"?>
<svg id="_Шар_2" data-name="Шар 2" xmlns="http://www.w3.org/2000/svg" viewBox="0 0 809.71 107.36">
  <defs>
    <style>
      .cls-1 {
        fill: #48424c;
      }
    </style>
  </defs>
  <g id="Ebene_40" data-name="Ebene 40">
    <g>
      <path class="cls-1" d="M70.88,70.2c-.58,0-1.14-.02-1.69-.06-.55-.04-1.12-.06-1.69-.06-1.56,0-3.38,.08-5.48,.25-2.09,.16-4.35,.39-6.77,.68,.94,3.32,1.42,6.62,1.42,9.91,0,3.65-.62,7.08-1.85,10.27s-2.95,6-5.17,8.4c-2.21,2.4-4.87,4.3-7.97,5.69-3.1,1.39-6.51,2.09-10.24,2.09s-7.11-.58-10.12-1.72c-3.01-1.15-5.69-2.73-8.03-4.74-2.34-2.01-4.35-4.37-6.03-7.08-1.68-2.71-3.06-5.6-4.12-8.67-1.07-3.08-1.86-6.28-2.37-9.6s-.77-6.6-.77-9.84c0-4.47,.48-9.17,1.45-14.09,.96-4.92,2.37-9.77,4.21-14.55,1.85-4.78,4.12-9.33,6.83-13.66,2.71-4.33,5.81-8.14,9.32-11.44,3.51-3.3,7.4-5.93,11.69-7.88,4.29-1.95,8.93-2.92,13.94-2.92,2.79,0,5.39,.33,7.81,.98,2.42,.66,4.53,1.67,6.34,3.04,1.8,1.38,3.22,3.13,4.25,5.26,1.02,2.13,1.54,4.7,1.54,7.69,0,2.26-.38,4.42-1.14,6.49-.76,2.07-1.8,4-3.14,5.78-1.33,1.79-2.89,3.39-4.68,4.83-1.79,1.44-3.69,2.66-5.72,3.66-2.03,1.01-4.12,1.78-6.28,2.31-2.15,.53-4.28,.78-6.37,.74h-.92v-1.23c2.67-.53,5.2-1.51,7.6-2.92,2.4-1.41,4.49-3.14,6.28-5.17,1.78-2.03,3.2-4.32,4.24-6.86,1.05-2.54,1.57-5.21,1.57-8,0-4.14-1.06-7.44-3.17-9.91s-5.3-3.69-9.57-3.69-8.41,.94-11.94,2.83c-3.53,1.89-6.66,4.39-9.38,7.51-2.73,3.12-5.08,6.71-7.04,10.77s-3.58,8.27-4.83,12.61c-1.25,4.35-2.17,8.69-2.77,13.01s-.89,8.32-.89,11.97c0,2.79,.18,5.67,.55,8.64,.37,2.97,.95,5.88,1.75,8.71,.8,2.83,1.85,5.51,3.17,8.03,1.31,2.52,2.92,4.74,4.83,6.64,1.91,1.91,4.12,3.42,6.64,4.52,2.52,1.11,5.42,1.66,8.71,1.66,2.5,0,4.88-.44,7.14-1.32,2.25-.88,4.23-2.11,5.94-3.69,1.7-1.58,3.05-3.46,4.06-5.63,1-2.17,1.51-4.55,1.51-7.14,0-2.09-.35-4.12-1.05-6.09-.7-1.97-1.66-3.77-2.89-5.41-2.17,.33-4.33,.7-6.46,1.11-2.13,.41-4.17,.85-6.12,1.32-1.95,.47-3.75,.96-5.41,1.48-1.66,.51-3.09,1.04-4.28,1.57-.37,.25-.76,.37-1.17,.37-.58,0-.94-.25-1.11-.74-.16-.49-.25-.96-.25-1.42,0-.74,.13-1.57,.4-2.49,.27-.92,.65-1.8,1.14-2.64s1.07-1.59,1.72-2.25,1.37-1.09,2.15-1.29c1.11-.33,2.27-.57,3.48-.74,1.21-.16,2.43-.28,3.66-.34,1.23-.06,2.46-.09,3.69-.09h3.51c1.72,0,3.83,.05,6.34,.15,2.5,.1,5.07,.29,7.69,.55,2.62,.27,5.11,.64,7.44,1.11,2.34,.47,4.18,1.1,5.54,1.88l-.68,.86Z"/>
      <path class="cls-1" d="M122.74,77.27c-.7,1.44-1.64,2.81-2.83,4.12-1.19,1.31-2.52,2.49-4,3.54-1.48,1.05-3.04,1.88-4.68,2.49-1.64,.62-3.26,.92-4.86,.92-2.21,0-4.05-.67-5.51-2-1.46-1.33-2.53-2.94-3.23-4.83-1.6,1.6-3.36,2.92-5.29,3.97-1.93,1.04-4.06,1.57-6.4,1.57-2.09,0-3.95-.38-5.57-1.14-1.62-.76-2.96-1.79-4.03-3.11-1.07-1.31-1.88-2.83-2.43-4.55-.55-1.72-.83-3.57-.83-5.54,0-2.21,.31-4.38,.92-6.49,.62-2.11,1.48-4.12,2.58-6.03,1.11-1.91,2.42-3.68,3.94-5.32,1.52-1.64,3.16-3.1,4.92-4.37l.74,.55c-1.72,2.46-3.1,5.18-4.12,8.15-1.03,2.97-1.54,6-1.54,9.08,0,1.31,.14,2.71,.43,4.18,.29,1.48,.76,2.85,1.42,4.12,.66,1.27,1.53,2.33,2.62,3.17,1.09,.84,2.45,1.26,4.09,1.26,1.39,0,2.73-.24,4-.71,1.27-.47,2.5-1.12,3.69-1.94-.08-.49-.14-.97-.18-1.45-.04-.47-.06-.95-.06-1.45,0-1.97,.29-4.1,.86-6.4,.57-2.3,1.33-4.58,2.28-6.86,.94-2.28,2.02-4.45,3.23-6.52s2.45-3.85,3.72-5.32l.74,.55c-.94,3.16-1.72,6.42-2.34,9.78-.62,3.36-.92,6.69-.92,9.97,0,1.48,.09,2.9,.28,4.28,.19,1.38,.57,2.61,1.17,3.69,.59,1.09,1.42,1.95,2.49,2.58,1.07,.64,2.48,.95,4.25,.95,1.97,0,3.81-.5,5.54-1.51s3.24-2.22,4.55-3.66l.37,.25Z"/>
      <path class="cls-1" d="M159.78,77.27c-.9,1.52-1.96,2.93-3.17,4.25-1.21,1.31-2.54,2.46-4,3.45s-3.02,1.75-4.71,2.31c-1.68,.55-3.42,.83-5.23,.83-2.67,0-5.01-.45-7.04-1.35-2.03-.9-3.78-2.12-5.26-3.66-1.48-1.54-2.71-3.33-3.69-5.38-.98-2.05-1.76-4.19-2.34-6.43-.58-2.23-.98-4.52-1.23-6.86s-.37-4.57-.37-6.71c0-1.97,.08-3.99,.25-6.06,.16-2.07,.41-4.19,.74-6.37-1.27,.04-2.51,.06-3.72,.06h-3.6c-.78,0-1.66-.02-2.65-.06-.98-.04-1.91-.21-2.77-.49-.86-.29-1.58-.72-2.15-1.29s-.86-1.42-.86-2.52c0-.62,.11-1.11,.34-1.48,.23-.37,.53-.65,.92-.83,.39-.18,.84-.31,1.35-.37,.51-.06,1.04-.09,1.57-.09,.62,0,2.07,.1,4.37,.31,2.3,.21,5.07,.43,8.31,.68,1.02-4.84,2.35-9.6,3.97-14.27,1.62-4.68,3.45-8.94,5.51-12.8h.86c-1.31,4.47-2.47,8.98-3.48,13.54s-1.75,9.17-2.25,13.84c2.99,.21,6.08,.38,9.26,.52,3.18,.14,6.29,.22,9.32,.22,4.47,0,8.1-.04,10.89-.12,2.79-.08,4.98-.18,6.58-.31,1.89-.16,3.3-.33,4.25-.49l.25,1.05c-2.46,.58-5.27,1.12-8.43,1.63-3.16,.51-6.52,.96-10.09,1.35-3.57,.39-7.26,.73-11.07,1.02-3.81,.29-7.61,.51-11.38,.68-.08,.82-.12,1.65-.12,2.49v2.49c0,1.97,.09,4.14,.28,6.52,.18,2.38,.52,4.77,1.01,7.17,.49,2.4,1.16,4.74,2,7.01,.84,2.28,1.95,4.29,3.32,6.03s3.02,3.15,4.95,4.21c1.93,1.07,4.2,1.6,6.83,1.6,2.42,0,4.6-.53,6.55-1.6,1.95-1.07,3.8-2.38,5.57-3.94l.37,.25Z"/>
      <path class="cls-1" d="M190.91,72.84c0,2.13-.39,4.14-1.17,6.03-.78,1.89-1.87,3.53-3.26,4.92s-3.03,2.5-4.89,3.32c-1.87,.82-3.89,1.23-6.06,1.23-1.44,0-2.85-.23-4.25-.68-1.39-.45-2.68-1.1-3.84-1.94-1.17-.84-2.18-1.86-3.05-3.05-.86-1.19-1.48-2.5-1.85-3.94l1.42-.37c1.07,1.31,2.31,2.4,3.72,3.26,1.41,.86,3.02,1.29,4.83,1.29,1.52,0,2.92-.33,4.21-.98,1.29-.66,2.4-1.52,3.32-2.58,.92-1.07,1.64-2.31,2.15-3.72,.51-1.42,.77-2.86,.77-4.34,0-1.76-.25-3.23-.74-4.4-.49-1.17-1.14-2.15-1.94-2.95-.8-.8-1.69-1.5-2.68-2.09s-1.98-1.2-2.98-1.82-1.97-1.31-2.89-2.09c-.92-.78-1.71-1.78-2.37-3.01-.04,2.42-.45,4.96-1.23,7.63-.78,2.67-1.84,5.25-3.17,7.75-1.33,2.5-2.86,4.84-4.58,7.01-1.72,2.17-3.55,4-5.48,5.48l-.49-.86c1.31-1.39,2.46-3.14,3.45-5.23s1.79-4.3,2.43-6.61c.63-2.32,1.11-4.65,1.41-6.98,.31-2.34,.46-4.47,.46-6.4,0-1.02-.1-2.03-.31-3.01-.21-.98-.31-1.95-.31-2.89,0-1.15,.34-2.03,1.01-2.65,.68-.62,1.55-.92,2.62-.92,.82,0,1.48,.18,1.97,.55s.94,.85,1.35,1.45c.41,.6,.82,1.27,1.23,2.03,.41,.76,.93,1.54,1.57,2.34,.64,.8,1.44,1.58,2.4,2.34,.96,.76,2.2,1.42,3.72,2,1.76,.66,3.46,1.41,5.08,2.25,1.62,.84,3.06,1.84,4.31,2.98,1.25,1.15,2.25,2.51,2.98,4.09s1.11,3.44,1.11,5.57Z"/>
      <path class="cls-1" d="M235.94,77.27c-1.07,1.76-2.45,3.33-4.15,4.71-1.7,1.38-3.57,2.54-5.6,3.51-2.03,.96-4.14,1.7-6.34,2.21-2.2,.51-4.3,.77-6.31,.77-2.46,0-4.75-.37-6.86-1.11-2.11-.74-3.96-1.82-5.54-3.23-1.58-1.42-2.81-3.12-3.69-5.11-.88-1.99-1.32-4.25-1.32-6.8,0-2.87,.52-5.68,1.57-8.43,1.04-2.75,2.5-5.19,4.37-7.32,1.87-2.13,4.08-3.84,6.64-5.14,2.56-1.29,5.34-1.94,8.34-1.94,.98,0,1.97,.1,2.95,.31,.98,.21,1.89,.54,2.71,1.01,.82,.47,1.49,1.1,2,1.88,.51,.78,.77,1.76,.77,2.95s-.31,2.23-.92,3.11-1.39,1.61-2.34,2.18c-.94,.58-1.96,1.04-3.05,1.38s-2.12,.61-3.11,.77v-.86c.57-.16,1.2-.39,1.88-.68,.68-.29,1.3-.66,1.88-1.11,.57-.45,1.06-.98,1.45-1.6s.58-1.29,.58-2.03c0-.57-.13-1.06-.4-1.45-.27-.39-.6-.71-.98-.95-.39-.25-.83-.43-1.32-.55s-.98-.18-1.48-.18c-2.09,0-3.97,.46-5.63,1.38-1.66,.92-3.07,2.14-4.21,3.66-1.15,1.52-2.02,3.22-2.61,5.11-.6,1.89-.89,3.79-.89,5.72,0,2.21,.34,4.19,1.02,5.94,.68,1.74,1.63,3.23,2.86,4.46s2.73,2.17,4.49,2.83c1.76,.66,3.73,.98,5.91,.98,1.39,0,2.88-.15,4.46-.46,1.58-.31,3.12-.75,4.61-1.32,1.5-.57,2.92-1.27,4.28-2.09,1.35-.82,2.52-1.74,3.51-2.77l.49,.25Z"/>
      <path class="cls-1" d="M286.08,77.03c-.7,1.48-1.55,2.94-2.55,4.4s-2.12,2.77-3.35,3.94c-1.23,1.17-2.58,2.12-4.06,2.86s-3.06,1.11-4.74,1.11c-1.85,0-3.45-.48-4.8-1.45s-2.5-2.23-3.45-3.81c-.94-1.58-1.72-3.39-2.34-5.44-.62-2.05-1.13-4.16-1.54-6.34-.41-2.17-.75-4.35-1.01-6.52-.27-2.17-.52-4.16-.77-5.97-1.31,1.72-2.5,3.55-3.57,5.48-1.07,1.93-2.09,3.93-3.08,6-.98,2.07-1.95,4.17-2.89,6.31-.94,2.13-1.95,4.25-3.01,6.34-.25,.45-.49,.93-.74,1.45s-.53,.98-.86,1.41c-.33,.43-.72,.79-1.17,1.08-.45,.29-.98,.43-1.6,.43-.58,0-1.06-.1-1.45-.31-.39-.21-.72-.46-.98-.77-.27-.31-.47-.65-.62-1.02s-.26-.72-.34-1.05c-.49-1.76-.93-3.98-1.32-6.64-.39-2.67-.73-5.52-1.02-8.55-.29-3.04-.5-6.12-.65-9.26-.14-3.14-.21-6.04-.21-8.71,0-3.81,.25-7.74,.74-11.78s1.26-7.99,2.31-11.84c1.05-3.85,2.38-7.5,4-10.92,1.62-3.42,3.54-6.43,5.75-9.01s4.75-4.63,7.6-6.15c2.85-1.52,6.04-2.28,9.57-2.28,2.34,0,4.18,.69,5.54,2.06s2.03,3.33,2.03,5.88c0,3.81-.67,7.47-2,10.98-1.33,3.51-3.04,6.86-5.11,10.06-2.07,3.2-4.37,6.22-6.89,9.07-2.52,2.85-4.95,5.49-7.29,7.91l-.8-.62c1.02-1.15,2.12-2.57,3.29-4.28,1.17-1.7,2.32-3.55,3.45-5.54,1.13-1.99,2.2-4.08,3.23-6.28,1.02-2.19,1.93-4.36,2.71-6.49,.78-2.13,1.39-4.19,1.85-6.18,.45-1.99,.68-3.8,.68-5.45,0-.86-.08-1.68-.25-2.46-.16-.78-.45-1.47-.86-2.06-.41-.59-.93-1.07-1.57-1.42-.64-.35-1.41-.52-2.31-.52-1.81,0-3.5,.7-5.08,2.09-1.58,1.39-3.03,3.27-4.34,5.63-1.31,2.36-2.47,5.1-3.48,8.21-1,3.12-1.87,6.38-2.58,9.78-.72,3.41-1.26,6.85-1.63,10.34-.37,3.49-.55,6.81-.55,9.97v6.46c0,2.17,.05,4.45,.15,6.83,.1,2.38,.29,4.9,.55,7.57,.27,2.67,.65,5.56,1.14,8.67,1.8-4.68,3.71-9.26,5.72-13.75,2.01-4.49,4.18-8.6,6.52-12.33,.33-.53,.67-1.07,1.01-1.6,.35-.53,.73-1.01,1.14-1.45,.41-.43,.86-.79,1.35-1.08,.49-.29,1.02-.43,1.6-.43,.7,0,1.25,.2,1.66,.58,.41,.39,.74,.87,.98,1.45,.25,.58,.42,1.19,.52,1.85,.1,.66,.19,1.25,.28,1.78,.16,1.19,.35,2.73,.55,4.61,.21,1.89,.45,3.91,.74,6.06,.29,2.15,.65,4.32,1.08,6.49,.43,2.17,.98,4.13,1.66,5.88,.68,1.74,1.49,3.17,2.43,4.28,.94,1.11,2.07,1.66,3.38,1.66,1.07,0,2.13-.22,3.2-.68,1.07-.45,2.09-1.02,3.08-1.72,.98-.7,1.9-1.5,2.74-2.4,.84-.9,1.55-1.78,2.12-2.65l.49,.25Z"/>
      <path class="cls-1" d="M322.26,77.27c-1.07,1.56-2.35,3.01-3.85,4.37s-3.14,2.52-4.92,3.51c-1.78,.98-3.65,1.76-5.6,2.34-1.95,.57-3.91,.86-5.88,.86-2.79,0-5.39-.36-7.81-1.08-2.42-.72-4.53-1.81-6.34-3.29-1.81-1.48-3.22-3.33-4.25-5.57-1.03-2.23-1.54-4.85-1.54-7.84s.54-5.71,1.63-8.28c1.09-2.56,2.58-4.8,4.49-6.71,1.91-1.91,4.15-3.42,6.74-4.52s5.35-1.66,8.31-1.66c1.39,0,2.7,.2,3.91,.58,1.21,.39,2.27,.96,3.17,1.72,.9,.76,1.61,1.69,2.12,2.8,.51,1.11,.77,2.38,.77,3.81,0,1.72-.35,3.24-1.05,4.55-.7,1.31-1.62,2.46-2.77,3.45-1.15,.98-2.45,1.81-3.91,2.46-1.46,.66-2.97,1.19-4.55,1.6-1.58,.41-3.14,.71-4.68,.89-1.54,.19-2.94,.28-4.21,.28h-1.48c.53,3.73,2.01,6.58,4.43,8.55,2.42,1.97,5.76,2.95,10.03,2.95,3.04,0,6-.53,8.89-1.6,2.89-1.07,5.51-2.54,7.84-4.43l.49,.25Zm-31.87-7.57h1.54c1.48,0,2.99-.24,4.55-.71,1.56-.47,2.96-1.17,4.21-2.09,1.25-.92,2.29-2.06,3.11-3.42,.82-1.35,1.23-2.89,1.23-4.61s-.36-3.08-1.08-4.18c-.72-1.11-1.96-1.66-3.72-1.66s-3.33,.54-4.58,1.63c-1.25,1.09-2.27,2.42-3.04,4-.78,1.58-1.34,3.24-1.69,4.98-.35,1.74-.52,3.29-.52,4.65v1.42Z"/>
      <path class="cls-1" d="M350.81,77.27c-.94,1.56-2.06,2.98-3.35,4.28s-2.71,2.42-4.24,3.38c-1.54,.96-3.18,1.71-4.92,2.25-1.74,.53-3.54,.8-5.38,.8-2.3,0-4.34-.39-6.12-1.17-1.78-.78-3.28-1.86-4.49-3.23-1.21-1.37-2.13-2.99-2.77-4.86s-.95-3.91-.95-6.12c0-2.38,.35-4.63,1.05-6.77,.7-2.13,1.66-4.13,2.89-6,1.23-1.87,2.68-3.58,4.34-5.14,1.66-1.56,3.43-2.95,5.32-4.18l.74,.55c-2.01,2.38-3.64,5.04-4.89,8s-1.88,6.03-1.88,9.23c0,1.85,.22,3.62,.65,5.32,.43,1.7,1.11,3.21,2.03,4.52,.92,1.31,2.1,2.36,3.54,3.14,1.44,.78,3.18,1.17,5.23,1.17,2.42,0,4.73-.51,6.92-1.54,2.19-1.02,4.17-2.32,5.94-3.88l.37,.25Zm-17.23-40.85c0,.82-.18,1.64-.55,2.46-.37,.82-.85,1.55-1.45,2.18s-1.28,1.16-2.06,1.57c-.78,.41-1.58,.62-2.4,.62-1.07,0-1.92-.35-2.55-1.05-.64-.7-.95-1.58-.95-2.65,0-.82,.18-1.63,.55-2.43,.37-.8,.85-1.51,1.45-2.12,.59-.62,1.27-1.12,2.03-1.51,.76-.39,1.55-.58,2.37-.58,1.07,0,1.93,.33,2.58,.98,.66,.66,.98,1.5,.98,2.52Z"/>
      <path class="cls-1" d="M400.95,77.27c-.78,1.48-1.61,2.89-2.49,4.25-.88,1.35-1.88,2.54-2.98,3.57s-2.36,1.85-3.75,2.46c-1.39,.62-2.99,.92-4.8,.92-2.05,0-3.81-.5-5.29-1.51-1.48-1-2.74-2.34-3.78-4-1.04-1.66-1.89-3.56-2.52-5.69-.64-2.13-1.16-4.31-1.57-6.52-.41-2.21-.72-4.4-.92-6.55-.21-2.15-.39-4.09-.55-5.81-.78,.62-1.72,1.79-2.83,3.54-1.11,1.74-2.24,3.78-3.38,6.12-1.15,2.34-2.25,4.88-3.29,7.63-1.05,2.75-1.9,5.46-2.55,8.12-.12,.58-.32,1.17-.58,1.78s-.59,1.18-.98,1.69-.85,.94-1.38,1.29c-.53,.35-1.13,.52-1.78,.52-1.07,0-1.84-.37-2.31-1.11-.47-.74-.81-1.58-1.02-2.52-1.19-5.21-2.02-10.19-2.49-14.95-.47-4.76-.71-9.51-.71-14.27,0-1.15,.19-2.14,.58-2.98s.91-1.54,1.57-2.09c.66-.55,1.44-.96,2.34-1.23,.9-.27,1.85-.4,2.83-.4h.58c.27,0,.52,.03,.77,.09,.25,.06,.45,.15,.62,.28,.16,.12,.22,.29,.18,.49-1.07,5.37-1.58,10.84-1.54,16.4,.04,5.56,.33,10.9,.86,16.03,.45-2.05,1.12-4.38,2-6.98,.88-2.6,1.91-5.23,3.08-7.88,1.17-2.64,2.44-5.17,3.81-7.57,1.37-2.4,2.78-4.42,4.21-6.06,.7-.78,1.4-1.45,2.12-2,.72-.55,1.61-.83,2.68-.83,.62,0,1.13,.12,1.54,.37,.41,.25,.75,.55,1.01,.92s.47,.79,.62,1.26c.14,.47,.26,.93,.34,1.38,.21,1.19,.41,2.73,.62,4.61,.21,1.89,.46,3.9,.77,6.03,.31,2.13,.69,4.28,1.14,6.43,.45,2.15,1.02,4.1,1.72,5.85,.7,1.74,1.54,3.17,2.52,4.28s2.15,1.66,3.51,1.66c1.11,0,2.18-.22,3.23-.65,1.04-.43,2.04-.98,2.98-1.66,.94-.68,1.82-1.46,2.65-2.34,.82-.88,1.56-1.75,2.21-2.61l.43,.25Z"/>
      <path class="cls-1" d="M437.12,77.27c-1.07,1.56-2.35,3.01-3.85,4.37s-3.14,2.52-4.92,3.51c-1.78,.98-3.65,1.76-5.6,2.34-1.95,.57-3.91,.86-5.88,.86-2.79,0-5.39-.36-7.81-1.08-2.42-.72-4.53-1.81-6.34-3.29-1.81-1.48-3.22-3.33-4.25-5.57-1.03-2.23-1.54-4.85-1.54-7.84s.54-5.71,1.63-8.28c1.09-2.56,2.58-4.8,4.49-6.71,1.91-1.91,4.15-3.42,6.74-4.52s5.35-1.66,8.31-1.66c1.39,0,2.7,.2,3.91,.58,1.21,.39,2.27,.96,3.17,1.72,.9,.76,1.61,1.69,2.12,2.8,.51,1.11,.77,2.38,.77,3.81,0,1.72-.35,3.24-1.05,4.55-.7,1.31-1.62,2.46-2.77,3.45-1.15,.98-2.45,1.81-3.91,2.46-1.46,.66-2.97,1.19-4.55,1.6-1.58,.41-3.14,.71-4.68,.89-1.54,.19-2.94,.28-4.21,.28h-1.48c.53,3.73,2.01,6.58,4.43,8.55,2.42,1.97,5.76,2.95,10.03,2.95,3.04,0,6-.53,8.89-1.6,2.89-1.07,5.51-2.54,7.84-4.43l.49,.25Zm-31.87-7.57h1.54c1.48,0,2.99-.24,4.55-.71,1.56-.47,2.96-1.17,4.21-2.09,1.25-.92,2.29-2.06,3.11-3.42,.82-1.35,1.23-2.89,1.23-4.61s-.36-3.08-1.08-4.18c-.72-1.11-1.96-1.66-3.72-1.66s-3.33,.54-4.58,1.63c-1.25,1.09-2.27,2.42-3.04,4-.78,1.58-1.34,3.24-1.69,4.98-.35,1.74-.52,3.29-.52,4.65v1.42Z"/>
      <path class="cls-1" d="M504.92,9.84c0,2.83-.4,5.63-1.2,8.4-.8,2.77-1.9,5.46-3.29,8.06-1.39,2.6-3.05,5.09-4.95,7.44-1.91,2.36-3.97,4.53-6.18,6.52-2.21,1.99-4.53,3.79-6.95,5.41-2.42,1.62-4.84,2.96-7.26,4.03l-.43-.92c3.04-1.44,5.94-3.48,8.71-6.12,2.77-2.65,5.21-5.62,7.32-8.92,2.11-3.3,3.79-6.78,5.04-10.43,1.25-3.65,1.88-7.22,1.88-10.71,0-.7-.05-1.42-.15-2.15-.1-.74-.31-1.42-.62-2.03-.31-.62-.73-1.12-1.26-1.51-.53-.39-1.23-.58-2.09-.58-2.42,0-4.66,.82-6.71,2.46-2.05,1.64-3.91,3.83-5.57,6.55-1.66,2.73-3.13,5.85-4.4,9.38-1.27,3.53-2.34,7.16-3.2,10.89-.86,3.73-1.51,7.42-1.94,11.07-.43,3.65-.65,6.99-.65,10.03,0,1.6,.09,3.37,.28,5.32,.19,1.95,.51,3.91,.98,5.88s1.09,3.89,1.85,5.75,1.72,3.52,2.89,4.95c1.17,1.44,2.55,2.59,4.15,3.48,1.6,.88,3.47,1.32,5.6,1.32,1.35,0,2.51-.27,3.48-.8,.96-.53,1.74-1.25,2.34-2.15,.59-.9,1.04-1.93,1.32-3.08,.29-1.15,.43-2.32,.43-3.51,0-1.85-.26-3.79-.77-5.84-.51-2.05-1.29-3.92-2.34-5.6-1.04-1.68-2.37-3.08-3.97-4.18s-3.49-1.66-5.66-1.66c-.62,0-1.24,.05-1.88,.15-.64,.1-1.26,.26-1.88,.46l-.37-.62c1.52-1.15,3.17-2.12,4.95-2.92,1.78-.8,3.66-1.2,5.63-1.2,2.09,0,3.96,.45,5.6,1.35,1.64,.9,3.02,2.07,4.15,3.51,1.13,1.44,1.99,3.09,2.58,4.95,.59,1.87,.89,3.74,.89,5.63,0,2.83-.48,5.48-1.45,7.94s-2.31,4.6-4.03,6.43-3.78,3.25-6.18,4.28c-2.4,1.02-5.04,1.54-7.91,1.54-2.46,0-4.62-.44-6.49-1.32-1.87-.88-3.5-2.06-4.89-3.54-1.39-1.48-2.56-3.19-3.51-5.14-.94-1.95-1.7-4-2.28-6.15-.58-2.15-.98-4.32-1.23-6.49-.25-2.17-.37-4.25-.37-6.21,0-3.61,.32-7.55,.95-11.81,.64-4.27,1.58-8.54,2.83-12.83,1.25-4.29,2.83-8.43,4.74-12.43,1.91-4,4.12-7.54,6.64-10.61,2.52-3.08,5.36-5.54,8.52-7.38,3.16-1.85,6.64-2.77,10.46-2.77,2.67,0,4.63,.77,5.91,2.31,1.27,1.54,1.91,3.58,1.91,6.12Z"/>
      <path class="cls-1" d="M546.08,77.27c-1.07,1.56-2.35,3.01-3.85,4.37s-3.14,2.52-4.92,3.51c-1.78,.98-3.65,1.76-5.6,2.34-1.95,.57-3.91,.86-5.88,.86-2.79,0-5.39-.36-7.81-1.08-2.42-.72-4.53-1.81-6.34-3.29-1.81-1.48-3.22-3.33-4.25-5.57-1.03-2.23-1.54-4.85-1.54-7.84s.54-5.71,1.63-8.28c1.09-2.56,2.58-4.8,4.49-6.71,1.91-1.91,4.15-3.42,6.74-4.52s5.35-1.66,8.31-1.66c1.39,0,2.7,.2,3.91,.58,1.21,.39,2.27,.96,3.17,1.72,.9,.76,1.61,1.69,2.12,2.8,.51,1.11,.77,2.38,.77,3.81,0,1.72-.35,3.24-1.05,4.55-.7,1.31-1.62,2.46-2.77,3.45-1.15,.98-2.45,1.81-3.91,2.46-1.46,.66-2.97,1.19-4.55,1.6-1.58,.41-3.14,.71-4.68,.89-1.54,.19-2.94,.28-4.21,.28h-1.48c.53,3.73,2.01,6.58,4.43,8.55,2.42,1.97,5.76,2.95,10.03,2.95,3.04,0,6-.53,8.89-1.6,2.89-1.07,5.51-2.54,7.84-4.43l.49,.25Zm-31.87-7.57h1.54c1.48,0,2.99-.24,4.55-.71,1.56-.47,2.96-1.17,4.21-2.09,1.25-.92,2.29-2.06,3.11-3.42,.82-1.35,1.23-2.89,1.23-4.61s-.36-3.08-1.08-4.18c-.72-1.11-1.96-1.66-3.72-1.66s-3.33,.54-4.58,1.63c-1.25,1.09-2.27,2.42-3.04,4-.78,1.58-1.34,3.24-1.69,4.98-.35,1.74-.52,3.29-.52,4.65v1.42Z"/>
      <path class="cls-1" d="M577.46,72.84c0,2.13-.39,4.14-1.17,6.03-.78,1.89-1.87,3.53-3.26,4.92s-3.03,2.5-4.89,3.32c-1.87,.82-3.89,1.23-6.06,1.23-1.44,0-2.85-.23-4.25-.68-1.39-.45-2.68-1.1-3.84-1.94-1.17-.84-2.18-1.86-3.05-3.05-.86-1.19-1.48-2.5-1.85-3.94l1.42-.37c1.07,1.31,2.31,2.4,3.72,3.26,1.41,.86,3.02,1.29,4.83,1.29,1.52,0,2.92-.33,4.21-.98,1.29-.66,2.4-1.52,3.32-2.58,.92-1.07,1.64-2.31,2.15-3.72,.51-1.42,.77-2.86,.77-4.34,0-1.76-.25-3.23-.74-4.4-.49-1.17-1.14-2.15-1.94-2.95-.8-.8-1.69-1.5-2.68-2.09s-1.98-1.2-2.98-1.82-1.97-1.31-2.89-2.09c-.92-.78-1.71-1.78-2.37-3.01-.04,2.42-.45,4.96-1.23,7.63-.78,2.67-1.84,5.25-3.17,7.75-1.33,2.5-2.86,4.84-4.58,7.01-1.72,2.17-3.55,4-5.48,5.48l-.49-.86c1.31-1.39,2.46-3.14,3.45-5.23s1.79-4.3,2.43-6.61c.63-2.32,1.11-4.65,1.41-6.98,.31-2.34,.46-4.47,.46-6.4,0-1.02-.1-2.03-.31-3.01-.21-.98-.31-1.95-.31-2.89,0-1.15,.34-2.03,1.01-2.65,.68-.62,1.55-.92,2.62-.92,.82,0,1.48,.18,1.97,.55s.94,.85,1.35,1.45c.41,.6,.82,1.27,1.23,2.03,.41,.76,.93,1.54,1.57,2.34,.64,.8,1.44,1.58,2.4,2.34,.96,.76,2.2,1.42,3.72,2,1.76,.66,3.46,1.41,5.08,2.25,1.62,.84,3.06,1.84,4.31,2.98,1.25,1.15,2.25,2.51,2.98,4.09s1.11,3.44,1.11,5.57Z"/>
      <path class="cls-1" d="M622.49,77.27c-.9,1.52-1.96,2.93-3.17,4.25-1.21,1.31-2.54,2.46-4,3.45s-3.02,1.75-4.71,2.31c-1.68,.55-3.42,.83-5.23,.83-2.67,0-5.01-.45-7.04-1.35-2.03-.9-3.78-2.12-5.26-3.66-1.48-1.54-2.71-3.33-3.69-5.38-.98-2.05-1.76-4.19-2.34-6.43-.58-2.23-.98-4.52-1.23-6.86s-.37-4.57-.37-6.71c0-1.97,.08-3.99,.25-6.06,.16-2.07,.41-4.19,.74-6.37-1.27,.04-2.51,.06-3.72,.06h-3.6c-.78,0-1.66-.02-2.65-.06-.98-.04-1.91-.21-2.77-.49-.86-.29-1.58-.72-2.15-1.29s-.86-1.42-.86-2.52c0-.62,.11-1.11,.34-1.48,.23-.37,.53-.65,.92-.83,.39-.18,.84-.31,1.35-.37,.51-.06,1.04-.09,1.57-.09,.62,0,2.07,.1,4.37,.31,2.3,.21,5.07,.43,8.31,.68,1.02-4.84,2.35-9.6,3.97-14.27,1.62-4.68,3.45-8.94,5.51-12.8h.86c-1.31,4.47-2.47,8.98-3.48,13.54s-1.75,9.17-2.25,13.84c2.99,.21,6.08,.38,9.26,.52,3.18,.14,6.29,.22,9.32,.22,4.47,0,8.1-.04,10.89-.12,2.79-.08,4.98-.18,6.58-.31,1.89-.16,3.3-.33,4.25-.49l.25,1.05c-2.46,.58-5.27,1.12-8.43,1.63-3.16,.51-6.52,.96-10.09,1.35-3.57,.39-7.26,.73-11.07,1.02-3.81,.29-7.61,.51-11.38,.68-.08,.82-.12,1.65-.12,2.49v2.49c0,1.97,.09,4.14,.28,6.52,.18,2.38,.52,4.77,1.01,7.17,.49,2.4,1.16,4.74,2,7.01,.84,2.28,1.95,4.29,3.32,6.03s3.02,3.15,4.95,4.21c1.93,1.07,4.2,1.6,6.83,1.6,2.42,0,4.6-.53,6.55-1.6,1.95-1.07,3.8-2.38,5.57-3.94l.37,.25Z"/>
      <path class="cls-1" d="M658.42,77.27c-1.07,1.56-2.35,3.01-3.85,4.37s-3.14,2.52-4.92,3.51c-1.78,.98-3.65,1.76-5.6,2.34-1.95,.57-3.91,.86-5.88,.86-2.79,0-5.39-.36-7.81-1.08-2.42-.72-4.53-1.81-6.34-3.29-1.81-1.48-3.22-3.33-4.25-5.57-1.03-2.23-1.54-4.85-1.54-7.84s.54-5.71,1.63-8.28c1.09-2.56,2.58-4.8,4.49-6.71,1.91-1.91,4.15-3.42,6.74-4.52s5.35-1.66,8.31-1.66c1.39,0,2.7,.2,3.91,.58,1.21,.39,2.27,.96,3.17,1.72,.9,.76,1.61,1.69,2.12,2.8,.51,1.11,.77,2.38,.77,3.81,0,1.72-.35,3.24-1.05,4.55-.7,1.31-1.62,2.46-2.77,3.45-1.15,.98-2.45,1.81-3.91,2.46-1.46,.66-2.97,1.19-4.55,1.6-1.58,.41-3.14,.71-4.68,.89-1.54,.19-2.94,.28-4.21,.28h-1.48c.53,3.73,2.01,6.58,4.43,8.55,2.42,1.97,5.76,2.95,10.03,2.95,3.04,0,6-.53,8.89-1.6,2.89-1.07,5.51-2.54,7.84-4.43l.49,.25Zm-31.87-7.57h1.54c1.48,0,2.99-.24,4.55-.71,1.56-.47,2.96-1.17,4.21-2.09,1.25-.92,2.29-2.06,3.11-3.42,.82-1.35,1.23-2.89,1.23-4.61s-.36-3.08-1.08-4.18c-.72-1.11-1.96-1.66-3.72-1.66s-3.33,.54-4.58,1.63c-1.25,1.09-2.27,2.42-3.04,4-.78,1.58-1.34,3.24-1.69,4.98-.35,1.74-.52,3.29-.52,4.65v1.42Z"/>
      <path class="cls-1" d="M688.63,79.3c-1.31,2.71-3.16,4.85-5.54,6.43-2.38,1.58-5.09,2.37-8.12,2.37-2.5,0-4.74-.76-6.71-2.28s-3.7-3.51-5.2-5.97-2.77-5.24-3.81-8.34c-1.04-3.1-1.91-6.24-2.58-9.44-.68-3.2-1.17-6.29-1.48-9.26-.31-2.97-.46-5.57-.46-7.78,0-2.71,.14-5.68,.43-8.92,.29-3.24,.76-6.51,1.42-9.81,.66-3.3,1.51-6.51,2.55-9.63,1.05-3.12,2.32-5.88,3.81-8.28,1.5-2.4,3.23-4.33,5.2-5.78,1.97-1.46,4.22-2.18,6.77-2.18,2.17,0,3.94,.64,5.29,1.91,1.35,1.27,2.42,2.84,3.2,4.71,.78,1.87,1.3,3.85,1.57,5.94s.4,3.96,.4,5.6c0,4.43-.52,8.79-1.57,13.07-1.05,4.29-2.48,8.33-4.31,12.12-1.83,3.79-3.97,7.24-6.43,10.34s-5.11,5.69-7.94,7.78c.57,2.75,1.26,5.42,2.06,8.03,.8,2.61,1.77,4.92,2.92,6.95,1.15,2.03,2.47,3.67,3.97,4.92,1.5,1.25,3.21,1.88,5.14,1.88s3.59-.39,4.98-1.17c1.39-.78,2.69-1.93,3.88-3.45l.55,.25Zm-25.35-37.96c-.04,.9-.05,2.01-.03,3.32,.02,1.31,.08,2.76,.18,4.34,.1,1.58,.26,3.27,.46,5.08,.21,1.81,.47,3.65,.8,5.54,2.75-2.46,5.08-5.19,7.01-8.18,1.93-2.99,3.51-6.22,4.74-9.69,1.23-3.46,2.12-7.12,2.68-10.95,.55-3.83,.83-7.82,.83-11.97,0-.53-.01-1.23-.03-2.09s-.09-1.78-.21-2.77-.3-1.97-.52-2.95-.53-1.88-.92-2.68c-.39-.8-.88-1.46-1.48-1.97-.6-.51-1.3-.77-2.12-.77-1.56,0-2.92,.77-4.09,2.31-1.17,1.54-2.17,3.5-3.01,5.88-.84,2.38-1.54,5-2.09,7.88-.55,2.87-1,5.63-1.32,8.27-.33,2.65-.55,5.01-.68,7.11s-.18,3.53-.18,4.31Z"/>
      <path class="cls-1" d="M721.12,79.3c-1.31,2.71-3.16,4.85-5.54,6.43-2.38,1.58-5.09,2.37-8.12,2.37-2.5,0-4.74-.76-6.71-2.28s-3.7-3.51-5.2-5.97-2.77-5.24-3.81-8.34c-1.04-3.1-1.91-6.24-2.58-9.44-.68-3.2-1.17-6.29-1.48-9.26-.31-2.97-.46-5.57-.46-7.78,0-2.71,.14-5.68,.43-8.92,.29-3.24,.76-6.51,1.42-9.81,.66-3.3,1.51-6.51,2.55-9.63,1.05-3.12,2.32-5.88,3.81-8.28,1.5-2.4,3.23-4.33,5.2-5.78,1.97-1.46,4.22-2.18,6.77-2.18,2.17,0,3.94,.64,5.29,1.91,1.35,1.27,2.42,2.84,3.2,4.71,.78,1.87,1.3,3.85,1.57,5.94s.4,3.96,.4,5.6c0,4.43-.52,8.79-1.57,13.07-1.05,4.29-2.48,8.33-4.31,12.12-1.83,3.79-3.97,7.24-6.43,10.34s-5.11,5.69-7.94,7.78c.57,2.75,1.26,5.42,2.06,8.03,.8,2.61,1.77,4.92,2.92,6.95,1.15,2.03,2.47,3.67,3.97,4.92,1.5,1.25,3.21,1.88,5.14,1.88s3.59-.39,4.98-1.17c1.39-.78,2.69-1.93,3.88-3.45l.55,.25Zm-25.35-37.96c-.04,.9-.05,2.01-.03,3.32,.02,1.31,.08,2.76,.18,4.34,.1,1.58,.26,3.27,.46,5.08,.21,1.81,.47,3.65,.8,5.54,2.75-2.46,5.08-5.19,7.01-8.18,1.93-2.99,3.51-6.22,4.74-9.69,1.23-3.46,2.12-7.12,2.68-10.95,.55-3.83,.83-7.82,.83-11.97,0-.53-.01-1.23-.03-2.09s-.09-1.78-.21-2.77-.3-1.97-.52-2.95-.53-1.88-.92-2.68c-.39-.8-.88-1.46-1.48-1.97-.6-.51-1.3-.77-2.12-.77-1.56,0-2.92,.77-4.09,2.31-1.17,1.54-2.17,3.5-3.01,5.88-.84,2.38-1.54,5-2.09,7.88-.55,2.87-1,5.63-1.32,8.27-.33,2.65-.55,5.01-.68,7.11s-.18,3.53-.18,4.31Z"/>
      <path class="cls-1" d="M759.57,77.27c-1.07,1.56-2.35,3.01-3.85,4.37s-3.14,2.52-4.92,3.51c-1.78,.98-3.65,1.76-5.6,2.34-1.95,.57-3.91,.86-5.88,.86-2.79,0-5.39-.36-7.81-1.08-2.42-.72-4.53-1.81-6.34-3.29-1.81-1.48-3.22-3.33-4.25-5.57-1.03-2.23-1.54-4.85-1.54-7.84s.54-5.71,1.63-8.28c1.09-2.56,2.58-4.8,4.49-6.71,1.91-1.91,4.15-3.42,6.74-4.52s5.35-1.66,8.31-1.66c1.39,0,2.7,.2,3.91,.58,1.21,.39,2.27,.96,3.17,1.72,.9,.76,1.61,1.69,2.12,2.8,.51,1.11,.77,2.38,.77,3.81,0,1.72-.35,3.24-1.05,4.55-.7,1.31-1.62,2.46-2.77,3.45-1.15,.98-2.45,1.81-3.91,2.46-1.46,.66-2.97,1.19-4.55,1.6-1.58,.41-3.14,.71-4.68,.89-1.54,.19-2.94,.28-4.21,.28h-1.48c.53,3.73,2.01,6.58,4.43,8.55,2.42,1.97,5.76,2.95,10.03,2.95,3.04,0,6-.53,8.89-1.6,2.89-1.07,5.51-2.54,7.84-4.43l.49,.25Zm-31.87-7.57h1.54c1.48,0,2.99-.24,4.55-.71,1.56-.47,2.96-1.17,4.21-2.09,1.25-.92,2.29-2.06,3.11-3.42,.82-1.35,1.23-2.89,1.23-4.61s-.36-3.08-1.08-4.18c-.72-1.11-1.96-1.66-3.72-1.66s-3.33,.54-4.58,1.63c-1.25,1.09-2.27,2.42-3.04,4-.78,1.58-1.34,3.24-1.69,4.98-.35,1.74-.52,3.29-.52,4.65v1.42Z"/>
      <path class="cls-1" d="M809.71,77.27c-.78,1.48-1.61,2.89-2.49,4.25-.88,1.35-1.88,2.54-2.98,3.57s-2.36,1.85-3.75,2.46c-1.39,.62-2.99,.92-4.8,.92-2.05,0-3.81-.5-5.29-1.51-1.48-1-2.74-2.34-3.78-4-1.04-1.66-1.89-3.56-2.52-5.69-.64-2.13-1.16-4.31-1.57-6.52-.41-2.21-.72-4.4-.92-6.55-.21-2.15-.39-4.09-.55-5.81-.78,.62-1.72,1.79-2.83,3.54-1.11,1.74-2.24,3.78-3.38,6.12-1.15,2.34-2.25,4.88-3.29,7.63-1.05,2.75-1.9,5.46-2.55,8.12-.12,.58-.32,1.17-.58,1.78s-.59,1.18-.98,1.69-.85,.94-1.38,1.29c-.53,.35-1.13,.52-1.78,.52-1.07,0-1.84-.37-2.31-1.11-.47-.74-.81-1.58-1.02-2.52-1.19-5.21-2.02-10.19-2.49-14.95-.47-4.76-.71-9.51-.71-14.27,0-1.15,.19-2.14,.58-2.98s.91-1.54,1.57-2.09c.66-.55,1.44-.96,2.34-1.23,.9-.27,1.85-.4,2.83-.4h.58c.27,0,.52,.03,.77,.09,.25,.06,.45,.15,.62,.28,.16,.12,.22,.29,.18,.49-1.07,5.37-1.58,10.84-1.54,16.4,.04,5.56,.33,10.9,.86,16.03,.45-2.05,1.12-4.38,2-6.98,.88-2.6,1.91-5.23,3.08-7.88,1.17-2.64,2.44-5.17,3.81-7.57,1.37-2.4,2.78-4.42,4.21-6.06,.7-.78,1.4-1.45,2.12-2,.72-.55,1.61-.83,2.68-.83,.62,0,1.13,.12,1.54,.37,.41,.25,.75,.55,1.01,.92s.47,.79,.62,1.26c.14,.47,.26,.93,.34,1.38,.21,1.19,.41,2.73,.62,4.61,.21,1.89,.46,3.9,.77,6.03,.31,2.13,.69,4.28,1.14,6.43,.45,2.15,1.02,4.1,1.72,5.85,.7,1.74,1.54,3.17,2.52,4.28s2.15,1.66,3.51,1.66c1.11,0,2.18-.22,3.23-.65,1.04-.43,2.04-.98,2.98-1.66,.94-.68,1.82-1.46,2.65-2.34,.82-.88,1.56-1.75,2.21-2.61l.43,.25Z"/>
    </g>
  </g>
</svg>