<svg xmlns="http://www.w3.org/2000/svg" width="184.227" height="62.12" viewBox="0 0 184.227 62.12"><g transform="translate(-10060.26 -64.546)"><path d="M10072.716,67.749a1.389,1.389,0,0,1-.095.494c-.065.163-.133.328-.205.491q-.494,1.15-1.055,2.247a22.349,22.349,0,0,0-1,2.243,32.988,32.988,0,0,0-1.273,4.135q-.533,2.217-.931,4.654t-.645,5.038q-.246,2.6-.354,5.311a11.3,11.3,0,0,1,2.71.9,14.215,14.215,0,0,1,2.382,1.48,19.891,19.891,0,0,0,4.052-3.382,32.755,32.755,0,0,0,3.409-4.394,42.7,42.7,0,0,0,2.779-4.984q1.23-2.6,2.176-5.119t1.6-4.818q.658-2.3,1.067-4.08a3.154,3.154,0,0,1,.521-1.205,5.793,5.793,0,0,1,.971-1.1,5.362,5.362,0,0,1,1.219-.807,2.965,2.965,0,0,1,1.286-.315,1.052,1.052,0,0,1,.9.37,1.6,1.6,0,0,1,.273.971v.385a32.535,32.535,0,0,1-1.123,5.338,46.839,46.839,0,0,1-2.066,5.626,46.094,46.094,0,0,1-2.93,5.572,41.171,41.171,0,0,1-3.724,5.132,35.627,35.627,0,0,1-4.421,4.367,24.864,24.864,0,0,1-5.038,3.258c.366.31.726.63,1.082.959s.725.674,1.108,1.04q2.438,2.3,4.777,4.681t4.806,4.627a60.864,60.864,0,0,0,5.146,4.2,34.589,34.589,0,0,0,5.8,3.409q.822.384,1.835.753t2.08.644q1.068.273,2.122.438a12.808,12.808,0,0,0,1.957.162c.312,0,.611-.013.9-.04a4.786,4.786,0,0,0,.9-.179l.109.576a8.481,8.481,0,0,1-2.519.918,14.39,14.39,0,0,1-2.738.259,18.6,18.6,0,0,1-2.271-.15,23.934,23.934,0,0,1-2.437-.438,24.9,24.9,0,0,1-2.395-.685,17.149,17.149,0,0,1-2.1-.861,42.693,42.693,0,0,1-5.488-3.3,58.371,58.371,0,0,1-5.188-4.12,64.68,64.68,0,0,1-4.723-4.654,57.042,57.042,0,0,1-4.065-4.956q-.384-.519-.753-1.067t-.754-1.095a18.99,18.99,0,0,1-3.421.738q-.056,4.245.108,8.323t.438,7.8l-.6.219a33.8,33.8,0,0,1-1.191-3.752q-.507-1.971-.863-4.052t-.588-4.2q-.234-2.123-.369-4.231a6.973,6.973,0,0,1-1.273-.232,4.861,4.861,0,0,1-1.178-.493,2.76,2.76,0,0,1-.876-.808,2.2,2.2,0,0,1-.027-2.313,2.767,2.767,0,0,1,.822-.807,4.23,4.23,0,0,1,1.121-.508,6.613,6.613,0,0,1,1.219-.232V90.61q0-1.341.027-3.368t.179-4.353q.151-2.327.492-4.737a32.461,32.461,0,0,1,.958-4.516,16.028,16.028,0,0,1,1.561-3.7,5.837,5.837,0,0,1,2.342-2.3,12.2,12.2,0,0,1,1.135-.547,3.155,3.155,0,0,1,1.22-.246,1.435,1.435,0,0,1,.738.192A.75.75,0,0,1,10072.716,67.749Zm-11.963,27.241a1.22,1.22,0,0,0,.3.835,2.277,2.277,0,0,0,.781.562,5.332,5.332,0,0,0,1.026.342,9.738,9.738,0,0,0,1.04.178q-.108-2.136-.164-4.162a10.76,10.76,0,0,0-1.081.165,2.936,2.936,0,0,0-.958.37,2.088,2.088,0,0,0-.686.67A1.915,1.915,0,0,0,10060.753,94.99Zm6.27,1.779a13.179,13.179,0,0,0,2.9-.82,13.627,13.627,0,0,0-1.272-1.548,6.132,6.132,0,0,0-1.548-1.163q-.028.877-.054,1.766C10067.03,95.6,10067.022,96.186,10067.022,96.769Z" fill="#f9f9f9"/><path d="M10108.855,100.493a8.087,8.087,0,0,1-1.245,1.971,8.991,8.991,0,0,1-1.629,1.493,7.88,7.88,0,0,1-1.808.958,5.187,5.187,0,0,1-1.78.343,5.973,5.973,0,0,1-2.683-.548,4.863,4.863,0,0,1-1.779-1.48,5.972,5.972,0,0,1-.985-2.19,11.473,11.473,0,0,1-.3-2.681,16.457,16.457,0,0,1,.164-2.273,17.877,17.877,0,0,1,.467-2.274c.034-.109.071-.241.108-.4a1.8,1.8,0,0,0,.056-.4.248.248,0,0,0-.164-.219q-.467-.164-.986-.315c-.347-.1-.689-.215-1.027-.342a7.671,7.671,0,0,1-.958-.438,2.746,2.746,0,0,1-.78-.63,11.839,11.839,0,0,1-.548,3.326,16.647,16.647,0,0,1-1.382,3.231,17.56,17.56,0,0,1-2.013,2.889,16.206,16.206,0,0,1-2.437,2.328l-.273-.276a10.723,10.723,0,0,0,1.451-2.08,17.49,17.49,0,0,0,1.123-2.519,18.631,18.631,0,0,0,.725-2.655,13.309,13.309,0,0,0,.26-2.519,5.78,5.78,0,0,0-.108-1.136q-.111-.534-.233-1.027c-.082-.329-.16-.643-.232-.945a3.855,3.855,0,0,1-.11-.917,1.533,1.533,0,0,1,.493-1.205,1.831,1.831,0,0,1,1.259-.438.827.827,0,0,1,.631.234,2.314,2.314,0,0,1,.383.561c.11.219.237.447.383.685a1.814,1.814,0,0,0,.63.6,3.934,3.934,0,0,0,1.314.438q.794.138,1.67.247t1.753.219a7.01,7.01,0,0,1,1.573.37,3,3,0,0,1,1.136.712,1.669,1.669,0,0,1,.438,1.218,4.1,4.1,0,0,1-.068.753,3.5,3.5,0,0,1-.205.7q-.33,1.149-.561,2.339a12.255,12.255,0,0,0-.233,2.37,10.327,10.327,0,0,0,.151,1.847,3.653,3.653,0,0,0,.561,1.438,2.725,2.725,0,0,0,1.1.929,4.054,4.054,0,0,0,1.752.329,4.783,4.783,0,0,0,2.683-.752,7.578,7.578,0,0,0,2.026-1.986Z" fill="#f9f9f9"/><path d="M10121.558,100.493a9.961,9.961,0,0,1-1.49,1.9,10.708,10.708,0,0,1-1.89,1.506,9.1,9.1,0,0,1-2.19,1,8.152,8.152,0,0,1-2.4.357,6.759,6.759,0,0,1-2.724-.521,5.609,5.609,0,0,1-2-1.437,6.292,6.292,0,0,1-1.232-2.164,8.387,8.387,0,0,1-.425-2.724,9.612,9.612,0,0,1,.467-3.01,11.025,11.025,0,0,1,1.286-2.67,12.793,12.793,0,0,1,1.93-2.286,17.08,17.08,0,0,1,2.369-1.862l.328.247a13.826,13.826,0,0,0-2.177,3.558,10.446,10.446,0,0,0-.834,4.108,9.593,9.593,0,0,0,.287,2.368,6.015,6.015,0,0,0,.9,2.012,4.543,4.543,0,0,0,1.573,1.4,4.832,4.832,0,0,0,2.328.519,7.2,7.2,0,0,0,3.08-.683,10.952,10.952,0,0,0,2.641-1.726Zm-7.665-18.179a2.662,2.662,0,0,1-.245,1.095,3.535,3.535,0,0,1-.645.972,3.411,3.411,0,0,1-.917.7,2.272,2.272,0,0,1-1.067.273,1.467,1.467,0,0,1-1.137-.464,1.682,1.682,0,0,1-.425-1.178,2.552,2.552,0,0,1,.248-1.082,3.4,3.4,0,0,1,.643-.944,3.445,3.445,0,0,1,.9-.671,2.282,2.282,0,0,1,1.054-.26,1.554,1.554,0,0,1,1.15.438A1.517,1.517,0,0,1,10113.893,82.314Z" fill="#f9f9f9"/><path d="M10143.872,100.493q-.521.986-1.109,1.889a8.33,8.33,0,0,1-1.328,1.588,6.018,6.018,0,0,1-1.669,1.1,5.268,5.268,0,0,1-2.136.411,4.079,4.079,0,0,1-2.354-.672,5.952,5.952,0,0,1-1.686-1.779,10.224,10.224,0,0,1-1.122-2.533,27.649,27.649,0,0,1-.7-2.9q-.275-1.479-.411-2.917t-.246-2.587a6.577,6.577,0,0,0-1.259,1.575,28.842,28.842,0,0,0-1.508,2.724q-.765,1.559-1.464,3.395a30.874,30.874,0,0,0-1.136,3.614,4.248,4.248,0,0,1-.26.793,3.712,3.712,0,0,1-.438.754,2.463,2.463,0,0,1-.616.574,1.423,1.423,0,0,1-.795.232,1.124,1.124,0,0,1-1.025-.491,3.427,3.427,0,0,1-.452-1.123,53.816,53.816,0,0,1-1.109-6.652q-.315-3.177-.314-6.352A3.129,3.129,0,0,1,10121,89.8a2.661,2.661,0,0,1,.7-.931,2.84,2.84,0,0,1,1.04-.547,4.409,4.409,0,0,1,1.26-.178h.26a1.369,1.369,0,0,1,.342.041.753.753,0,0,1,.274.123.2.2,0,0,1,.081.219,35.925,35.925,0,0,0-.684,7.3q.026,3.711.384,7.133a29.572,29.572,0,0,1,.889-3.108q.589-1.737,1.369-3.5a35.849,35.849,0,0,1,1.7-3.368,16.6,16.6,0,0,1,1.875-2.7,7.058,7.058,0,0,1,.944-.889,1.887,1.887,0,0,1,1.19-.37,1.317,1.317,0,0,1,.685.164,1.5,1.5,0,0,1,.452.412,1.887,1.887,0,0,1,.274.561,5.924,5.924,0,0,1,.149.615q.138.795.274,2.053t.342,2.684q.205,1.423.506,2.861a15.665,15.665,0,0,0,.768,2.6,6.419,6.419,0,0,0,1.123,1.9,2.021,2.021,0,0,0,1.56.74,3.745,3.745,0,0,0,1.438-.288,6.568,6.568,0,0,0,1.327-.739,8,8,0,0,0,1.177-1.04,15.1,15.1,0,0,0,.985-1.165Z" fill="#f9f9f9"/><path d="M10157.095,112.814a20.678,20.678,0,0,1-.519,4.53,15.181,15.181,0,0,1-1.644,4.258,10.982,10.982,0,0,1-2.889,3.285,8.807,8.807,0,0,1-4.257,1.67c-.165.036-.32.065-.465.082a4.092,4.092,0,0,1-.493.027,6.871,6.871,0,0,1-2.847-.6,7.538,7.538,0,0,1-2.342-1.629,7.682,7.682,0,0,1-1.574-2.383,7.172,7.172,0,0,1-.574-2.834,7.651,7.651,0,0,1,.67-3.148,11.342,11.342,0,0,1,1.766-2.779,13.523,13.523,0,0,1,2.479-2.245,13.68,13.68,0,0,1,2.833-1.546l.164.356a10.228,10.228,0,0,0-4.106,3.915,10.729,10.729,0,0,0-1.451,5.5,8.438,8.438,0,0,0,.343,2.395,6.014,6.014,0,0,0,1.026,2.039,5.15,5.15,0,0,0,1.711,1.411,5.062,5.062,0,0,0,2.368.534,4.962,4.962,0,0,0,3.149-.986,7.289,7.289,0,0,0,2.012-2.464,11.662,11.662,0,0,0,1.068-3.217,18.265,18.265,0,0,0,.314-3.244,19.917,19.917,0,0,0-.164-2.574q-.164-1.258-.343-2.5t-.343-2.505a19.89,19.89,0,0,1-.164-2.573q0-.932.068-1.917a17.113,17.113,0,0,1,.261-2,12.194,12.194,0,0,1-2.779,2.422,6.2,6.2,0,0,1-3.381,1,4.613,4.613,0,0,1-2.012-.423,4.55,4.55,0,0,1-1.507-1.137,4.8,4.8,0,0,1-.931-1.684,6.561,6.561,0,0,1-.313-2.039,8.928,8.928,0,0,1,.4-2.56,12.761,12.761,0,0,1,1.095-2.574,14.391,14.391,0,0,1,1.656-2.354,12.723,12.723,0,0,1,2.095-1.943,10.113,10.113,0,0,1,2.4-1.315,7.2,7.2,0,0,1,2.574-.479,5.144,5.144,0,0,1,1.327.178,4.4,4.4,0,0,1,1.232.534,2.871,2.871,0,0,1,.9.9,2.443,2.443,0,0,1,.342,1.314,1.973,1.973,0,0,1-.247.985,3.031,3.031,0,0,1-.629.782,5.336,5.336,0,0,1-.849.615,8.608,8.608,0,0,1-.9.465l-.11-.329a1.333,1.333,0,0,0,.3-.6,3.075,3.075,0,0,0,.083-.686,3.512,3.512,0,0,0-.15-1,3.377,3.377,0,0,0-.438-.931,2.4,2.4,0,0,0-.726-.7,1.829,1.829,0,0,0-.985-.274,4.418,4.418,0,0,0-2.519.754,6.977,6.977,0,0,0-1.9,1.9,9.529,9.529,0,0,0-1.205,2.506,8.6,8.6,0,0,0-.424,2.56,8.837,8.837,0,0,0,.151,1.615,4.946,4.946,0,0,0,.506,1.479,3.058,3.058,0,0,0,.972,1.081,2.71,2.71,0,0,0,1.575.424,5.113,5.113,0,0,0,2.737-.779,10.744,10.744,0,0,0,2.244-1.849,10.17,10.17,0,0,1,1-2.067,6.716,6.716,0,0,1,1.521-1.684l.465.328a5.987,5.987,0,0,0-.822,2.3,17.209,17.209,0,0,0-.189,2.519,19.368,19.368,0,0,0,.219,2.9q.218,1.451.479,2.929t.479,2.985A21.042,21.042,0,0,1,10157.095,112.814Z" fill="#f9f9f9"/><path d="M10175.028,98.521a6.969,6.969,0,0,1-.521,2.685,6.652,6.652,0,0,1-1.45,2.19,7.068,7.068,0,0,1-2.177,1.477,6.61,6.61,0,0,1-2.7.548,6.072,6.072,0,0,1-1.89-.3,6.162,6.162,0,0,1-1.711-.862,5.958,5.958,0,0,1-1.355-1.356,5.136,5.136,0,0,1-.821-1.752l.631-.163a6.405,6.405,0,0,0,1.656,1.45,4.273,4.273,0,0,0,4.023.136,4.814,4.814,0,0,0,1.479-1.148,5.243,5.243,0,0,0,.958-1.657,5.636,5.636,0,0,0,.342-1.93,5.077,5.077,0,0,0-.329-1.958,4.05,4.05,0,0,0-.862-1.314,6.285,6.285,0,0,0-1.189-.931q-.658-.4-1.328-.808a10.13,10.13,0,0,1-1.287-.93,4.49,4.49,0,0,1-1.054-1.342,12.978,12.978,0,0,1-.547,3.395,18.217,18.217,0,0,1-1.411,3.45,20.8,20.8,0,0,1-2.039,3.121,13.974,13.974,0,0,1-2.437,2.437l-.219-.385a8.874,8.874,0,0,0,1.533-2.326,18.212,18.212,0,0,0,1.081-2.943,23.075,23.075,0,0,0,.63-3.107,22.032,22.032,0,0,0,.205-2.847,6.659,6.659,0,0,0-.136-1.342,6.205,6.205,0,0,1-.139-1.286,1.511,1.511,0,0,1,.452-1.178,1.665,1.665,0,0,1,1.164-.412,1.428,1.428,0,0,1,.876.247,2.774,2.774,0,0,1,.6.644,10.263,10.263,0,0,1,.547.9,7,7,0,0,0,.7,1.04,6.449,6.449,0,0,0,1.068,1.041,6.249,6.249,0,0,0,1.656.89,20.216,20.216,0,0,1,2.259,1,8.862,8.862,0,0,1,1.916,1.328,5.542,5.542,0,0,1,1.821,4.3Z" fill="#f9f9f9"/><path d="M10190.415,90.062a.765.765,0,0,1-.219.535.7.7,0,0,1-.521.232,1.073,1.073,0,0,1-.52-.151c-.184-.1-.389-.215-.616-.342a4.782,4.782,0,0,0-.794-.342,3.255,3.255,0,0,0-1.027-.151,3.756,3.756,0,0,0-2.395.835,7.414,7.414,0,0,0-1.78,2.067,10.738,10.738,0,0,0-1.108,2.629,9.6,9.6,0,0,0-.383,2.519,8.575,8.575,0,0,0,.137,1.546,4.416,4.416,0,0,0,.479,1.369,2.637,2.637,0,0,0,.944.986,2.885,2.885,0,0,0,1.533.369,4.933,4.933,0,0,0,1.89-.369,7.45,7.45,0,0,0,1.7-.973,8.14,8.14,0,0,1,.286-1.847,13.591,13.591,0,0,1,.671-1.916,13.338,13.338,0,0,1,.944-1.794,12.068,12.068,0,0,1,1.109-1.5l.355.219a11.314,11.314,0,0,0-.438,1.915,14.187,14.187,0,0,0-.136,1.945,10.014,10.014,0,0,0,.165,1.861,4.232,4.232,0,0,0,.573,1.52,2.874,2.874,0,0,0,1.123,1.013,3.965,3.965,0,0,0,1.834.37,5.175,5.175,0,0,0,2.519-.629,7.812,7.812,0,0,0,2.025-1.59l.22.11a8.618,8.618,0,0,1-1.286,1.835,11.182,11.182,0,0,1-1.767,1.574,8.892,8.892,0,0,1-2.066,1.109,6.13,6.13,0,0,1-2.163.41,3.542,3.542,0,0,1-2.464-.862,4.4,4.4,0,0,1-1.314-2.177,11.4,11.4,0,0,1-2.56,1.93,6.041,6.041,0,0,1-2.972.78,4.684,4.684,0,0,1-2.039-.423,4.4,4.4,0,0,1-1.491-1.137,4.914,4.914,0,0,1-.917-1.684,6.562,6.562,0,0,1-.315-2.039,8.62,8.62,0,0,1,.4-2.532,13.219,13.219,0,0,1,1.095-2.56,14.288,14.288,0,0,1,1.657-2.381,12.831,12.831,0,0,1,2.094-1.972,10.206,10.206,0,0,1,2.4-1.342,7.018,7.018,0,0,1,2.573-.493,5.147,5.147,0,0,1,.739.068,3.946,3.946,0,0,1,.849.234,1.958,1.958,0,0,1,.7.465A1.062,1.062,0,0,1,10190.415,90.062Z" fill="#f9f9f9"/><path d="M10212.427,101.4a7.043,7.043,0,0,1-2.464,2.861,6.4,6.4,0,0,1-3.614,1.053,4.759,4.759,0,0,1-2.984-1.012,9.588,9.588,0,0,1-2.313-2.655,18.6,18.6,0,0,1-1.7-3.71,37.382,37.382,0,0,1-1.149-4.2,39.72,39.72,0,0,1-.657-4.12,34.282,34.282,0,0,1-.205-3.464q0-1.808.192-3.969a40.762,40.762,0,0,1,.629-4.368,34.72,34.72,0,0,1,1.137-4.284,17.338,17.338,0,0,1,1.7-3.682,9.2,9.2,0,0,1,2.313-2.573,4.929,4.929,0,0,1,3.013-.973,3.291,3.291,0,0,1,2.354.85,5.979,5.979,0,0,1,1.424,2.094,10.1,10.1,0,0,1,.7,2.641,19.845,19.845,0,0,1,.178,2.493,24.431,24.431,0,0,1-.7,5.817,27.448,27.448,0,0,1-1.916,5.393,24.365,24.365,0,0,1-2.862,4.6,18.836,18.836,0,0,1-3.531,3.465q.382,1.833.917,3.572a15.62,15.62,0,0,0,1.3,3.093,7.841,7.841,0,0,0,1.767,2.19,3.458,3.458,0,0,0,2.286.835,4.488,4.488,0,0,0,2.218-.519,5.846,5.846,0,0,0,1.725-1.534ZM10201.147,84.5q-.029.6-.015,1.48t.082,1.93c.046.7.114,1.454.206,2.258s.209,1.625.355,2.464a17.853,17.853,0,0,0,3.121-3.642,20.8,20.8,0,0,0,2.108-4.311,25.39,25.39,0,0,0,1.19-4.873,37.151,37.151,0,0,0,.37-5.325c0-.238-.006-.547-.015-.932a12.3,12.3,0,0,0-.1-1.232,13.14,13.14,0,0,0-.232-1.314,5.6,5.6,0,0,0-.41-1.191,2.75,2.75,0,0,0-.657-.876,1.4,1.4,0,0,0-.945-.342,2.256,2.256,0,0,0-1.82,1.027,9.583,9.583,0,0,0-1.342,2.614,24.4,24.4,0,0,0-.93,3.5q-.371,1.919-.589,3.683t-.3,3.163C10201.174,83.518,10201.147,84.158,10201.147,84.5Z" fill="#f9f9f9"/><path d="M10244.486,100.493a12.656,12.656,0,0,1-1.178,1.9,9.718,9.718,0,0,1-1.532,1.629,7.2,7.2,0,0,1-1.876,1.137,5.807,5.807,0,0,1-2.231.424,3.6,3.6,0,0,1-2.766-1.151,8.7,8.7,0,0,1-1.738-3,23.307,23.307,0,0,1-1.054-4.189q-.384-2.34-.657-4.723-.63,1.124-1.164,2.342t-1.027,2.558q-.492,1.344-.984,2.766t-1.067,2.929c-.092.219-.193.462-.3.727a4.071,4.071,0,0,1-.424.766,2.5,2.5,0,0,1-.616.616,1.456,1.456,0,0,1-.848.247,1.2,1.2,0,0,1-.632-.166,2.019,2.019,0,0,1-.479-.4,2.724,2.724,0,0,1-.356-.52q-.149-.288-.26-.534a15.781,15.781,0,0,1-.876-2.519q-.328-1.287-.561-2.655t-.4-2.9q-.164-1.531-.328-3.258-.574,1.341-1.026,2.561t-.876,2.436q-.425,1.218-.85,2.518t-.89,2.808c-.073.236-.15.488-.232.751a4.045,4.045,0,0,1-.3.726,1.687,1.687,0,0,1-.465.547,1.16,1.16,0,0,1-.726.219,1.2,1.2,0,0,1-1.041-.451,4.247,4.247,0,0,1-.547-1.054,14.19,14.19,0,0,1-.631-2.286q-.3-1.464-.547-3.189t-.383-3.56q-.136-1.833-.137-3.421a2.864,2.864,0,0,1,.821-2.26,3.153,3.153,0,0,1,2.162-.725h.247a1.325,1.325,0,0,1,.329.041.9.9,0,0,1,.287.123.2.2,0,0,1,.1.219q-.246,1.916-.329,3.641t-.054,3.355q.025,1.629.177,3.2t.4,3.217q.466-1.56.917-2.984t.943-2.82q.494-1.4,1.056-2.834t1.219-3.025a3.069,3.069,0,0,1,.752-1.149,1.556,1.556,0,0,1,1.026-.329,1.474,1.474,0,0,1,1.246.6,3.17,3.17,0,0,1,.589,1.369q.218,1.4.384,2.861t.354,2.943q.193,1.479.467,2.916a22.149,22.149,0,0,0,.712,2.779q.545-1.424,1.095-2.97t1.122-3.108q.574-1.56,1.218-3.066t1.383-2.848a4.39,4.39,0,0,1,.809-1.053,1.593,1.593,0,0,1,1.136-.425,1.317,1.317,0,0,1,.685.178,1.8,1.8,0,0,1,.52.466,2.659,2.659,0,0,1,.356.629,3.249,3.249,0,0,1,.191.7q.136.795.26,2.053t.329,2.684q.205,1.423.506,2.861a15.667,15.667,0,0,0,.767,2.6,6.42,6.42,0,0,0,1.124,1.9,2.047,2.047,0,0,0,1.588.74,3.907,3.907,0,0,0,1.478-.288,6.389,6.389,0,0,0,1.341-.739,7.357,7.357,0,0,0,1.164-1.04q.535-.588.972-1.165Z" fill="#f9f9f9"/></g></svg>