<?xml version="1.0" encoding="UTF-8" standalone="no"?>
<!-- Created with Inkscape (http://www.inkscape.org/) -->

<svg
   version="1.1"
   id="svg150"
   width="311.30771"
   height="310.66635"
   viewBox="0 0 311.30771 310.66635"
   xmlns="http://www.w3.org/2000/svg"
   xmlns:svg="http://www.w3.org/2000/svg">
  <defs
     id="defs154">
    <clipPath
       clipPathUnits="userSpaceOnUse"
       id="clipPath174">
      <path
         d="M 0,1080 H 1920 V 0 H 0 Z"
         id="path172" />
    </clipPath>
  </defs>
  <g
     id="g158"
     transform="matrix(1.3333333,0,0,-1.3333333,-46.315331,1381.4873)">
    <path
       d="M 3.2472071,-1.6236036 H 1923.2472 V 1078.3764 H 3.2472071 Z"
       style="fill:#f4f0ed;fill-opacity:1;fill-rule:nonzero;stroke:none"
       id="path160" />
    <g
       id="g168">
      <g
         id="g170"
         clip-path="url(#clipPath174)">
        <g
           id="g176"
           transform="translate(90.814,833.0022)">
          <path
             d="M 0,0 C 1.003,0.163 1.971,0.438 2.901,0.82 2.499,1.386 2.075,1.901 1.628,2.367 1.181,2.832 0.666,3.219 0.082,3.53 0.064,2.945 0.045,2.357 0.027,1.765 0.009,1.172 0,0.583 0,0 m -6.267,1.778 c 0,-0.328 0.1,-0.606 0.301,-0.834 0.2,-0.229 0.46,-0.416 0.78,-0.562 0.319,-0.145 0.661,-0.259 1.026,-0.342 0.365,-0.081 0.712,-0.141 1.04,-0.178 -0.073,1.424 -0.128,2.81 -0.164,4.16 C -3.649,3.985 -4.009,3.931 -4.365,3.858 -4.721,3.786 -5.041,3.661 -5.323,3.488 -5.606,3.315 -5.834,3.092 -6.007,2.818 -6.181,2.545 -6.267,2.198 -6.267,1.778 M 5.693,29.011 C 5.693,28.845 5.66,28.682 5.597,28.517 5.533,28.354 5.464,28.188 5.392,28.025 5.063,27.259 4.712,26.511 4.338,25.78 3.964,25.05 3.631,24.303 3.339,23.537 2.846,22.259 2.422,20.882 2.066,19.404 1.711,17.926 1.4,16.375 1.136,14.751 0.871,13.127 0.657,11.449 0.493,9.715 0.328,7.981 0.21,6.212 0.137,4.406 1.122,4.204 2.025,3.904 2.846,3.503 3.667,3.101 4.461,2.608 5.227,2.024 c 1.46,0.913 2.81,2.04 4.051,3.38 1.24,1.342 2.376,2.807 3.407,4.393 1.031,1.588 1.957,3.248 2.778,4.982 0.821,1.732 1.547,3.438 2.176,5.117 0.63,1.679 1.163,3.284 1.601,4.817 0.438,1.533 0.794,2.892 1.068,4.079 0.072,0.401 0.246,0.802 0.52,1.204 0.273,0.401 0.597,0.766 0.971,1.095 0.374,0.328 0.78,0.596 1.218,0.806 0.438,0.21 0.867,0.315 1.286,0.315 0.42,0 0.721,-0.123 0.903,-0.37 0.183,-0.245 0.274,-0.569 0.274,-0.97 V 30.487 C 25.279,28.792 24.905,27.012 24.358,25.151 23.811,23.29 23.122,21.416 22.292,19.526 21.461,17.639 20.485,15.782 19.363,13.957 18.241,12.132 17,10.422 15.641,8.826 14.282,7.228 12.809,5.774 11.221,4.46 9.634,3.147 7.955,2.061 6.185,1.204 6.55,0.894 6.911,0.574 7.266,0.246 c 0.356,-0.329 0.726,-0.675 1.109,-1.04 1.623,-1.533 3.216,-3.094 4.776,-4.68 1.56,-1.589 3.161,-3.13 4.803,-4.626 1.642,-1.495 3.357,-2.896 5.145,-4.201 1.788,-1.304 3.722,-2.44 5.802,-3.407 0.548,-0.256 1.159,-0.506 1.834,-0.753 0.675,-0.246 1.368,-0.46 2.08,-0.644 0.712,-0.182 1.418,-0.328 2.121,-0.438 0.702,-0.109 1.355,-0.162 1.957,-0.162 0.31,0 0.611,0.013 0.903,0.04 0.292,0.028 0.593,0.087 0.903,0.179 l 0.11,-0.576 c -0.785,-0.438 -1.624,-0.743 -2.518,-0.917 -0.895,-0.173 -1.807,-0.259 -2.737,-0.259 -0.712,0 -1.469,0.05 -2.272,0.149 -0.803,0.101 -1.614,0.247 -2.435,0.438 -0.822,0.193 -1.62,0.42 -2.395,0.685 -0.776,0.265 -1.474,0.552 -2.094,0.861 -1.861,0.932 -3.69,2.031 -5.487,3.299 -1.798,1.268 -3.526,2.641 -5.187,4.119 -1.66,1.478 -3.234,3.028 -4.721,4.653 C 7.476,-5.41 6.121,-3.759 4.899,-2.08 4.643,-1.734 4.393,-1.379 4.146,-1.013 3.9,-0.648 3.649,-0.284 3.394,0.081 2.299,-0.265 1.158,-0.512 -0.027,-0.657 c -0.037,-2.828 0,-5.602 0.109,-8.32 0.11,-2.719 0.255,-5.32 0.438,-7.801 l -0.602,-0.219 c -0.456,1.187 -0.853,2.437 -1.191,3.751 -0.337,1.313 -0.625,2.663 -0.862,4.05 -0.237,1.386 -0.433,2.786 -0.588,4.2 -0.156,1.414 -0.279,2.824 -0.37,4.23 -0.419,0.035 -0.844,0.112 -1.272,0.232 -0.429,0.118 -0.821,0.283 -1.177,0.493 -0.356,0.208 -0.648,0.479 -0.876,0.807 -0.228,0.329 -0.342,0.721 -0.342,1.176 0,0.438 0.105,0.817 0.315,1.137 0.209,0.318 0.483,0.587 0.821,0.806 0.337,0.219 0.711,0.387 1.122,0.507 0.41,0.119 0.816,0.196 1.218,0.233 v 1.532 c 0,0.894 0.009,2.017 0.027,3.367 0.018,1.349 0.077,2.801 0.178,4.351 0.1,1.551 0.264,3.129 0.493,4.736 0.227,1.605 0.547,3.109 0.958,4.515 0.41,1.405 0.93,2.636 1.56,3.695 0.629,1.058 1.409,1.824 2.34,2.299 0.364,0.2 0.743,0.382 1.135,0.548 0.392,0.162 0.799,0.245 1.218,0.245 0.274,0 0.52,-0.063 0.739,-0.192 0.219,-0.127 0.329,-0.364 0.329,-0.71"
             style="fill:#48424c;fill-opacity:1;fill-rule:nonzero;stroke:none"
             id="path178" />
        </g>
        <g
           id="g180"
           transform="translate(132.6332,829.2801)">
          <path
             d="m 0,0 c -0.328,-0.731 -0.744,-1.388 -1.245,-1.971 -0.502,-0.584 -1.045,-1.081 -1.629,-1.492 -0.584,-0.41 -1.186,-0.73 -1.806,-0.957 -0.621,-0.228 -1.213,-0.344 -1.779,-0.344 -1.058,0 -1.952,0.184 -2.682,0.548 -0.73,0.365 -1.323,0.858 -1.779,1.479 -0.456,0.62 -0.785,1.349 -0.985,2.19 -0.201,0.838 -0.301,1.732 -0.301,2.68 0,0.731 0.054,1.489 0.164,2.273 0.109,0.784 0.264,1.541 0.465,2.272 0.036,0.109 0.073,0.241 0.11,0.396 0.036,0.154 0.054,0.287 0.054,0.397 0,0.092 -0.054,0.164 -0.164,0.219 -0.31,0.109 -0.639,0.214 -0.985,0.315 -0.347,0.099 -0.689,0.214 -1.027,0.342 -0.337,0.127 -0.656,0.273 -0.957,0.438 -0.301,0.164 -0.561,0.374 -0.78,0.63 -0.019,-1.095 -0.201,-2.204 -0.548,-3.326 -0.347,-1.123 -0.807,-2.2 -1.382,-3.229 -0.575,-1.032 -1.245,-1.995 -2.012,-2.888 -0.766,-0.894 -1.578,-1.67 -2.435,-2.327 l -0.274,0.275 c 0.529,0.583 1.013,1.277 1.451,2.08 0.437,0.802 0.811,1.642 1.122,2.518 0.31,0.876 0.551,1.76 0.725,2.654 0.173,0.893 0.26,1.734 0.26,2.518 0,0.401 -0.037,0.779 -0.11,1.136 -0.073,0.355 -0.15,0.698 -0.232,1.027 -0.082,0.328 -0.16,0.642 -0.233,0.944 -0.073,0.3 -0.109,0.606 -0.109,0.917 0,0.51 0.164,0.911 0.492,1.204 0.329,0.291 0.748,0.438 1.259,0.438 0.274,0 0.484,-0.079 0.63,-0.234 0.146,-0.155 0.273,-0.342 0.383,-0.561 0.109,-0.219 0.237,-0.446 0.383,-0.685 0.146,-0.236 0.356,-0.437 0.63,-0.6 0.346,-0.201 0.784,-0.348 1.313,-0.438 0.529,-0.092 1.086,-0.175 1.67,-0.247 0.583,-0.073 1.167,-0.147 1.751,-0.219 0.584,-0.073 1.109,-0.197 1.574,-0.37 0.465,-0.173 0.844,-0.41 1.136,-0.711 C -7.59,8.99 -7.444,8.583 -7.444,8.073 -7.444,7.817 -7.467,7.567 -7.513,7.32 -7.559,7.074 -7.627,6.841 -7.718,6.622 -7.937,5.855 -8.124,5.076 -8.279,4.283 -8.434,3.488 -8.512,2.7 -8.512,1.914 c 0,-0.674 0.05,-1.29 0.151,-1.846 0.1,-0.558 0.287,-1.036 0.561,-1.438 0.274,-0.401 0.638,-0.71 1.095,-0.929 0.456,-0.219 1.04,-0.328 1.751,-0.328 1.022,0 1.916,0.25 2.682,0.751 0.767,0.502 1.442,1.163 2.026,1.985 z"
             style="fill:#48424c;fill-opacity:1;fill-rule:nonzero;stroke:none"
             id="path182" />
        </g>
        <g
           id="g184"
           transform="translate(137.669,847.4528)">
          <path
             d="m 0,0 c 0,-0.365 -0.082,-0.731 -0.246,-1.095 -0.165,-0.365 -0.379,-0.689 -0.643,-0.972 -0.265,-0.284 -0.571,-0.516 -0.917,-0.698 -0.347,-0.182 -0.703,-0.274 -1.068,-0.274 -0.474,0 -0.853,0.156 -1.135,0.465 -0.283,0.311 -0.425,0.703 -0.425,1.177 0,0.366 0.082,0.725 0.247,1.082 0.164,0.355 0.378,0.67 0.643,0.944 0.264,0.273 0.565,0.497 0.903,0.67 0.337,0.173 0.689,0.26 1.054,0.26 0.474,0 0.857,-0.146 1.149,-0.438 C -0.146,0.83 0,0.456 0,0 m 7.663,-18.173 c -0.42,-0.694 -0.917,-1.328 -1.491,-1.902 -0.575,-0.576 -1.205,-1.077 -1.889,-1.506 -0.684,-0.429 -1.414,-0.762 -2.189,-0.999 -0.776,-0.237 -1.574,-0.356 -2.395,-0.356 -1.022,0 -1.93,0.174 -2.723,0.52 -0.794,0.347 -1.46,0.826 -1.998,1.437 -0.539,0.611 -0.949,1.331 -1.232,2.163 -0.283,0.83 -0.424,1.738 -0.424,2.723 0,1.058 0.155,2.061 0.465,3.009 0.31,0.95 0.739,1.839 1.287,2.669 0.547,0.83 1.19,1.592 1.929,2.286 0.739,0.694 1.528,1.314 2.368,1.861 l 0.328,-0.247 c -0.894,-1.058 -1.62,-2.243 -2.176,-3.557 -0.556,-1.313 -0.835,-2.683 -0.835,-4.106 0,-0.82 0.096,-1.61 0.288,-2.367 0.191,-0.758 0.492,-1.428 0.903,-2.012 0.41,-0.583 0.935,-1.049 1.574,-1.395 0.638,-0.347 1.414,-0.52 2.326,-0.52 1.076,0 2.103,0.228 3.079,0.684 0.976,0.455 1.856,1.031 2.641,1.725 z"
             style="fill:#48424c;fill-opacity:1;fill-rule:nonzero;stroke:none"
             id="path186" />
        </g>
        <g
           id="g188"
           transform="translate(167.6377,829.2801)">
          <path
             d="m 0,0 c -0.347,-0.657 -0.716,-1.287 -1.108,-1.889 -0.393,-0.602 -0.835,-1.132 -1.328,-1.588 -0.492,-0.455 -1.049,-0.821 -1.669,-1.094 -0.621,-0.274 -1.332,-0.412 -2.135,-0.412 -0.912,0 -1.697,0.225 -2.354,0.672 -0.657,0.447 -1.218,1.04 -1.683,1.778 -0.465,0.74 -0.839,1.583 -1.122,2.533 -0.283,0.948 -0.516,1.914 -0.698,2.9 -0.183,0.985 -0.319,1.957 -0.41,2.915 -0.092,0.958 -0.174,1.82 -0.247,2.586 -0.347,-0.273 -0.766,-0.798 -1.259,-1.574 -0.492,-0.775 -0.994,-1.682 -1.505,-2.723 -0.511,-1.039 -0.999,-2.17 -1.464,-3.394 -0.465,-1.222 -0.844,-2.426 -1.136,-3.613 -0.055,-0.254 -0.142,-0.519 -0.26,-0.792 -0.119,-0.274 -0.265,-0.524 -0.438,-0.753 -0.173,-0.228 -0.379,-0.419 -0.616,-0.575 -0.237,-0.155 -0.502,-0.232 -0.793,-0.232 -0.475,0 -0.817,0.163 -1.027,0.491 -0.21,0.329 -0.36,0.703 -0.451,1.123 -0.53,2.317 -0.899,4.535 -1.109,6.65 -0.21,2.117 -0.314,4.234 -0.314,6.35 0,0.511 0.086,0.954 0.26,1.328 0.173,0.373 0.405,0.684 0.697,0.931 0.292,0.245 0.639,0.427 1.04,0.547 0.402,0.118 0.821,0.177 1.259,0.177 h 0.26 c 0.119,0 0.233,-0.013 0.342,-0.041 0.11,-0.027 0.201,-0.068 0.274,-0.123 0.073,-0.054 0.1,-0.127 0.082,-0.219 -0.474,-2.39 -0.702,-4.821 -0.684,-7.293 0.018,-2.474 0.146,-4.849 0.383,-7.131 0.201,0.913 0.497,1.949 0.89,3.107 0.392,1.158 0.848,2.327 1.368,3.503 0.52,1.178 1.086,2.299 1.697,3.367 0.611,1.067 1.236,1.966 1.875,2.696 0.31,0.346 0.624,0.643 0.944,0.889 0.319,0.247 0.716,0.37 1.19,0.37 0.274,0 0.502,-0.055 0.685,-0.165 0.182,-0.109 0.333,-0.245 0.451,-0.411 0.119,-0.162 0.21,-0.35 0.274,-0.56 0.064,-0.211 0.114,-0.415 0.151,-0.616 0.09,-0.53 0.182,-1.213 0.273,-2.052 0.091,-0.84 0.205,-1.734 0.342,-2.683 0.137,-0.949 0.306,-1.901 0.507,-2.86 0.2,-0.957 0.456,-1.824 0.766,-2.599 0.31,-0.777 0.684,-1.41 1.122,-1.903 0.438,-0.492 0.958,-0.74 1.56,-0.74 0.493,0 0.972,0.097 1.437,0.289 0.465,0.191 0.908,0.438 1.327,0.738 0.42,0.302 0.812,0.648 1.177,1.04 0.365,0.392 0.693,0.78 0.985,1.164 z"
             style="fill:#48424c;fill-opacity:1;fill-rule:nonzero;stroke:none"
             id="path190" />
        </g>
        <g
           id="g192"
           transform="translate(180.8567,816.9627)">
          <path
             d="m 0,0 c 0,-1.476 -0.173,-2.987 -0.52,-4.528 -0.347,-1.542 -0.894,-2.961 -1.642,-4.257 -0.748,-1.296 -1.711,-2.39 -2.887,-3.284 -1.177,-0.893 -2.596,-1.45 -4.256,-1.669 -0.165,-0.037 -0.32,-0.065 -0.466,-0.082 -0.146,-0.018 -0.31,-0.027 -0.492,-0.027 -1.004,0 -1.953,0.2 -2.847,0.601 -0.894,0.402 -1.674,0.945 -2.34,1.628 -0.665,0.685 -1.19,1.478 -1.573,2.382 -0.383,0.903 -0.575,1.848 -0.575,2.833 0,1.095 0.224,2.144 0.671,3.147 0.447,1.003 1.035,1.929 1.765,2.778 0.73,0.848 1.555,1.596 2.477,2.244 0.921,0.648 1.865,1.163 2.832,1.546 l 0.165,-0.356 c -1.771,-0.948 -3.139,-2.253 -4.106,-3.913 -0.967,-1.66 -1.45,-3.494 -1.45,-5.502 0,-0.82 0.114,-1.618 0.342,-2.394 0.228,-0.775 0.57,-1.455 1.026,-2.038 0.456,-0.585 1.026,-1.055 1.711,-1.41 0.684,-0.357 1.473,-0.534 2.367,-0.534 1.259,0 2.308,0.328 3.147,0.985 0.84,0.657 1.51,1.478 2.012,2.463 0.502,0.986 0.857,2.058 1.067,3.217 0.21,1.158 0.315,2.239 0.315,3.242 0,0.876 -0.055,1.734 -0.164,2.573 -0.11,0.839 -0.224,1.675 -0.342,2.505 -0.119,0.829 -0.233,1.664 -0.342,2.504 -0.11,0.839 -0.165,1.696 -0.165,2.571 0,0.622 0.023,1.261 0.069,1.918 0.045,0.656 0.132,1.322 0.26,1.997 -0.803,-0.948 -1.729,-1.756 -2.778,-2.422 -1.049,-0.666 -2.176,-0.999 -3.38,-0.999 -0.748,0 -1.419,0.141 -2.012,0.424 -0.593,0.282 -1.094,0.661 -1.505,1.136 -0.41,0.475 -0.721,1.035 -0.93,1.683 -0.21,0.647 -0.315,1.327 -0.315,2.039 0,0.821 0.132,1.673 0.397,2.559 0.264,0.885 0.629,1.741 1.094,2.573 0.466,0.83 1.018,1.614 1.656,2.354 0.639,0.738 1.336,1.386 2.094,1.942 0.757,0.556 1.555,0.994 2.395,1.314 0.839,0.319 1.697,0.479 2.572,0.479 0.438,0 0.881,-0.059 1.328,-0.178 0.446,-0.119 0.857,-0.297 1.231,-0.534 0.374,-0.236 0.675,-0.538 0.903,-0.902 0.228,-0.365 0.343,-0.803 0.343,-1.314 0,-0.365 -0.083,-0.694 -0.247,-0.985 -0.164,-0.293 -0.374,-0.553 -0.629,-0.781 -0.256,-0.228 -0.539,-0.434 -0.849,-0.616 -0.31,-0.181 -0.611,-0.337 -0.903,-0.464 l -0.109,0.328 c 0.145,0.163 0.246,0.364 0.301,0.601 0.055,0.238 0.082,0.466 0.082,0.685 0,0.328 -0.05,0.661 -0.151,0.999 -0.1,0.337 -0.246,0.647 -0.438,0.93 -0.191,0.283 -0.433,0.516 -0.725,0.698 -0.292,0.182 -0.62,0.274 -0.985,0.274 -0.931,0 -1.77,-0.251 -2.518,-0.753 -0.748,-0.502 -1.382,-1.135 -1.902,-1.901 -0.52,-0.766 -0.922,-1.602 -1.204,-2.505 -0.283,-0.903 -0.425,-1.756 -0.425,-2.559 0,-0.53 0.05,-1.067 0.151,-1.614 0.1,-0.547 0.269,-1.041 0.506,-1.479 0.237,-0.438 0.561,-0.798 0.972,-1.08 0.41,-0.284 0.935,-0.425 1.574,-0.425 0.985,0 1.897,0.261 2.736,0.78 0.84,0.521 1.588,1.136 2.245,1.848 0.255,0.729 0.588,1.418 0.999,2.066 0.41,0.647 0.916,1.209 1.519,1.684 l 0.465,-0.329 c -0.42,-0.676 -0.694,-1.442 -0.821,-2.299 -0.128,-0.858 -0.192,-1.698 -0.192,-2.518 0,-0.967 0.073,-1.935 0.219,-2.902 C -1.031,8.011 -0.871,7.034 -0.698,6.049 -0.525,5.064 -0.365,4.07 -0.219,3.065 -0.073,2.062 0,1.042 0,0"
             style="fill:#48424c;fill-opacity:1;fill-rule:nonzero;stroke:none"
             id="path194" />
        </g>
        <g
           id="g196"
           transform="translate(198.7831,831.2506)">
          <path
             d="m 0,0 c 0,-0.95 -0.173,-1.843 -0.52,-2.684 -0.347,-0.838 -0.83,-1.568 -1.451,-2.189 -0.62,-0.62 -1.345,-1.113 -2.175,-1.476 -0.831,-0.366 -1.729,-0.548 -2.696,-0.548 -0.639,0 -1.268,0.099 -1.889,0.3 -0.62,0.202 -1.19,0.489 -1.71,0.863 -0.52,0.373 -0.972,0.825 -1.355,1.355 -0.383,0.528 -0.657,1.113 -0.821,1.752 l 0.63,0.162 c 0.474,-0.583 1.026,-1.066 1.655,-1.449 0.63,-0.384 1.346,-0.574 2.149,-0.574 0.675,0 1.3,0.145 1.875,0.437 0.574,0.292 1.067,0.675 1.477,1.148 0.411,0.475 0.73,1.027 0.958,1.657 0.228,0.629 0.342,1.273 0.342,1.929 0,0.785 -0.109,1.437 -0.328,1.958 C -4.078,3.16 -4.365,3.598 -4.721,3.954 -5.077,4.309 -5.474,4.62 -5.912,4.885 -6.35,5.148 -6.792,5.418 -7.239,5.693 -7.686,5.965 -8.115,6.276 -8.525,6.622 -8.936,6.969 -9.287,7.416 -9.579,7.964 -9.598,6.887 -9.78,5.756 -10.126,4.57 c -0.347,-1.187 -0.817,-2.336 -1.41,-3.449 -0.593,-1.112 -1.273,-2.152 -2.039,-3.12 -0.766,-0.967 -1.578,-1.779 -2.436,-2.436 l -0.219,0.384 c 0.584,0.62 1.095,1.396 1.533,2.326 0.438,0.931 0.798,1.911 1.081,2.943 0.283,1.029 0.493,2.066 0.63,3.105 0.136,1.041 0.205,1.99 0.205,2.846 0,0.457 -0.046,0.904 -0.137,1.342 -0.091,0.438 -0.137,0.867 -0.137,1.286 0,0.511 0.151,0.903 0.452,1.177 0.301,0.274 0.688,0.411 1.163,0.411 0.365,0 0.657,-0.083 0.876,-0.247 0.219,-0.164 0.419,-0.378 0.602,-0.643 C -9.78,10.23 -9.598,9.93 -9.415,9.592 -9.232,9.254 -9,8.907 -8.717,8.552 -8.434,8.196 -8.079,7.85 -7.65,7.512 -7.221,7.174 -6.669,6.878 -5.994,6.622 -5.209,6.33 -4.457,5.997 -3.736,5.623 -3.015,5.249 -2.377,4.807 -1.82,4.296 -1.264,3.786 -0.821,3.178 -0.493,2.477 -0.164,1.774 0,0.948 0,0"
             style="fill:#48424c;fill-opacity:1;fill-rule:nonzero;stroke:none"
             id="path198" />
        </g>
        <g
           id="g200"
           transform="translate(214.1643,839.7068)">
          <path
             d="m 0,0 c 0,-0.201 -0.073,-0.379 -0.219,-0.534 -0.146,-0.155 -0.319,-0.232 -0.52,-0.232 -0.164,0 -0.338,0.05 -0.52,0.151 -0.183,0.099 -0.388,0.214 -0.616,0.341 -0.228,0.128 -0.492,0.241 -0.793,0.342 -0.301,0.101 -0.644,0.151 -1.027,0.151 -0.894,0 -1.692,-0.278 -2.395,-0.834 -0.702,-0.558 -1.295,-1.246 -1.778,-2.067 -0.484,-0.821 -0.854,-1.697 -1.109,-2.628 -0.255,-0.93 -0.383,-1.769 -0.383,-2.517 0,-0.53 0.045,-1.045 0.137,-1.546 0.091,-0.503 0.251,-0.959 0.479,-1.369 0.228,-0.411 0.542,-0.74 0.944,-0.985 0.401,-0.247 0.912,-0.37 1.533,-0.37 0.656,0 1.286,0.123 1.888,0.37 0.602,0.245 1.168,0.569 1.697,0.972 0.018,0.583 0.114,1.198 0.287,1.846 0.173,0.648 0.397,1.287 0.671,1.916 0.273,0.63 0.588,1.228 0.944,1.793 0.356,0.565 0.725,1.067 1.108,1.505 L 0.684,-3.914 C 0.483,-4.534 0.337,-5.172 0.246,-5.829 0.155,-6.486 0.109,-7.134 0.109,-7.773 c 0,-0.657 0.055,-1.276 0.165,-1.861 0.109,-0.584 0.301,-1.09 0.574,-1.519 0.274,-0.429 0.648,-0.766 1.123,-1.012 0.474,-0.247 1.085,-0.37 1.833,-0.37 0.912,0 1.752,0.21 2.518,0.629 0.766,0.42 1.441,0.95 2.025,1.589 l 0.219,-0.11 C 8.238,-11.066 7.809,-11.677 7.28,-12.261 6.751,-12.846 6.162,-13.369 5.515,-13.835 4.867,-14.3 4.178,-14.67 3.448,-14.943 c -0.73,-0.274 -1.45,-0.41 -2.162,-0.41 -1.003,0 -1.824,0.287 -2.463,0.861 -0.639,0.575 -1.076,1.3 -1.314,2.176 -0.766,-0.766 -1.619,-1.41 -2.558,-1.929 -0.94,-0.521 -1.93,-0.78 -2.97,-0.78 -0.766,0 -1.446,0.141 -2.039,0.423 -0.593,0.283 -1.09,0.662 -1.492,1.137 -0.401,0.475 -0.707,1.035 -0.916,1.683 -0.21,0.647 -0.315,1.327 -0.315,2.039 0,0.821 0.132,1.664 0.397,2.531 0.264,0.867 0.629,1.721 1.094,2.559 0.466,0.839 1.018,1.634 1.656,2.381 0.639,0.748 1.337,1.405 2.094,1.97 0.757,0.567 1.555,1.014 2.395,1.342 0.839,0.328 1.697,0.493 2.572,0.493 0.201,0 0.447,-0.024 0.739,-0.068 C -1.542,1.419 -1.259,1.34 -0.985,1.231 -0.712,1.121 -0.479,0.968 -0.287,0.766 -0.096,0.565 0,0.311 0,0"
             style="fill:#48424c;fill-opacity:1;fill-rule:nonzero;stroke:none"
             id="path202" />
        </g>
        <g
           id="g204"
           transform="translate(224.8928,845.2634)">
          <path
             d="m 0,0 c -0.018,-0.402 -0.023,-0.895 -0.014,-1.479 0.009,-0.583 0.037,-1.227 0.082,-1.93 0.046,-0.702 0.114,-1.454 0.206,-2.257 0.091,-0.803 0.209,-1.624 0.355,-2.463 1.223,1.095 2.263,2.308 3.12,3.641 0.858,1.331 1.561,2.767 2.108,4.309 0.547,1.541 0.944,3.166 1.19,4.872 0.247,1.705 0.37,3.481 0.37,5.322 0,0.239 -0.005,0.548 -0.014,0.932 C 7.394,11.329 7.362,11.74 7.307,12.178 7.253,12.616 7.175,13.054 7.075,13.492 6.974,13.93 6.837,14.326 6.664,14.683 6.491,15.038 6.272,15.329 6.007,15.559 5.743,15.786 5.428,15.9 5.063,15.9 4.37,15.9 3.763,15.559 3.243,14.874 2.723,14.19 2.276,13.319 1.902,12.261 1.528,11.202 1.218,10.035 0.972,8.758 0.725,7.48 0.529,6.253 0.383,5.076 0.237,3.9 0.137,2.846 0.082,1.914 0.027,0.985 0,0.346 0,0 M 11.276,-16.887 C 10.692,-18.091 9.871,-19.046 8.813,-19.747 7.754,-20.45 6.55,-20.8 5.2,-20.8 c -1.113,0 -2.107,0.337 -2.983,1.012 -0.876,0.674 -1.647,1.559 -2.313,2.654 -0.666,1.095 -1.231,2.331 -1.697,3.709 -0.465,1.377 -0.848,2.778 -1.149,4.201 -0.301,1.423 -0.52,2.796 -0.657,4.119 -0.137,1.322 -0.205,2.478 -0.205,3.463 0,1.204 0.063,2.527 0.191,3.968 0.128,1.44 0.338,2.896 0.63,4.365 0.292,1.468 0.67,2.897 1.136,4.283 0.465,1.386 1.03,2.614 1.696,3.681 0.666,1.068 1.437,1.924 2.313,2.572 0.876,0.648 1.879,0.972 3.011,0.972 0.966,0 1.751,-0.282 2.353,-0.849 0.602,-0.565 1.077,-1.263 1.424,-2.093 0.346,-0.83 0.579,-1.71 0.697,-2.641 0.119,-0.93 0.178,-1.76 0.178,-2.491 C 9.825,8.154 9.593,6.216 9.127,4.309 8.662,2.403 8.023,0.605 7.212,-1.081 6.399,-2.769 5.446,-4.302 4.352,-5.679 3.257,-7.058 2.08,-8.211 0.821,-9.143 c 0.255,-1.222 0.561,-2.412 0.917,-3.571 0.356,-1.158 0.789,-2.189 1.3,-3.092 0.511,-0.904 1.099,-1.633 1.765,-2.189 0.666,-0.558 1.428,-0.835 2.285,-0.835 0.858,0 1.597,0.173 2.217,0.52 0.621,0.346 1.195,0.858 1.725,1.532 z"
             style="fill:#48424c;fill-opacity:1;fill-rule:nonzero;stroke:none"
             id="path206" />
        </g>
        <g
           id="g208"
           transform="translate(268.2173,829.2801)">
          <path
             d="M 0,0 C -0.328,-0.657 -0.721,-1.292 -1.177,-1.902 -1.633,-2.515 -2.144,-3.056 -2.709,-3.531 -3.275,-4.006 -3.9,-4.383 -4.584,-4.667 -5.268,-4.95 -6.012,-5.092 -6.815,-5.092 c -1.131,0 -2.052,0.385 -2.764,1.151 -0.712,0.766 -1.291,1.765 -1.738,2.996 -0.447,1.232 -0.798,2.627 -1.054,4.188 -0.255,1.559 -0.474,3.133 -0.656,4.721 -0.42,-0.749 -0.808,-1.529 -1.164,-2.341 -0.355,-0.812 -0.698,-1.664 -1.026,-2.558 -0.328,-0.895 -0.657,-1.816 -0.985,-2.765 -0.329,-0.948 -0.684,-1.924 -1.068,-2.927 -0.091,-0.219 -0.191,-0.462 -0.301,-0.727 -0.109,-0.265 -0.251,-0.519 -0.424,-0.766 -0.173,-0.246 -0.379,-0.451 -0.616,-0.616 -0.237,-0.164 -0.52,-0.247 -0.848,-0.247 -0.238,0 -0.447,0.057 -0.63,0.166 -0.182,0.11 -0.342,0.241 -0.478,0.397 -0.137,0.155 -0.256,0.328 -0.356,0.519 -0.101,0.192 -0.187,0.37 -0.26,0.534 -0.365,0.821 -0.657,1.66 -0.876,2.518 -0.219,0.858 -0.406,1.743 -0.561,2.654 -0.155,0.913 -0.288,1.88 -0.397,2.902 -0.109,1.021 -0.219,2.107 -0.328,3.257 -0.384,-0.894 -0.726,-1.748 -1.027,-2.56 -0.301,-0.812 -0.593,-1.624 -0.876,-2.435 -0.282,-0.812 -0.565,-1.652 -0.848,-2.518 -0.283,-0.867 -0.579,-1.802 -0.889,-2.806 -0.074,-0.237 -0.151,-0.488 -0.233,-0.752 -0.082,-0.265 -0.183,-0.506 -0.301,-0.725 -0.119,-0.219 -0.274,-0.402 -0.465,-0.547 -0.192,-0.146 -0.434,-0.219 -0.726,-0.219 -0.474,0 -0.821,0.15 -1.04,0.451 -0.219,0.301 -0.401,0.653 -0.547,1.054 -0.219,0.547 -0.429,1.309 -0.629,2.285 -0.201,0.975 -0.384,2.039 -0.548,3.188 -0.164,1.15 -0.292,2.336 -0.383,3.558 -0.091,1.222 -0.137,2.363 -0.137,3.421 0,1.022 0.274,1.775 0.821,2.259 0.548,0.482 1.268,0.724 2.162,0.724 h 0.247 c 0.109,0 0.219,-0.013 0.328,-0.041 0.11,-0.027 0.205,-0.068 0.287,-0.123 0.083,-0.054 0.114,-0.127 0.096,-0.219 -0.164,-1.276 -0.273,-2.491 -0.328,-3.639 -0.055,-1.151 -0.073,-2.268 -0.055,-3.354 0.018,-1.086 0.077,-2.152 0.178,-3.201 0.1,-1.05 0.233,-2.122 0.397,-3.216 0.31,1.04 0.616,2.034 0.917,2.984 0.301,0.948 0.615,1.887 0.944,2.818 0.328,0.93 0.679,1.874 1.054,2.833 0.373,0.957 0.78,1.966 1.217,3.024 0.238,0.547 0.488,0.93 0.753,1.149 0.265,0.219 0.607,0.329 1.026,0.329 0.529,0 0.945,-0.202 1.246,-0.602 0.301,-0.401 0.497,-0.858 0.588,-1.369 0.146,-0.93 0.274,-1.885 0.383,-2.86 0.11,-0.976 0.228,-1.957 0.356,-2.942 0.128,-0.985 0.283,-1.957 0.465,-2.914 0.183,-0.959 0.42,-1.885 0.712,-2.779 0.365,0.949 0.73,1.938 1.095,2.969 0.364,1.032 0.739,2.067 1.122,3.107 0.383,1.04 0.789,2.062 1.218,3.065 0.428,1.003 0.889,1.953 1.382,2.847 0.237,0.42 0.506,0.771 0.807,1.053 0.301,0.283 0.68,0.425 1.136,0.425 0.255,0 0.483,-0.06 0.684,-0.178 0.201,-0.12 0.374,-0.274 0.52,-0.466 0.146,-0.191 0.265,-0.401 0.356,-0.629 0.091,-0.229 0.155,-0.461 0.192,-0.698 0.091,-0.53 0.177,-1.213 0.26,-2.052 0.082,-0.84 0.191,-1.734 0.328,-2.683 0.137,-0.949 0.305,-1.901 0.506,-2.86 0.201,-0.957 0.456,-1.824 0.767,-2.599 0.31,-0.777 0.684,-1.41 1.122,-1.903 0.438,-0.492 0.966,-0.74 1.587,-0.74 0.511,0 1.003,0.097 1.478,0.289 0.474,0.191 0.921,0.438 1.341,0.738 0.419,0.302 0.807,0.648 1.163,1.04 0.356,0.392 0.68,0.78 0.972,1.164 z"
             style="fill:#48424c;fill-opacity:1;fill-rule:nonzero;stroke:none"
             id="path210" />
        </g>
        <g
           id="g212"
           transform="translate(140.1871,869.821)">
          <path
             d="m 0,0 c -1.868,-0.182 -2.037,-1.178 -2.778,-1.838 -0.475,-0.634 -0.949,-1.268 -1.483,-1.32 -0.534,-0.052 -1.373,0.258 -3.111,1.459 -1.738,1.201 -3.04,3.425 -4.036,5.286 -0.573,0.336 -1.529,1.809 -1.549,2.004 l -1.451,1.033 -0.326,0.556 -1.53,1.809 c -1.471,1.227 -2.942,2.455 -3.099,4.007 -0.039,0.387 -0.326,0.555 -0.326,0.555 l -1.569,2.198 c -0.058,0.582 -0.67,1.305 -0.67,1.305 l -1.49,1.422 c -0.554,0.141 -0.84,0.309 -1.165,0.865 0,0 -0.385,1.138 -0.73,1.888 -0.385,1.137 -1.035,2.249 -1.914,2.946 0,0 -0.592,0.53 -0.879,0.699 -0.592,0.529 -0.977,1.667 -1.341,2.611 -0.019,0.194 -0.306,0.361 -0.326,0.555 -0.69,1.5 -2.605,4.447 -3.77,5.312 -0.019,0.195 -0.591,0.53 -0.878,0.698 -0.286,0.168 -0.384,1.138 -0.384,1.138 0,0 -0.405,1.331 -0.69,1.5 l -0.879,0.697 c -0.82,0.116 -1.106,0.284 -1.145,0.671 l -1.935,3.142 -1.816,1.977 c -0.572,0.336 -0.878,0.697 -0.898,0.891 0,0 -0.306,0.362 -0.345,0.75 -0.306,0.362 -0.326,0.556 -0.365,0.944 l -0.859,0.504 c -0.306,0.361 -0.612,0.723 -0.632,0.917 l -1.628,2.779 -3.463,4.951 c -0.859,0.503 -1.471,1.227 -1.491,1.421 l -1.243,1.641 c -0.572,0.336 -0.859,0.504 -1.204,1.254 -1.966,0.787 -4.028,2.545 -5.213,3.604 -1.184,1.06 -2.922,2.261 -4.334,2.907 l -7.724,1.792 c -0.839,0.31 -1.146,0.672 -1.452,1.034 0.248,0.22 0.761,0.465 1.295,0.518 l 3.598,1.722 c 2.302,1.204 5.366,2.874 5.366,2.874 0.722,0.854 1.749,1.346 2.264,1.592 0,0 0.78,0.272 2.074,0.79 l 0.989,0.88 c 0.247,0.22 2.055,0.984 2.322,1.01 l 1.483,1.32 c 0.988,0.88 1.998,1.566 3.273,2.278 l 1.709,1.734 c 0.949,1.268 2.166,2.562 3.214,2.86 l 2.016,1.372 c 1.008,0.686 2.263,1.592 2.985,2.445 l 3.628,4.076 c -0.246,-0.22 0.456,0.828 0.931,1.462 l 4.676,4.374 c 1.957,1.954 3.115,3.829 4.253,5.899 0.929,1.462 1.86,2.924 3.075,4.217 0.495,0.44 1.177,1.682 1.365,2.484 l 0.684,1.242 1.435,4.449 c 1.255,0.906 3.146,6.183 3.009,7.541 -0.02,0.193 0.377,1.604 1.366,2.483 -0.059,0.582 0.149,1.19 0.377,1.604 0.376,1.604 1,3.427 0.824,5.173 l -0.137,1.357 c -1.193,3.801 -3.876,9.024 -11.079,8.321 -4.267,-0.417 -6.275,-4.53 -6.118,-6.082 l 0.686,-6.788 c 0.019,-0.194 -0.358,-1.798 -0.547,-2.599 0.04,-0.388 -0.208,-0.608 -0.168,-0.996 0.078,-0.776 -0.396,-1.41 -0.585,-2.212 0.079,-0.776 0.346,-0.75 0.365,-0.944 0.04,-0.387 -0.188,-0.801 -0.416,-1.215 -0.228,-0.415 -0.189,-0.802 -0.169,-0.996 -0.187,-0.802 -0.07,-1.965 -0.031,-2.353 0.079,-0.776 0.157,-1.552 -0.259,-2.768 -0.554,0.142 -0.832,-2.432 -1.059,-2.845 -0.436,-1.022 -1.06,-2.846 -1.021,-3.234 0.138,-1.358 -1.949,-4.695 -3.087,-6.765 l -0.683,-1.242 c -1.443,-1.707 -9.591,-11.708 -11.322,-13.248 l 0.098,-0.97 c -1.314,-0.324 -2.035,-1.178 -2.758,-2.032 -0.475,-0.634 -0.949,-1.267 -1.996,-1.566 l -2.66,-3.001 c -1.216,-1.294 -2.7,-2.614 -3.954,-3.52 l -2.817,-1.45 c -0.455,-0.828 -0.683,-1.242 -1.73,-1.54 -0.534,-0.052 -1.047,-0.298 -1.314,-0.324 -0.248,-0.22 -0.495,-0.44 -0.475,-0.634 -1.73,-1.54 -2.283,-1.398 -3.044,-1.864 l -2.056,-0.984 -2.016,-1.373 c -1.236,-1.099 -2.224,-1.979 -3.786,-2.523 l -7.202,-0.703 -1.047,-0.299 -1.601,-0.156 0.529,-5.236 c 1.177,1.681 3.331,1.696 3.845,1.942 l 1.6,0.156 c 0.801,0.078 2.115,0.403 2.648,0.455 0.208,0.607 0.475,0.633 0.742,0.659 l 2.518,-0.929 c 0,0 0.592,-0.53 0.859,-0.504 l 2.695,-2.675 c 0,0 0.326,-0.556 0.612,-0.723 1.224,-1.448 3.098,-4.007 4.471,-4.264 l -0.188,-0.802 c 1.797,-1.784 2.812,-3.839 4.075,-5.674 l 0.958,-1.474 c 0.137,-1.357 0.313,-3.103 1.153,-3.413 0.612,-0.724 0.631,-0.918 0.67,-1.305 0,0 0.346,-0.75 0.365,-0.944 0.593,-0.53 1.244,-1.641 1.589,-2.392 l 2.181,-2.92 0.71,-1.694 c 0.669,-1.306 1.4,-3.193 2.604,-4.446 0.345,-0.75 2.753,-3.257 3.365,-3.981 0.079,-0.776 0.385,-1.137 0.405,-1.331 1.647,-2.973 3.827,-5.894 6.275,-8.789 0.612,-0.724 0.937,-1.279 1.283,-2.03 0.345,-0.749 0.956,-1.473 1.549,-2.003 l 0.859,-0.503 c 1.569,-2.198 3.711,-4.731 6.001,-6.074 l 2.292,-1.343 c 0.02,-0.194 0.325,-0.556 0.611,-0.724 0.287,-0.168 0.919,-1.086 1.185,-1.06 l 8.344,-5.257 c 0.285,-0.168 6.755,-2.866 7.574,-2.982 1.62,-0.038 3.546,-0.437 4.386,-0.747 l 1.393,-0.452 c 0.799,0.078 1.086,-0.09 1.353,-0.064 0.552,-0.141 1.353,-0.063 1.886,-0.011 3.469,0.338 5.862,3.314 6.505,4.944 C 1.984,-0.982 0.839,-0.31 0,0"
             style="fill:#48424c;fill-opacity:1;fill-rule:nonzero;stroke:none"
             id="path214" />
        </g>
        <g
           id="g216"
           transform="translate(48.5008,987.7073)">
          <path
             d="m 0,0 c -1.481,-0.876 -2.093,-0.634 -2.589,0.78 -0.216,0.617 -0.219,1.246 -0.222,1.887 -0.008,2.087 -0.006,4.175 -0.022,6.262 -0.011,1.359 0.069,2.72 -0.291,4.055 -0.138,0.513 -0.071,1.114 -0.075,1.675 -0.016,2.489 -0.011,4.978 -0.04,7.467 -0.013,1.118 0.018,2.229 -0.157,3.353 -0.216,1.394 0.453,2.262 1.626,2.339 0.39,0.026 0.787,0.051 1.173,-0.001 1.106,-0.15 2.004,0.104 2.692,1.36 0.408,0.744 1.135,0.71 1.468,-0.046 0.53,-1.207 1.309,-1.425 2.283,-1.353 0.454,0.033 0.919,0.028 1.366,-0.06 C 8.135,27.535 8.734,26.789 8.837,25.632 8.908,24.846 8.996,24.032 8.614,23.13 7.551,24.273 6.577,25.368 4.97,24.69 4.074,24.312 3.614,23.739 3.421,22.543 2.423,16.351 2.914,10.012 2.139,3.797 1.924,2.076 0.753,1.372 0,0"
             style="fill:#48424c;fill-opacity:1;fill-rule:nonzero;stroke:none"
             id="path218" />
        </g>
        <g
           id="g220"
           transform="translate(52.6362,908.8295)">
          <path
             d="m 0,0 c -0.047,0.653 -0.074,1.141 -0.146,1.803 -0.518,1.535 -0.489,3.015 -0.517,4.424 -0.126,6.475 0.047,12.955 -0.168,19.645 0.275,1.407 0.549,2.597 0.167,4.034 -0.178,1.024 -0.178,1.853 -0.058,2.892 0.288,1.044 0.198,1.943 0.336,2.797 0.223,1.386 0.768,2.027 1.974,0.896 0.126,-1.751 0.17,-3.315 0.201,-5.087 0.473,-3.877 0.23,-7.562 0.084,-11.474 -0.043,-2.676 -0.031,-5.121 -0.03,-7.776 0.216,-1.1 0.196,-2.015 0.17,-3.127 0.364,-7.905 0.453,-15.623 0.488,-23.343 0.002,-0.477 0.024,-0.954 0.077,-1.647 0.107,-0.472 0.186,-0.726 0.137,-1.135 -0.008,-0.95 0.01,-1.768 0.044,-2.79 0.09,-1.215 0.02,-2.23 0.096,-3.409 0.015,-0.377 0.013,-0.585 0.049,-0.944 0.495,-1.457 0.259,-2.82 0.225,-4.364 -0.025,-1.969 -0.017,-3.739 0.006,-5.729 0.155,-2.159 0.896,-4.132 -0.339,-6.107 -1.827,0.322 -1.688,2.088 -1.667,3.48 0.05,3.366 -0.343,6.685 -0.467,10.028 -0.015,0.402 -0.047,0.795 -0.338,1.307 -0.403,1.79 -0.145,3.435 -0.265,5.284 -0.748,2.289 -0.214,4.463 -0.366,6.766 -0.008,0.785 0.371,1.285 0.251,2.064 -0.083,0.797 -0.127,1.429 -0.141,2.249 0.572,1.07 0.555,1.945 -0.034,2.977 -0.123,1.598 -0.079,3.033 -0.058,4.642 C -0.193,-1.03 0.028,-0.637 0,0"
             style="fill:#48424c;fill-opacity:1;fill-rule:nonzero;stroke:none"
             id="path222" />
        </g>
        <g
           id="g224"
           transform="translate(34.8591,843.7473)">
          <path
             d="M 0,0 C -0.291,2.411 0.544,4.109 2.06,5.363 3.25,6.347 4.475,7.255 5.995,7.807 6.613,6.378 5.235,6.307 4.932,5.265 5.535,4.964 6.02,5.41 6.499,5.642 c 2.182,1.055 4.419,1.874 6.776,1.853 1.652,-0.015 2.947,1.783 4.788,1.175 0.797,-0.664 0.806,-1.647 1.088,-2.485 0.346,-1.028 0.675,-0.603 0.902,0.328 0.032,0.762 0.04,1.357 0.144,2.133 0.078,0.303 0.121,0.42 0.267,0.687 0.584,0.534 1.115,0.54 1.816,0.42 0.469,-0.154 0.758,-0.326 1.174,-0.621 1.076,-1.11 2.283,-2.177 1.651,-3.88 C 24.456,3.505 23.363,1.979 21.561,1.955 19.951,1.934 18.451,1.682 17.241,0.187 16.791,-0.368 16.13,-0.498 15.597,-0.126 13.393,1.412 10.956,-0.038 8.706,0.767 8.629,0.794 8.545,0.769 8.515,0.74 5.869,-1.799 2.983,-0.652 0,0"
             style="fill:#48424c;fill-opacity:1;fill-rule:nonzero;stroke:none"
             id="path226" />
        </g>
        <g
           id="g228"
           transform="translate(66.6351,964.511)">
          <path
             d="m 0,0 c 0.168,-2.689 0.228,-5.241 0.319,-8.011 0.394,-1.705 0.258,-3.213 0.099,-4.935 -0.268,-3.727 -0.181,-7.242 -0.121,-10.978 0.113,-0.446 0.156,-0.685 0.119,-1.115 0.03,-2.182 0.115,-4.184 0.153,-6.187 0.123,-6.498 0.226,-12.997 0.341,-19.496 0.012,-0.641 0.052,-1.282 0.11,-2.144 0.412,-0.968 0.322,-1.792 0.257,-2.805 -0.553,-1.17 -0.668,-2.229 -0.468,-3.349 0.195,-1.093 0.081,-2.034 -0.972,-2.673 -0.516,-0.118 -0.85,-0.048 -1.29,0.316 -0.558,3.461 -0.232,6.791 -0.292,10.315 0.106,0.588 0.247,0.949 0.355,1.517 0.262,1.77 0.785,3.309 0.521,5.137 -0.14,0.491 -0.239,0.816 -0.423,1.293 -0.268,0.728 -0.418,1.311 -0.384,2.129 0.192,1.843 0.288,3.497 -0.114,5.334 -0.443,3.277 -0.46,6.375 -0.259,9.681 0.397,3.002 0.438,5.8 -0.084,8.792 -0.268,1.606 -0.242,3.015 -0.101,4.631 0.47,2.151 0.364,4.121 0.126,6.277 -0.328,1.054 -0.512,1.941 -0.358,3.073 0.399,0.853 0.532,1.596 0.631,2.377 C -1.666,0.524 -1.08,0.901 0,0"
             style="fill:#48424c;fill-opacity:1;fill-rule:nonzero;stroke:none"
             id="path230" />
        </g>
        <g
           id="g232"
           transform="translate(48.5666,987.5651)">
          <path
             d="M 0,0 C -0.278,1.428 0.471,2.2 1.3,2.884 1.621,3.149 1.733,3.425 1.593,3.87 1.249,4.967 1.347,6.003 1.656,7.131 c 0.72,2.632 0.535,5.386 0.421,8.098 -0.075,1.784 0.02,3.425 0.619,5.049 0.29,0.785 0.289,1.555 0.047,2.329 -0.209,0.672 -0.087,1.12 0.299,1.709 0.641,0.979 1.368,1.384 2.356,1.308 0.514,-0.04 1.039,0.003 1.551,0.084 1,0.158 0.994,0.179 1.127,-1.117 0.041,-0.394 0.109,-0.784 0.263,-1.312 0.123,-0.652 0.146,-1.168 0.14,-1.875 -0.776,-0.868 -1.217,-0.366 -1.6,0.41 -0.195,0.394 -0.325,1.02 -0.806,0.87 C 5.546,22.521 5.517,21.845 5.482,21.295 5.365,19.45 5.552,17.588 5.399,15.756 5.202,13.403 5.082,11.252 6.578,9.269 7.433,8.135 6.955,6.475 6.477,5.05 7.6,5.979 6.904,7.492 7.368,8.781 8.194,9.244 8.194,9.244 8.71,7.485 8.821,7.254 8.866,7.161 8.949,6.915 8.966,6.395 8.945,6.029 8.887,5.485 8.797,5.227 8.744,5.147 8.769,4.945 8.851,4.152 8.857,3.481 8.871,2.608 8.799,1.856 8.486,1.51 8.042,1.135 7.279,0.903 6.638,0.706 5.854,0.496 5.488,0.227 5.224,0.115 4.786,0.187 4.482,0.36 4.367,0.541 4.267,0.748 4.028,1.247 4.217,2.21 3.504,2.177 2.776,2.143 2.735,1.257 2.536,0.423 2.444,0.167 2.396,0.07 2.233,-0.119 1.482,0.081 0.818,-0.047 0,0"
             style="fill:#48424c;fill-opacity:1;fill-rule:nonzero;stroke:none"
             id="path234" />
        </g>
        <g
           id="g236"
           transform="translate(61.0643,1007.5202)">
          <path
             d="m 0,0 c -0.354,-0.236 -0.606,-0.313 -0.859,-0.379 -1.181,-0.307 -1.901,0.291 -1.97,1.752 -0.063,1.353 -0.02,2.714 -0.033,4.071 -0.011,1.192 0.059,2.386 -0.282,3.552 -0.126,0.432 -0.09,0.948 -0.08,1.424 0.049,2.309 -0.164,4.623 0.193,7.081 0.725,2.062 0.241,4.057 0.401,6.004 0.107,1.297 0.041,2.651 1.459,2.903 1.318,0.234 2.278,-0.323 2.788,-1.913 0.312,-0.974 0.75,-2 0.422,-3.002 C 0.738,17.532 1.847,13.43 1.514,9.405 1.311,6.945 1.189,4.5 0.576,1.921 0.444,1.179 0.36,0.636 0,0"
             style="fill:#48424c;fill-opacity:1;fill-rule:nonzero;stroke:none"
             id="path238" />
        </g>
        <g
           id="g240"
           transform="translate(34.7365,843.681)">
          <path
             d="m 0,0 c 0.231,0.266 0.536,0.291 0.705,0.491 0.607,0.718 1.129,0.626 1.654,-0.11 0.427,-0.598 0.999,-0.635 1.602,-0.675 1.344,-0.088 2.597,0.076 3.587,1.376 0.505,0.664 1.183,0.703 1.818,0.464 1.412,-0.534 2.801,-0.558 4.209,-0.013 0.527,0.204 1.025,0.091 1.455,-0.381 0.241,-0.265 0.484,-0.541 0.759,-0.744 0.477,-0.352 0.956,-0.198 1.347,0.371 0.713,1.035 1.811,1.779 2.769,1.821 0.78,0.035 1.561,0.016 2.342,0.027 0.491,0.006 0.899,0.238 1.128,0.784 0.251,0.599 0.679,0.932 1.091,1.329 0.661,0.635 0.738,1.523 0.246,2.309 -0.355,0.569 -0.765,1.087 -1.196,1.788 1.129,1.116 2.532,0.525 3.059,-1.148 C 27.492,4.774 26.789,2.601 24.37,1.622 21.718,0.548 18.996,-0.263 16.379,-2.03 14.836,-2.629 13.403,-2.352 11.837,-2.41 10.551,-2.394 9.412,-2.248 8.188,-2.432 9.124,-3.078 10.296,-2.695 10.95,-3.968 10.206,-4.973 9.296,-4.67 8.526,-4.529 6.629,-4.183 4.695,-4.05 2.87,-3.159 1.615,-2.545 0.615,-1.667 0,0"
             style="fill:#48424c;fill-opacity:1;fill-rule:nonzero;stroke:none"
             id="path242" />
        </g>
        <g
           id="g244"
           transform="translate(67.9014,875.5753)">
          <path
             d="M 0,0 C 1.405,0.135 2.682,0.125 3.959,0.097 4.462,0.086 4.988,0.208 5.535,-0.383 5.62,-0.674 5.608,-0.792 5.484,-1.023 5.199,-1.24 5.019,-1.321 4.697,-1.421 4.306,-1.52 4.048,-1.562 3.669,-1.937 5.331,-2.843 6.346,-4.278 6.253,-6.567 6.178,-8.393 5.666,-9.672 4.069,-10.296 c -2.014,-0.787 -4.284,-0.516 -6.076,-2.236 -0.352,-0.338 -0.786,-0.546 -1.148,-1.166 -0.258,-0.313 -0.434,-0.452 -0.784,-0.625 -1.982,-0.385 -3.815,-0.185 -5.817,-0.211 -0.754,0.013 -1.336,0.006 -2.055,0.329 -0.243,0.186 -0.329,0.282 -0.499,0.562 -0.262,1.399 -0.573,2.596 -0.321,4.033 1.27,1.135 2.627,0.878 3.876,0.69 3.079,-0.464 6.092,0.095 9.123,0.519 0.584,0.081 1.171,0.173 1.671,0.593 0.597,0.502 1.212,1.034 1.176,2.054 -0.036,1.044 -0.683,1.478 -1.367,1.822 -0.6,0.301 -1.252,0.454 -1.886,1.122 C -0.467,-1.815 -0.475,-0.982 0,0"
             style="fill:#48424c;fill-opacity:1;fill-rule:nonzero;stroke:none"
             id="path246" />
        </g>
        <g
           id="g248"
           transform="translate(53.0361,988.0977)">
          <path
             d="M 0,0 C 0.411,-0.083 0.687,-0.056 1.103,-0.04 0.983,-0.818 1.101,-1.624 1.085,-2.416 1.048,-4.246 1.02,-6.076 0.908,-8.073 c -0.677,-0.199 -0.6,0.365 -0.603,0.813 -0.303,-8.204 -0.59,-16.406 -0.47,-24.62 0.021,-1.487 0.13,-2.875 1.107,-4.157 0.2,-0.432 0.412,-0.692 0.423,-0.963 0.075,-1.877 0.239,-3.755 -0.008,-5.801 -0.375,-0.021 -0.654,0.179 -0.954,0.248 -0.336,0.078 -0.612,-0.12 -0.692,-0.57 -0.174,-0.974 0.114,-2.004 -0.355,-3.081 -1.17,0.156 -0.821,1.226 -0.835,1.989 -0.051,2.841 -0.022,5.684 -0.018,8.749 -0.015,0.879 -0.032,1.534 -0.066,2.386 -0.313,0.765 -0.337,1.408 -0.324,2.052 0.196,9.537 -0.256,19.061 -0.386,28.823 -0.022,0.538 -0.048,0.845 -0.077,1.306 -0.002,0.154 0.03,0.315 0.051,0.393 C -1.627,0.139 -0.905,0.272 0,0"
             style="fill:#48424c;fill-opacity:1;fill-rule:nonzero;stroke:none"
             id="path250" />
        </g>
        <g
           id="g252"
           transform="translate(61.1988,1009.0482)">
          <path
             d="m 0,0 c 0.42,1.879 0.431,3.826 0.87,5.656 0.036,0.15 0.07,0.335 0.032,0.474 -0.495,1.813 0.104,3.612 0.037,5.419 -0.045,1.193 0.016,2.377 -0.299,3.558 -0.244,0.914 -0.158,1.888 0.219,2.799 0.204,0.491 0.342,1.033 0.452,1.569 0.187,0.91 0.514,1.858 -0.224,2.66 -0.045,0.049 -0.064,0.141 -0.081,0.217 -0.136,0.598 -0.033,1.34 -0.575,1.703 -0.597,0.399 -1.265,0.301 -1.909,0.255 -0.455,-0.033 -0.701,-0.41 -0.709,-0.954 -0.022,-1.44 -0.015,-2.881 -0.028,-4.321 -0.006,-0.72 -0.016,-1.44 -0.049,-2.158 -0.016,-0.348 -0.215,-0.56 -0.635,-0.717 -0.375,1.266 -0.491,2.574 -0.434,4.105 -0.103,1.057 -0.038,1.917 -0.075,2.933 -0.008,0.522 -0.01,0.884 -0.013,1.426 0.024,0.466 0.105,0.724 0.336,1.045 0.596,0.479 1.16,0.553 1.747,0.535 0.896,-0.028 1.794,-0.029 2.868,-0.058 2.251,0.175 4.186,-0.772 6.332,-1.185 C 8.02,24.516 8.041,24.133 8.023,23.565 7.37,22.651 6.589,22.733 5.673,22.7 5.311,22.688 5.106,22.678 4.755,22.639 3.882,22.252 3.651,21.62 3.88,20.695 4.071,19.926 4.298,19.079 4.095,18.336 3.017,14.379 3.005,10.199 2.312,6.169 2.11,4.989 1.883,3.861 1.974,2.632 2.09,1.049 1.546,0.002 0,0"
             style="fill:#48424c;fill-opacity:1;fill-rule:nonzero;stroke:none"
             id="path254" />
        </g>
        <g
           id="g256"
           transform="translate(73.5505,874.5317)">
          <path
             d="M 0,0 C 0.044,0.168 0.05,0.339 0.017,0.413 1.689,0.668 3.392,0.738 5.243,0.283 5.75,0.207 6.107,0.217 6.541,-0.086 6.817,-0.204 6.975,-0.25 7.251,-0.338 7.597,-0.329 7.808,-0.381 8.073,-0.652 8.296,-0.83 8.444,-0.908 8.688,-1.074 8.975,-1.204 9.117,-1.326 9.241,-1.704 9.433,-2.835 8.871,-3.766 9.713,-4.857 10.399,-5.746 9.121,-6.443 8.43,-7.175 8.096,-7.442 7.861,-7.596 7.53,-7.87 5.634,-9.869 3.961,-12.027 1.291,-11.849 c -0.422,0.028 -0.577,-0.57 -0.943,-0.999 -0.594,-0.24 -1.07,-0.399 -1.694,-0.582 -0.399,-0.051 -0.601,-0.251 -0.964,-0.335 -0.392,-0.09 -0.661,-0.163 -1.067,-0.218 -0.744,0.453 -1.155,1.118 -1.553,2.004 0.488,1.683 1.74,1.562 2.71,2.031 0.652,0.316 1.362,0.442 2.154,0.825 1.359,0.803 2.887,0.818 3.609,2.707 C 4.7,-3.391 4.54,-2.912 1.641,-2.282 1.122,-2.191 0.768,-2.038 0.353,-1.627 0.001,-1.109 -0.072,-0.656 0,0"
             style="fill:#48424c;fill-opacity:1;fill-rule:nonzero;stroke:none"
             id="path258" />
        </g>
        <g
           id="g260"
           transform="translate(61.0219,1008.9581)">
          <path
             d="M 0,0 C 0.778,0.2 1.145,0.953 1.643,1.435 1.851,1.636 1.903,2.018 1.781,2.321 1.268,3.596 1.53,4.81 1.911,6.036 2.12,6.708 2.295,7.399 2.45,8.093 c 0.085,0.379 0.243,0.878 0.12,1.159 -0.702,1.607 0.135,3.136 0.092,4.702 -0.027,0.974 0.705,1.627 0.844,2.641 0.218,1.597 0.658,3.111 -0.279,4.579 -0.091,0.142 -0.092,0.535 0.001,0.661 0.38,0.521 0.457,1.373 1.256,1.587 1.136,-3.257 0.717,-6.608 0.409,-9.9 C 4.688,11.328 4.523,9.244 5.419,7.236 5.811,6.356 5.749,5.398 5.812,4.44 5.866,3.622 6.064,2.53 7.129,3.688 7.265,4.84 6.87,5.808 7.197,6.951 9.164,7.4 8.193,5.361 8.761,4.344 8.873,3.661 8.902,3.143 8.919,2.429 8.81,1.476 8.667,0.739 8.199,-0.006 7.467,-0.736 6.665,-0.726 5.799,-1.034 5.477,-1.406 5.206,-1.474 4.771,-1.384 4.49,-1.169 4.388,-0.973 4.303,-0.756 4.098,-0.23 4.261,0.701 3.556,0.693 2.79,0.684 2.803,-0.223 2.63,-1.062 2.55,-1.331 2.507,-1.434 2.363,-1.659 2.081,-1.868 1.895,-1.881 1.596,-1.72 1.074,-1.605 0.662,-1.601 0.095,-1.6 -0.054,-1.125 -0.048,-0.648 0,0"
             style="fill:#48424c;fill-opacity:1;fill-rule:nonzero;stroke:none"
             id="path262" />
        </g>
        <g
           id="g264"
           transform="translate(68.0043,875.9508)">
          <path
             d="m 0,0 c 0.006,-1.063 -0.013,-1.904 0.009,-2.949 0.319,-0.637 0.383,-1.13 0.269,-1.845 -0.474,-0.902 -0.564,-1.802 -0.999,-2.711 -0.313,-0.228 -0.518,-0.243 -0.862,-0.076 -0.949,1.604 -0.13,3.477 -0.943,5.173 -0.172,0.573 -0.18,0.966 0.01,1.535 0.097,1.942 0.116,3.707 0.103,5.689 -0.649,2.478 -0.269,4.794 -0.227,7.312 0.071,0.715 0.092,1.208 0.143,1.882 0.151,0.759 0.162,1.338 0.023,2.061 -0.089,0.34 -0.143,0.54 -0.24,0.891 -0.766,3.403 -0.48,6.684 -0.062,10.111 0.415,0.156 0.679,0.164 1.076,0.172 0.997,-2.217 0.96,-4.617 1.074,-6.986 0.114,-2.381 -0.264,-4.795 0.383,-7.338 0.118,-0.507 0.206,-0.821 0.207,-1.136 C -0.025,7.931 -0.027,4.077 0,0"
             style="fill:#48424c;fill-opacity:1;fill-rule:nonzero;stroke:none"
             id="path266" />
        </g>
        <g
           id="g268"
           transform="translate(56.3522,996.842)">
          <path
             d="m 0,0 c -0.108,-1.597 -0.104,-3.04 -0.142,-4.481 -0.018,-0.695 -0.424,-1.028 -0.926,-0.787 -0.359,0.173 -0.718,0.387 -1.027,0.666 -0.534,0.481 -0.389,1.156 0.308,1.465 0.179,0.079 0.417,0.064 0.429,0.351 0.05,1.19 0.235,2.425 -0.685,3.325 -0.253,0.248 -0.449,0.58 -0.686,0.854 -0.47,0.544 -0.678,1.25 -0.507,1.969 0.657,2.758 0.266,5.571 0.348,8.356 0.03,1.004 0.183,1.902 0.708,2.671 0.241,0.353 0.567,0.394 0.874,0.15 0.524,-0.417 0.791,-1.025 0.839,-1.803 0.037,-0.609 0.414,-0.748 0.982,-0.786 0.189,-0.363 0.23,-0.712 0.308,-1.231 C 0.934,10.318 0.978,10.081 0.98,9.651 0.96,9.281 0.952,9.094 0.993,8.778 1.521,6.173 1.997,3.696 0.569,1.264 -0.281,1.75 0.381,2.774 -0.046,3.433 0.092,2.333 0.216,1.254 0,0"
             style="fill:#48424c;fill-opacity:1;fill-rule:nonzero;stroke:none"
             id="path270" />
        </g>
        <g
           id="g272"
           transform="translate(62.519,1007.1454)">
          <path
             d="m 0,0 c 0.158,0.183 0.327,0.162 0.62,0.09 0.964,-0.8 1.117,-1.946 1.083,-3.06 -0.128,-4.255 0.526,-8.468 0.404,-12.94 0.072,-1.982 0.015,-3.743 0.017,-5.721 -0.033,-1.093 -0.038,-1.967 -0.022,-3.06 0.056,-1.252 0.045,-2.284 0.008,-3.541 0,-2.842 0.006,-5.439 0.344,-8.055 0.386,-2.988 -0.034,-6.018 -0.266,-9.244 -0.183,-1.036 -0.028,-1.831 0.069,-2.806 0.167,-2.129 0.005,-4.092 0.128,-6.243 0.027,-1.657 0.032,-3.121 0.047,-4.803 -0.141,-0.776 -0.036,-1.402 -0.404,-2.045 -0.448,-0.027 -0.746,0.177 -0.784,0.623 -0.053,0.634 -0.046,1.278 -0.047,1.918 -0.009,4.724 -0.001,9.448 -0.027,14.172 -0.01,1.911 0.144,3.832 -0.318,5.72 -0.145,0.59 -0.047,1.273 -0.048,1.913 -0.008,5.925 -0.009,11.851 -0.022,17.776 -0.003,1.194 0.057,2.385 -0.273,3.563 -0.163,0.58 -0.09,1.268 -0.093,1.907 -0.015,3.202 -0.041,6.405 -0.018,9.608 C 0.407,-2.859 0.317,-1.52 0,0"
             style="fill:#48424c;fill-opacity:1;fill-rule:nonzero;stroke:none"
             id="path274" />
        </g>
        <g
           id="g276"
           transform="translate(55.5545,862.2918)">
          <path
             d="M 0,0 C 0.072,-0.227 0.108,-0.299 0.193,-0.481 0.671,-1.013 0.731,-1.605 0.734,-2.393 0.711,-2.676 0.695,-2.787 0.638,-3.055 0.413,-3.667 0.119,-4.08 0.273,-4.809 0.379,-5.541 0.398,-6.117 0.419,-6.879 0.433,-7.702 0.425,-8.337 0.152,-9.114 0.05,-9.362 0.014,-9.435 -0.082,-9.611 c -0.269,-0.374 -0.528,-0.478 -0.961,-0.407 -0.693,0.49 -0.82,1.368 -1.419,1.989 -0.102,0.246 -0.122,0.357 -0.044,0.586 0.099,1.423 0.101,2.728 0.078,4.247 -0.78,1.324 -0.548,2.663 -0.59,4.143 -0.001,1.286 0.014,2.364 0.035,3.635 0.021,0.443 0.047,0.69 0.111,1.11 0.137,0.715 0.305,1.25 0.107,1.982 -0.118,0.829 -0.071,1.496 -0.007,2.324 0.227,0.657 0.372,1.164 0.19,1.878 -0.302,3.022 -0.239,5.9 -0.157,8.992 1.012,0.007 1.075,-0.02 1.082,-0.779 0.034,-3.514 0.614,-6.994 0.402,-10.526 C -1.327,8.358 -1.17,7.179 -0.284,6.21 -0.073,6.087 -0.004,6.01 0.117,5.771 0.189,5.38 0.18,5.154 0.077,4.777 -0.441,4.153 -0.756,3.645 -0.41,2.858 -0.041,2.016 -0.151,1.058 0,0"
             style="fill:#48424c;fill-opacity:1;fill-rule:nonzero;stroke:none"
             id="path278" />
        </g>
        <g
           id="g280"
           transform="translate(64.2425,978.7814)">
          <path
             d="m 0,0 c -0.072,1.118 -0.065,2.045 -0.042,3.169 0.37,1.122 0.312,2.075 0.111,3.19 -0.068,1.858 -0.097,3.562 -0.116,5.479 0.707,2.783 0.284,5.467 0.552,8.071 0.151,1.464 -0.201,3.912 1.19,3.994 0.908,0.053 0.325,-2.485 0.464,-3.85 C 2.247,19.186 2.18,18.293 2.164,17.197 2.365,9.247 2.365,1.509 2.243,-6.457 0.803,-7.427 0.34,-6.469 0.237,-4.943 0.13,-3.362 0.369,-1.763 0,0"
             style="fill:#48424c;fill-opacity:1;fill-rule:nonzero;stroke:none"
             id="path282" />
        </g>
        <g
           id="g284"
           transform="translate(54.0902,952.0997)">
          <path
             d="m 0,0 c -1.353,0.139 -1.692,0.485 -1.735,1.869 -0.068,2.163 -0.07,4.33 -0.079,6.495 -0.011,2.807 -0.007,5.613 0.003,8.42 0.005,1.437 -0.086,2.881 0.337,4.281 0.13,0.431 0.1,0.954 0.083,1.431 -0.094,2.724 0.144,5.414 0.543,8.277 0.5,-0.938 0.114,-1.936 0.524,-2.88 0.191,-3.541 0.284,-6.948 0.367,-10.565 0.282,-4.87 0.15,-9.532 0,-14.399 C -0.002,1.885 0.015,1.046 0,0"
             style="fill:#48424c;fill-opacity:1;fill-rule:nonzero;stroke:none"
             id="path286" />
        </g>
        <g
           id="g288"
           transform="translate(52.9709,854.97)">
          <path
             d="M 0,0 C 0.227,-0.06 0.279,-0.118 0.389,-0.283 0.58,-1.091 0.706,-1.79 0.329,-2.659 -0.67,-2.906 -1.551,-2.827 -2.377,-3.582 -2.918,-4.077 -3.672,-4.319 -4.41,-4.311 c -2.717,0.027 -5.259,-0.852 -7.711,-2.223 -0.412,-0.229 -0.86,-0.363 -1.299,-0.511 -0.281,-0.094 -0.519,0.082 -0.678,0.345 -0.227,0.379 -0.128,0.74 0.101,1.082 0.3,0.446 0.697,0.71 1.102,0.975 0.338,0.221 0.73,0.383 0.891,1.07 2.032,0.75 3.943,1.74 5.988,2.148 1.013,0.202 1.91,0.864 2.963,1.063 C -2.092,-0.18 -1.139,-0.067 0,0"
             style="fill:#48424c;fill-opacity:1;fill-rule:nonzero;stroke:none"
             id="path290" />
        </g>
        <g
           id="g292"
           transform="translate(68.5024,1016.0793)">
          <path
             d="m 0,0 c 0.043,-1.097 0.15,-2.071 0.254,-3.234 -1.097,-1.003 -1.577,-0.263 -1.741,0.95 -0.219,1.615 0.015,3.395 -1.308,4.539 -0.218,0.19 -0.137,0.592 -0.042,0.895 0.58,1.848 0.324,3.779 0.358,5.676 0.053,3.067 0.16,3.257 2.822,3.879 C 0.588,12.71 0.686,12.692 0.906,12.569 1.06,11.817 1.092,11.171 1.14,10.331 1.703,8.353 1.36,6.506 1.374,4.478 1.367,3.131 1.39,1.993 1.381,0.646 1.007,-0.2 0.42,0.675 0,0"
             style="fill:#48424c;fill-opacity:1;fill-rule:nonzero;stroke:none"
             id="path294" />
        </g>
        <g
           id="g296"
           transform="translate(66.4784,995.9337)">
          <path
             d="M 0,0 C -0.494,0.35 -0.376,1.015 -0.392,1.636 -0.435,3.287 -0.465,4.939 -0.624,6.598 -0.94,4.755 -1.327,2.949 -1.267,1.041 c 0.058,-1.819 0.101,-3.657 -0.43,-5.411 -0.064,-0.212 -0.213,-0.385 -0.45,-0.654 -0.359,0.7 -0.249,1.508 -0.267,2.304 -0.029,1.356 -0.101,2.695 -0.25,4.051 -0.217,1.97 -0.142,3.994 -0.14,5.994 10e-4,1.21 -0.052,2.396 -0.398,3.735 -0.015,0.191 0.002,0.332 0.012,0.402 0.638,0.64 1.299,1.031 2.229,0.529 0.387,-0.093 0.646,-0.067 1.034,-0.038 C 0.177,8.907 0.154,5.859 0.125,2.81 0.117,1.93 0.094,1.049 0,0"
             style="fill:#48424c;fill-opacity:1;fill-rule:nonzero;stroke:none"
             id="path298" />
        </g>
        <g
           id="g300"
           transform="translate(51.4232,952.7144)">
          <path
             d="m 0,0 c 0.596,-0.327 0.505,-0.995 0.509,-1.615 0.015,-2.379 0.008,-4.758 0.028,-7.136 0.005,-0.629 0.072,-1.258 0.212,-2.04 0.104,-0.981 0.107,-1.809 0.117,-2.844 0.046,-1.219 0.006,-2.232 0.05,-3.413 0.023,-6.344 0.063,-12.52 0.037,-18.695 -0.009,-1.927 0.44,-3.82 0.142,-5.959 -0.565,-0.094 -0.93,0.168 -0.934,0.87 -0.003,0.56 -0.013,1.119 -0.014,1.679 -0.007,4.477 -0.002,8.954 -0.026,13.431 -0.009,1.829 0.159,3.676 -0.326,5.469 -0.079,0.29 -0.034,0.634 -0.035,0.954 -0.01,5.996 -0.02,11.992 -0.019,17.988 0,0.39 0.092,0.781 0.259,1.311"
             style="fill:#48424c;fill-opacity:1;fill-rule:nonzero;stroke:none"
             id="path302" />
        </g>
        <g
           id="g304"
           transform="translate(55.7792,867.9044)">
          <path
             d="m 0,0 c -0.184,0.138 -0.228,0.215 -0.32,0.422 0.158,1.666 0.364,3.198 0.062,4.758 -0.055,0.283 0.05,0.612 0.174,1.056 0.57,-0.1 0.467,-0.862 0.839,-1.192 1.859,0.5 3.691,0.96 5.507,1.502 0.512,0.153 1.013,0.282 1.533,0.256 0.602,-0.03 1.158,0.14 1.84,0.511 C 9.858,6.999 9.928,6.647 10.038,6.119 10.253,5.267 10.231,4.625 9.746,3.911 7.658,2.505 5.519,1.982 3.326,1.734 2.087,1.593 0.975,1.147 0,0"
             style="fill:#48424c;fill-opacity:1;fill-rule:nonzero;stroke:none"
             id="path306" />
        </g>
        <g
           id="g308"
           transform="translate(56.189,840.46)">
          <path
             d="m 0,0 c 0.049,-3.231 0.03,-6.273 0.019,-9.316 -0.003,-0.727 -0.011,-1.425 -0.469,-2.009 -0.553,-0.703 -1.145,-0.759 -1.687,-0.077 -0.676,0.849 -0.933,1.87 -0.923,3.055 0.022,2.401 -0.009,4.804 -0.025,7.448 C -2.253,0.547 -1.169,0.421 0,0"
             style="fill:#48424c;fill-opacity:1;fill-rule:nonzero;stroke:none"
             id="path310" />
        </g>
        <g
           id="g312"
           transform="translate(56.4036,840.3177)">
          <path
             d="m 0,0 c -1.117,-0.15 -2.085,-0.254 -3.18,-0.437 -2.106,-0.307 -4.08,-0.164 -6.221,0.04 -0.885,0.263 -1.998,0.228 -0.922,1.795 1.654,0.121 3.161,0.212 4.841,0.348 2.425,1.07 4.74,1.71 7.288,1.757 C 2.642,1.837 4.073,3.173 5.048,2.193 5.179,1.98 5.213,1.88 5.184,1.638 3.496,0.844 1.849,0.308 0,0"
             style="fill:#48424c;fill-opacity:1;fill-rule:nonzero;stroke:none"
             id="path314" />
        </g>
        <g
           id="g316"
           transform="translate(61.6756,841.7761)">
          <path
             d="M 0,0 C -0.151,0.038 -0.209,0.12 -0.21,0.174 0.074,1.406 0.979,1.507 1.715,1.88 2.471,2.262 3.3,2.458 3.955,3.401 4.111,3.591 4.177,3.661 4.353,3.813 4.915,4.134 5.369,4.37 5.584,5.168 5.757,5.599 5.916,5.85 6.217,6.167 8.573,7.5 8.596,7.591 7.403,10.96 7.083,11.237 6.872,11.427 6.616,11.797 6.526,12.042 6.508,12.149 6.598,12.543 7.416,12.442 8.148,12.101 8.832,11.651 9.768,11.037 10.293,9.897 10.32,8.72 10.352,7.384 10.042,5.909 9.055,5.111 7.389,3.764 5.871,2.081 3.831,1.51 2.568,1.157 1.451,0.22 0,0"
             style="fill:#48424c;fill-opacity:1;fill-rule:nonzero;stroke:none"
             id="path318" />
        </g>
        <g
           id="g320"
           transform="translate(52.93,867.6154)">
          <path
             d="m 0,0 c 0.113,-1.258 0.145,-2.39 0.143,-3.731 -1.979,-1.209 -3.788,-0.523 -5.695,0.577 -0.142,2.011 0.403,3.469 1.853,4.377 0.966,0.604 1.732,1.649 2.959,2.026 C -0.233,2.266 -1.547,0.848 0,0"
             style="fill:#48424c;fill-opacity:1;fill-rule:nonzero;stroke:none"
             id="path322" />
        </g>
        <g
           id="g324"
           transform="translate(50.6494,985.9844)">
          <path
             d="m 0,0 c 0.469,-0.19 0.501,-0.663 0.502,-1.15 0.004,-1.197 -0.006,-2.395 0.017,-3.591 0.024,-1.272 -0.012,-2.538 0.27,-3.8 0.167,-0.749 0.105,-1.585 0.105,-2.381 0,-6.465 -0.01,-12.93 -0.052,-19.622 -0.358,-0.091 -0.635,0.136 -0.664,0.58 -0.041,0.635 -0.037,1.275 -0.038,1.913 -0.007,4.307 0.002,8.615 -0.021,12.922 -0.01,1.823 0.078,3.64 -0.308,5.46 -0.222,1.049 -0.092,2.222 -0.066,3.337 C -0.209,-4.268 -0.43,-2.194 0,0"
             style="fill:#48424c;fill-opacity:1;fill-rule:nonzero;stroke:none"
             id="path326" />
        </g>
        <g
           id="g328"
           transform="translate(64.1172,978.7463)">
          <path
             d="m 0,0 c 0.555,0.026 0.693,-0.449 0.696,-1.049 0.008,-1.33 0.027,-2.66 0.046,-3.99 0.015,-1.03 0.414,-1.606 1.448,-1.612 0.199,-0.478 0.233,-0.957 0.287,-1.614 0.075,-0.441 0.17,-0.692 0.177,-1.104 0.019,-1.614 0.044,-3.093 0.02,-4.788 -1.475,0.039 -1.479,0.04 -1.563,-1.756 -0.022,-0.462 -0.013,-0.925 -0.456,-1.348 -0.342,0.512 -0.306,1.156 -0.31,1.791 -0.008,1.593 0,3.186 -0.013,4.779 C 0.319,-9.105 0.273,-7.537 0.073,-5.947 -0.161,-4.077 -0.023,-2.136 0,0"
             style="fill:#48424c;fill-opacity:1;fill-rule:nonzero;stroke:none"
             id="path330" />
        </g>
        <g
           id="g332"
           transform="translate(67.8933,888.8502)">
          <path
             d="m 0,0 c -0.873,0.187 -1.029,1.058 -1.072,1.942 -0.05,1.038 0.007,2.083 -0.013,3.124 -0.039,2.073 0.117,4.151 -0.323,6.21 -0.176,0.827 -0.043,1.753 -0.05,2.851 0.581,0.575 0.897,1.137 0.635,1.913 -0.305,0.9 -0.258,1.813 -0.241,2.738 0.006,0.334 0.138,0.582 0.491,0.829 C 0.508,18.686 -0.074,17.355 0.089,15.99 0.1,14.809 0.113,13.835 0.151,12.655 0.786,8.883 0.453,5.292 0.286,1.492 0.159,0.908 0.11,0.54 0,0"
             style="fill:#48424c;fill-opacity:1;fill-rule:nonzero;stroke:none"
             id="path334" />
        </g>
        <g
           id="g336"
           transform="translate(47.2525,864.3954)">
          <path
             d="M 0,0 C 0.835,0.223 1.669,0.351 2.367,-0.458 2.523,-0.638 2.918,-0.762 3.073,-0.647 3.909,-0.027 4.69,-0.65 5.638,-0.717 5.835,-2.032 5.884,-3.344 5.892,-4.87 4.927,-4.768 4.01,-4.423 3.08,-4.144 2.033,-3.831 1.252,-3.06 0.529,-2.127 0.09,-1.559 -0.05,-0.921 0,0"
             style="fill:#48424c;fill-opacity:1;fill-rule:nonzero;stroke:none"
             id="path338" />
        </g>
        <g
           id="g340"
           transform="translate(65.3452,903.3959)">
          <path
             d="m 0,0 c -0.228,-2.103 -0.04,-3.992 -0.046,-5.876 -0.004,-1.338 0.023,-2.676 -0.008,-4.236 -0.387,-0.159 -0.682,0.033 -0.74,0.471 -0.062,0.466 -0.051,0.95 -0.051,1.426 -0.007,5.726 -0.012,11.452 -0.012,17.178 0,0.552 -0.067,1.117 0.264,1.782 0.185,0.2 0.254,0.259 0.429,0.232 C -0.051,7.336 -0.042,3.78 0,0"
             style="fill:#48424c;fill-opacity:1;fill-rule:nonzero;stroke:none"
             id="path342" />
        </g>
        <g
           id="g344"
           transform="translate(65.3034,923.6309)">
          <path
             d="m 0,0 c 0.092,-0.721 0.158,-1.256 0.224,-1.953 -0.043,-0.504 -0.213,-0.703 -0.581,-0.726 -0.193,0.197 -0.34,0.309 -0.35,0.437 -0.148,1.9 -0.545,3.755 -0.509,5.692 0.058,3.122 10e-4,6.248 0.008,9.372 10e-4,0.713 -0.109,1.444 0.254,2.277 0.186,0.202 0.256,0.262 0.432,0.235 C -0.436,12.003 -0.307,8.766 -0.12,5.322 0.02,3.473 -0.128,1.826 0,0"
             style="fill:#48424c;fill-opacity:1;fill-rule:nonzero;stroke:none"
             id="path346" />
        </g>
        <g
           id="g348"
           transform="translate(68.3051,860.2764)">
          <path
             d="m 0,0 c 0.093,-1.861 0.084,-3.555 0.076,-5.459 0,-0.21 -0.013,-0.385 -0.019,-0.472 -0.518,-0.377 -1.013,-0.083 -1.672,0.001 -0.478,0.098 -0.781,0.232 -1.169,0.607 -0.582,1.506 -0.481,2.891 -0.204,4.478 0.136,0.308 0.207,0.419 0.422,0.643 C -1.663,0.211 -0.904,0.491 0,0"
             style="fill:#48424c;fill-opacity:1;fill-rule:nonzero;stroke:none"
             id="path350" />
        </g>
        <g
           id="g352"
           transform="translate(73.922,861.5605)">
          <path
             d="M 0,0 C -0.101,0.358 -0.061,0.674 -0.018,0.989 0.117,1.959 0.285,2.2 0.965,1.877 2.168,1.304 3.165,1.883 4.061,2.65 5.006,3.458 5.814,4.509 6.808,5.502 7.254,5.204 7.303,4.768 7.144,4.072 6.731,3.153 6.28,2.603 5.638,2.326 3.806,1.536 1.974,0.747 0,0"
             style="fill:#48424c;fill-opacity:1;fill-rule:nonzero;stroke:none"
             id="path354" />
        </g>
        <g
           id="g356"
           transform="translate(54.1885,954.9556)">
          <path
             d="m 0,0 c -0.316,0.219 -0.297,0.617 -0.295,1.016 0.021,4.306 0.039,8.611 0.143,13.081 C 0.197,13.976 0.266,13.591 0.266,13.19 0.257,8.988 0.245,4.786 0.227,0.584 0.226,0.433 0.156,0.282 0,0"
             style="fill:#48424c;fill-opacity:1;fill-rule:nonzero;stroke:none"
             id="path358" />
        </g>
        <g
           id="g360"
           transform="translate(68.538,860.1705)">
          <path
             d="m 0,0 c -0.812,-0.115 -1.493,-0.169 -2.317,-0.185 -0.846,0.614 -1.878,0.464 -2.322,1.733 0.143,0.247 0.265,0.319 0.46,0.476 C -2.803,2.817 -1.462,3.191 0.1,2.686 0.376,2.399 0.502,2.167 0.664,2.121 1.263,1.952 1.49,1.487 1.486,0.587 1.042,0.285 0.587,0.173 0,0"
             style="fill:#48424c;fill-opacity:1;fill-rule:nonzero;stroke:none"
             id="path362" />
        </g>
        <g
           id="g364"
           transform="translate(57.2366,997.5694)">
          <path
             d="M 0,0 C 0.249,2.602 0.054,5.071 0.102,7.732 0.664,7.786 0.926,7.43 0.922,6.759 0.911,4.774 0.922,2.79 0.923,0.805 0.923,-0.147 0.92,-1.1 0.921,-2.053 0.921,-2.459 0.877,-2.842 0.456,-3.18 0.317,-3.243 0.225,-3.26 0.179,-3.263 -0.365,-2.265 -0.312,-1.207 0,0"
             style="fill:#48424c;fill-opacity:1;fill-rule:nonzero;stroke:none"
             id="path366" />
        </g>
        <g
           id="g368"
           transform="translate(81.6115,867.4614)">
          <path
             d="M 0,0 C 0.353,0.46 0.636,0.77 0.941,1.044 1.251,1.322 1.665,1.601 1.451,2.126 1.262,2.591 0.889,2.14 0.597,2.141 0.251,2.143 0.166,2.457 0.268,2.776 0.499,3.5 0.885,4.158 0.85,5.167 1.457,5.679 1.747,5.164 2.101,4.502 2.5,3.737 2.819,3.132 2.581,2.182 2.46,1.713 2.368,1.421 2.169,1.016 2.088,-0.207 1.625,-0.795 0.626,-0.937 0.184,-0.81 0.008,-0.545 0,0"
             style="fill:#48424c;fill-opacity:1;fill-rule:nonzero;stroke:none"
             id="path370" />
        </g>
        <g
           id="g372"
           transform="translate(68.2408,890.1985)">
          <path
             d="M 0,0 C -0.382,0.865 -0.251,1.827 -0.259,2.776 -0.282,5.404 -0.28,8.033 -0.229,10.881 0.17,10.988 0.426,10.742 0.457,10.295 0.496,9.736 0.492,9.172 0.494,8.61 0.499,6.279 0.502,3.949 0.498,1.619 0.497,1.067 0.574,0.476 0,0"
             style="fill:#48424c;fill-opacity:1;fill-rule:nonzero;stroke:none"
             id="path374" />
        </g>
        <g
           id="g376"
           transform="translate(54.5483,928.6707)">
          <path
             d="M 0,0 C -0.41,1.195 -0.236,2.565 -0.251,3.919 -0.275,6.24 -0.245,8.563 -0.186,11.12 0.118,11.08 0.274,10.73 0.273,10.319 0.265,7.074 0.248,3.83 0.226,0.585 0.225,0.437 0.14,0.29 0,0"
             style="fill:#48424c;fill-opacity:1;fill-rule:nonzero;stroke:none"
             id="path378" />
        </g>
        <g
           id="g380"
           transform="translate(46.0383,841.814)">
          <path
             d="M 0,0 C 0.14,-0.203 0.094,-0.341 0.04,-0.473 -0.104,-0.829 -0.217,-1.155 0.244,-1.305 0.41,-1.359 0.553,-1.516 0.752,-1.763 0.575,-2.336 0.217,-2.27 -0.251,-2.27 c -1.084,0.77 -2.209,0.716 -3.265,0.984 -0.327,0.083 -0.642,0.157 -0.857,0.488 -0.072,0.109 -0.114,0.295 -0.096,0.431 0.018,0.132 0.111,0.303 0.207,0.353 0.173,0.089 0.373,0.139 0.562,0.138 C -2.53,0.116 -1.359,0.089 0,0"
             style="fill:#48424c;fill-opacity:1;fill-rule:nonzero;stroke:none"
             id="path382" />
        </g>
        <g
           id="g384"
           transform="translate(69.1316,1034.104)">
          <path
             d="m 0,0 c -0.309,-0.239 -0.691,-0.294 -1.06,-0.41 -0.247,-0.078 -0.499,-0.249 -0.732,-0.062 -1.284,1.027 -2.802,0.901 -4.32,1.436 0.524,1.14 0.583,1.237 1.037,0.824 0.632,-0.576 1.31,-0.621 2.028,-0.617 0.585,0.003 1.171,-0.039 1.754,-0.012 C -0.673,1.187 -0.358,0.708 0,0"
             style="fill:#48424c;fill-opacity:1;fill-rule:nonzero;stroke:none"
             id="path386" />
        </g>
        <g
           id="g388"
           transform="translate(65.8945,920.6194)">
          <path
             d="M 0,0 C 0.753,-0.747 0.634,-1.688 0.428,-2.433 0.181,-3.326 0.257,-4.275 -0.157,-5.253 -0.382,-5.543 -0.523,-5.598 -0.759,-5.415 -1.052,-3.877 -1.043,-2.45 -0.984,-0.811 -0.75,-0.226 -0.5,0.047 0,0"
             style="fill:#48424c;fill-opacity:1;fill-rule:nonzero;stroke:none"
             id="path390" />
        </g>
        <g
           id="g392"
           transform="translate(64.9963,939.0247)">
          <path
             d="M 0,0 C -0.178,-0.149 -0.249,-0.15 -0.425,-0.152 -0.534,1.942 -0.537,4.037 -0.549,6.354 -0.415,7.149 -0.59,7.797 -0.159,8.425 0.053,8.315 0.219,8.11 0.217,7.907 0.197,5.32 0.38,2.729 0,0"
             style="fill:#48424c;fill-opacity:1;fill-rule:nonzero;stroke:none"
             id="path394" />
        </g>
        <g
           id="g396"
           transform="translate(52.6467,896.5269)">
          <path
             d="m 0,0 c 0.102,-2.512 0.114,-4.945 0.077,-7.599 -0.384,-0.137 -0.705,0.08 -0.707,0.499 -0.014,2.251 -0.236,4.51 0.241,6.887 C -0.208,-0.025 -0.149,0.027 0,0"
             style="fill:#48424c;fill-opacity:1;fill-rule:nonzero;stroke:none"
             id="path398" />
        </g>
        <g
           id="g400"
           transform="translate(53.0624,867.6467)">
          <path
             d="m 0,0 c -0.172,-0.127 -0.301,-0.117 -0.415,-0.063 -1.853,0.875 -1.865,0.954 -0.435,2.751 0.04,0.05 0.049,0.139 0.095,0.377 0.076,0.749 -0.06,1.366 0.347,2.012 0.172,0.158 0.232,0.208 0.378,0.178 C 0.045,4.347 0.034,3.519 0.029,2.485 0.035,1.893 0.035,1.508 0.054,0.979 0.058,0.609 0.054,0.383 0,0"
             style="fill:#48424c;fill-opacity:1;fill-rule:nonzero;stroke:none"
             id="path402" />
        </g>
        <g
           id="g404"
           transform="translate(65.2827,888.218)">
          <path
             d="m 0,0 c 0.202,-0.218 0.329,-0.518 0.334,-0.822 0.036,-1.992 0.045,-3.985 0.003,-6.195 -0.313,-0.126 -0.616,0 -0.628,0.342 C -0.364,-4.474 -0.651,-2.263 0,0"
             style="fill:#48424c;fill-opacity:1;fill-rule:nonzero;stroke:none"
             id="path406" />
        </g>
        <g
           id="g408"
           transform="translate(52.6404,908.1063)">
          <path
             d="m 0,0 c 0.125,-1.845 0.148,-3.606 0.2,-5.579 0.195,-0.756 0.229,-1.273 -0.325,-1.726 -0.279,0.169 -0.486,0.35 -0.492,0.541 -0.071,2.134 -0.237,4.272 0.192,6.537 C -0.238,-0.032 -0.171,0.027 0,0"
             style="fill:#48424c;fill-opacity:1;fill-rule:nonzero;stroke:none"
             id="path410" />
        </g>
        <g
           id="g412"
           transform="translate(68.0993,904.7713)">
          <path
             d="M 0,0 C -0.389,0.111 -0.46,0.467 -0.471,0.855 -0.494,1.684 -0.516,2.514 -0.59,3.544 -0.599,4.58 -0.556,5.415 -0.462,6.452 -0.074,6.537 0.206,6.289 0.207,5.849 0.212,3.945 0.425,2.034 0,0"
             style="fill:#48424c;fill-opacity:1;fill-rule:nonzero;stroke:none"
             id="path414" />
        </g>
        <g
           id="g416"
           transform="translate(69.9612,1020.4855)">
          <path
             d="M 0,0 C -0.463,0.427 -0.325,1.087 -0.341,1.709 -0.371,2.902 -0.372,4.097 -0.344,5.511 0.01,5.553 0.23,5.252 0.233,4.832 0.243,3.266 0.415,1.692 0,0"
             style="fill:#48424c;fill-opacity:1;fill-rule:nonzero;stroke:none"
             id="path418" />
        </g>
        <g
           id="g420"
           transform="translate(66.3355,1032.2642)">
          <path
             d="M 0,0 C 0.889,0.143 1.695,0.146 2.674,0.155 2.877,-0.323 2.906,-0.808 2.95,-1.474 3.042,-1.881 3.076,-2.117 3.014,-2.53 2.082,-3.455 1.794,-2.453 1.273,-1.746 0.874,-1.583 1.299,-0.329 0.413,-1.012 -0.001,-0.808 -0.114,-0.52 0,0"
             style="fill:#48424c;fill-opacity:1;fill-rule:nonzero;stroke:none"
             id="path422" />
        </g>
        <g
           id="g424"
           transform="translate(67.122,951.4306)">
          <path
             d="M 0,0 C -0.396,1.411 -0.342,2.919 -0.204,4.639 0.013,4.711 0.277,4.588 0.294,4.427 0.442,2.971 0.677,1.499 0,0"
             style="fill:#48424c;fill-opacity:1;fill-rule:nonzero;stroke:none"
             id="path426" />
        </g>
        <g
           id="g428"
           transform="translate(68.5734,1015.9304)">
          <path
             d="m 0,0 c -0.146,0.181 -0.18,0.339 -0.165,0.489 0.09,0.945 0.2,0.987 0.874,0.367 C 0.807,0.766 0.926,0.71 1.157,0.612 1.5,-0.394 1.328,-1.388 1.319,-2.584 0.733,-2.719 0.607,-2.266 0.577,-1.657 0.549,-1.077 0.743,-0.378 0,0"
             style="fill:#48424c;fill-opacity:1;fill-rule:nonzero;stroke:none"
             id="path430" />
        </g>
        <g
           id="g432"
           transform="translate(55.8625,880.1413)">
          <path
             d="M 0,0 C -0.375,0.164 -0.435,0.529 -0.431,0.918 -0.42,1.907 -0.404,2.895 -0.338,4.09 -0.049,4.186 0.217,4.054 0.247,3.723 0.353,2.517 0.507,1.302 0,0"
             style="fill:#48424c;fill-opacity:1;fill-rule:nonzero;stroke:none"
             id="path434" />
        </g>
        <g
           id="g436"
           transform="translate(55.6128,885.4917)">
          <path
             d="m 0,0 c -0.332,0.055 -0.465,0.313 -0.458,0.646 0.015,0.775 0.045,1.55 0.164,2.463 C 0.019,3.059 0.184,2.821 0.193,2.479 0.214,1.692 0.327,0.9 0,0"
             style="fill:#48424c;fill-opacity:1;fill-rule:nonzero;stroke:none"
             id="path438" />
        </g>
        <g
           id="g440"
           transform="translate(69.2534,1008.84)">
          <path
             d="M 0,0 C -0.064,0.78 -0.175,1.625 0.558,2.264 1.114,0.969 1.072,0.784 0,0"
             style="fill:#48424c;fill-opacity:1;fill-rule:nonzero;stroke:none"
             id="path442" />
        </g>
        <g
           id="g444"
           transform="translate(54.7132,917.801)">
          <path
             d="M 0,0 C -0.598,0.695 -0.369,1.648 -0.299,2.77 0.325,2.107 0.157,1.116 0,0"
             style="fill:#48424c;fill-opacity:1;fill-rule:nonzero;stroke:none"
             id="path446" />
        </g>
        <g
           id="g448"
           transform="translate(57.687,1032.2794)">
          <path
             d="M 0,0 C 0.717,-0.667 0.48,-1.592 0.275,-2.63 -0.513,-1.981 -0.241,-1.044 0,0"
             style="fill:#48424c;fill-opacity:1;fill-rule:nonzero;stroke:none"
             id="path450" />
        </g>
        <g
           id="g452"
           transform="translate(81.5569,867.5941)">
          <path
             d="M 0,0 C 0.228,-0.241 0.341,-0.514 0.497,-0.931 0.482,-1.701 0.129,-1.954 -0.438,-2.135 -0.596,-1.752 -0.629,-1.33 -0.681,-0.696 -0.505,-0.334 -0.31,-0.183 0,0"
             style="fill:#48424c;fill-opacity:1;fill-rule:nonzero;stroke:none"
             id="path454" />
        </g>
        <g
           id="g456"
           transform="translate(52.3457,900.6078)">
          <path
             d="M 0,0 C 0.375,0.457 0.349,0.944 0.47,1.544 1.381,0.707 1.359,0.345 0.25,-0.812 0.082,-0.628 0.039,-0.402 0,0"
             style="fill:#48424c;fill-opacity:1;fill-rule:nonzero;stroke:none"
             id="path458" />
        </g>
        <g
           id="g460"
           transform="translate(83.8165,871.9496)">
          <path
             d="M 0,0 C -0.411,0.148 -0.774,0.45 -1.247,0.805 -1.38,0.985 -1.409,1.11 -1.463,1.326 -0.549,1.55 -0.444,1.463 0,0"
             style="fill:#48424c;fill-opacity:1;fill-rule:nonzero;stroke:none"
             id="path462" />
        </g>
        <g
           id="g464"
           transform="translate(69.095,1029.3828)">
          <path
             d="M 0,0 C 0.099,0.389 0.103,0.634 0.156,1.052 0.816,0.769 0.76,0.097 0.515,-0.725 0.435,-0.839 0.3,-0.805 0.239,-0.766 -0.033,-0.618 -0.124,-0.424 0,0"
             style="fill:#48424c;fill-opacity:1;fill-rule:nonzero;stroke:none"
             id="path466" />
        </g>
        <g
           id="g468"
           transform="translate(65.4214,892.0064)">
          <path
             d="M 0,0 C 0.706,-0.554 0.709,-0.574 0.231,-1.784 -0.231,-1.342 -0.113,-0.742 0,0"
             style="fill:#48424c;fill-opacity:1;fill-rule:nonzero;stroke:none"
             id="path470" />
        </g>
        <g
           id="g472"
           transform="translate(66.0015,920.7053)">
          <path
             d="m 0,0 c -0.268,-0.323 -0.545,-0.49 -0.938,-0.672 -0.151,0.208 -0.188,0.43 -0.225,0.824 0.167,0.302 0.336,0.433 0.596,0.61 C -0.201,0.72 -0.058,0.489 0,0"
             style="fill:#48424c;fill-opacity:1;fill-rule:nonzero;stroke:none"
             id="path474" />
        </g>
        <g
           id="g476"
           transform="translate(56.619,988.6292)">
          <path
             d="M 0,0 C 0.004,0.531 0.269,0.904 0.717,1.275 1.042,1.149 1.137,0.89 1.004,0.595 0.82,0.185 0.522,-0.032 0,0"
             style="fill:#48424c;fill-opacity:1;fill-rule:nonzero;stroke:none"
             id="path478" />
        </g>
        <g
           id="g480"
           transform="translate(80.1626,874.5019)">
          <path
             d="M 0,0 C -0.327,-0.239 -0.692,-0.251 -1.122,0.146 -0.777,0.765 -0.398,0.606 0,0"
             style="fill:#48424c;fill-opacity:1;fill-rule:nonzero;stroke:none"
             id="path482" />
        </g>
        <g
           id="g484"
           transform="translate(53.2106,872.9061)">
          <path
             d="M 0,0 C -0.091,-0.085 -0.267,-0.076 -0.355,-0.076 -0.434,0.306 -0.425,0.688 -0.349,1.242 0.277,1.156 0.356,0.694 0,0"
             style="fill:#48424c;fill-opacity:1;fill-rule:nonzero;stroke:none"
             id="path486" />
        </g>
        <g
           id="g488"
           transform="translate(81.6827,873.908)">
          <path
             d="M 0,0 C -0.199,-0.079 -0.415,-0.03 -0.698,0.131 -0.458,0.765 -0.225,0.567 0,0"
             style="fill:#48424c;fill-opacity:1;fill-rule:nonzero;stroke:none"
             id="path490" />
        </g>
        <g
           id="g492"
           transform="translate(57.4025,1006.3586)">
          <path
             d="M 0,0 C -0.141,0.188 -0.2,0.425 -0.224,0.846 0.256,0.853 0.435,0.562 0,0"
             style="fill:#48424c;fill-opacity:1;fill-rule:nonzero;stroke:none"
             id="path494" />
        </g>
        <g
           id="g496"
           transform="translate(64.9992,915.1693)">
          <path
             d="M 0,0 C 0.194,0.15 0.317,0.127 0.532,0.082 0.573,-0.191 0.521,-0.456 0.378,-0.802 0.217,-0.884 0.147,-0.887 -0.026,-0.888 -0.11,-0.645 -0.09,-0.403 0,0"
             style="fill:#48424c;fill-opacity:1;fill-rule:nonzero;stroke:none"
             id="path498" />
        </g>
        <g
           id="g500"
           transform="translate(52.8242,908.105)">
          <path
             d="M 0,0 C -0.149,-0.082 -0.217,-0.08 -0.388,-0.083 -0.451,0.177 -0.413,0.443 -0.291,0.8 0.101,0.737 0.233,0.488 0,0"
             style="fill:#48424c;fill-opacity:1;fill-rule:nonzero;stroke:none"
             id="path502" />
        </g>
        <g
           id="g504"
           transform="translate(66.8528,969.3082)">
          <path
             d="M 0,0 C -0.293,0.136 -0.37,0.401 -0.289,0.857 0.069,0.791 0.375,0.587 0,0"
             style="fill:#48424c;fill-opacity:1;fill-rule:nonzero;stroke:none"
             id="path506" />
        </g>
        <g
           id="g508"
           transform="translate(55.4259,891.6503)">
          <path
             d="M 0,0 C -0.284,0.171 -0.309,0.445 -0.224,0.87 0.198,0.805 0.45,0.558 0,0"
             style="fill:#48424c;fill-opacity:1;fill-rule:nonzero;stroke:none"
             id="path510" />
        </g>
        <g
           id="g512"
           transform="translate(71.1934,860.683)">
          <path
             d="M 0,0 C 0.089,0.357 0.316,0.492 0.733,0.438 0.68,0.037 0.433,-0.159 0,0"
             style="fill:#48424c;fill-opacity:1;fill-rule:nonzero;stroke:none"
             id="path514" />
        </g>
        <g
           id="g516"
           transform="translate(83.8343,868.4056)">
          <path
             d="M 0,0 C -0.17,0.313 -0.172,0.677 0.204,1.012 0.529,0.656 0.386,0.343 0,0"
             style="fill:#48424c;fill-opacity:1;fill-rule:nonzero;stroke:none"
             id="path518" />
        </g>
        <g
           id="g520"
           transform="translate(52.8156,896.5193)">
          <path
             d="M 0,0 C -0.08,-0.071 -0.259,-0.068 -0.348,-0.069 -0.427,0.168 -0.416,0.405 -0.34,0.803 0.067,0.8 0.301,0.573 0,0"
             style="fill:#48424c;fill-opacity:1;fill-rule:nonzero;stroke:none"
             id="path522" />
        </g>
        <g
           id="g524"
           transform="translate(67.1091,939.3326)">
          <path
             d="M 0,0 C -0.138,0.198 -0.184,0.436 -0.19,0.855 0.418,0.658 0.418,0.658 0,0"
             style="fill:#48424c;fill-opacity:1;fill-rule:nonzero;stroke:none"
             id="path526" />
        </g>
        <g
           id="g528"
           transform="translate(58.0832,1034.8044)">
          <path
             d="M 0,0 C 0.036,-0.254 -0.039,-0.521 -0.21,-0.869 -0.696,-0.495 -0.555,-0.206 0,0"
             style="fill:#48424c;fill-opacity:1;fill-rule:nonzero;stroke:none"
             id="path530" />
        </g>
        <g
           id="g532"
           transform="translate(57.4354,992.509)">
          <path
             d="m 0,0 c -0.092,-0.04 -0.167,0.036 -0.226,0.128 -0.011,0.015 0.047,0.098 0.14,0.193 C -0.005,0.283 0.008,0.202 0,0"
             style="fill:#48424c;fill-opacity:1;fill-rule:nonzero;stroke:none"
             id="path534" />
        </g>
        <g
           id="g536"
           transform="translate(52.4491,935.6296)">
          <path
             d="M 0,0 C -0.73,0.838 -0.456,1.914 -0.249,3.107 0.528,2.28 0.237,1.196 0,0"
             style="fill:#48424c;fill-opacity:1;fill-rule:nonzero;stroke:none"
             id="path538" />
        </g>
        <g
           id="g540"
           transform="translate(58.711,843.5693)">
          <path
             d="m 0,0 c -2.521,-0.488 -4.907,-0.999 -7.454,-1.485 -0.066,0.435 0.139,0.678 0.478,0.833 1.452,0.668 2.895,1.37 4.341,2.06 0.181,0.086 0.37,0.275 0.54,0.251 C -0.933,1.491 0.003,2.281 1.026,2.708 2.082,3.148 2.61,4.176 2.443,5.589 2.396,5.98 2.294,6.361 2.246,6.752 2.18,7.287 2.397,8.125 1.951,8.279 1.162,8.551 0.671,9.783 -0.41,9.221 -0.717,9.167 -0.93,9.225 -1.214,9.389 c -0.632,1.679 0.49,1.803 1.327,2.365 1.159,0.227 2.156,0.69 3.287,0.114 C 3.32,10.693 3.598,10.114 4.434,9.582 7.596,7.565 7.675,6.251 4.97,3.238 4.631,2.861 4.404,2.383 4.058,1.799 3.477,1.113 2.872,0.805 2.136,0.445 1.382,0.246 0.759,0.106 0,0"
             style="fill:#48424c;fill-opacity:1;fill-rule:nonzero;stroke:none"
             id="path542" />
        </g>
        <g
           id="g544"
           transform="translate(53.2305,851.9482)">
          <path
             d="M 0,0 C -0.011,0.878 0.009,1.569 0.108,2.445 0.783,2.288 1.048,1.704 1.019,0.743 1.463,0.121 1.536,-0.504 1.435,-1.129 1.325,-1.812 1.346,-2.112 2.038,-1.689 2.276,-2.261 2.33,-2.782 1.952,-3.086 1.518,-3.435 1.007,-3.68 0.479,-3.431 0.346,-3.369 0.243,-3.042 0.222,-2.823 0.138,-1.948 0.092,-1.067 0,0"
             style="fill:#48424c;fill-opacity:1;fill-rule:nonzero;stroke:none"
             id="path546" />
        </g>
        <g
           id="g548"
           transform="translate(58.9691,855.1915)">
          <path
             d="M 0,0 C -0.161,-0.615 -0.48,-0.684 -0.787,-0.798 -1.189,-0.948 -1.423,-1.301 -1.527,-1.966 -2.04,-2.143 -2.536,-2.158 -3.18,-2.182 -3.539,-1.506 -3.452,-0.795 -3.408,0.112 -2.228,1.193 -1.109,1.235 0,0"
             style="fill:#48424c;fill-opacity:1;fill-rule:nonzero;stroke:none"
             id="path550" />
        </g>
        <g
           id="g552"
           transform="translate(55.4113,850.3663)">
          <path
             d="m 0,0 c -0.363,-0.373 -0.689,-0.548 -1.151,-0.797 0,0.923 0,1.751 -0.003,2.77 0.288,0.206 0.577,0.221 1.012,0.236 C 0.014,1.539 0.025,0.868 0,0"
             style="fill:#48424c;fill-opacity:1;fill-rule:nonzero;stroke:none"
             id="path554" />
        </g>
        <g
           id="g556"
           transform="translate(65.0325,952.5187)">
          <path
             d="M 0,0 C -0.401,0.09 -0.517,0.445 -0.515,0.857 -0.507,2.509 -0.646,4.163 -0.35,5.963 -0.028,5.935 0.159,5.695 0.157,5.36 0.148,3.622 0.34,1.881 0,0"
             style="fill:#48424c;fill-opacity:1;fill-rule:nonzero;stroke:none"
             id="path558" />
        </g>
        <g
           id="g560"
           transform="translate(65.4297,923.5914)">
          <path
             d="M 0,0 C -0.404,0.08 -0.519,0.438 -0.514,0.848 -0.497,2.182 -0.467,3.515 -0.346,5 0.03,4.902 0.152,4.544 0.161,4.139 0.191,2.807 0.311,1.473 0,0"
             style="fill:#48424c;fill-opacity:1;fill-rule:nonzero;stroke:none"
             id="path562" />
        </g>
        <g
           id="g564"
           transform="translate(53.1592,988.1924)">
          <path
             d="m 0,0 c -0.66,-0.588 -1.361,-0.734 -2.248,-0.56 -0.161,0.271 -0.185,0.505 -0.176,0.737 0.068,1.717 0.217,1.93 1.598,2.332 0.481,0.14 0.709,-0.047 0.756,-0.673 C -0.029,1.295 -0.029,0.748 0,0"
             style="fill:#48424c;fill-opacity:1;fill-rule:nonzero;stroke:none"
             id="path566" />
        </g>
        <g
           id="g568"
           transform="translate(57.1419,997.8551)">
          <path
             d="m 0,0 c 0.43,-1.148 0.268,-2.161 0.249,-3.359 -0.424,-0.124 -0.706,0.092 -0.759,0.642 -0.043,0.444 -0.116,0.884 -0.275,1.437 -0.1,1.36 -0.1,2.608 -0.1,3.986 C -0.351,2.322 -0.572,1.85 -0.529,1.484 -0.473,1.008 -0.433,0.542 0,0"
             style="fill:#48424c;fill-opacity:1;fill-rule:nonzero;stroke:none"
             id="path570" />
        </g>
        <g
           id="g572"
           transform="translate(55.6018,867.8112)">
          <path
             d="m 0,0 c 0.419,0.257 0.574,0.557 0.497,1.015 -0.129,0.764 0.259,0.986 0.745,1.08 1.702,0.329 3.402,0.68 5.111,0.944 0.652,0.102 1.252,0.221 1.793,0.73 0.427,0.403 0.99,0.275 1.665,0.446 0.592,-0.988 0.451,-2.195 0.934,-3.364 0.259,-0.13 0.422,-0.137 0.7,-0.084 0.773,0.532 0.424,1.422 0.709,2.217 0.1,0.646 0.153,1.144 0.252,1.821 C 13.254,5.096 13.961,4.59 14.722,4.424 15.38,4.281 15.806,3.567 16.14,2.882 16.534,2.074 16.317,0.965 15.705,0.311 15.414,0.001 15.059,-0.245 14.832,-0.613 14.52,-1.118 14.144,-1.285 13.662,-1.279 11.787,-1.259 9.961,-2.032 8.068,-1.801 7.767,-1.764 7.449,-2.015 7.131,-2.065 6.621,-2.144 6.056,-2.356 5.6,-2.178 c -1.72,0.674 -3.475,0.3 -5.379,0.443 -0.421,0.083 -0.54,0.28 -0.436,0.771 C -0.094,-0.578 -0.067,-0.366 0,0"
             style="fill:#48424c;fill-opacity:1;fill-rule:nonzero;stroke:none"
             id="path574" />
        </g>
        <g
           id="g576"
           transform="translate(68.8639,862.8467)">
          <path
             d="m 0,0 c -1.425,-0.303 -2.759,-0.475 -4.262,-0.607 -0.128,0.362 -0.046,0.665 0.195,0.84 0.222,0.161 0.453,0.396 0.69,0.416 0.929,0.082 1.346,1.283 2.165,1.486 0.751,0.187 1.561,0.02 2.31,0.213 C 2.039,2.59 2.913,3.158 3.881,3.346 4.092,3.387 4.344,3.683 4.444,3.94 5.03,5.455 4.771,7.013 4.515,8.558 4.492,8.694 4.378,8.836 4.276,8.918 3.745,9.348 3.302,9.969 2.585,9.989 2.16,10.001 1.586,9.91 1.576,10.726 c -0.007,0.62 0.487,0.65 0.839,0.79 0.365,0.146 0.741,0.249 1.266,0.365 C 3.779,11.056 3.98,10.531 4.856,10.545 5.278,10.286 5.598,10.149 6.043,9.985 6.459,9.591 6.867,9.587 7.222,9.415 8.856,8.625 9.124,6.226 7.687,4.868 6.869,4.094 6,3.396 5.084,2.461 4.537,1.636 3.855,1.572 3.249,1.33 2.202,0.911 1.145,0.528 0,0"
             style="fill:#48424c;fill-opacity:1;fill-rule:nonzero;stroke:none"
             id="path578" />
        </g>
        <g
           id="g580"
           transform="translate(63.751,861.9033)">
          <path
             d="m 0,0 c 0.363,-0.436 0.655,-0.674 1.055,-0.692 0.53,-0.023 0.943,-0.279 1.23,-1.035 -0.038,-0.22 -0.116,-0.287 -0.319,-0.44 -2.123,-1.89 -4.247,-0.744 -6.501,-0.442 -0.877,0.435 -1.799,0.598 -1.415,2.133 2.019,0.244 3.9,0.364 5.95,0.476"
             style="fill:#48424c;fill-opacity:1;fill-rule:nonzero;stroke:none"
             id="path582" />
        </g>
        <g
           id="g584"
           transform="translate(57.7641,861.6138)">
          <path
             d="m 0,0 c -0.119,-1.108 0.611,-1.227 1.146,-1.72 -0.711,-1.83 -1.798,-1.316 -3.023,-0.601 -0.137,0.793 -0.14,1.416 -0.116,2.223 C -1.369,0.079 -0.772,0.071 0,0"
             style="fill:#48424c;fill-opacity:1;fill-rule:nonzero;stroke:none"
             id="path586" />
        </g>
        <g
           id="g588"
           transform="translate(55.3436,867.0057)">
          <path
             d="M 0,0 C 0.181,-0.191 0.226,-0.398 0.29,-0.763 0.171,-1.392 0.2,-1.865 0.292,-2.338 c 0.137,-0.709 0.147,-1.424 0.012,-2.337 -0.438,0.047 -0.567,0.452 -0.561,0.955 0.009,0.778 -0.044,1.498 -0.441,2.198 C -1.106,-0.804 -1.032,-0.741 0,0"
             style="fill:#48424c;fill-opacity:1;fill-rule:nonzero;stroke:none"
             id="path590" />
        </g>
        <g
           id="g592"
           transform="translate(73.8305,873.426)">
          <path
             d="m 0,0 c -0.193,-0.151 -0.379,-0.16 -0.564,-0.14 -0.725,0.076 -0.725,0.079 -0.584,1.281 0.214,0.164 0.413,0.174 0.762,0.158 C 0.066,0.974 0.007,0.555 0,0"
             style="fill:#48424c;fill-opacity:1;fill-rule:nonzero;stroke:none"
             id="path594" />
        </g>
        <g
           id="g596"
           transform="translate(69.0566,1029.5471)">
          <path
             d="m 0,0 c 0.157,-0.213 0.18,-0.406 0.21,-0.746 -0.494,-0.526 -0.819,-1.388 -1.634,-0.841 -0.377,0.254 -0.713,-0.143 -0.912,-0.614 -0.183,-0.43 -0.309,-0.872 -0.308,-1.362 0.004,-1.272 -0.167,-2.593 0.057,-3.803 0.241,-1.296 0.083,-2.315 -0.665,-3.387 0.452,-0.556 1.273,-0.567 1.373,-1.488 0.074,-0.683 0.456,-1.283 0.172,-2.071 -0.131,-0.363 0.09,-0.909 0.125,-1.375 0.072,-0.941 0.064,-0.942 1.143,-1.21 0.119,-0.536 0.236,-1.19 -0.358,-1.375 -0.578,-0.18 -1.196,-0.211 -1.604,0.454 -0.347,0.563 -0.698,1.169 -0.417,1.968 0.356,1.012 0.106,1.922 -0.485,2.624 -0.487,0.58 -0.512,1.237 -0.523,1.961 -0.013,0.873 0.081,1.758 -0.197,2.604 -0.134,0.406 -0.043,0.79 0.181,1.11 0.471,0.672 0.409,1.48 0.411,2.276 0.005,2.555 0.01,5.109 0.017,7.887 0.173,0.24 0.346,0.256 0.647,0.259 C -2.573,2.596 -2.509,2.335 -2.352,1.992 -2.074,1.721 -1.91,1.491 -1.538,1.436 -1.099,1.381 -0.811,1.256 -0.71,0.824 -0.62,0.44 -0.487,0.112 0,0"
             style="fill:#48424c;fill-opacity:1;fill-rule:nonzero;stroke:none"
             id="path598" />
        </g>
        <g
           id="g600"
           transform="translate(73.9783,865.1866)">
          <path
             d="M 0,0 C 0.19,1.394 1.003,2.246 2.034,2.804 2.401,3.003 2.777,3.165 2.894,3.663 3.075,4.436 3.113,5.234 2.822,5.984 2.676,6.359 2.381,6.554 2.048,6.621 1.668,6.697 1.26,6.696 1.082,7.443 2.528,7.816 3.621,6.8 4.75,5.862 4.745,5.155 4.123,4.903 3.979,4.281 3.837,3.671 3.618,3.089 3.441,2.491 3.156,1.531 2.67,0.873 1.816,0.644 1.249,0.492 0.703,0.218 0,0"
             style="fill:#48424c;fill-opacity:1;fill-rule:nonzero;stroke:none"
             id="path602" />
        </g>
        <g
           id="g604"
           transform="translate(65.6508,1008.011)">
          <path
             d="M 0,0 C -0.69,-0.342 -1.375,-0.48 -2.206,-0.581 -2.366,-0.226 -2.387,0.092 -2.39,0.41 -2.405,2.183 -2.26,2.017 -0.857,2.6 -0.449,2.77 -0.094,2.439 -0.049,1.877 -0.004,1.323 -0.01,0.762 0,0"
             style="fill:#48424c;fill-opacity:1;fill-rule:nonzero;stroke:none"
             id="path606" />
        </g>
        <g
           id="g608"
           transform="translate(66.4477,868.7527)">
          <path
             d="M 0,0 C -0.395,-0.281 -0.596,-0.007 -0.642,0.409 -0.733,1.246 -0.786,2.088 -0.857,3.125 -0.811,3.821 -0.764,4.32 -0.654,4.957 -0.171,4.901 -0.039,4.488 -0.033,3.98 -0.02,2.725 -0.007,1.469 0,0"
             style="fill:#48424c;fill-opacity:1;fill-rule:nonzero;stroke:none"
             id="path610" />
        </g>
        <g
           id="g612"
           transform="translate(67.6774,870.8903)">
          <path
             d="M 0,0 C 0.277,-0.782 0.543,-1.643 -0.37,-2.261 -0.402,-1.516 -0.705,-0.666 0,0"
             style="fill:#48424c;fill-opacity:1;fill-rule:nonzero;stroke:none"
             id="path614" />
        </g>
        <g
           id="g616"
           transform="translate(64.2015,985.0806)">
          <path
             d="M 0,0 C 0.939,-0.708 0.73,-1.731 0.135,-2.855 -0.236,-2.037 -0.153,-1.125 0,0"
             style="fill:#48424c;fill-opacity:1;fill-rule:nonzero;stroke:none"
             id="path618" />
        </g>
        <g
           id="g620"
           transform="translate(53.211,868.5764)">
          <path
             d="M 0,0 C -0.417,0.261 -0.385,0.693 -0.186,1.247 0.264,1.005 0.28,0.575 0,0"
             style="fill:#48424c;fill-opacity:1;fill-rule:nonzero;stroke:none"
             id="path622" />
        </g>
        <g
           id="g624"
           transform="translate(55.474,858.8414)">
          <path
             d="M 0,0 C 0.256,-0.192 0.265,-0.472 0.143,-0.881 -0.331,-0.772 -0.389,-0.458 0,0"
             style="fill:#48424c;fill-opacity:1;fill-rule:nonzero;stroke:none"
             id="path626" />
        </g>
        <g
           id="g628"
           transform="translate(58.5764,843.4088)">
          <path
             d="M 0,0 C 0.409,0.913 1.044,0.935 1.807,0.989 3.753,1.124 5.459,1.98 7.384,1.995 7.416,0.792 6.712,0.487 6.048,0.169 5.086,-0.291 4.043,-0.5 3.024,-1.311 2.157,-0.693 1.342,-0.998 0.542,-1.1 -0.055,-1.176 0.036,-0.619 0,0"
             style="fill:#48424c;fill-opacity:1;fill-rule:nonzero;stroke:none"
             id="path630" />
        </g>
        <g
           id="g632"
           transform="translate(62.0637,854.972)">
          <path
             d="m 0,0 c 0.241,0.143 0.413,0.142 0.707,0.086 1.926,-1.689 3.901,-2.428 6.248,-1.71 0.319,-0.08 0.65,-0.204 0.717,-0.441 C 7.971,-3.114 8.191,-4.196 8.445,-5.264 8.532,-5.628 8.377,-5.883 8.199,-6.115 7.685,-6.781 7.032,-7.108 6.168,-7.249 4.229,-8.22 2.723,-10.145 0.422,-9.661 c 0.242,1.298 0.701,2.159 1.749,2.695 1.274,0.652 1.209,3.112 -0.007,3.905 -0.851,0.555 -1.762,0.968 -2.639,1.465 -0.222,0.125 -0.518,0.233 -0.479,0.647 0.036,0.385 0.328,0.43 0.556,0.558 C -0.282,-0.326 -0.178,-0.227 0,0"
             style="fill:#48424c;fill-opacity:1;fill-rule:nonzero;stroke:none"
             id="path634" />
        </g>
        <g
           id="g636"
           transform="translate(69.0175,853.4929)">
          <path
             d="m 0,0 c 0.101,-0.127 0.113,-0.227 0.079,-0.28 -0.442,-0.681 -2.008,-1.317 -2.542,-0.89 -0.621,0.497 -1.247,0.735 -1.975,0.8 -0.435,0.039 -0.864,0.296 -1.279,0.507 -0.345,0.174 -0.385,0.59 -0.402,1.184 0.787,0.212 1.58,0.237 2.541,0.295 0.465,-0.049 0.762,-0.132 1.205,-0.277 0.571,-0.348 1.014,-0.571 1.58,-0.744 C -0.515,0.336 -0.313,0.192 0,0"
             style="fill:#48424c;fill-opacity:1;fill-rule:nonzero;stroke:none"
             id="path638" />
        </g>
        <g
           id="g640"
           transform="translate(62.2595,845.4294)">
          <path
             d="M 0,0 C 1.255,0.026 2.213,0.67 3.2,1.235 3.946,1.662 4.614,2.372 5.673,2.299 5.706,2.058 5.578,1.824 5.401,1.466 4.993,0.954 4.665,0.529 4.242,0.015 4.157,-0.088 3.988,-0.12 3.904,-0.133 3.571,-0.211 3.262,-0.182 3.086,-0.357 2.491,-0.945 1.833,-1.12 1.094,-1.064 0.446,-1.014 -0.195,-1.079 -0.804,-1.417 -1.052,-1.555 -1.309,-1.472 -1.64,-1.17 -1.199,-0.698 -0.662,-0.365 0,0"
             style="fill:#48424c;fill-opacity:1;fill-rule:nonzero;stroke:none"
             id="path642" />
        </g>
        <g
           id="g644"
           transform="translate(66.5504,845.3517)">
          <path
             d="M 0,0 C -0.109,0.74 0.171,1.236 0.925,1.406 1.023,0.677 0.741,0.182 0,0"
             style="fill:#48424c;fill-opacity:1;fill-rule:nonzero;stroke:none"
             id="path646" />
        </g>
        <g
           id="g648"
           transform="translate(68.3137,854.044)">
          <path
             d="M 0,0 C -0.502,0.042 -1.078,-0.219 -1.482,0.58 -1.027,0.938 -0.635,0.548 -0.081,0.296 0.043,0.214 0.013,0.072 0,0"
             style="fill:#48424c;fill-opacity:1;fill-rule:nonzero;stroke:none"
             id="path650" />
        </g>
        <g
           id="g652"
           transform="translate(67.6191,1031.1185)">
          <path
             d="M 0,0 C -0.011,-0.266 -0.036,-0.412 -0.074,-0.553 -0.135,-0.779 -0.25,-0.942 -0.461,-0.9 -0.664,-0.86 -0.751,-0.671 -0.776,-0.436 -0.792,-0.289 -0.8,-0.141 -0.817,0.173 -0.532,0.4 -0.177,0.816 0,0"
             style="fill:#48424c;fill-opacity:1;fill-rule:nonzero;stroke:none"
             id="path654" />
        </g>
      </g>
    </g>
  </g>
</svg>
