<svg xmlns="http://www.w3.org/2000/svg" width="233.481" height="233" viewBox="0 0 233.481 233"><g transform="translate(-8039.102 -52.437)"><path d="M8100.872,226.54a1.356,1.356,0,0,1-.1.494c-.064.163-.132.328-.205.491q-.491,1.149-1.054,2.246a22.248,22.248,0,0,0-1,2.243,32.825,32.825,0,0,0-1.272,4.133q-.534,2.217-.931,4.653t-.643,5.035q-.246,2.6-.356,5.31a11.338,11.338,0,0,1,2.71.9,14.337,14.337,0,0,1,2.381,1.48,19.9,19.9,0,0,0,4.05-3.381,32.65,32.65,0,0,0,3.408-4.392,43.046,43.046,0,0,0,2.778-4.982q1.231-2.6,2.175-5.118t1.6-4.817q.657-2.3,1.068-4.078a3.147,3.147,0,0,1,.52-1.2,5.813,5.813,0,0,1,.971-1.095,5.308,5.308,0,0,1,1.218-.806,2.966,2.966,0,0,1,1.287-.316,1.05,1.05,0,0,1,.9.37,1.6,1.6,0,0,1,.273.971v.384a32.4,32.4,0,0,1-1.122,5.337,46.829,46.829,0,0,1-2.066,5.624,45.919,45.919,0,0,1-2.928,5.57,41.23,41.23,0,0,1-3.723,5.131,35.5,35.5,0,0,1-4.42,4.365,24.884,24.884,0,0,1-5.035,3.256q.546.467,1.081.959t1.108,1.04q2.436,2.3,4.776,4.679t4.8,4.626a61.339,61.339,0,0,0,5.145,4.2,34.644,34.644,0,0,0,5.8,3.407q.82.384,1.833.753t2.08.643q1.068.273,2.121.438a12.688,12.688,0,0,0,1.957.163q.465,0,.9-.04a4.8,4.8,0,0,0,.9-.179l.109.576a8.5,8.5,0,0,1-2.518.917,14.372,14.372,0,0,1-2.737.259,18.611,18.611,0,0,1-2.271-.15,23.68,23.68,0,0,1-2.436-.438q-1.231-.288-2.4-.685a16.9,16.9,0,0,1-2.094-.861,42.632,42.632,0,0,1-5.487-3.3,58.456,58.456,0,0,1-5.186-4.118,64.641,64.641,0,0,1-4.721-4.653,57.014,57.014,0,0,1-4.065-4.954q-.382-.521-.752-1.067t-.753-1.1a18.974,18.974,0,0,1-3.421.738q-.055,4.244.109,8.32t.438,7.8l-.6.219a33.9,33.9,0,0,1-1.19-3.75q-.508-1.971-.862-4.051t-.589-4.2q-.233-2.121-.369-4.229a6.987,6.987,0,0,1-1.273-.232,4.853,4.853,0,0,1-1.177-.493,2.728,2.728,0,0,1-.876-.808,2.2,2.2,0,0,1-.027-2.312,2.778,2.778,0,0,1,.821-.806,4.226,4.226,0,0,1,1.122-.508,6.6,6.6,0,0,1,1.218-.232v-1.533q0-1.34.027-3.367t.178-4.351q.152-2.325.493-4.735a32.275,32.275,0,0,1,.958-4.515,15.953,15.953,0,0,1,1.56-3.7,5.832,5.832,0,0,1,2.34-2.3q.547-.3,1.136-.547a3.144,3.144,0,0,1,1.218-.246,1.429,1.429,0,0,1,.739.193A.749.749,0,0,1,8100.872,226.54Zm-11.96,27.232a1.218,1.218,0,0,0,.3.835,2.276,2.276,0,0,0,.78.562,5.318,5.318,0,0,0,1.026.342,9.964,9.964,0,0,0,1.04.177q-.11-2.135-.164-4.16-.548.056-1.081.164a2.963,2.963,0,0,0-.958.37,2.093,2.093,0,0,0-.684.67A1.907,1.907,0,0,0,8088.912,253.772Zm6.267,1.779a13.167,13.167,0,0,0,2.9-.82,13.437,13.437,0,0,0-1.272-1.547,6.1,6.1,0,0,0-1.547-1.163q-.027.876-.054,1.765T8095.179,255.551Z" fill="#f4f0ed"/><path d="M8137,259.273a8.085,8.085,0,0,1-1.246,1.97,8.917,8.917,0,0,1-1.628,1.493,7.866,7.866,0,0,1-1.806.957,5.16,5.16,0,0,1-1.779.343,5.97,5.97,0,0,1-2.683-.547,4.865,4.865,0,0,1-1.779-1.479,6.012,6.012,0,0,1-.985-2.19,11.493,11.493,0,0,1-.3-2.681,16.53,16.53,0,0,1,.164-2.272,18.016,18.016,0,0,1,.466-2.272c.036-.11.072-.241.109-.4a1.792,1.792,0,0,0,.055-.4.247.247,0,0,0-.164-.219c-.311-.11-.639-.215-.986-.315s-.689-.215-1.026-.342a7.515,7.515,0,0,1-.958-.438,2.746,2.746,0,0,1-.78-.63,11.913,11.913,0,0,1-.547,3.326,16.865,16.865,0,0,1-1.382,3.229,17.62,17.62,0,0,1-2.012,2.888,16.2,16.2,0,0,1-2.436,2.327l-.273-.275a10.764,10.764,0,0,0,1.45-2.08,17.262,17.262,0,0,0,1.122-2.518,18.526,18.526,0,0,0,.725-2.654,13.19,13.19,0,0,0,.26-2.518,5.67,5.67,0,0,0-.109-1.136c-.073-.355-.151-.7-.233-1.027s-.159-.642-.232-.944a3.88,3.88,0,0,1-.11-.917,1.529,1.529,0,0,1,.493-1.2,1.822,1.822,0,0,1,1.259-.438.818.818,0,0,1,.629.234,2.323,2.323,0,0,1,.383.56q.165.328.384.685a1.794,1.794,0,0,0,.629.6,3.938,3.938,0,0,0,1.314.438q.794.137,1.669.247l1.752.219a6.961,6.961,0,0,1,1.574.37,3.007,3.007,0,0,1,1.135.711,1.675,1.675,0,0,1,.438,1.218,4.192,4.192,0,0,1-.068.753,3.475,3.475,0,0,1-.205.7q-.328,1.149-.561,2.339a12.235,12.235,0,0,0-.233,2.368,10.468,10.468,0,0,0,.15,1.847,3.7,3.7,0,0,0,.561,1.438,2.726,2.726,0,0,0,1.095.929,4.055,4.055,0,0,0,1.752.328,4.791,4.791,0,0,0,2.682-.751,7.579,7.579,0,0,0,2.025-1.986Z" fill="#f4f0ed"/><path d="M8149.7,259.273a10,10,0,0,1-1.492,1.9,10.669,10.669,0,0,1-1.888,1.506,9.151,9.151,0,0,1-2.19,1,8.151,8.151,0,0,1-2.4.356,6.757,6.757,0,0,1-2.723-.52,5.612,5.612,0,0,1-2-1.437,6.286,6.286,0,0,1-1.231-2.163,8.4,8.4,0,0,1-.425-2.723,9.6,9.6,0,0,1,.466-3.009,11.073,11.073,0,0,1,1.286-2.669,12.755,12.755,0,0,1,1.93-2.286,16.948,16.948,0,0,1,2.367-1.861l.328.247a13.8,13.8,0,0,0-2.175,3.557,10.412,10.412,0,0,0-.835,4.106,9.649,9.649,0,0,0,.287,2.367,6.054,6.054,0,0,0,.9,2.012,4.552,4.552,0,0,0,1.574,1.395,4.812,4.812,0,0,0,2.326.52,7.188,7.188,0,0,0,3.079-.684,10.931,10.931,0,0,0,2.641-1.725Zm-7.664-18.173a2.648,2.648,0,0,1-.246,1.1,3.541,3.541,0,0,1-.643.972,3.408,3.408,0,0,1-.917.7,2.275,2.275,0,0,1-1.067.274,1.465,1.465,0,0,1-1.136-.465,1.682,1.682,0,0,1-.424-1.177,2.563,2.563,0,0,1,.246-1.082,3.392,3.392,0,0,1,.643-.944,3.439,3.439,0,0,1,.9-.67,2.284,2.284,0,0,1,1.054-.26,1.554,1.554,0,0,1,1.149.438A1.515,1.515,0,0,1,8142.034,241.1Z" fill="#f4f0ed"/><path d="M8172,259.273q-.521.985-1.108,1.889a8.371,8.371,0,0,1-1.328,1.587,6.008,6.008,0,0,1-1.669,1.1,5.239,5.239,0,0,1-2.135.411,4.091,4.091,0,0,1-2.354-.671,5.933,5.933,0,0,1-1.683-1.779,10.217,10.217,0,0,1-1.122-2.532,27.818,27.818,0,0,1-.7-2.9q-.274-1.477-.41-2.916t-.247-2.586a6.616,6.616,0,0,0-1.259,1.574,28.75,28.75,0,0,0-1.505,2.724q-.766,1.557-1.464,3.394a30.853,30.853,0,0,0-1.136,3.612,4.247,4.247,0,0,1-.26.793,3.675,3.675,0,0,1-.438.753,2.447,2.447,0,0,1-.616.574,1.411,1.411,0,0,1-.793.232,1.124,1.124,0,0,1-1.027-.491,3.4,3.4,0,0,1-.451-1.123,53.645,53.645,0,0,1-1.109-6.649q-.315-3.176-.314-6.35a3.117,3.117,0,0,1,.26-1.328,2.669,2.669,0,0,1,.7-.931,2.882,2.882,0,0,1,1.04-.547,4.406,4.406,0,0,1,1.259-.178h.26a1.366,1.366,0,0,1,.342.042.739.739,0,0,1,.274.122.2.2,0,0,1,.082.219,36.08,36.08,0,0,0-.684,7.294q.026,3.709.383,7.13a29.707,29.707,0,0,1,.89-3.106q.587-1.739,1.368-3.5a36.433,36.433,0,0,1,1.7-3.367,16.638,16.638,0,0,1,1.875-2.695,6.992,6.992,0,0,1,.944-.889,1.885,1.885,0,0,1,1.19-.37,1.319,1.319,0,0,1,.685.164,1.488,1.488,0,0,1,.451.412,1.857,1.857,0,0,1,.274.56,5.33,5.33,0,0,1,.15.616q.136.794.274,2.052t.342,2.683q.205,1.422.507,2.86a15.61,15.61,0,0,0,.766,2.6,6.418,6.418,0,0,0,1.122,1.9,2.024,2.024,0,0,0,1.56.739,3.73,3.73,0,0,0,1.437-.288,6.546,6.546,0,0,0,1.327-.738,7.954,7.954,0,0,0,1.177-1.04c.365-.393.693-.78.985-1.165Z" fill="#f4f0ed"/><path d="M8185.222,271.59a20.6,20.6,0,0,1-.52,4.528,15.086,15.086,0,0,1-1.642,4.257,10.967,10.967,0,0,1-2.887,3.284,8.806,8.806,0,0,1-4.256,1.669,4.549,4.549,0,0,1-.466.082,4.05,4.05,0,0,1-.492.027,6.878,6.878,0,0,1-2.847-.6,7.572,7.572,0,0,1-2.34-1.628,7.691,7.691,0,0,1-1.573-2.382,7.18,7.18,0,0,1-.575-2.833,7.652,7.652,0,0,1,.671-3.147,11.3,11.3,0,0,1,1.765-2.778,13.492,13.492,0,0,1,2.477-2.244,13.659,13.659,0,0,1,2.832-1.546l.165.356a10.226,10.226,0,0,0-4.106,3.913,10.732,10.732,0,0,0-1.45,5.5,8.442,8.442,0,0,0,.342,2.394,6.036,6.036,0,0,0,1.026,2.038,5.125,5.125,0,0,0,1.711,1.41,5.041,5.041,0,0,0,2.367.534,4.947,4.947,0,0,0,3.147-.985,7.268,7.268,0,0,0,2.012-2.463,11.61,11.61,0,0,0,1.067-3.216,18.257,18.257,0,0,0,.315-3.243,19.89,19.89,0,0,0-.164-2.573q-.165-1.259-.342-2.5t-.342-2.505a19.688,19.688,0,0,1-.164-2.571q0-.933.068-1.918a16.939,16.939,0,0,1,.26-2,12.143,12.143,0,0,1-2.778,2.422,6.193,6.193,0,0,1-3.38,1,4.631,4.631,0,0,1-2.012-.423,4.563,4.563,0,0,1-1.5-1.137,4.792,4.792,0,0,1-.93-1.683,6.566,6.566,0,0,1-.315-2.039,8.925,8.925,0,0,1,.4-2.559,12.724,12.724,0,0,1,1.094-2.573,14.338,14.338,0,0,1,1.656-2.353,12.74,12.74,0,0,1,2.094-1.943,10.123,10.123,0,0,1,2.4-1.314,7.183,7.183,0,0,1,2.572-.479,5.146,5.146,0,0,1,1.328.178,4.393,4.393,0,0,1,1.231.534,2.833,2.833,0,0,1,.9.9,2.433,2.433,0,0,1,.343,1.314,1.973,1.973,0,0,1-.247.985,3.027,3.027,0,0,1-.629.781,5.323,5.323,0,0,1-.849.616,8.446,8.446,0,0,1-.9.464l-.109-.328a1.347,1.347,0,0,0,.3-.6,3.028,3.028,0,0,0,.082-.685,3.462,3.462,0,0,0-.151-1,3.334,3.334,0,0,0-.438-.931,2.39,2.39,0,0,0-.725-.7,1.824,1.824,0,0,0-.985-.274,4.424,4.424,0,0,0-2.518.753,6.994,6.994,0,0,0-1.9,1.9,9.443,9.443,0,0,0-1.2,2.5,8.569,8.569,0,0,0-.425,2.559,8.862,8.862,0,0,0,.151,1.614,4.937,4.937,0,0,0,.506,1.479,3.056,3.056,0,0,0,.972,1.08,2.706,2.706,0,0,0,1.574.425,5.1,5.1,0,0,0,2.736-.78,10.715,10.715,0,0,0,2.245-1.847,9.995,9.995,0,0,1,1-2.067,6.683,6.683,0,0,1,1.519-1.684l.465.329a5.959,5.959,0,0,0-.821,2.3,17.07,17.07,0,0,0-.192,2.518,19.419,19.419,0,0,0,.219,2.9q.219,1.449.479,2.928t.479,2.984A21.246,21.246,0,0,1,8185.222,271.59Z" fill="#f4f0ed"/><path d="M8203.148,257.3a6.967,6.967,0,0,1-.521,2.684,6.647,6.647,0,0,1-1.45,2.189,7.064,7.064,0,0,1-2.176,1.477,6.622,6.622,0,0,1-2.7.547,6.208,6.208,0,0,1-3.6-1.163,5.909,5.909,0,0,1-1.354-1.355,5.1,5.1,0,0,1-.821-1.751l.629-.163a6.424,6.424,0,0,0,1.656,1.45,4.271,4.271,0,0,0,4.022.136,4.84,4.84,0,0,0,1.479-1.148,5.261,5.261,0,0,0,.958-1.657,5.631,5.631,0,0,0,.342-1.929,5.081,5.081,0,0,0-.329-1.958,4.04,4.04,0,0,0-.862-1.313,6.254,6.254,0,0,0-1.189-.931q-.658-.395-1.328-.807a10.363,10.363,0,0,1-1.286-.93,4.513,4.513,0,0,1-1.054-1.341,12.883,12.883,0,0,1-.547,3.393,18.234,18.234,0,0,1-1.41,3.449,20.836,20.836,0,0,1-2.039,3.12,13.994,13.994,0,0,1-2.436,2.436l-.219-.384a8.886,8.886,0,0,0,1.533-2.326,18.306,18.306,0,0,0,1.081-2.942,23.364,23.364,0,0,0,.629-3.106,22.005,22.005,0,0,0,.205-2.846,6.59,6.59,0,0,0-.137-1.342,6.324,6.324,0,0,1-.136-1.285,1.511,1.511,0,0,1,.451-1.178,1.662,1.662,0,0,1,1.163-.411,1.426,1.426,0,0,1,.876.247,2.722,2.722,0,0,1,.6.643,9.941,9.941,0,0,1,.549.9,7,7,0,0,0,.7,1.04,6.4,6.4,0,0,0,1.067,1.04,6.161,6.161,0,0,0,1.656.89,20.2,20.2,0,0,1,2.258,1,8.852,8.852,0,0,1,1.915,1.327,5.546,5.546,0,0,1,1.82,4.3Z" fill="#f4f0ed"/><path d="M8218.53,248.846a.759.759,0,0,1-.22.534.689.689,0,0,1-.52.232,1.07,1.07,0,0,1-.52-.151c-.184-.1-.389-.214-.616-.341a4.666,4.666,0,0,0-.794-.342,3.225,3.225,0,0,0-1.026-.151,3.753,3.753,0,0,0-2.395.834,7.4,7.4,0,0,0-1.779,2.067,10.715,10.715,0,0,0-1.108,2.628,9.581,9.581,0,0,0-.383,2.517,8.648,8.648,0,0,0,.136,1.546,4.418,4.418,0,0,0,.479,1.369,2.623,2.623,0,0,0,.945.985,2.875,2.875,0,0,0,1.531.37,4.934,4.934,0,0,0,1.89-.37,7.37,7.37,0,0,0,1.7-.972,8.186,8.186,0,0,1,.288-1.846,13.709,13.709,0,0,1,.67-1.916,13.329,13.329,0,0,1,.945-1.793,11.788,11.788,0,0,1,1.108-1.5l.355.218a11.127,11.127,0,0,0-.437,1.915,14.036,14.036,0,0,0-.138,1.944,10.194,10.194,0,0,0,.164,1.861,4.254,4.254,0,0,0,.575,1.519,2.876,2.876,0,0,0,1.122,1.012,3.962,3.962,0,0,0,1.834.37,5.163,5.163,0,0,0,2.518-.629,7.8,7.8,0,0,0,2.025-1.589l.219.11a8.553,8.553,0,0,1-1.286,1.834,11.126,11.126,0,0,1-1.766,1.574,8.831,8.831,0,0,1-2.066,1.108,6.112,6.112,0,0,1-2.161.41,3.544,3.544,0,0,1-2.464-.861,4.407,4.407,0,0,1-1.313-2.176,11.394,11.394,0,0,1-2.559,1.929,6.037,6.037,0,0,1-2.97.78,4.7,4.7,0,0,1-2.039-.423,4.392,4.392,0,0,1-1.491-1.137,4.909,4.909,0,0,1-.917-1.683,6.538,6.538,0,0,1-.315-2.039,8.676,8.676,0,0,1,.4-2.531,13.337,13.337,0,0,1,1.1-2.559,14.341,14.341,0,0,1,1.656-2.381,12.818,12.818,0,0,1,2.094-1.97,10.142,10.142,0,0,1,2.394-1.342,7.014,7.014,0,0,1,2.573-.493,5.148,5.148,0,0,1,.739.068,3.922,3.922,0,0,1,.848.234,1.949,1.949,0,0,1,.7.465A1.065,1.065,0,0,1,8218.53,248.846Z" fill="#f4f0ed"/><path d="M8240.534,260.177a7.035,7.035,0,0,1-2.463,2.859,6.386,6.386,0,0,1-3.613,1.054,4.764,4.764,0,0,1-2.983-1.012,9.6,9.6,0,0,1-2.312-2.654,18.561,18.561,0,0,1-1.7-3.709,37.1,37.1,0,0,1-1.148-4.2,39.425,39.425,0,0,1-.657-4.118,34.264,34.264,0,0,1-.205-3.463q0-1.808.19-3.968a41.236,41.236,0,0,1,.631-4.366,34.748,34.748,0,0,1,1.136-4.283,17.272,17.272,0,0,1,1.7-3.68,9.183,9.183,0,0,1,2.312-2.573,4.929,4.929,0,0,1,3.011-.972,3.3,3.3,0,0,1,2.354.849,5.992,5.992,0,0,1,1.424,2.094,10.207,10.207,0,0,1,.7,2.64,20,20,0,0,1,.177,2.492,24.464,24.464,0,0,1-.7,5.815,27.327,27.327,0,0,1-1.916,5.391,24.265,24.265,0,0,1-2.859,4.6,18.882,18.882,0,0,1-3.531,3.463q.382,1.833.917,3.571a15.471,15.471,0,0,0,1.3,3.092,7.834,7.834,0,0,0,1.765,2.19,3.463,3.463,0,0,0,2.286.834,4.482,4.482,0,0,0,2.217-.519,5.851,5.851,0,0,0,1.725-1.533Zm-11.276-16.888c-.018.4-.022.9-.014,1.48s.037,1.226.083,1.929.113,1.454.205,2.258.209,1.624.355,2.463a17.812,17.812,0,0,0,3.12-3.641,20.736,20.736,0,0,0,2.107-4.31,25.424,25.424,0,0,0,1.19-4.871,37.267,37.267,0,0,0,.369-5.323c0-.238,0-.547-.014-.932s-.041-.793-.095-1.231-.134-.876-.233-1.314a5.589,5.589,0,0,0-.411-1.19,2.705,2.705,0,0,0-.656-.876,1.4,1.4,0,0,0-.944-.342,2.256,2.256,0,0,0-1.82,1.027,9.583,9.583,0,0,0-1.341,2.612,24.306,24.306,0,0,0-.93,3.5q-.371,1.917-.59,3.682t-.3,3.161Q8229.258,242.769,8229.258,243.289Z" fill="#f4f0ed"/><path d="M8272.583,259.273a12.641,12.641,0,0,1-1.177,1.9,9.605,9.605,0,0,1-1.533,1.629A7.175,7.175,0,0,1,8268,263.94a5.777,5.777,0,0,1-2.23.425,3.6,3.6,0,0,1-2.764-1.151,8.7,8.7,0,0,1-1.738-3,23.377,23.377,0,0,1-1.054-4.188q-.384-2.339-.657-4.721-.63,1.123-1.163,2.341t-1.025,2.557q-.494,1.342-.986,2.765t-1.066,2.928c-.092.219-.192.462-.3.726a4,4,0,0,1-.424.767,2.492,2.492,0,0,1-.616.615,1.451,1.451,0,0,1-.848.247,1.2,1.2,0,0,1-.63-.165,2.032,2.032,0,0,1-.479-.4,2.64,2.64,0,0,1-.355-.519q-.151-.288-.26-.534a15.77,15.77,0,0,1-.876-2.518q-.328-1.287-.562-2.654t-.4-2.9q-.166-1.53-.329-3.256-.576,1.341-1.026,2.56t-.876,2.435q-.425,1.218-.848,2.518t-.891,2.806c-.072.237-.149.488-.231.751a4.106,4.106,0,0,1-.3.725,1.67,1.67,0,0,1-.466.548,1.158,1.158,0,0,1-.725.219,1.2,1.2,0,0,1-1.04-.452,4.191,4.191,0,0,1-.547-1.053,14.073,14.073,0,0,1-.63-2.286q-.3-1.461-.547-3.188t-.384-3.558q-.138-1.831-.137-3.42a2.863,2.863,0,0,1,.821-2.259,3.151,3.151,0,0,1,2.162-.725h.246a1.332,1.332,0,0,1,.329.042.9.9,0,0,1,.286.122.2.2,0,0,1,.1.219q-.246,1.915-.329,3.64t-.054,3.353q.026,1.629.178,3.2t.4,3.216q.466-1.56.917-2.984t.944-2.818q.494-1.4,1.054-2.833t1.218-3.024a3.075,3.075,0,0,1,.754-1.15,1.557,1.557,0,0,1,1.025-.328,1.471,1.471,0,0,1,1.245.6,3.188,3.188,0,0,1,.589,1.369q.218,1.4.383,2.859t.356,2.943q.19,1.478.465,2.914a22.256,22.256,0,0,0,.711,2.778q.548-1.422,1.095-2.969t1.122-3.106q.576-1.56,1.219-3.066t1.382-2.846a4.363,4.363,0,0,1,.808-1.053,1.592,1.592,0,0,1,1.136-.425,1.317,1.317,0,0,1,.685.178,1.789,1.789,0,0,1,.52.466,2.687,2.687,0,0,1,.356.628,3.214,3.214,0,0,1,.19.7q.138.794.261,2.052t.329,2.683q.2,1.422.506,2.86a15.657,15.657,0,0,0,.766,2.6,6.439,6.439,0,0,0,1.122,1.9,2.052,2.052,0,0,0,1.588.739,3.915,3.915,0,0,0,1.479-.288,6.454,6.454,0,0,0,1.341-.738,7.482,7.482,0,0,0,1.163-1.04c.355-.393.679-.78.971-1.165Z" fill="#f4f0ed"/><path d="M8144.552,218.732c-1.867.182-2.036,1.178-2.777,1.838-.476.634-.949,1.268-1.484,1.32s-1.372-.258-3.11-1.459-3.04-3.425-4.036-5.286a6.059,6.059,0,0,1-1.55-2l-1.451-1.033-.326-.556-1.53-1.809c-1.471-1.228-2.942-2.455-3.1-4.007a.752.752,0,0,0-.326-.556l-1.569-2.2a3.15,3.15,0,0,0-.67-1.305l-1.491-1.422a1.583,1.583,0,0,1-1.165-.866s-.384-1.137-.73-1.887a6.41,6.41,0,0,0-1.914-2.947,8.49,8.49,0,0,0-.878-.7,7.335,7.335,0,0,1-1.341-2.611c-.02-.194-.307-.361-.326-.556a18.91,18.91,0,0,0-3.77-5.312c-.02-.194-.592-.53-.878-.7s-.385-1.138-.385-1.138-.4-1.331-.689-1.5l-.88-.7c-.819-.116-1.106-.284-1.145-.672l-1.934-3.141-1.817-1.977c-.571-.336-.878-.7-.9-.892a1.624,1.624,0,0,1-.346-.749,1.366,1.366,0,0,1-.365-.944l-.858-.5a2.827,2.827,0,0,1-.632-.917l-1.628-2.779-3.464-4.951a3.719,3.719,0,0,1-1.491-1.421l-1.243-1.641a2.318,2.318,0,0,1-1.2-1.254,20.079,20.079,0,0,1-5.212-3.605,19.426,19.426,0,0,0-4.335-2.906l-7.724-1.792a2.99,2.99,0,0,1-1.451-1.034,2.489,2.489,0,0,1,1.294-.518l3.6-1.722c2.3-1.2,5.366-2.874,5.366-2.874a6.7,6.7,0,0,1,2.264-1.592s.78-.272,2.075-.791l.988-.879a11.551,11.551,0,0,1,2.322-1.01l1.483-1.32a17.637,17.637,0,0,1,3.273-2.278l1.71-1.734c.949-1.268,2.165-2.562,3.213-2.86l2.016-1.372a15.981,15.981,0,0,0,2.985-2.446l3.629-4.076c-.246.221.455-.827.931-1.461l4.676-4.374a24.162,24.162,0,0,0,4.252-5.9,27.546,27.546,0,0,1,3.075-4.217,6.128,6.128,0,0,0,1.366-2.484l.683-1.242,1.435-4.449c1.256-.906,3.147-6.183,3.009-7.541a4.57,4.57,0,0,1,1.366-2.483,2.9,2.9,0,0,1,.377-1.6,16.208,16.208,0,0,0,.824-5.173l-.137-1.358c-1.193-3.8-3.875-9.023-11.078-8.32-4.267.417-6.276,4.53-6.119,6.082l.686,6.788c.02.194-.357,1.8-.546,2.6.039.388-.208.608-.169,1,.078.776-.4,1.41-.584,2.212.078.775.345.749.365.943a2.292,2.292,0,0,1-.417,1.216,1.633,1.633,0,0,0-.169,1,8.258,8.258,0,0,0-.03,2.353,5.692,5.692,0,0,1-.26,2.768c-.553-.142-.831,2.431-1.059,2.845a14.261,14.261,0,0,0-1.02,3.234c.137,1.357-1.95,4.695-3.088,6.764l-.683,1.242c-1.443,1.708-9.591,11.709-11.321,13.249l.1.969a5.171,5.171,0,0,0-2.758,2.033,3.579,3.579,0,0,1-2,1.565l-2.66,3a29.609,29.609,0,0,1-3.954,3.52l-2.817,1.45a2.41,2.41,0,0,1-1.73,1.54c-.533.052-1.047.3-1.314.324-.247.22-.494.44-.475.634a9.548,9.548,0,0,1-3.044,1.864l-2.055.984-2.017,1.372a10.845,10.845,0,0,1-3.786,2.524l-7.2.7-1.047.3-1.6.157.529,5.236c1.177-1.682,3.331-1.7,3.845-1.942l1.6-.156c.8-.078,2.114-.4,2.648-.455.207-.607.474-.633.741-.659l2.518.929s.593.53.86.5l2.694,2.675a2.581,2.581,0,0,0,.612.723c1.224,1.448,3.1,4.007,4.472,4.264l-.188.8c1.8,1.784,2.812,3.839,4.075,5.674l.957,1.474c.137,1.357.314,3.1,1.153,3.413.612.723.632.918.671,1.305a6.534,6.534,0,0,1,.365.944,8.444,8.444,0,0,1,1.588,2.391l2.181,2.921.71,1.693a18.24,18.24,0,0,0,2.6,4.447,40.92,40.92,0,0,0,3.366,3.981,5.177,5.177,0,0,0,.4,1.331,55.8,55.8,0,0,0,6.276,8.789,8.087,8.087,0,0,1,1.282,2.029,6.528,6.528,0,0,0,1.55,2l.858.5a22.033,22.033,0,0,0,6,6.074l2.291,1.343a1.381,1.381,0,0,0,.612.724c.286.168.918,1.085,1.184,1.06l8.344,5.257c.286.168,6.755,2.866,7.575,2.982a16.316,16.316,0,0,1,4.385.747l1.393.452a7.266,7.266,0,0,1,1.353.064,6.181,6.181,0,0,0,1.886.011,8.51,8.51,0,0,0,6.505-4.944A5.448,5.448,0,0,0,8144.552,218.732Z" fill="#f4f0ed"/><path d="M8052.866,100.846c-1.481.875-2.093.634-2.589-.78a5.663,5.663,0,0,1-.222-1.887c-.008-2.088-.006-4.175-.022-6.263a15.837,15.837,0,0,0-.291-4.055,6.84,6.84,0,0,1-.074-1.674c-.017-2.489-.012-4.979-.041-7.467a23.5,23.5,0,0,0-.156-3.354c-.217-1.393.452-2.261,1.625-2.338a5.819,5.819,0,0,1,1.173,0,2.366,2.366,0,0,0,2.692-1.36c.408-.744,1.136-.711,1.468.046a2.011,2.011,0,0,0,2.283,1.353,5.125,5.125,0,0,1,1.366.06,2.1,2.1,0,0,1,1.626,2.085,4.848,4.848,0,0,1-.224,2.5c-1.063-1.142-2.037-2.237-3.644-1.559a2.413,2.413,0,0,0-1.548,2.147c-1,6.192-.507,12.531-1.283,18.746C8054.79,98.77,8053.619,99.474,8052.866,100.846Z" fill="#f4f0ed"/><path d="M8057,179.723c-.048-.653-.074-1.141-.147-1.8a14.068,14.068,0,0,1-.516-4.425c-.127-6.474.047-12.955-.168-19.645a8.39,8.39,0,0,0,.167-4.033,9.4,9.4,0,0,1-.058-2.893,21.062,21.062,0,0,0,.335-2.8c.224-1.386.769-2.027,1.975-.9.126,1.751.169,3.314.2,5.086a71.207,71.207,0,0,1,.084,11.475c-.043,2.676-.031,5.121-.03,7.776a13.545,13.545,0,0,1,.17,3.126c.364,7.9.452,15.623.488,23.343,0,.477.024.954.076,1.647a3,3,0,0,1,.138,1.136c-.008.949.009,1.767.044,2.789.089,1.215.019,2.231.095,3.41.015.376.013.585.049.943a12.023,12.023,0,0,1,.225,4.365c-.024,1.969-.017,3.738.006,5.728.155,2.159.9,4.132-.339,6.108-1.827-.323-1.687-2.089-1.666-3.481.05-3.365-.343-6.684-.467-10.028a2.552,2.552,0,0,0-.339-1.307c-.4-1.79-.144-3.435-.265-5.284-.748-2.289-.213-4.462-.366-6.765-.008-.786.371-1.285.252-2.065-.084-.8-.128-1.428-.141-2.248a2.762,2.762,0,0,0-.035-2.977c-.122-1.6-.078-3.034-.058-4.643A7.333,7.333,0,0,0,8057,179.723Z" fill="#f4f0ed"/><path d="M8039.224,244.806a5.615,5.615,0,0,1,2.06-5.363A13.326,13.326,0,0,1,8045.22,237c.618,1.43-.761,1.5-1.063,2.542.6.3,1.087-.145,1.566-.376a15.377,15.377,0,0,1,6.776-1.853c1.653.015,2.947-1.784,4.788-1.176.8.664.807,1.648,1.088,2.485.346,1.028.675.6.9-.327.032-.762.04-1.357.143-2.133a2.451,2.451,0,0,1,.267-.688,1.871,1.871,0,0,1,1.816-.419,3.975,3.975,0,0,1,1.175.62c1.076,1.11,2.282,2.177,1.65,3.88-.649,1.747-1.741,3.274-3.544,3.3a5.075,5.075,0,0,0-4.32,1.768,1.181,1.181,0,0,1-1.644.314c-2.2-1.539-4.641-.089-6.891-.893a.2.2,0,0,0-.191.027C8045.094,246.6,8042.207,245.458,8039.224,244.806Z" fill="#f4f0ed"/><path d="M8071,124.042c.168,2.689.229,5.241.32,8.01a14.784,14.784,0,0,1,.1,4.936c-.267,3.727-.181,7.242-.121,10.977a2.865,2.865,0,0,1,.12,1.115c.029,2.183.115,4.184.153,6.188q.183,9.747.341,19.5c.011.641.051,1.282.11,2.144a5.62,5.62,0,0,1,.257,2.8,5.286,5.286,0,0,0-.469,3.349,2.277,2.277,0,0,1-.972,2.672,1.3,1.3,0,0,1-1.289-.315c-.558-3.461-.233-6.791-.292-10.315.106-.589.246-.95.355-1.517.262-1.77.785-3.309.521-5.137a13.169,13.169,0,0,0-.424-1.293,5.035,5.035,0,0,1-.383-2.129,16.117,16.117,0,0,0-.114-5.334,48.475,48.475,0,0,1-.259-9.681,28.242,28.242,0,0,0-.085-8.792,17.635,17.635,0,0,1-.1-4.631,18.654,18.654,0,0,0,.126-6.277,6.626,6.626,0,0,1-.357-3.073,7.464,7.464,0,0,0,.63-2.377C8069.335,123.518,8069.92,123.141,8071,124.042Z" fill="#f4f0ed"/><path d="M8052.932,100.988a2.775,2.775,0,0,1,1.3-2.884.807.807,0,0,0,.293-.986,5.571,5.571,0,0,1,.062-3.262,26.29,26.29,0,0,0,.422-8.1,12.666,12.666,0,0,1,.619-5.05,3.5,3.5,0,0,0,.047-2.329,1.782,1.782,0,0,1,.3-1.708,2.417,2.417,0,0,1,2.356-1.308,6.67,6.67,0,0,0,1.551-.084c1-.158.994-.179,1.127,1.117a6.97,6.97,0,0,0,.263,1.312,8.842,8.842,0,0,1,.139,1.875c-.775.868-1.216.366-1.6-.41-.195-.4-.325-1.02-.806-.871-.527.163-.556.84-.591,1.39-.117,1.844.07,3.706-.083,5.538-.2,2.353-.317,4.5,1.179,6.488.855,1.134.377,2.794-.1,4.218,1.123-.929.428-2.441.892-3.73.826-.463.826-.463,1.342,1.3a4.039,4.039,0,0,1,.239.569,9.23,9.23,0,0,1-.062,1.43,1.022,1.022,0,0,0-.118.541c.082.793.088,1.464.1,2.337a1.96,1.96,0,0,1-.829,1.472c-.763.233-1.4.429-2.188.639a1.253,1.253,0,0,1-1.069.31,1.146,1.146,0,0,1-.518-.561c-.239-.5-.05-1.463-.763-1.429-.728.034-.769.92-.968,1.754a1.377,1.377,0,0,1-.3.542A10.618,10.618,0,0,0,8052.932,100.988Z" fill="#f4f0ed"/><path d="M8065.43,81.033a2.556,2.556,0,0,1-.86.378c-1.18.307-1.9-.291-1.969-1.752-.063-1.353-.02-2.713-.033-4.07a12.881,12.881,0,0,0-.282-3.552,4.927,4.927,0,0,1-.08-1.425,55.078,55.078,0,0,1,.193-7.081c.725-2.061.24-4.056.4-6,.107-1.3.041-2.651,1.459-2.9,1.317-.234,2.278.323,2.787,1.913a4.914,4.914,0,0,1,.422,3c-1.3,3.961-.192,8.063-.524,12.088a48.489,48.489,0,0,1-.938,7.484A5.459,5.459,0,0,1,8065.43,81.033Z" fill="#f4f0ed"/><path d="M8039.1,244.872c.231-.267.536-.291.705-.491.607-.718,1.129-.626,1.654.11a1.837,1.837,0,0,0,1.6.674,3.721,3.721,0,0,0,3.587-1.375,1.46,1.46,0,0,1,1.817-.464,5.675,5.675,0,0,0,4.209.013,1.238,1.238,0,0,1,1.456.38,5.513,5.513,0,0,0,.759.745c.476.352.955.2,1.347-.371a3.963,3.963,0,0,1,2.768-1.822c.78-.034,1.562-.015,2.343-.026a1.171,1.171,0,0,0,1.128-.784,3.945,3.945,0,0,1,1.091-1.329,1.766,1.766,0,0,0,.246-2.31c-.356-.568-.765-1.086-1.2-1.787,1.129-1.117,2.532-.525,3.058,1.148.917,2.915.215,5.088-2.2,6.067-2.653,1.073-5.375,1.885-7.991,3.652-1.544.6-2.976.322-4.542.38a22.075,22.075,0,0,0-3.649.022c.936.646,2.108.263,2.762,1.536-.744,1.005-1.655.7-2.424.561a20.743,20.743,0,0,1-5.656-1.371A5.338,5.338,0,0,1,8039.1,244.872Z" fill="#f4f0ed"/><path d="M8072.267,212.978a32.523,32.523,0,0,1,3.959-.1,1.755,1.755,0,0,1,1.576.481.68.68,0,0,1-.052.64,2.152,2.152,0,0,1-.787.4,1.8,1.8,0,0,0-1.027.516,4.65,4.65,0,0,1,2.583,4.63c-.074,1.827-.586,3.106-2.183,3.73-2.014.787-4.284.516-6.076,2.236a4.635,4.635,0,0,0-1.148,1.166,2.043,2.043,0,0,1-.784.624,31.31,31.31,0,0,1-5.817.211,4.676,4.676,0,0,1-2.055-.329,1.637,1.637,0,0,1-.5-.561,10.671,10.671,0,0,1-.32-4.033c1.269-1.136,2.626-.879,3.875-.691,3.08.465,6.093-.094,9.124-.518a3.088,3.088,0,0,0,1.671-.593,2.463,2.463,0,0,0,1.176-2.055,2.016,2.016,0,0,0-1.367-1.821,5.415,5.415,0,0,1-1.887-1.122A3.08,3.08,0,0,1,8072.267,212.978Z" fill="#f4f0ed"/><path d="M8057.4,100.455a4.117,4.117,0,0,0,1.1.04,18.267,18.267,0,0,0-.018,2.376c-.037,1.83-.064,3.66-.177,5.657-.677.2-.6-.365-.6-.813-.3,8.2-.59,16.406-.47,24.62a6.508,6.508,0,0,0,1.107,4.157,3.328,3.328,0,0,1,.423.963,34.93,34.93,0,0,1-.008,5.8,3.075,3.075,0,0,1-.954-.248c-.336-.078-.612.12-.692.57-.174.974.114,2-.354,3.081-1.17-.156-.822-1.226-.836-1.989-.051-2.841-.021-5.684-.018-8.749-.015-.878-.032-1.534-.065-2.386a4.782,4.782,0,0,1-.324-2.052c.2-9.537-.256-19.061-.387-28.823-.021-.538-.048-.845-.076-1.306a1.538,1.538,0,0,1,.051-.393A2.131,2.131,0,0,1,8057.4,100.455Z" fill="#f4f0ed"/><path d="M8065.564,79.5c.421-1.88.431-3.827.87-5.656a1.027,1.027,0,0,0,.032-.474c-.495-1.813.1-3.612.037-5.42a15.776,15.776,0,0,0-.3-3.557,4.356,4.356,0,0,1,.219-2.8,8.635,8.635,0,0,0,.453-1.57c.186-.91.513-1.858-.225-2.66a.5.5,0,0,1-.081-.216c-.136-.6-.033-1.341-.575-1.7a2.837,2.837,0,0,0-1.909-.255c-.455.032-.7.41-.709.953-.022,1.441-.015,2.882-.028,4.322-.006.72-.016,1.44-.049,2.158-.016.348-.215.559-.635.717a12.482,12.482,0,0,1-.434-4.106c-.1-1.057-.038-1.916-.074-2.932-.008-.523-.011-.884-.014-1.427a1.708,1.708,0,0,1,.336-1.044,2.426,2.426,0,0,1,1.747-.535c.9.028,1.794.028,2.869.057,2.25-.174,4.186.773,6.331,1.186a3.5,3.5,0,0,1,.161,1.4c-.653.914-1.434.832-2.35.865-.362.012-.567.021-.918.06a1.466,1.466,0,0,0-.875,1.944,4.877,4.877,0,0,1,.215,2.36c-1.078,3.956-1.09,8.137-1.782,12.167a14.184,14.184,0,0,0-.339,3.537C8067.654,78.455,8067.11,79.5,8065.564,79.5Z" fill="#f4f0ed"/><path d="M8077.916,214.021a.784.784,0,0,0,.017-.413,13.02,13.02,0,0,1,5.226.131,2.594,2.594,0,0,1,1.3.368,6.934,6.934,0,0,0,.71.253.938.938,0,0,1,.822.313c.223.178.371.256.615.422a.869.869,0,0,1,.553.63c.191,1.131-.37,2.062.472,3.153.686.889-.592,1.586-1.283,2.318-.334.267-.569.421-.9.7-1.9,2-3.569,4.157-6.24,3.979-.421-.028-.576.57-.942,1a16.6,16.6,0,0,1-1.694.582,8.476,8.476,0,0,0-.964.335,10.639,10.639,0,0,1-1.068.218,4.07,4.07,0,0,1-1.552-2c.488-1.683,1.74-1.562,2.709-2.031.653-.315,1.363-.441,2.154-.825,1.36-.8,2.888-.818,3.61-2.707,1.157-3.025,1-3.5-1.9-4.134a1.812,1.812,0,0,1-1.641-2.282Z" fill="#f4f0ed"/><path d="M8065.387,79.6c.779-.2,1.145-.954,1.643-1.435a.849.849,0,0,0,.139-.887,5.31,5.31,0,0,1,.129-3.714c.209-.672.384-1.363.539-2.057a2.324,2.324,0,0,0,.12-1.159c-.7-1.607.135-3.136.092-4.7-.027-.974.705-1.626.844-2.64.219-1.6.658-3.111-.279-4.579a.832.832,0,0,1,0-.662c.38-.52.457-1.372,1.257-1.586,1.135,3.257.716,6.608.408,9.9-.2,2.195-.369,4.279.526,6.287a7.929,7.929,0,0,1,.393,2.795c.054.819.253,1.911,1.318.753.135-1.153-.259-2.12.067-3.263,1.968-.449,1,1.59,1.564,2.607a12.585,12.585,0,0,1,.158,1.915,5.4,5.4,0,0,1-.72,2.435c-.732.729-1.533.72-2.4,1.027a.916.916,0,0,1-1.029.35,1.3,1.3,0,0,1-.467-.627c-.206-.527-.043-1.457-.747-1.449-.766.008-.754.915-.927,1.754a1.9,1.9,0,0,1-.267.6.6.6,0,0,1-.767.061,6.522,6.522,0,0,0-1.5-.121A4.143,4.143,0,0,1,8065.387,79.6Z" fill="#f4f0ed"/><path d="M8072.37,212.6c.006,1.063-.013,1.9.008,2.949a2.7,2.7,0,0,1,.269,1.845c-.474.9-.564,1.8-1,2.711a.7.7,0,0,1-.862.076c-.95-1.6-.13-3.478-.943-5.173a2.23,2.23,0,0,1,.01-1.535c.1-1.942.116-3.707.1-5.689-.649-2.478-.269-4.794-.227-7.312.07-.715.092-1.208.143-1.882a4.976,4.976,0,0,0,.023-2.061c-.089-.34-.143-.54-.24-.891a29.011,29.011,0,0,1-.063-10.111,2.8,2.8,0,0,1,1.077-.172c1,2.217.96,4.617,1.074,6.986s-.264,4.795.383,7.338a5.41,5.41,0,0,1,.207,1.136C8072.345,204.671,8072.343,208.525,8072.37,212.6Z" fill="#f4f0ed"/><path d="M8060.718,91.711c-.108,1.6-.1,3.04-.142,4.481-.019.695-.425,1.028-.927.786a4.309,4.309,0,0,1-1.027-.665.835.835,0,0,1,.309-1.465c.178-.079.417-.064.429-.351.049-1.19.234-2.425-.685-3.325-.253-.248-.45-.58-.687-.855a2.2,2.2,0,0,1-.507-1.968c.657-2.758.266-5.571.349-8.357a4.82,4.82,0,0,1,.708-2.67.548.548,0,0,1,.873-.15,2.359,2.359,0,0,1,.839,1.8c.038.608.415.748.983.786a3.71,3.71,0,0,1,.308,1.231,3.562,3.562,0,0,1,.157,1.068,4.172,4.172,0,0,0,.012.872c.529,2.606,1,5.083-.423,7.515-.851-.486-.189-1.51-.615-2.169A11.076,11.076,0,0,1,8060.718,91.711Z" fill="#f4f0ed"/><path d="M8066.884,81.407c.158-.183.328-.162.62-.09a3.556,3.556,0,0,1,1.083,3.06c-.128,4.255.526,8.468.4,12.941.073,1.981.015,3.742.017,5.721-.033,1.092-.038,1.966-.022,3.06.056,1.251.046,2.283.008,3.54a62.634,62.634,0,0,0,.344,8.056c.387,2.987-.034,6.017-.265,9.243a9.373,9.373,0,0,0,.068,2.806c.167,2.13,0,4.093.128,6.243.027,1.658.032,3.121.047,4.8a5.879,5.879,0,0,1-.4,2.044.65.65,0,0,1-.783-.622c-.054-.635-.047-1.279-.048-1.918-.009-4.725,0-9.449-.026-14.173a24.253,24.253,0,0,0-.319-5.72,8.429,8.429,0,0,1-.047-1.913q-.012-8.887-.023-17.775a13.033,13.033,0,0,0-.273-3.564,7.5,7.5,0,0,1-.093-1.906c-.015-3.2-.041-6.406-.018-9.608A19.339,19.339,0,0,0,8066.884,81.407Z" fill="#f4f0ed"/><path d="M8059.92,226.261a3.134,3.134,0,0,0,.193.481,2.592,2.592,0,0,1,.541,1.912,4.044,4.044,0,0,1-.1.662,2.783,2.783,0,0,0-.364,1.754,16.358,16.358,0,0,1,.145,2.07,5.838,5.838,0,0,1-.266,2.235,3.87,3.87,0,0,1-.234.5.855.855,0,0,1-.961.407c-.693-.49-.82-1.368-1.42-1.989a.681.681,0,0,1-.043-.586c.1-1.423.1-2.728.078-4.247-.78-1.324-.548-2.663-.59-4.143,0-1.286.014-2.364.034-3.635a9.417,9.417,0,0,1,.112-1.11,3.973,3.973,0,0,0,.107-1.982,9.946,9.946,0,0,1-.007-2.324,2.954,2.954,0,0,0,.19-1.878,70.106,70.106,0,0,1-.157-8.992c1.011-.007,1.075.02,1.082.779.034,3.514.614,6.994.4,10.526a4.3,4.3,0,0,0,.971,3.353.841.841,0,0,1,.4.439,1.915,1.915,0,0,1-.04.994c-.518.624-.833,1.132-.488,1.919A11.238,11.238,0,0,1,8059.92,226.261Z" fill="#f4f0ed"/><path d="M8068.608,109.771c-.072-1.117-.065-2.045-.042-3.169a6.054,6.054,0,0,0,.111-3.189c-.068-1.858-.1-3.563-.116-5.48.707-2.782.284-5.466.552-8.07.15-1.465-.2-3.913,1.189-3.994.909-.054.326,2.484.464,3.849a25.5,25.5,0,0,1,0,2.856c.2,7.95.2,15.688.08,23.655-1.441.97-1.9.012-2.006-1.515A32.336,32.336,0,0,0,8068.608,109.771Z" fill="#f4f0ed"/><path d="M8058.455,136.453c-1.352-.139-1.692-.485-1.735-1.869-.067-2.163-.07-4.33-.078-6.495q-.017-4.211,0-8.42a14.729,14.729,0,0,1,.338-4.281,4.641,4.641,0,0,0,.083-1.431,47.512,47.512,0,0,1,.542-8.277c.5.938.114,1.936.524,2.88.191,3.541.285,6.948.367,10.565.283,4.87.15,9.532,0,14.4C8058.453,134.568,8058.47,135.407,8058.455,136.453Z" fill="#f4f0ed"/><path d="M8057.336,233.583a.528.528,0,0,1,.389.283,3.43,3.43,0,0,1-.06,2.376c-1,.247-1.88.168-2.706.923a2.981,2.981,0,0,1-2.033.729,15.416,15.416,0,0,0-7.711,2.222,7.45,7.45,0,0,1-1.3.511.583.583,0,0,1-.678-.345.942.942,0,0,1,.1-1.081,3.534,3.534,0,0,1,1.1-.975,1.545,1.545,0,0,0,.891-1.07,41.429,41.429,0,0,1,5.988-2.148c1.013-.2,1.911-.864,2.963-1.063A23.289,23.289,0,0,1,8057.336,233.583Z" fill="#f4f0ed"/><path d="M8072.868,72.473c.042,1.1.149,2.072.253,3.234-1.1,1-1.576.263-1.741-.949-.219-1.616.016-3.4-1.307-4.54-.219-.189-.138-.591-.042-.894.58-1.848.324-3.78.357-5.677.054-3.067.16-3.256,2.823-3.878a.871.871,0,0,1,.562.135,14.638,14.638,0,0,1,.234,2.239c.564,1.978.22,3.824.234,5.852-.006,1.347.017,2.485.008,3.833C8073.874,72.673,8073.288,71.8,8072.868,72.473Z" fill="#f4f0ed"/><path d="M8070.844,92.619c-.5-.35-.376-1.015-.392-1.636-.044-1.651-.073-3.3-.232-4.962a27.418,27.418,0,0,0-.643,5.557,16.7,16.7,0,0,1-.431,5.412,1.89,1.89,0,0,1-.449.653,5.193,5.193,0,0,1-.267-2.3c-.03-1.356-.1-2.695-.25-4.051a54.537,54.537,0,0,1-.14-5.994,14.213,14.213,0,0,0-.4-3.735,1.94,1.94,0,0,1,.012-.4,1.705,1.705,0,0,1,2.229-.529,2.955,2.955,0,0,0,1.035.038c.1,3.046.08,6.094.052,9.143C8070.961,90.689,8070.938,91.57,8070.844,92.619Z" fill="#f4f0ed"/><path d="M8055.789,135.838c.6.327.5.995.508,1.616.016,2.378.009,4.757.028,7.136a11.788,11.788,0,0,0,.213,2.039,27.771,27.771,0,0,1,.116,2.844c.047,1.219.007,2.233.05,3.413.024,6.344.063,12.52.037,18.7-.008,1.927.441,3.819.143,5.958-.565.1-.931-.167-.935-.87,0-.559-.012-1.119-.013-1.678-.008-4.478,0-8.955-.026-13.432a21.063,21.063,0,0,0-.326-5.468,3.807,3.807,0,0,1-.035-.954q-.015-8.994-.02-17.989A4.323,4.323,0,0,1,8055.789,135.838Z" fill="#f4f0ed"/><path d="M8060.144,220.648a.838.838,0,0,1-.32-.422,16.551,16.551,0,0,0,.062-4.757,2.517,2.517,0,0,1,.174-1.056c.571.1.467.861.839,1.191,1.859-.5,3.692-.959,5.508-1.5a4.582,4.582,0,0,1,1.532-.257,3.384,3.384,0,0,0,1.841-.511,3.037,3.037,0,0,1,.4,1.194,2.459,2.459,0,0,1-.293,2.209,13.772,13.772,0,0,1-6.419,2.177A4.8,4.8,0,0,0,8060.144,220.648Z" fill="#f4f0ed"/><path d="M8060.554,248.093c.049,3.231.03,6.273.019,9.316a3.068,3.068,0,0,1-.469,2.009c-.552.7-1.145.759-1.687.077a4.64,4.64,0,0,1-.922-3.055c.021-2.4-.009-4.8-.026-7.448C8058.3,247.546,8059.385,247.672,8060.554,248.093Z" fill="#f4f0ed"/><path d="M8060.769,248.235c-1.117.15-2.085.254-3.18.437a25.351,25.351,0,0,1-6.221-.04c-.885-.263-2-.228-.922-1.795,1.654-.121,3.161-.212,4.841-.348a18.529,18.529,0,0,1,7.288-1.757c.836,1.666,2.267.33,3.242,1.311a.7.7,0,0,1,.136.554A19.305,19.305,0,0,1,8060.769,248.235Z" fill="#f4f0ed"/><path d="M8066.041,246.777c-.152-.038-.209-.12-.211-.174.285-1.232,1.19-1.333,1.926-1.706a4.776,4.776,0,0,0,2.24-1.521,2.672,2.672,0,0,1,.4-.413,2.036,2.036,0,0,0,1.231-1.354,2.8,2.8,0,0,1,.632-1c2.357-1.333,2.38-1.423,1.187-4.792a3.987,3.987,0,0,1-.787-.838,1.021,1.021,0,0,1-.018-.746,5.245,5.245,0,0,1,2.234.893,3.58,3.58,0,0,1,1.488,2.93,4.488,4.488,0,0,1-1.265,3.61c-1.666,1.347-3.184,3.03-5.224,3.6C8068.609,245.62,8067.492,246.556,8066.041,246.777Z" fill="#f4f0ed"/><path d="M8057.295,220.937c.114,1.259.145,2.391.143,3.731-1.978,1.209-3.788.523-5.695-.576-.142-2.011.4-3.47,1.854-4.378.965-.6,1.732-1.648,2.958-2.025C8057.063,218.672,8055.748,220.09,8057.295,220.937Z" fill="#f4f0ed"/><path d="M8055.015,102.568c.469.19.5.663.5,1.15,0,1.2-.006,2.395.016,3.592a18.84,18.84,0,0,0,.271,3.8,11.249,11.249,0,0,1,.1,2.382c0,6.465-.011,12.929-.052,19.621-.358.092-.636-.136-.664-.58-.042-.635-.037-1.274-.038-1.912-.007-4.308,0-8.615-.021-12.922a26.625,26.625,0,0,0-.309-5.461,14.988,14.988,0,0,1-.066-3.336A35.561,35.561,0,0,1,8055.015,102.568Z" fill="#f4f0ed"/><path d="M8068.483,109.807c.555-.027.693.448.7,1.048.007,1.33.026,2.66.045,3.99.015,1.031.415,1.607,1.448,1.613a5.173,5.173,0,0,1,.288,1.613,6.7,6.7,0,0,1,.176,1.1c.02,1.615.045,3.093.021,4.788-1.476-.039-1.479-.039-1.564,1.756a1.707,1.707,0,0,1-.456,1.348,3.167,3.167,0,0,1-.309-1.79c-.009-1.593,0-3.186-.013-4.78a40.706,40.706,0,0,0-.259-4.744A45.232,45.232,0,0,1,8068.483,109.807Z" fill="#f4f0ed"/><path d="M8072.259,199.7c-.874-.188-1.029-1.058-1.072-1.943-.051-1.037.006-2.082-.013-3.123a32.291,32.291,0,0,0-.323-6.21,15.483,15.483,0,0,1-.05-2.852,1.725,1.725,0,0,0,.634-1.912,7.858,7.858,0,0,1-.241-2.739.968.968,0,0,1,.491-.829c1.082.921.5,2.252.663,3.618.011,1.18.024,2.154.062,3.334.635,3.773.3,7.364.134,11.164C8072.418,198.794,8072.369,199.163,8072.259,199.7Z" fill="#f4f0ed"/><path d="M8051.618,224.157a2.06,2.06,0,0,1,2.367.458c.156.181.551.3.706.189.836-.62,1.616,0,2.565.07a28.455,28.455,0,0,1,.253,4.154,15.792,15.792,0,0,1-2.811-.726,5.251,5.251,0,0,1-2.551-2.018A2.948,2.948,0,0,1,8051.618,224.157Z" fill="#f4f0ed"/><path d="M8069.711,185.157a51.981,51.981,0,0,0-.046,5.876c0,1.338.022,2.676-.008,4.236-.388.159-.682-.033-.74-.471a11.082,11.082,0,0,1-.052-1.427q-.011-8.589-.012-17.177a3.514,3.514,0,0,1,.265-1.782c.185-.2.254-.259.428-.232C8069.66,177.821,8069.668,181.377,8069.711,185.157Z" fill="#f4f0ed"/><path d="M8069.669,164.922c.092.721.158,1.256.224,1.953-.043.5-.213.7-.581.726-.193-.2-.341-.309-.351-.437-.147-1.9-.545-3.755-.508-5.692.058-3.122,0-6.248.007-9.372a5.12,5.12,0,0,1,.255-2.277c.186-.2.256-.262.432-.235.086,3.331.215,6.567.4,10.012C8069.689,161.448,8069.54,163.1,8069.669,164.922Z" fill="#f4f0ed"/><path d="M8072.67,228.276c.093,1.861.085,3.556.076,5.46,0,.209-.012.384-.018.472-.518.376-1.013.082-1.672,0a2.062,2.062,0,0,1-1.17-.606,7.934,7.934,0,0,1-.2-4.479,1.783,1.783,0,0,1,.421-.643A2.621,2.621,0,0,1,8072.67,228.276Z" fill="#f4f0ed"/><path d="M8078.287,226.992a2.3,2.3,0,0,1-.017-.988c.135-.97.3-1.212.982-.888,1.2.572,2.2-.007,3.1-.773.945-.809,1.752-1.86,2.747-2.852.446.3.494.734.335,1.429a3.064,3.064,0,0,1-1.506,1.747C8082.093,225.457,8080.261,226.245,8078.287,226.992Z" fill="#f4f0ed"/><path d="M8058.554,133.6c-.316-.218-.3-.616-.3-1.016.021-4.3.039-8.611.143-13.081.348.121.418.506.418.908q-.013,6.3-.039,12.605A1.32,1.32,0,0,1,8058.554,133.6Z" fill="#f4f0ed"/><path d="M8072.9,228.382a18.258,18.258,0,0,1-2.317.186c-.845-.614-1.878-.465-2.321-1.734a1.46,1.46,0,0,1,.459-.475A5.005,5.005,0,0,1,8073,225.7c.276.286.4.518.564.564.6.17.826.634.822,1.534A4.886,4.886,0,0,1,8072.9,228.382Z" fill="#f4f0ed"/><path d="M8061.6,90.983c.249-2.6.054-5.07.1-7.731.562-.054.824.3.82.973-.011,1.984,0,3.969,0,5.953,0,.953,0,1.9,0,2.858a1.262,1.262,0,0,1-.464,1.127.843.843,0,0,1-.277.083A4.267,4.267,0,0,1,8061.6,90.983Z" fill="#f4f0ed"/><path d="M8085.977,221.091a7.412,7.412,0,0,1,.941-1.044c.309-.278.723-.557.51-1.082-.189-.465-.563-.013-.855-.015-.345,0-.431-.315-.329-.634a6.228,6.228,0,0,0,.583-2.392c.607-.511.9,0,1.251.666a2.952,2.952,0,0,1,.48,2.32,5.374,5.374,0,0,1-.412,1.165c-.081,1.223-.544,1.811-1.544,1.954C8086.161,221.9,8085.985,221.636,8085.977,221.091Z" fill="#f4f0ed"/><path d="M8072.606,198.354a6.882,6.882,0,0,1-.259-2.776c-.023-2.628-.021-5.256.03-8.1.4-.108.655.138.687.585.038.559.035,1.124.036,1.686q.007,3.5,0,6.991A1.778,1.778,0,0,1,8072.606,198.354Z" fill="#f4f0ed"/><path d="M8058.914,159.882a12.78,12.78,0,0,1-.251-3.919c-.025-2.321.006-4.643.064-7.2.305.04.461.39.46.8q-.012,4.867-.048,9.734A1.616,1.616,0,0,1,8058.914,159.882Z" fill="#f4f0ed"/><path d="M8050.4,246.739a.431.431,0,0,1,.04.473c-.145.356-.257.682.2.832a1.265,1.265,0,0,1,.508.458c-.176.573-.534.507-1,.507-1.084-.77-2.209-.717-3.265-.984a1.254,1.254,0,0,1-.858-.488.718.718,0,0,1-.095-.431.532.532,0,0,1,.207-.353,1.24,1.24,0,0,1,.562-.138C8047.874,246.623,8049.044,246.65,8050.4,246.739Z" fill="#f4f0ed"/><path d="M8073.5,54.449a3.213,3.213,0,0,1-1.06.41c-.247.078-.5.249-.732.062-1.284-1.027-2.8-.9-4.32-1.437.524-1.139.583-1.237,1.036-.823a2.7,2.7,0,0,0,2.029.617c.585,0,1.171.039,1.754.012C8072.824,53.261,8073.139,53.74,8073.5,54.449Z" fill="#f4f0ed"/><path d="M8070.26,167.933a2.328,2.328,0,0,1,.427,2.434,18.811,18.811,0,0,1-.584,2.82c-.225.289-.366.344-.6.161a19.918,19.918,0,0,1-.225-4.6C8069.51,168.159,8069.759,167.886,8070.26,167.933Z" fill="#f4f0ed"/><path d="M8069.362,149.528a.517.517,0,0,1-.426.152c-.109-2.094-.112-4.189-.124-6.506.135-.795-.04-1.443.39-2.071a.64.64,0,0,1,.377.518A58.587,58.587,0,0,1,8069.362,149.528Z" fill="#f4f0ed"/><path d="M8057.012,192.026c.1,2.512.114,4.945.077,7.6a.5.5,0,0,1-.707-.5,32.654,32.654,0,0,1,.241-6.887C8056.8,192.051,8056.863,192,8057.012,192.026Z" fill="#f4f0ed"/><path d="M8057.428,220.906a.371.371,0,0,1-.415.063c-1.854-.875-1.865-.954-.435-2.75a1.125,1.125,0,0,0,.095-.378,4.105,4.105,0,0,1,.346-2.012c.173-.158.233-.208.379-.178.075.908.063,1.736.059,2.77,0,.592,0,.977.025,1.507A5.644,5.644,0,0,1,8057.428,220.906Z" fill="#f4f0ed"/><path d="M8069.648,200.335a1.26,1.26,0,0,1,.334.822c.036,1.992.045,3.985,0,6.2-.313.125-.616,0-.628-.343C8069.284,204.809,8069,202.6,8069.648,200.335Z" fill="#f4f0ed"/><path d="M8057.006,180.447c.125,1.845.147,3.6.2,5.579.2.756.23,1.273-.324,1.726-.279-.169-.486-.35-.493-.541a28.867,28.867,0,0,1,.192-6.538C8056.767,180.478,8056.835,180.42,8057.006,180.447Z" fill="#f4f0ed"/><path d="M8072.465,183.781c-.39-.11-.461-.466-.471-.854-.023-.83-.046-1.659-.12-2.69a27.848,27.848,0,0,1,.129-2.907c.388-.086.668.163.669.6A26.976,26.976,0,0,1,8072.465,183.781Z" fill="#f4f0ed"/><path d="M8074.327,68.067c-.463-.427-.326-1.086-.341-1.709-.031-1.193-.031-2.388,0-3.8.355-.042.575.259.577.679A18.717,18.717,0,0,1,8074.327,68.067Z" fill="#f4f0ed"/><path d="M8070.7,56.289a17.34,17.34,0,0,1,2.674-.156,4.844,4.844,0,0,1,.276,1.63,2.446,2.446,0,0,1,.064,1.056c-.932.925-1.22-.077-1.741-.784-.4-.163.026-1.418-.861-.735C8070.7,57.1,8070.586,56.809,8070.7,56.289Z" fill="#f4f0ed"/><path d="M8071.487,137.122a13.187,13.187,0,0,1-.2-4.639c.216-.072.481.051.5.212A8.143,8.143,0,0,1,8071.487,137.122Z" fill="#f4f0ed"/><path d="M8072.939,72.622a.64.64,0,0,1-.166-.489c.091-.945.2-.987.874-.366a1.516,1.516,0,0,0,.448.243,9.5,9.5,0,0,1,.163,3.2c-.587.135-.713-.318-.742-.927C8073.488,73.7,8073.682,73,8072.939,72.622Z" fill="#f4f0ed"/><path d="M8060.228,208.411c-.375-.164-.435-.529-.431-.918.011-.988.027-1.976.093-3.172a.411.411,0,0,1,.584.367A7.776,7.776,0,0,1,8060.228,208.411Z" fill="#f4f0ed"/><path d="M8059.978,203.061a.56.56,0,0,1-.458-.645,21.448,21.448,0,0,1,.164-2.464.582.582,0,0,1,.487.631A6.123,6.123,0,0,1,8059.978,203.061Z" fill="#f4f0ed"/><path d="M8073.619,79.713a2.4,2.4,0,0,1,.557-2.264C8074.733,78.744,8074.691,78.929,8073.619,79.713Z" fill="#f4f0ed"/><path d="M8059.079,170.752c-.6-.695-.369-1.649-.3-2.77C8059.4,168.645,8059.236,169.635,8059.079,170.752Z" fill="#f4f0ed"/><path d="M8062.052,56.273c.718.667.48,1.592.275,2.63C8061.539,58.255,8061.812,57.317,8062.052,56.273Z" fill="#f4f0ed"/><path d="M8085.922,220.959a2.541,2.541,0,0,1,.5.931,1.118,1.118,0,0,1-.935,1.2,4.809,4.809,0,0,1-.243-1.439A1.467,1.467,0,0,1,8085.922,220.959Z" fill="#f4f0ed"/><path d="M8056.711,187.945a3.1,3.1,0,0,0,.47-1.544c.911.837.889,1.2-.22,2.356A1.292,1.292,0,0,1,8056.711,187.945Z" fill="#f4f0ed"/><path d="M8088.182,216.6a5.226,5.226,0,0,1-1.247-.8,1.208,1.208,0,0,1-.216-.521C8087.633,215.053,8087.738,215.14,8088.182,216.6Z" fill="#f4f0ed"/><path d="M8073.46,59.17a7.6,7.6,0,0,0,.156-1.052c.661.283.6.955.359,1.777a.2.2,0,0,1-.276.041C8073.428,59.788,8073.337,59.594,8073.46,59.17Z" fill="#f4f0ed"/><path d="M8069.787,196.546c.706.555.709.574.231,1.785C8069.556,197.888,8069.674,197.288,8069.787,196.546Z" fill="#f4f0ed"/><path d="M8070.367,167.848a2.421,2.421,0,0,1-.938.671,1.533,1.533,0,0,1-.226-.823,1.61,1.61,0,0,1,.6-.611C8070.166,167.127,8070.309,167.358,8070.367,167.848Z" fill="#f4f0ed"/><path d="M8060.984,99.924a1.614,1.614,0,0,1,.718-1.275.463.463,0,0,1,.287.679A.927.927,0,0,1,8060.984,99.924Z" fill="#f4f0ed"/><path d="M8084.528,214.051a.8.8,0,0,1-1.122-.146C8083.751,213.286,8084.129,213.445,8084.528,214.051Z" fill="#f4f0ed"/><path d="M8057.576,215.647a.548.548,0,0,1-.355.075,3.735,3.735,0,0,1,.006-1.317C8057.853,214.49,8057.932,214.953,8057.576,215.647Z" fill="#f4f0ed"/><path d="M8086.048,214.645a.789.789,0,0,1-.7-.131C8085.59,213.88,8085.823,214.078,8086.048,214.645Z" fill="#f4f0ed"/><path d="M8061.768,82.194a1.467,1.467,0,0,1-.224-.846C8062.023,81.341,8062.2,81.632,8061.768,82.194Z" fill="#f4f0ed"/><path d="M8069.364,173.384a.531.531,0,0,1,.532-.083,1.6,1.6,0,0,1-.154.884.7.7,0,0,1-.4.086A1.564,1.564,0,0,1,8069.364,173.384Z" fill="#f4f0ed"/><path d="M8057.189,180.448a.67.67,0,0,1-.387.083,1.534,1.534,0,0,1,.1-.883C8057.291,179.711,8057.423,179.96,8057.189,180.448Z" fill="#f4f0ed"/><path d="M8071.218,119.245c-.293-.136-.37-.4-.289-.857C8071.287,118.454,8071.593,118.658,8071.218,119.245Z" fill="#f4f0ed"/><path d="M8059.791,196.9c-.284-.171-.309-.446-.223-.87C8059.989,196.1,8060.241,196.344,8059.791,196.9Z" fill="#f4f0ed"/><path d="M8075.559,227.87c.089-.358.316-.493.733-.438A.487.487,0,0,1,8075.559,227.87Z" fill="#f4f0ed"/><path d="M8088.2,220.147a.763.763,0,0,1,.2-1.012C8088.728,219.491,8088.586,219.8,8088.2,220.147Z" fill="#f4f0ed"/><path d="M8057.181,192.034a.609.609,0,0,1-.348.068,1.647,1.647,0,0,1,.008-.871C8057.248,191.234,8057.482,191.461,8057.181,192.034Z" fill="#f4f0ed"/><path d="M8071.474,149.22a1.44,1.44,0,0,1-.19-.854C8071.893,148.562,8071.893,148.562,8071.474,149.22Z" fill="#f4f0ed"/><path d="M8062.449,53.748a1.5,1.5,0,0,1-.211.87C8061.753,54.243,8061.893,53.954,8062.449,53.748Z" fill="#f4f0ed"/><path d="M8061.8,96.044c-.092.04-.168-.036-.227-.128-.01-.016.048-.1.141-.193C8061.795,95.761,8061.809,95.842,8061.8,96.044Z" fill="#f4f0ed"/><path d="M8056.814,152.923c-.729-.838-.456-1.914-.249-3.107C8057.343,150.643,8057.051,151.727,8056.814,152.923Z" fill="#f4f0ed"/><path d="M8063.076,244.984c-2.52.488-4.907,1-7.454,1.485a.722.722,0,0,1,.478-.834c1.453-.667,2.9-1.369,4.341-2.059.181-.087.37-.275.54-.251,1.162.168,2.1-.623,3.121-1.049a2.525,2.525,0,0,0,1.417-2.881c-.047-.391-.149-.772-.2-1.163-.065-.536.151-1.373-.294-1.527-.79-.272-1.28-1.505-2.362-.942a1.079,1.079,0,0,1-.8-.168c-.633-1.68.489-1.8,1.327-2.365,1.159-.228,2.156-.69,3.287-.115a2.109,2.109,0,0,0,1.033,2.287c3.162,2.016,3.242,3.331.536,6.343a9.155,9.155,0,0,0-.911,1.44,5.269,5.269,0,0,1-1.922,1.354A17.414,17.414,0,0,1,8063.076,244.984Z" fill="#f4f0ed"/><path d="M8057.6,236.6a17.951,17.951,0,0,1,.108-2.445c.675.157.939.741.911,1.7a2.4,2.4,0,0,1,.416,1.872c-.111.683-.089.983.6.56.238.571.292,1.093-.086,1.4a1.381,1.381,0,0,1-1.474.345c-.132-.063-.235-.389-.256-.608C8057.734,238.552,8057.688,237.672,8057.6,236.6Z" fill="#f4f0ed"/><path d="M8063.334,233.361a.981.981,0,0,1-.787.8c-.4.15-.635.5-.74,1.168a5.508,5.508,0,0,1-1.653.216,4.245,4.245,0,0,1-.227-2.294C8061.107,232.168,8062.225,232.126,8063.334,233.361Z" fill="#f4f0ed"/><path d="M8059.777,238.186a4.148,4.148,0,0,1-1.152.8c0-.923,0-1.752,0-2.771a1.685,1.685,0,0,1,1.011-.236A8.406,8.406,0,0,1,8059.777,238.186Z" fill="#f4f0ed"/><path d="M8069.4,136.034c-.4-.09-.518-.445-.515-.857a30.813,30.813,0,0,1,.165-5.106.548.548,0,0,1,.507.6A29.428,29.428,0,0,1,8069.4,136.034Z" fill="#f4f0ed"/><path d="M8069.795,164.961c-.4-.08-.519-.437-.514-.848.017-1.333.047-2.667.168-4.152.376.1.5.456.507.862A17.111,17.111,0,0,1,8069.795,164.961Z" fill="#f4f0ed"/><path d="M8057.525,100.36a2.4,2.4,0,0,1-2.248.56,1.238,1.238,0,0,1-.176-.737c.068-1.717.216-1.929,1.6-2.332.48-.14.708.047.755.673C8057.5,99.066,8057.5,99.612,8057.525,100.36Z" fill="#f4f0ed"/><path d="M8061.507,90.7a8.433,8.433,0,0,1,.249,3.358c-.424.124-.706-.091-.759-.641a7.657,7.657,0,0,0-.274-1.438c-.1-1.36-.1-2.607-.1-3.985.534.384.312.855.355,1.222A2.541,2.541,0,0,0,8061.507,90.7Z" fill="#f4f0ed"/><path d="M8059.967,220.742a.9.9,0,0,0,.5-1.015.808.808,0,0,1,.745-1.08c1.7-.329,3.4-.68,5.111-.945a3.058,3.058,0,0,0,1.793-.729c.427-.4.99-.276,1.666-.446.591.988.45,2.2.934,3.363a.933.933,0,0,0,.7.085c.773-.533.424-1.422.709-2.218.1-.645.153-1.143.252-1.821.848-.29,1.555.216,2.316.381.658.144,1.084.858,1.418,1.543a2.418,2.418,0,0,1-.435,2.571,6.3,6.3,0,0,0-.873.923,1.24,1.24,0,0,1-1.17.667c-1.875-.02-3.7.752-5.594.521-.3-.036-.619.215-.937.264a3.159,3.159,0,0,1-1.531.114c-1.72-.674-3.475-.3-5.379-.443-.42-.083-.54-.28-.436-.771A6.573,6.573,0,0,0,8059.967,220.742Z" fill="#f4f0ed"/><path d="M8073.229,225.706a34.256,34.256,0,0,1-4.262.607.69.69,0,0,1,.2-.84c.222-.161.453-.4.69-.416.929-.082,1.347-1.283,2.165-1.486.752-.187,1.561-.02,2.311-.213.94-.242,1.814-.81,2.782-1a1.009,1.009,0,0,0,.563-.594,8.591,8.591,0,0,0,.071-4.618.663.663,0,0,0-.239-.36c-.531-.43-.973-1.051-1.691-1.071-.425-.012-1,.079-1.009-.737-.007-.62.487-.65.84-.79a7.986,7.986,0,0,1,1.265-.365c.1.825.3,1.35,1.175,1.336a6.023,6.023,0,0,0,1.188.56,3.3,3.3,0,0,0,1.178.57,2.819,2.819,0,0,1,.465,4.547c-.818.774-1.687,1.472-2.6,2.407a3.017,3.017,0,0,1-1.835,1.131C8075.431,224.795,8074.374,225.178,8073.229,225.706Z" fill="#f4f0ed"/><path d="M8068.116,226.65c.364.435.655.674,1.055.692.53.023.944.279,1.23,1.034-.038.221-.116.287-.318.44-2.124,1.89-4.248.745-6.5.442-.876-.435-1.8-.6-1.415-2.132C8064.185,226.882,8066.066,226.761,8068.116,226.65Z" fill="#f4f0ed"/><path d="M8062.129,226.939c-.119,1.108.612,1.226,1.146,1.72-.71,1.83-1.8,1.316-3.022.6a10.249,10.249,0,0,1-.117-2.223A5.238,5.238,0,0,1,8062.129,226.939Z" fill="#f4f0ed"/><path d="M8059.709,221.547a1.316,1.316,0,0,1,.29.764,3.935,3.935,0,0,0,0,1.575,6.686,6.686,0,0,1,.012,2.336c-.439-.047-.567-.451-.561-.955a4.134,4.134,0,0,0-.441-2.2C8058.6,222.351,8058.677,222.288,8059.709,221.547Z" fill="#f4f0ed"/><path d="M8078.2,215.127a.715.715,0,0,1-.564.14c-.725-.076-.725-.08-.584-1.281a1.022,1.022,0,0,1,.762-.158C8078.262,214.152,8078.2,214.571,8078.2,215.127Z" fill="#f4f0ed"/><path d="M8073.422,59.006a1.294,1.294,0,0,1,.21.745c-.494.526-.819,1.389-1.634.841-.378-.254-.713.144-.913.614a3.411,3.411,0,0,0-.307,1.363,21.894,21.894,0,0,0,.057,3.8,4.108,4.108,0,0,1-.665,3.387c.452.556,1.273.567,1.373,1.487.074.684.456,1.284.172,2.072-.131.363.09.909.125,1.375.072.941.064.942,1.143,1.21.119.536.235,1.189-.358,1.374a1.239,1.239,0,0,1-1.6-.453,2.16,2.16,0,0,1-.416-1.968,2.588,2.588,0,0,0-.485-2.625,2.846,2.846,0,0,1-.523-1.961,8.572,8.572,0,0,0-.2-2.6,1.218,1.218,0,0,1,.182-1.109,3.786,3.786,0,0,0,.411-2.276c0-2.555.01-5.11.017-7.887.173-.24.345-.256.647-.259a4.958,4.958,0,0,1,.415.878c.278.272.442.5.814.557.439.055.727.18.828.612A.915.915,0,0,0,8073.422,59.006Z" fill="#f4f0ed"/><path d="M8078.344,223.366a3.63,3.63,0,0,1,2.033-2.8c.367-.2.743-.361.86-.859a3.884,3.884,0,0,0-.072-2.321,1,1,0,0,0-.774-.637c-.379-.076-.788-.075-.966-.822,1.446-.372,2.54.643,3.668,1.581,0,.707-.627.959-.771,1.581s-.36,1.192-.538,1.79a2.381,2.381,0,0,1-1.625,1.847C8079.592,222.874,8079.047,223.148,8078.344,223.366Z" fill="#f4f0ed"/><path d="M8070.016,80.542a6.5,6.5,0,0,1-2.206.581,2.315,2.315,0,0,1-.184-.992c-.015-1.772.13-1.606,1.533-2.189.408-.17.763.161.808.723S8070.006,79.779,8070.016,80.542Z" fill="#f4f0ed"/><path d="M8070.813,219.8c-.4.281-.6.007-.642-.409-.091-.836-.144-1.679-.215-2.716a16.056,16.056,0,0,1,.2-1.832c.483.056.615.469.621.977C8070.793,217.075,8070.806,218.331,8070.813,219.8Z" fill="#f4f0ed"/><path d="M8072.043,217.662c.277.782.543,1.644-.37,2.262C8071.641,219.178,8071.338,218.328,8072.043,217.662Z" fill="#f4f0ed"/><path d="M8068.567,103.472c.939.709.73,1.731.135,2.856A5.141,5.141,0,0,1,8068.567,103.472Z" fill="#f4f0ed"/><path d="M8057.576,219.976c-.416-.26-.384-.693-.186-1.247C8057.84,218.971,8057.856,219.4,8057.576,219.976Z" fill="#f4f0ed"/><path d="M8059.839,229.711c.256.193.266.473.144.881C8059.509,230.483,8059.45,230.17,8059.839,229.711Z" fill="#f4f0ed"/><path d="M8062.942,245.144c.409-.913,1.043-.935,1.807-.989,1.946-.135,3.651-.991,5.576-1.006.033,1.2-.671,1.508-1.335,1.826a13.063,13.063,0,0,0-3.024,1.48,3.035,3.035,0,0,0-2.482-.211C8062.886,246.32,8062.977,245.763,8062.942,245.144Z" fill="#f4f0ed"/><path d="M8066.429,233.581a.866.866,0,0,1,.707-.086c1.926,1.689,3.9,2.428,6.248,1.71.319.079.65.2.717.441.3,1.049.519,2.131.773,3.2a.948.948,0,0,1-.246.85,2.982,2.982,0,0,1-2.031,1.135c-1.939.971-3.445,2.9-5.746,2.412a3.351,3.351,0,0,1,1.749-2.7c1.274-.653,1.209-3.112-.007-3.906-.851-.555-1.762-.968-2.639-1.464-.222-.125-.518-.233-.479-.647.036-.385.328-.43.556-.558A1.389,1.389,0,0,0,8066.429,233.581Z" fill="#f4f0ed"/><path d="M8073.383,235.06c.1.127.113.226.079.28-.442.681-2.008,1.317-2.542.89a3.517,3.517,0,0,0-1.975-.8,3.792,3.792,0,0,1-1.279-.507c-.345-.175-.386-.59-.4-1.184a12.619,12.619,0,0,1,2.542-.295,5.19,5.19,0,0,1,1.2.277,6.537,6.537,0,0,0,1.58.744A4.417,4.417,0,0,0,8073.383,235.06Z" fill="#f4f0ed"/><path d="M8066.625,243.123a6.65,6.65,0,0,0,3.2-1.235c.747-.427,1.415-1.137,2.474-1.064a1.565,1.565,0,0,1-.272.834c-.409.512-.736.937-1.159,1.451a.573.573,0,0,1-.338.148c-.333.078-.642.049-.819.223a2.386,2.386,0,0,1-1.991.707,3.264,3.264,0,0,0-1.9.354c-.249.138-.5.054-.836-.248A6.305,6.305,0,0,1,8066.625,243.123Z" fill="#f4f0ed"/><path d="M8070.916,243.2a1.106,1.106,0,0,1,.925-1.406A1.13,1.13,0,0,1,8070.916,243.2Z" fill="#f4f0ed"/><path d="M8072.679,234.509c-.5-.042-1.078.219-1.482-.58.455-.359.847.032,1.4.284A.265.265,0,0,1,8072.679,234.509Z" fill="#f4f0ed"/><path d="M8071.984,57.434a2.259,2.259,0,0,1-.074.553c-.061.227-.176.39-.387.347s-.289-.229-.315-.463c-.016-.148-.024-.3-.041-.61C8071.453,57.035,8071.807,56.618,8071.984,57.434Z" fill="#f4f0ed"/></g></svg>