<?xml version="1.0" encoding="UTF-8" standalone="no"?>
<!-- Created with Inkscape (http://www.inkscape.org/) -->

<svg
   version="1.1"
   id="svg50"
   width="1037.9087"
   height="534.34668"
   viewBox="0 0 1037.9087 534.34668"
   sodipodi:docname="kringsalm правки.ai"
   xmlns:inkscape="http://www.inkscape.org/namespaces/inkscape"
   xmlns:sodipodi="http://sodipodi.sourceforge.net/DTD/sodipodi-0.dtd"
   xmlns="http://www.w3.org/2000/svg"
   xmlns:svg="http://www.w3.org/2000/svg">
  <defs
     id="defs54">
    <clipPath
       clipPathUnits="userSpaceOnUse"
       id="clipPath22460">
      <path
         d="M 0,4418.5 H 1920 V 0 H 0 Z"
         id="path22458" />
    </clipPath>
    <clipPath
       clipPathUnits="userSpaceOnUse"
       id="clipPath22476">
      <path
         d="M 0,4418.5 H 1920 V 0 H 0 Z"
         id="path22474" />
    </clipPath>
  </defs>
  <sodipodi:namedview
     id="namedview52"
     pagecolor="#ffffff"
     bordercolor="#000000"
     borderopacity="0.25"
     inkscape:showpageshadow="2"
     inkscape:pageopacity="0.0"
     inkscape:pagecheckerboard="0"
     inkscape:deskcolor="#d1d1d1"
     showgrid="false" />
  <g
     id="g21576"
     inkscape:groupmode="layer"
     inkscape:label="Page 3"
     transform="matrix(1.3333333,0,0,-1.3333333,-750.02734,905.9998)">
    <g
       id="g22454">
      <g
         id="g22456"
         clip-path="url(#clipPath22460)">
        <g
           id="g22462"
           transform="translate(565.5204,412.5769)">
          <path
             d="m 0,0 v 0.328 l 6.399,8.774 1.114,2.337 0.325,1.607 1.339,2.766 2.653,3.341 1.405,3.095 0.039,6.017 -3.456,2.797 -3.043,1.556 -2.098,2.913 -1.19,1.499 -0.405,3.233 6.233,-1.817 4.744,0.285 3.902,0.997 2.811,4.276 2.879,3.567 2.95,0.969 2.448,-1.738 0.524,-2.723 0.013,-2.104 2.379,-1.559 2.21,1.149 2.287,-0.678 4.511,-0.51 1.374,0.459 0.824,0.482 0.366,-2.708 3.292,-4.662 0.184,-1.23 1.037,-0.755 3.104,1.526 5.263,-7.893 -0.668,-3.165 -1.561,-1.247 1.341,-3.183 0.317,-2.123 1.569,-1.434 2.584,1.311 0.979,-0.462 1.563,0.299 1.639,1.185 3.143,0.568 2.526,-1.001 -0.325,-3.666 -1.368,-3.447 -0.419,-3.848 -2.207,-1.24 -0.942,-2.577 0.92,-0.099 4.886,0.566 6.417,2.25 3.519,2.39 3.731,4.934 1.242,2.495 1.173,1.871 2.377,0.987 1.944,1.426 2.171,3.652 1.383,6.985 -1.247,3.022 -1.962,2.511 0.619,3.75 0.03,3.505 -1.334,3.201 -0.156,1.292 4.356,1.173 0.745,-2.219 -1.067,-1.559 V 42.55 l 1.087,-1.047 2.493,-1.163 3.39,-0.583 2.401,0.763 2.343,2.942 2.027,1.254 3.54,-0.486 10.565,-4.025 2.176,-1.808 1.609,-0.88 3.96,0.923 3.305,1.426 3.413,-0.503 2.251,-1.695 -3.92,-3.38 1.364,-1.448 3.423,-1.58 1.586,-1.117 3.803,-4.078 0.728,-3.314 -0.089,-2.441 3.692,-1.253 7.382,-0.039 4.587,1.429 7.093,4.217 2.899,-0.849 V 20.07 l 2.332,-0.581 5.981,5.524 3.057,1.362 3.11,0.136 2.377,0.61 0.903,2.216 -2.761,1.496 4.516,4.986 2.513,1.396 5.334,-1.477 6.237,1.641 2.867,4.076 0.796,3.686 1.718,1.821 2.146,1.847 19.304,-1.954 1.871,0.368 0.66,1.64 1.369,1.311 6.245,1.358 25.033,-0.561 1.828,0.85 1.715,2.199 1.042,2.856 -0.132,3.932 -0.702,1.422 -1.874,1.872 -0.129,2.117 6.306,3.715 -1.949,-4.98 1.477,-2.873 2.568,0.886 3.03,0.825 6.548,-1.465 4.015,1.658 2.485,0.066 1.02,-1.214 0.851,-3.3 2.6,-2.615 2.816,-2.227 h 4.103 l 2.939,1.817 4.426,3.617 6.143,1.522 7.009,-1.539 2.64,0.252 -0.913,-2.628 1.473,-2.302 2.531,-1.295 1.942,-2.137 -2.831,-1.164 -1.395,-3.364 1.018,-3.888 1.865,-1.512 3.007,-1.316 5.353,-5.84 5.17,-4.022 3.499,0.893 2.245,-1.467 1.994,0.748 2.035,2.36 0.586,2.713 -0.954,2.885 0.569,3.187 0.768,4.291 -0.006,1.244 2.34,3.792 0.48,1.22 0.652,5.432 -1.898,4.38 -2.873,4.349 -2.02,0.391 -4.496,-1.225 -4.583,0.839 -1.524,0.851 -0.906,1.071 1.932,3.034 0.997,4.319 6.989,11.108 -2.444,3.204 -3.039,7.257 -2.45,2.992 -3.911,3.187 -1.828,1.428 -0.785,2.855 -2.861,5.602 -5.333,5.567 -1.64,2.094 -1.556,3.888 0.649,2.819 2.056,0.843 1.805,2.59 5.67,4.55 2.28,3.561 3.706,1.447 3.58,0.708 9.765,7.93 10.843,4.438 13.888,2.514 4.367,2.501 8.682,7.675 1.805,2.954 1.978,7.813 -0.406,3.568 1.208,3.489 0.945,2.091 -0.269,3.61 -0.64,1.658 -0.604,3.134 1.705,2.001 6.157,1.565 10.266,-2.769 4.767,-3.528 0.904,-1.138 4.065,-1.777 1.811,5.304 1.574,0.299 3.03,2.195 1.635,3.578 0.931,7.899 -0.512,4.635 1.322,2.299 -2.958,3.412 3.188,7.288 6.869,-2.674 3.586,-3.235 5.488,-2.597 2.357,-2.202 1.523,-2.527 1.215,-1.28 0.914,-2.435 -0.964,-0.288 -1.606,-2.257 2.809,-5.453 4.842,-1.671 14.764,-1.986 8.542,-3.073 2.536,0.823 6.06,3.177 2.615,2.789 1.493,3.991 2.036,2.09 1.92,-2.611 4.018,-2.006 1.972,-0.62 5.128,1.937 1.367,-1.036 0.115,-1.305 1.143,-0.826 0.939,0.288 1.683,-0.613 1.689,-3.123 2.213,-0.037 0.921,1.051 0.903,1.844 0.782,11.751 2.599,3.748 3.828,3.348 0.754,1.019 2.072,7.12 2.632,1.02 4.361,-0.691 4.95,-2.189 2.588,0.458 1.027,2.31 -1.369,3.164 0.612,2.345 2.143,8.747 -0.179,14.901 1.773,5.657 1.241,0.539 h 1.642 l 5.681,-1.956 7.373,-0.668 0.947,-4.236 0.074,-2.62 -0.739,-1.559 2.768,0.042 6.479,1.778 1.157,0.561 1.872,3.505 0.119,0.808 0.76,0.734 0.831,-0.389 1.027,-1.323 3.155,0.006 3.257,-0.614 13.068,-6.077 3.257,-2.97 2.228,-1.111 16.565,-7.752 4.186,0.492 2.284,1.213 2.191,0.995 3.3,-0.134 0.937,-1.471 0.261,-0.776 1.077,-0.909 4.442,-1.433 -0.357,-0.946 1.644,-0.071 1.241,-1.861 0.147,-0.18 0.756,0.048 1.209,-1.056 -0.093,-1.461 10.906,-7.365 4.211,-1.826 10.052,0.16 14.879,-1.72 2.327,-0.6 1.82,-0.299 2.256,2.02 5.365,8.596 2.505,0.39 1.976,-0.423 1.856,0.786 2.954,-0.248 1.404,-0.832 9.364,-2.768 1.248,-2.713 0.9,-3.335 2.117,-0.787 2.931,-0.051 4.32,-1.164 3.927,-2.347 2.942,0.287 2.312,0.833 2.956,0.06 1.935,-2.727 0.466,-1.362 1.049,-7.8 1.141,-2.468 2.049,-2.349 0.665,-1.457 0.648,-5.043 -1.748,-5.218 -2.27,-1.643 -4.841,-9.027 -2.064,-13.904 0.504,-1.853 2.86,-0.703 2.373,-2.058 0.223,-2.025 -0.489,-1.343 1.763,-4.047 2.744,-1.691 1.114,-2.278 2.029,-12.203 0.596,-3.606 1.947,-1.677 5.22,-3.298 2.879,-4.386 -1.511,-2.538 -0.515,-2.881 1.471,-1.384 -0.391,-2.451 4.54,-2.141 3.061,-2.664 -5.943,-5.101 0.383,-0.586 0.285,-2.095 -1.824,-2.975 -0.122,-0.385 0.498,-0.551 0.775,-0.532 -0.883,-4.389 -1.686,-2.066 -2.334,-1.398 -1.44,-0.319 -1.858,-0.825 -0.336,-1.807 2.709,-1.311 1.356,-1.547 1.152,-3.071 -1.408,-1.757 1.064,-9.828 0.543,-2.346 1.744,-1.567 -15.356,-3.491 -2.215,-0.41 -3.528,0.725 -1.603,3.596 -1.756,-1.787 -1.654,-2.439 -2.576,-1.011 -4.531,0.732 -2.618,1.667 -1.77,4.559 -2.633,1.603 -5.66,2.17 -5.001,0.823 -3.178,-1.222 -1.062,-1.162 -0.167,-1.597 -1.652,-3.283 -5.873,-3.419 -1.378,1.059 -2.889,-4.036 7.089,-3.163 h 4.048 l 4.24,-1.758 2.849,-0.302 0.971,0.152 1.904,-0.279 3.021,-3.273 0.383,-5.519 0.179,-0.176 2.676,-2.739 0.821,-3.135 -2.302,-3.072 -0.76,-0.305 -2.083,-1.857 0.353,-5.824 -6.259,-4.538 -9.872,-4.416 -0.843,1.286 -1.143,1.142 -1.547,0.391 -1.477,-1.969 0.529,-6.051 -0.736,-0.598 -0.778,-1.065 2.19,-2.39 2.86,-6.938 -1.273,-3.677 -3.871,-2.598 0.504,-2.616 -2.052,-2.544 0.739,-3.036 1.951,-0.343 0.97,-1.278 -0.715,-4.335 1.227,-0.793 2.391,1.111 2.801,0.124 0.588,-0.806 0.243,-1.984 -0.3,-0.756 -4.642,-4.563 -0.493,-1.806 1.01,-1.865 2.71,-1.14 0.334,-1.281 -4.967,-2.875 -1.499,-1.3 3.101,-0.61 2.616,-3.272 -6.274,-1.009 -1.798,0.119 -1.177,0.89 -1.803,0.648 -6.514,-0.072 -1.445,0.295 -2.02,0.065 -1.067,-0.985 -0.334,-1.856 -1.527,-1.901 -0.156,-0.051 -1.101,-0.869 -1.273,-3.728 -4.636,-2.509 -2.441,-2.886 -2.63,-3.564 -2.255,-2.1 -7.575,-3.828 -3.4,-1.163 -2.626,-1.724 0.651,-2.589 -0.371,-2.431 -0.526,-5.648 1.09,-3.24 1.261,-1.623 1.183,-0.862 1.257,-5.512 -0.979,1.18 -1.842,1.85 -4.439,0.764 -5.512,2.865 -3.508,1.377 -4.569,-1.084 -4.247,-1.737 -4.174,-0.528 -8.998,1.762 -0.18,-0.656 -0.194,-2.448 -1.498,-2.394 -2.263,-0.552 -3.257,0.08 -2.872,-0.895 -1.434,-3.011 -0.257,-1.118 -1.749,-2.668 -3.062,-1.02 -1.551,0.273 -2.635,1.938 -3.017,1.913 -3.119,0.194 -16.835,-0.833 -15.017,1.2 -4.066,-1.268 -1.405,-1.038 -3.313,-4.529 -1.899,2.581 -2.439,-0.254 -1.514,-0.977 -2.439,-0.855 -1.635,-0.008 -2.236,-1.083 -2.76,-4.62 -2.537,-7.499 -1.843,-1.947 -1.05,-0.459 -4.033,-0.123 -2.095,-1.312 -2.612,-4.09 h -1.622 l -1.275,-1.35 -3.856,-1.879 -1.289,-0.182 -1.08,-0.675 -1.659,-2.98 -1.341,-3.964 -1.822,-0.828 -4.023,5.717 -2.215,-0.498 -3.509,0.306 -1.342,0.611 -1.975,1.824 -1.982,1.023 -23.865,-0.046 -2.811,1.127 -3.969,3.438 -3.501,1.887 -3.188,-0.093 -1.133,-0.183 -4.272,0.594 -6.666,3.155 -3.287,1.205 -2.77,-0.383 -4.529,-0.749 -12.457,1.503 -11.84,3.732 -4.376,0.417 -3.338,2.291 -2.188,0.05 -8.727,0.524 -13.602,-2.098 -1.577,0.345 -8.045,4.544 -8.207,1.887 -22.121,1.534 -2.439,0.821 -6.68,3.756 -5.789,0.185 -2.782,1.67 -6.688,0.338 -2.924,-0.401 -4.656,1.03 -1.766,1.194 -9.191,2.717 -4.791,3.64 -2.607,6.864 -1.433,1.849 -4.945,1.623 -1.622,1.164 -0.05,1.611 0.956,6.748 -0.568,2.051 -1.395,1.818 -1.801,0.608 -2.623,0.075 -1.613,0.424 -2.908,2.997 -3.959,1.435 0.683,0.799 0.449,2.247 -2.87,9.324 0.602,1.575 1.481,1.642 2.874,1.58 3.833,3.436 0.371,0.541 0.177,0.449 -0.12,3.559 -1.591,0.573 -0.952,0.142 -5.945,-1.193 -9.331,-4.777 -2.015,-0.597 -6.218,-0.329 -5.453,-2.024 -7.141,-4.541 -4.595,-0.711 -2.184,-1.932 -0.128,-0.102 -2.459,-0.384 -4.83,2.664 -7.166,1.235 -4.206,-0.177 -2.931,-1.019 -2.548,-0.131 -4.076,2.636 -2.425,-1.656 -3.301,-3.394 -1.188,-0.396 -8.104,2.082 -6.155,-0.246 -8.019,-2.598 -3.457,-2.117 -4.995,-4.984 -1.656,-2.957 -3.046,-8.764 -0.618,-3.902 -2.113,-2.182 -1.83,-2.911 -3.447,-1.078 -4.138,0.718 -6.25,-1.442 -3.926,2.181 -4.574,0.068 -1.708,0.978 -2.657,0.279 -2.17,-0.167 -0.536,1.199 3.047,3.522 -2.022,2.207 -5.49,3.281 -2.273,0.942 -12.872,-2.848 -3.983,0.443 -2.469,2.143 -0.511,0.463 -0.45,2.09 0.63,3.061 0.432,1.749 -0.226,3.075 -1.547,2.271 -2.803,1.34 -3.544,5.528 -1.223,0.218 -3.449,-2.168 -3.308,-4.652 -0.716,-3.78 -0.751,-0.154 -3.09,0.239 -2.853,-1.227 -1.389,-4.135 -2.237,-3.626 -2.785,-1.393 -4.586,-1.006 -3.783,1.003 -4.622,2.687 -2.136,2.037 -1.955,1.125 -9.286,2.948 -3.544,2.76 -0.711,2.533 0.735,7.458 -1.164,0.632 -0.083,1.639 -18.521,5.93 -3.233,0.236 -3.417,-0.421 -2.479,0.601 0.911,1.228 2.302,5.267 -0.025,1.287 -2.359,5.325 -2.152,1.955 -1.99,1.686 0.946,2.872 -0.224,2.473 -0.844,1.4 -1.077,1.88 0.816,1.939 -2.517,2.825 z"
             style="fill:none;stroke:#48424c;stroke-width:6;stroke-linecap:butt;stroke-linejoin:miter;stroke-miterlimit:10;stroke-dasharray:none;stroke-opacity:1"
             id="path22464" />
        </g>
      </g>
    </g>
    <text
       xml:space="preserve"
       transform="matrix(1,0,0,-1,962.6838,404.8115)"
       style="font-variant:normal;font-weight:normal;font-stretch:normal;font-size:33px;font-family:'PT Serif';-inkscape-font-specification:PTSerif-Regular;writing-mode:lr-tb;fill:#48424c;fill-opacity:1;fill-rule:nonzero;stroke:none"
       id="text22468"><tspan
         x="0 24.42 42.404999 59.004002 71.676003 83.918999 100.584 119.526 136.125 148.797"
         y="0"
         sodipodi:role="line"
         id="tspan22466">Obertauern</tspan></text>
    <g
       id="g22470">
      <g
         id="g22472"
         clip-path="url(#clipPath22476)">
        <g
           id="g22478"
           transform="translate(948.9425,412.5)">
          <path
             d="m 0,0 c 0,-3.314 -2.686,-6 -6,-6 -3.314,0 -6,2.686 -6,6 0,3.314 2.686,6 6,6 3.314,0 6,-2.686 6,-6"
             style="fill:#48424c;fill-opacity:1;fill-rule:nonzero;stroke:none"
             id="path22480"
             inkscape:export-filename="path22480.svg"
             inkscape:export-xdpi="96"
             inkscape:export-ydpi="96" />
        </g>
      </g>
    </g>
  </g>
</svg>
